<svg xmlns="http://www.w3.org/2000/svg" width="73.692" height="194.127" viewBox="0 0 73.692 194.127">
  <g id="Group_1057" data-name="Group 1057" transform="translate(-1845.436 -341.937)">
    <g id="Layer_2" data-name="Layer 2" transform="translate(1845.436 341.937)">
      <g id="Layer_1" data-name="Layer 1" transform="translate(0 0)">
        <ellipse id="Ellipse_169" data-name="Ellipse 169" cx="1.797" cy="1.797" rx="1.797" ry="1.797" transform="translate(0)" fill="#f63b45"/>
        <ellipse id="Ellipse_170" data-name="Ellipse 170" cx="1.797" cy="1.797" rx="1.797" ry="1.797" transform="translate(17.514)" fill="#f63b45"/>
        <ellipse id="Ellipse_171" data-name="Ellipse 171" cx="1.797" cy="1.797" rx="1.797" ry="1.797" transform="translate(35.009)" fill="#f63b45"/>
        <ellipse id="Ellipse_172" data-name="Ellipse 172" cx="1.797" cy="1.797" rx="1.797" ry="1.797" transform="translate(52.523)" fill="#f63b45"/>
        <ellipse id="Ellipse_173" data-name="Ellipse 173" cx="1.797" cy="1.797" rx="1.797" ry="1.797" transform="translate(70.038)" fill="#f63b45"/>
        <ellipse id="Ellipse_174" data-name="Ellipse 174" cx="1.797" cy="1.797" rx="1.797" ry="1.797" transform="translate(0 17.514)" fill="#f63b45"/>
        <ellipse id="Ellipse_175" data-name="Ellipse 175" cx="1.797" cy="1.797" rx="1.797" ry="1.797" transform="translate(17.514 17.514)" fill="#f63b45"/>
        <ellipse id="Ellipse_176" data-name="Ellipse 176" cx="1.797" cy="1.797" rx="1.797" ry="1.797" transform="translate(35.009 17.514)" fill="#f63b45"/>
        <ellipse id="Ellipse_177" data-name="Ellipse 177" cx="1.797" cy="1.797" rx="1.797" ry="1.797" transform="translate(52.523 17.514)" fill="#f63b45"/>
        <ellipse id="Ellipse_178" data-name="Ellipse 178" cx="1.797" cy="1.797" rx="1.797" ry="1.797" transform="translate(70.038 17.514)" fill="#f63b45"/>
        <ellipse id="Ellipse_179" data-name="Ellipse 179" cx="1.797" cy="1.797" rx="1.797" ry="1.797" transform="translate(0 35.009)" fill="#f63b45"/>
        <ellipse id="Ellipse_180" data-name="Ellipse 180" cx="1.797" cy="1.797" rx="1.797" ry="1.797" transform="translate(17.514 35.009)" fill="#f63b45"/>
        <ellipse id="Ellipse_181" data-name="Ellipse 181" cx="1.797" cy="1.797" rx="1.797" ry="1.797" transform="translate(35.009 35.009)" fill="#f63b45"/>
        <ellipse id="Ellipse_182" data-name="Ellipse 182" cx="1.797" cy="1.797" rx="1.797" ry="1.797" transform="translate(52.523 35.009)" fill="#f63b45"/>
        <ellipse id="Ellipse_183" data-name="Ellipse 183" cx="1.797" cy="1.797" rx="1.797" ry="1.797" transform="translate(70.038 35.009)" fill="#f63b45"/>
        <path id="Path_2567" data-name="Path 2567" d="M1.8,29.895A1.8,1.8,0,1,0,0,28.1a1.8,1.8,0,0,0,1.8,1.8Z" transform="translate(0 26.223)" fill="#f63b45"/>
        <path id="Path_2568" data-name="Path 2568" d="M10.567,29.895a1.8,1.8,0,1,0-1.8-1.8,1.8,1.8,0,0,0,1.8,1.8Z" transform="translate(8.744 26.223)" fill="#f63b45"/>
        <path id="Path_2569" data-name="Path 2569" d="M19.327,29.895a1.8,1.8,0,1,0-1.8-1.8,1.8,1.8,0,0,0,1.8,1.8Z" transform="translate(17.479 26.223)" fill="#f63b45"/>
        <path id="Path_2570" data-name="Path 2570" d="M28.1,29.895a1.8,1.8,0,1,0-1.8-1.8,1.8,1.8,0,0,0,1.8,1.8Z" transform="translate(26.223 26.223)" fill="#f63b45"/>
        <path id="Path_2571" data-name="Path 2571" d="M36.9,29.895a1.8,1.8,0,1,0-1.8-1.8,1.8,1.8,0,0,0,1.8,1.8Z" transform="translate(34.997 26.223)" fill="#f63b45"/>
        <ellipse id="Ellipse_184" data-name="Ellipse 184" cx="1.797" cy="1.797" rx="1.797" ry="1.797" transform="translate(0 70.038)" fill="#f63b45"/>
        <ellipse id="Ellipse_185" data-name="Ellipse 185" cx="1.797" cy="1.797" rx="1.797" ry="1.797" transform="translate(17.514 70.038)" fill="#f63b45"/>
        <ellipse id="Ellipse_186" data-name="Ellipse 186" cx="1.797" cy="1.797" rx="1.797" ry="1.797" transform="translate(35.009 70.038)" fill="#f63b45"/>
        <ellipse id="Ellipse_187" data-name="Ellipse 187" cx="1.797" cy="1.797" rx="1.797" ry="1.797" transform="translate(52.523 70.038)" fill="#f63b45"/>
        <ellipse id="Ellipse_188" data-name="Ellipse 188" cx="1.797" cy="1.797" rx="1.797" ry="1.797" transform="translate(70.038 70.038)" fill="#f63b45"/>
        <ellipse id="Ellipse_189" data-name="Ellipse 189" cx="1.797" cy="1.797" rx="1.797" ry="1.797" transform="translate(0 87.532)" fill="#f63b45"/>
        <ellipse id="Ellipse_190" data-name="Ellipse 190" cx="1.797" cy="1.797" rx="1.797" ry="1.797" transform="translate(17.514 87.532)" fill="#f63b45"/>
        <ellipse id="Ellipse_191" data-name="Ellipse 191" cx="1.797" cy="1.797" rx="1.797" ry="1.797" transform="translate(35.009 87.532)" fill="#f63b45"/>
        <ellipse id="Ellipse_192" data-name="Ellipse 192" cx="1.797" cy="1.797" rx="1.797" ry="1.797" transform="translate(52.523 87.532)" fill="#f63b45"/>
        <ellipse id="Ellipse_193" data-name="Ellipse 193" cx="1.797" cy="1.797" rx="1.797" ry="1.797" transform="translate(70.038 87.532)" fill="#f63b45"/>
      </g>
    </g>
    <g id="Layer_2-2" data-name="Layer 2" transform="translate(1845.436 444.937)">
      <g id="Layer_1-2" data-name="Layer 1" transform="translate(0 0)">
        <ellipse id="Ellipse_169-2" data-name="Ellipse 169" cx="1.797" cy="1.797" rx="1.797" ry="1.797" transform="translate(0)" fill="#f63b45"/>
        <ellipse id="Ellipse_170-2" data-name="Ellipse 170" cx="1.797" cy="1.797" rx="1.797" ry="1.797" transform="translate(17.514)" fill="#f63b45"/>
        <ellipse id="Ellipse_171-2" data-name="Ellipse 171" cx="1.797" cy="1.797" rx="1.797" ry="1.797" transform="translate(35.009)" fill="#f63b45"/>
        <ellipse id="Ellipse_172-2" data-name="Ellipse 172" cx="1.797" cy="1.797" rx="1.797" ry="1.797" transform="translate(52.523)" fill="#f63b45"/>
        <ellipse id="Ellipse_173-2" data-name="Ellipse 173" cx="1.797" cy="1.797" rx="1.797" ry="1.797" transform="translate(70.038)" fill="#f63b45"/>
        <ellipse id="Ellipse_174-2" data-name="Ellipse 174" cx="1.797" cy="1.797" rx="1.797" ry="1.797" transform="translate(0 17.514)" fill="#f63b45"/>
        <ellipse id="Ellipse_175-2" data-name="Ellipse 175" cx="1.797" cy="1.797" rx="1.797" ry="1.797" transform="translate(17.514 17.514)" fill="#f63b45"/>
        <ellipse id="Ellipse_176-2" data-name="Ellipse 176" cx="1.797" cy="1.797" rx="1.797" ry="1.797" transform="translate(35.009 17.514)" fill="#f63b45"/>
        <ellipse id="Ellipse_177-2" data-name="Ellipse 177" cx="1.797" cy="1.797" rx="1.797" ry="1.797" transform="translate(52.523 17.514)" fill="#f63b45"/>
        <ellipse id="Ellipse_178-2" data-name="Ellipse 178" cx="1.797" cy="1.797" rx="1.797" ry="1.797" transform="translate(70.038 17.514)" fill="#f63b45"/>
        <ellipse id="Ellipse_179-2" data-name="Ellipse 179" cx="1.797" cy="1.797" rx="1.797" ry="1.797" transform="translate(0 35.009)" fill="#f63b45"/>
        <ellipse id="Ellipse_180-2" data-name="Ellipse 180" cx="1.797" cy="1.797" rx="1.797" ry="1.797" transform="translate(17.514 35.009)" fill="#f63b45"/>
        <ellipse id="Ellipse_181-2" data-name="Ellipse 181" cx="1.797" cy="1.797" rx="1.797" ry="1.797" transform="translate(35.009 35.009)" fill="#f63b45"/>
        <ellipse id="Ellipse_182-2" data-name="Ellipse 182" cx="1.797" cy="1.797" rx="1.797" ry="1.797" transform="translate(52.523 35.009)" fill="#f63b45"/>
        <ellipse id="Ellipse_183-2" data-name="Ellipse 183" cx="1.797" cy="1.797" rx="1.797" ry="1.797" transform="translate(70.038 35.009)" fill="#f63b45"/>
        <path id="Path_2567-2" data-name="Path 2567" d="M1.8,29.895A1.8,1.8,0,1,0,0,28.1a1.8,1.8,0,0,0,1.8,1.8Z" transform="translate(0 26.223)" fill="#f63b45"/>
        <path id="Path_2568-2" data-name="Path 2568" d="M10.567,29.895a1.8,1.8,0,1,0-1.8-1.8,1.8,1.8,0,0,0,1.8,1.8Z" transform="translate(8.744 26.223)" fill="#f63b45"/>
        <path id="Path_2569-2" data-name="Path 2569" d="M19.327,29.895a1.8,1.8,0,1,0-1.8-1.8,1.8,1.8,0,0,0,1.8,1.8Z" transform="translate(17.479 26.223)" fill="#f63b45"/>
        <path id="Path_2570-2" data-name="Path 2570" d="M28.1,29.895a1.8,1.8,0,1,0-1.8-1.8,1.8,1.8,0,0,0,1.8,1.8Z" transform="translate(26.223 26.223)" fill="#f63b45"/>
        <path id="Path_2571-2" data-name="Path 2571" d="M36.9,29.895a1.8,1.8,0,1,0-1.8-1.8,1.8,1.8,0,0,0,1.8,1.8Z" transform="translate(34.997 26.223)" fill="#f63b45"/>
        <ellipse id="Ellipse_184-2" data-name="Ellipse 184" cx="1.797" cy="1.797" rx="1.797" ry="1.797" transform="translate(0 70.038)" fill="#f63b45"/>
        <ellipse id="Ellipse_185-2" data-name="Ellipse 185" cx="1.797" cy="1.797" rx="1.797" ry="1.797" transform="translate(17.514 70.038)" fill="#f63b45"/>
        <ellipse id="Ellipse_186-2" data-name="Ellipse 186" cx="1.797" cy="1.797" rx="1.797" ry="1.797" transform="translate(35.009 70.038)" fill="#f63b45"/>
        <ellipse id="Ellipse_187-2" data-name="Ellipse 187" cx="1.797" cy="1.797" rx="1.797" ry="1.797" transform="translate(52.523 70.038)" fill="#f63b45"/>
        <ellipse id="Ellipse_188-2" data-name="Ellipse 188" cx="1.797" cy="1.797" rx="1.797" ry="1.797" transform="translate(70.038 70.038)" fill="#f63b45"/>
        <ellipse id="Ellipse_189-2" data-name="Ellipse 189" cx="1.797" cy="1.797" rx="1.797" ry="1.797" transform="translate(0 87.532)" fill="#f63b45"/>
        <ellipse id="Ellipse_190-2" data-name="Ellipse 190" cx="1.797" cy="1.797" rx="1.797" ry="1.797" transform="translate(17.514 87.532)" fill="#f63b45"/>
        <ellipse id="Ellipse_191-2" data-name="Ellipse 191" cx="1.797" cy="1.797" rx="1.797" ry="1.797" transform="translate(35.009 87.532)" fill="#f63b45"/>
        <ellipse id="Ellipse_192-2" data-name="Ellipse 192" cx="1.797" cy="1.797" rx="1.797" ry="1.797" transform="translate(52.523 87.532)" fill="#f63b45"/>
        <ellipse id="Ellipse_193-2" data-name="Ellipse 193" cx="1.797" cy="1.797" rx="1.797" ry="1.797" transform="translate(70.038 87.532)" fill="#f63b45"/>
      </g>
    </g>
  </g>
</svg>
