<svg xmlns="http://www.w3.org/2000/svg" data-name="Layer 2" width="338.505" height="414.381" viewBox="0 0 338.5 414.381">
  <path data-name="Path 510" d="M265.895 398.585c0 6.245-34.129 11.023-76.221 11.023s-76.252-4.934-76.252-11.023a3.122 3.122 0 0 1 1.062-2.061c5.745-6.245 33.755-15.425 68.258-16.612h11.21c36.034.593 65.167 10.46 70.881 16.705a3.123 3.123 0 0 1 1.062 1.968Z"/>
  <path data-name="Path 511" d="M264.834 396.618c-6.245 4.215-37.47 7.432-75.159 7.432s-69.1-3.123-75.191-7.432c5.745-6.245 33.755-15.425 68.258-16.612h11.21c36.034.5 65.168 10.367 70.882 16.612Z" fill="#222"/>
  <path data-name="Rectangle 400" fill="#222" d="M173.031 327.766h33.255v58.11h-33.255z"/>
  <path data-name="Path 512" d="M282.319 115.59c5.87 1.093 67.259 10.8 54.426 97.891-11.647 78.969-85.37 130.053-169.616 131.8-100.576 2.251-144.101-58.451-121.06-108.724s96.8-37.47 111.88-59.328 32.193-78.906 124.37-61.639Z" fill="#f63b45"/>
  <path data-name="Path 513" d="M234.607 124.958s73.942-11.366 80.187 29.508-18.142 101.982-53.739 109.288-39.687 24.543-49.3 40.437-66.359 55.55-127.31 15.18-27.885-110.324 14.145-112.7c53.239-2.994 74.191-31.753 136.017-81.713Z" fill="rgba(255,255,255,0.3)"/>
  <path data-name="Path 514" d="M161.79 177.416s-19.016-18.107-4.496-38.407l23.544 8.9Z" fill="#896867"/>
  <path data-name="Path 515" d="m232.109 109.626-3.528 37.908s-24.98 8.087-48.743 15.207c-6.62 2-13.177 3.9-19.11 5.527l-4.746 1.311a127.242 127.242 0 0 1-17.205 3.778c-14.645 1.343-15.363-65.573-15.363-65.573l16.143 5.121s2.841 26.385 8.681 28.1a20.921 20.921 0 0 0 9.055-2.279c4.153-1.53 9.368-3.778 14.8-6.245 17.642-7.962 39.375-18.735 45.464-20.328a82.246 82.246 0 0 1 14.551-2.529Z" fill="#ffdabe"/>
  <path data-name="Path 516" d="M179.842 162.74c-6.62 2-13.177 3.9-19.11 5.527l-4.75 1.312c3.466-12.865 1.311-30.57 1.311-30.57 4.153-1.53 9.368-3.778 14.8-6.245 5.308 3.747 10.742 7.619 11.553 7.806s-1.685 11.866-3.804 22.17Z" fill="rgba(0,0,0,0.05)"/>
  <path data-name="Path 517" d="m232.11 109.626-3.529 37.91s-39.437 22.355-66.791 29.88c6-11.46 1.873-31.225-4.5-38.407 17.205-6.526 52.24-24.543 60.265-26.6a82.245 82.245 0 0 1 14.551-2.779Z" fill="#efefef"/>
  <path data-name="Path 518" d="M166.786 199.337s-46.088-36.534-62.981-35.254c-17.986 1.374-24.98 14.77-21.264 27.385s17.548 36.063 17.548 36.063l80.749 19.828v-37.874Z" fill="#245bc9"/>
  <path data-name="Path 519" d="M75.952 407.42c0 3.4-.593 6.058-1.936 6.745-4.372 2.217-71.194-13.3-73.879-19.547-.656-1.561 1.093-3.122 4.309-4.809 9.649-4.809 32.287-9.18 41.592-9.368 12.49-.219 28.1 7.026 28.1 7.026a123.554 123.554 0 0 1 1.814 19.953Z" fill="#222"/>
  <path data-name="Path 520" d="M75.952 407.422c0 3.4-.593 6.058-1.936 6.745-4.372 2.217-71.194-13.3-73.879-19.547-.656-1.561 1.093-3.122 4.309-4.809 11.085 6.807 33.911 17.299 71.506 17.611Z"/>
  <path data-name="Path 521" d="M84.383 356.025c0 .812-2.248 7.681-4.653 14.8-2.748 8.15-5.714 16.643-5.714 16.643-11.522-.625-21.14-2.748-28.1-7.026l3.466-11.928 7.026-24.606Z" fill="#ff917b"/>
  <path data-name="Path 522" d="M84.383 356.025c0 .812-2.248 7.681-4.653 14.8-8.587 1.124-21.858 1.9-30.226-2.342l7.026-24.606Z" fill="#f47567"/>
  <path data-name="Path 523" d="M240.884 252.794s-27.291 40.093-48.618 34.348-70.353-17.236-73.036-16.863-33.286 98.422-33.286 98.422c-16.393.187-31.225-1.155-41.811-7.151 0 0 30.788-139.234 45.558-146.759s72.692 7.775 72.692 7.775a24.98 24.98 0 0 1 4.4-23.325c9.03-11.833 74.101 53.553 74.101 53.553Z" fill="#3c76eb"/>
  <path data-name="Path 524" d="M133.25 293.574s31.662 14.332 45.121-11.616l-24.483-20.733-24.76 16.924Z" fill="#245bc9"/>
  <path data-name="Path 525" d="M178.371 288.703c-7.588 8.743-15.144 14.988-22.763 17.736l-10.211-14.082-12.147-16.643 26.666-14.489c.843.625 7.213 10.211 12.209 17.861 3.435 5.121 6.246 9.617 6.246 9.617Z" fill="#ff917b"/>
  <path data-name="Path 526" d="M172.125 279.085c-4.809-.749-20.609-1.936-26.729 13.271l-12.146-16.642 26.666-14.489c.843.625 7.213 10.211 12.209 17.86Z" fill="rgba(0,0,0,0.05)"/>
  <path data-name="Path 527" d="M189.019 312.497c-19.266 15.613-61.826 15.238-66.76 10.554-.906-.874-.937-2.279-.25-4.028 2.935-7.744 18.735-22.17 28.1-26.354 11.335-5.121 28.477-4.684 28.477-4.684s4.215 6.245 7.463 12.49c.749 1.374 1.405 2.779 2 4.122 1.469 3.685 2.25 6.839.97 7.9Z" fill="#222"/>
  <path data-name="Path 528" d="M189.019 312.497c-19.266 15.613-61.826 15.238-66.76 10.554-.906-.874-.937-2.279-.25-4.028 14.239-7.307 45.277-21.577 63.887-18.548.749 1.374 1.405 2.779 2 4.122 1.622 3.686 2.403 6.839 1.123 7.9Z"/>
  <path data-name="Path 529" d="M187.895 304.597c1.624 3.685 2.4 6.838 1.124 7.9-19.266 15.613-61.826 15.238-66.76 10.554 0 0 45.214-22.107 65.636-18.454Z" fill="#222"/>
  <path data-name="Path 530" d="M81.978 178.044a46.057 46.057 0 0 0-.932 23.635c2.217 6.9 7.557 14.738 15.363 29.445 16.137 30.57 36.837 62.451 36.837 62.451 12.958-19.266 29.071-23.294 45.121-11.647 0 0-42-83.746-50.523-98.453s-20.89-19.7-25.6-19.391a20.952 20.952 0 0 0-15.398 6.713 18.954 18.954 0 0 0-4.868 7.247Z" fill="#729ffa"/>
  <path data-name="Path 531" d="M302.71 161.491c-3.872 8.93-61.826 91.3-61.826 91.3l-74.098-53.452s41.467-54.519 50.772-72.88 12.99-17.361 17.049-16.362c2.9.687 10.492 3.56 15.613 4.309 1.967.281 3.466.281 4.153-.343 2.311-2.248 8.119-15.425 8.119-15.425l21.077-17.989 11.241 9.59s-2.467 4.965-4.965 10.554c-2.779 6.245-5.589 13.364-4.809 14.957a9.525 9.525 0 0 0 1.53 1.842c4.528 4.4 16.862 13.583 19.2 18.735 2.595 5.867.82 16.265-3.056 25.164Z" fill="#ffdabe"/>
  <path data-name="Path 532" d="M294.654 90.239s-2.467 4.965-4.965 10.554c-8.212 7.022-23.763 18.138-35.472 13.267 2.311-2.248 8.119-15.425 8.119-15.425l21.233-17.986Z" fill="rgba(0,0,0,0.05)"/>
  <path data-name="Path 533" d="M302.71 161.491c-3.872 8.93-61.826 91.3-61.826 91.3l-74.098-53.455s41.467-54.519 50.772-72.88 12.99-17.361 17.049-16.362c2.9.687 10.492 3.56 15.613 4.309-4.5 5.371-6.87 16.05-2.4 17.549 9.586 3.123 26.76-4.5 38.751-14.364 4.528 4.4 16.862 13.583 19.2 18.735 2.59 5.871.815 16.269-3.061 25.168Z" fill="#dcdcdc"/>
  <path data-name="Path 534" d="m204.698 113.28-2.779 1.124-63.361-6.776 3.435-32.071 3.123-3.123 63.231 6.776Z" fill="#729ffa"/>
  <path data-name="Rectangle 401" fill="#3c76eb" d="m141.988 75.575 63.33696035 6.79113053-3.43543784 32.04034867-63.33696035-6.79113053z"/>
  <path data-name="Path 535" d="M244.63 206.393c-6.245 3.123-27.041-16.987-8.118-46.057l22.264 13.052Z" fill="#af9590"/>
  <path data-name="Path 536" d="M278.135 185.129c-4.684 2.311-11.147 5.34-18.392 8.306-5.183 2.186-10.8 4.34-16.393 6.245-1.9.656-3.841 1.311-5.745 1.9-10.117 3.123-19.891 5.246-26.916 4.684-17.549-1.374.343-83.434.343-83.434l17.424-5.589.187 46.526s3.123-1.343 7.869-3.466c3.591-1.624 8.087-3.653 12.771-5.87a243.569 243.569 0 0 0 23.794-12.49c12.3-7.9 21.577-6.807 21.577-6.807 25.979 6.966 1.405 41.189-16.519 49.995Z" fill="#ffdabe"/>
  <path data-name="Path 537" d="m263.272 155.622-3.528 37.813c-5.183 2.186-10.8 4.34-16.393 6.245-1.9.656-3.841 1.311-5.745 1.9 8.306-16.112-1.093-41.28-1.093-41.28 3.591-1.624 8.087-3.653 12.771-5.87Z" fill="rgba(0,0,0,0.05)"/>
  <path data-name="Path 538" d="M279.882 189.438a135.924 135.924 0 0 1-35.253 16.955c6.495-21.389-2.5-40.031-8.119-46.057a353.127 353.127 0 0 0 36.565-18.3c12.3-7.9 21.577-6.807 21.577-6.807 25.981 6.871 1.407 42.624-14.77 54.209Z" fill="#cbcbcb"/>
  <path data-name="Path 539" d="M228.456 117.277a109.281 109.281 0 0 0-6.432 12.49 65.1 65.1 0 0 1-10.993-6.964c-4.184-3.591-4.4-14.894-4.4-14.894a17.642 17.642 0 0 0-4.621-1.53c-1.405 0-8.181 2.935-9.368 1.655s.156-2.155.874-2.81l.468-.406a2.716 2.716 0 0 1-1.624.312 1.874 1.874 0 0 1-1.53-.937c-1.28-1.811 5.09-7.65 7.276-8.212a71.288 71.288 0 0 1 10.773 0 49.083 49.083 0 0 0-7.681-4.184c-2-.562-11.959.874-11.834-1.624s9.615-3.716 12.767-4.715 9.617 2.654 11.272 3.528c-2.56-1.561-17.111-10.429-14.426-12.49s20.64 5.464 24.387 8.993 5.092 31.788 5.092 31.788Z" fill="#ffdabe"/>
  <path data-name="Path 540" d="M208.253 102.132c-5.683-2.436-10.367 0-14.832 3.123l.468-.406a2.716 2.716 0 0 1-1.624.312 15.831 15.831 0 0 1 16.362-3.966.50462709.50462709 0 1 1-.375.937Z" fill="#f47567"/>
  <path data-name="Path 541" d="M157.106 82.523c-1.124 2.81-9.711-.156-11.522.219s-8.056 2.81-8.056 2.81 17.891 1.217 17.111 4.839a3.56 3.56 0 0 1-1.187 2.155 3.122 3.122 0 0 1-2.311.593 1.842 1.842 0 0 1 .906.656 1.749 1.749 0 0 1 .219 1.343c-.406 2.092-9.555 3.123-9.555 3.123a15.3 15.3 0 0 1-1.218 11.959c-3.4 7.556-12.49 4.247-12.49 4.247l-5.558-6.62s-.312-25.761 2.686-29.383 19.734-9.9 23.169-8.649-11.772 8.306-12.834 8.712a38.625 38.625 0 0 1 10.4-1.311c3.62.404 10.833 3.839 10.24 5.307Z" fill="#ffdabe"/>
  <path data-name="Path 542" d="M151.142 93.139a1.842 1.842 0 0 1 .906.656 38.749 38.749 0 0 0-5.462-1.312c-3.123-.468-6.245-.437-9.524-.687a.219.219 0 0 1 0-.406 29.2 29.2 0 0 1 16.456 1.155 3.123 3.123 0 0 1-2.376.594Z" fill="#f47567"/>
  <path data-name="Path 543" d="M320.479 72.781s5.4 17.923-14.395 14.3l-70.228-14.987s-26.2-4.809-11.616-18.954a31.661 31.661 0 0 1-4.122-4.528c-3.9-5.215-7.369-13.583 6.432-17.58 0 0-6.495-18.267 15.831-16.206 0 0 3.123-21.108 22.232-7.338 0 0 11.147-16.456 20.89-.375 0 0 12.053-6.838 18.048 1.842a20.046 20.046 0 0 1 3.123 9.524s19.922-2.529 12.022 17.049c0 0 16.737 5.277 4.215 18.985-.186.001 12.398 9.431-2.432 18.268Z" fill="#2f1a10"/>
  <path data-name="Path 544" d="M303.396 8.956a23.013 23.013 0 0 0-19.047 1.124c-11.304-11.462-19.516 1.438-19.516 1.438-14.645-11.3-20.609 7.275-20.609 7.275-19.079.187-13.177 15.613-13.177 15.613-9.555 2.748-11.147 9.368-11.085 14.145-3.9-5.215-7.369-13.583 6.432-17.58 0 0-6.495-18.267 15.831-16.206 0 0 3.122-21.108 22.232-7.338 0 0 11.147-16.456 20.89-.375.001.066 12.054-6.777 18.049 1.904Z" fill="#44331c"/>
  <path data-name="Path 545" d="M247.32 80.461c-1.5 4.091-7.744 5.558-13.9 3.279s-9.96-7.463-8.43-11.553 7.744-5.558 13.9-3.279 9.956 7.463 8.43 11.553Z" fill="#f2c6a5"/>
  <path data-name="Path 546" d="M305.832 63.538a52.9 52.9 0 0 1-1 7.806c-4.528 23.7-28.29 38.345-51.147 36.284-16.986-1.53-22.045-23.076-17.517-46.838.312-1.592.687-3.123 1.093-4.621A48.056 48.056 0 0 1 251.5 32.594a32.506 32.506 0 0 1 24.325-8.681c17.455 1.53 26.885 12.49 29.445 27.135a50.834 50.834 0 0 1 .562 12.49Z" fill="#ffdabe"/>
  <path data-name="Path 547" d="m308.33 57.293-2.5 6.245-5.777 14.582a81.655 81.655 0 0 1-10.929-19.8s-11.522 2.779-14.676-3.934c0 0-11.21 3.934-15.144-2.56 0 0-11.866 7.931-15.831 0 0 0-1.311 5.308-6.245 4.528a48.056 48.056 0 0 1 14.242-23.573c12.49.749 46.12 2.935 46.12 2.935l7.65 15.613Z" fill="rgba(0,0,0,0.05)"/>
  <path data-name="Path 548" d="M299.181 80.524a112.414 112.414 0 0 1-7.026-28.1 11.647 11.647 0 0 1-15.613-4.278s-12.49 6.838-17.174-1.436c0 0-12.646 8.806-16.581-.781 0 0-1.28 5.933-4.309 5.745s-5.683-17.08 15.082-25.761a42.966 42.966 0 0 1 44.184 5.371c8.15 5.87 12.084 20.515 11.179 28.1-.5 4.184-.437 15.425-2.935 19.984-2.03 3.623-6.807 1.156-6.807 1.156Z" fill="#2f1a10"/>
  <path data-name="Path 549" d="M314.794 82.585c.312 4.34-4.746 8.243-11.3 8.712s-12.147-2.654-12.49-7.026 4.746-8.243 11.335-8.712 12.018 2.561 12.455 7.026Z" fill="#ffdabe"/>
  <path data-name="Path 550" d="M267.144 75.903c-.406 1.686-1.468 2.9-2.373 2.685s-1.343-1.78-.937-3.5 1.468-2.873 2.4-2.654 1.317 1.783.91 3.469Z" fill="#333"/>
  <path data-name="Path 551" d="M245.192 73.312c0 1.749-.937 3.123-1.874 3.123s-1.624-1.5-1.53-3.123.906-3.123 1.842-3.123 1.656 1.374 1.562 3.123Z" fill="#333"/>
  <path data-name="Path 552" d="M251.063 73.218a12.49 12.49 0 0 0 0 9.024" fill="none" stroke="#db4242" stroke-linecap="round" stroke-linejoin="round" stroke-width=".75"/>
  <path data-name="Path 553" d="M266.738 62.507a11.148 11.148 0 0 1 9.149 3.279" fill="none" stroke="#2f1a10" stroke-linecap="round" stroke-linejoin="round" stroke-width=".75"/>
  <path data-name="Path 554" d="M239.385 63.632a7.557 7.557 0 0 1 8.212-1.749" fill="none" stroke="#2f1a10" stroke-linecap="round" stroke-linejoin="round" stroke-width=".75"/>
  <path data-name="Path 555" d="M251.844 91.359s11.366 3.622 18.2-5.839" fill="none" stroke="#db4242" stroke-linecap="round" stroke-linejoin="round" stroke-width=".75"/>
  <path data-name="Path 556" d="M287.819 283.832c-28.977 51.9-135.986 55.893-135.986 55.893 6.62-1.187 13.083-5.777 19.141-12.115 16.795-17.518 30.285-48.368 34.345-58.138 9.18-22.108 28.1-19.11 55.644-22.108 21.046-2.311 37.47-23.232 44.215-32.974 2.061-3.123 3.122-4.965 3.122-4.965s8.519 22.51-20.481 74.407Z" fill="#f63b45"/>
  <path data-name="Path 557" d="M305.177 214.387c-2.873 10.773-16.3 32.349-37.658 37.158-30.289 7.026-47.213 4.715-53.083 13.489-5.09 7.681-20.2 49.96-43.528 62.451 16.8-17.517 30.289-48.368 34.348-58.141 9.18-22.107 28.1-19.11 55.643-22.107 21.109-2.19 37.658-23.108 44.278-32.85Z" fill="rgba(0,0,0,0.16)"/>
</svg>
