<svg id="Layer_2" data-name="Layer 2" xmlns="http://www.w3.org/2000/svg" width="338.505" height="414.381" viewBox="0 0 338.5 414.381">
  <g id="OBJECTS" transform="translate(0 0)">
    <path id="Path_510" data-name="Path 510" d="M201.983,140.323c0,6.245-34.129,11.023-76.221,11.023S49.51,146.412,49.51,140.323a3.122,3.122,0,0,1,1.062-2.061c5.745-6.245,33.755-15.425,68.258-16.612h11.21c36.034.593,65.167,10.46,70.881,16.705A3.123,3.123,0,0,1,201.983,140.323Z" transform="translate(63.912 258.262)"/>
    <path id="Path_511" data-name="Path 511" d="M200.2,138.292c-6.245,4.215-37.47,7.432-75.159,7.432s-69.1-3.123-75.191-7.432c5.745-6.245,33.755-15.425,68.258-16.612h11.21C165.352,122.18,194.486,132.047,200.2,138.292Z" transform="translate(64.634 258.326)" fill="#222"/>
    <rect id="Rectangle_400" data-name="Rectangle 400" width="33.255" height="58.11" transform="translate(173.031 327.766)" fill="#222"/>
    <path id="Path_512" data-name="Path 512" d="M268.291,39.18c5.87,1.093,67.259,10.8,54.426,97.891-11.647,78.969-85.37,130.053-169.616,131.8C52.525,271.122,9,210.42,32.041,160.147s96.8-37.47,111.88-59.328S176.114,21.913,268.291,39.18Z" transform="translate(14.028 76.41)" fill="#f63b45"/>
    <path id="Path_513" data-name="Path 513" d="M213.138,40.987s73.942-11.366,80.187,29.508-18.142,101.982-53.739,109.288-39.687,24.543-49.3,40.437S123.927,275.77,62.976,235.4,35.091,125.076,77.121,122.7C130.36,119.706,151.312,90.947,213.138,40.987Z" transform="translate(21.469 83.971)" fill="rgba(255,255,255,0.3)"/>
    <path id="Path_514" data-name="Path 514" d="M71.77,82.907S52.754,64.8,67.274,44.5l23.544,8.9Z" transform="translate(90.02 94.509)" fill="#896867"/>
    <path id="Path_515" data-name="Path 515" d="M161.405,36.342,157.877,74.25s-24.98,8.087-48.743,15.207c-6.62,2-13.177,3.9-19.11,5.527l-4.746,1.311a127.242,127.242,0,0,1-17.205,3.778C53.428,101.416,52.71,34.5,52.71,34.5l16.143,5.121s2.841,26.385,8.681,28.1a20.921,20.921,0,0,0,9.055-2.279c4.153-1.53,9.368-3.778,14.8-6.245,17.642-7.962,39.375-18.735,45.464-20.328a82.246,82.246,0,0,1,14.551-2.529Z" transform="translate(70.704 73.284)" fill="#ffdabe"/>
    <path id="Path_516" data-name="Path 516" d="M87,72.476c-6.62,2-13.177,3.9-19.11,5.527L63.14,79.315c3.466-12.865,1.311-30.57,1.311-30.57,4.153-1.53,9.368-3.778,14.8-6.245,5.308,3.747,10.742,7.619,11.553,7.806S89.119,62.172,87,72.476Z" transform="translate(92.842 90.264)" fill="rgba(0,0,0,0.05)"/>
    <path id="Path_517" data-name="Path 517" d="M138.376,35.09,134.847,73S95.41,95.355,68.056,102.88c6-11.46,1.873-31.225-4.5-38.407,17.205-6.526,52.24-24.543,60.265-26.6a82.245,82.245,0,0,1,14.551-2.779Z" transform="translate(93.734 74.536)" fill="#efefef"/>
    <path id="Path_518" data-name="Path 518" d="M124.522,87.806S78.434,51.272,61.541,52.552c-17.986,1.374-24.98,14.77-21.264,27.385S57.825,116,57.825,116l80.749,19.828V97.954Z" transform="translate(42.264 111.531)" fill="#245bc9"/>
    <path id="Path_519" data-name="Path 519" d="M89.138,148.8c0,3.4-.593,6.058-1.936,6.745-4.372,2.217-71.194-13.3-73.879-19.547-.656-1.561,1.093-3.122,4.309-4.809,9.649-4.809,32.287-9.18,41.592-9.368,12.49-.219,28.1,7.026,28.1,7.026A123.554,123.554,0,0,1,89.138,148.8Z" transform="translate(-13.186 258.62)" fill="#222"/>
    <path id="Path_520" data-name="Path 520" d="M89.138,142.431c0,3.4-.593,6.058-1.936,6.745-4.372,2.217-71.194-13.3-73.879-19.547-.656-1.561,1.093-3.122,4.309-4.809C28.717,131.627,51.543,142.119,89.138,142.431Z" transform="translate(-13.186 264.991)"/>
    <path id="Path_521" data-name="Path 521" d="M66.36,122.235c0,.812-2.248,7.681-4.653,14.8-2.748,8.15-5.714,16.643-5.714,16.643-11.522-.625-21.14-2.748-28.1-7.026l3.466-11.928,7.026-24.606Z" transform="translate(18.023 233.79)" fill="#ff917b"/>
    <path id="Path_522" data-name="Path 522" d="M63.919,122.257c0,.812-2.248,7.681-4.653,14.8-8.587,1.124-21.858,1.9-30.226-2.342l7.026-24.606Z" transform="translate(20.464 233.768)" fill="#f47567"/>
    <path id="Path_523" data-name="Path 523" d="M224.071,118.315s-27.291,40.093-48.618,34.348S105.1,135.427,102.417,135.8s-33.286,98.422-33.286,98.422c-16.393.187-31.225-1.155-41.811-7.151,0,0,30.788-139.234,45.558-146.759s72.692,7.775,72.692,7.775a24.98,24.98,0,0,1,4.4-23.325C159,52.929,224.071,118.315,224.071,118.315Z" transform="translate(16.813 134.479)" fill="#3c76eb"/>
    <path id="Path_524" data-name="Path 524" d="M58.662,115.989s31.662,14.332,45.121-11.616L79.3,83.64,54.54,100.564Z" transform="translate(74.588 177.585)" fill="#245bc9"/>
    <path id="Path_525" data-name="Path 525" d="M100.981,111.118c-7.588,8.743-15.144,14.988-22.763,17.736L68.007,114.772,55.86,98.129,82.526,83.64c.843.625,7.213,10.211,12.209,17.861C98.17,106.622,100.981,111.118,100.981,111.118Z" transform="translate(77.39 177.585)" fill="#ff917b"/>
    <path id="Path_526" data-name="Path 526" d="M94.735,101.5c-4.809-.749-20.609-1.936-26.729,13.271L55.86,98.129,82.526,83.64C83.369,84.265,89.739,93.851,94.735,101.5Z" transform="translate(77.39 177.585)" fill="rgba(0,0,0,0.05)"/>
    <path id="Path_527" data-name="Path 527" d="M119.594,116.728c-19.266,15.613-61.826,15.238-66.76,10.554-.906-.874-.937-2.279-.25-4.028h0c2.935-7.744,18.735-22.17,28.1-26.354,11.335-5.121,28.477-4.684,28.477-4.684s4.215,6.245,7.463,12.49c.749,1.374,1.405,2.779,2,4.122C120.093,112.513,120.874,115.667,119.594,116.728Z" transform="translate(69.425 195.769)" fill="#222"/>
    <path id="Path_528" data-name="Path 528" d="M119.594,108.514c-19.266,15.613-61.826,15.238-66.76,10.554-.906-.874-.937-2.279-.25-4.028h0c14.239-7.307,45.277-21.577,63.887-18.548.749,1.374,1.405,2.779,2,4.122C120.093,104.3,120.874,107.453,119.594,108.514Z" transform="translate(69.425 203.983)"/>
    <path id="Path_529" data-name="Path 529" d="M117.976,97.807c1.624,3.685,2.4,6.838,1.124,7.9-19.266,15.613-61.826,15.238-66.76,10.554C52.34,116.261,97.554,94.154,117.976,97.807Z" transform="translate(69.919 206.79)" fill="#222"/>
    <path id="Path_530" data-name="Path 530" d="M40.832,66.5A46.057,46.057,0,0,0,39.9,90.135c2.217,6.9,7.557,14.738,15.363,29.445C71.4,150.15,92.1,182.031,92.1,182.031c12.958-19.266,29.071-23.294,45.121-11.647,0,0-42-83.746-50.523-98.453s-20.89-19.7-25.6-19.391A20.952,20.952,0,0,0,45.7,59.253,18.954,18.954,0,0,0,40.832,66.5Z" transform="translate(41.146 111.544)" fill="#729ffa"/>
    <path id="Path_531" data-name="Path 531" d="M202.524,106.652c-3.872,8.93-61.826,91.3-61.826,91.3L66.6,144.5s41.467-54.519,50.772-72.88,12.99-17.361,17.049-16.362c2.9.687,10.492,3.56,15.613,4.309,1.967.281,3.466.281,4.153-.343h0c2.311-2.248,8.119-15.425,8.119-15.425L183.383,25.81,194.624,35.4s-2.467,4.965-4.965,10.554c-2.779,6.245-5.589,13.364-4.809,14.957a9.525,9.525,0,0,0,1.53,1.842c4.528,4.4,16.862,13.583,19.2,18.735C208.175,87.355,206.4,97.753,202.524,106.652Z" transform="translate(100.186 54.839)" fill="#ffdabe"/>
    <path id="Path_532" data-name="Path 532" d="M135.037,35.4s-2.467,4.965-4.965,10.554C121.86,52.976,106.309,64.092,94.6,59.221h0c2.311-2.248,8.119-15.425,8.119-15.425L123.952,25.81Z" transform="translate(159.617 54.839)" fill="rgba(0,0,0,0.05)"/>
    <path id="Path_533" data-name="Path 533" d="M202.524,86.945c-3.872,8.93-61.826,91.3-61.826,91.3L66.6,124.79s41.467-54.519,50.772-72.88,12.99-17.361,17.049-16.362c2.9.687,10.492,3.56,15.613,4.309-4.5,5.371-6.87,16.05-2.4,17.549,9.586,3.123,26.76-4.5,38.751-14.364,4.528,4.4,16.862,13.583,19.2,18.735C208.175,67.648,206.4,78.046,202.524,86.945Z" transform="translate(100.186 74.546)" fill="#dcdcdc"/>
    <path id="Path_534" data-name="Path 534" d="M123.7,64.023l-2.779,1.124L57.56,58.371,60.995,26.3l3.123-3.123,63.231,6.776Z" transform="translate(80.998 49.257)" fill="#729ffa"/>
    <rect id="Rectangle_401" data-name="Rectangle 401" width="63.7" height="32.224" transform="translate(141.988 75.575) rotate(6.12)" fill="#3c76eb"/>
    <path id="Path_535" data-name="Path 535" d="M102.331,97.387C96.086,100.51,75.29,80.4,94.213,51.33l22.264,13.052Z" transform="translate(142.299 109.006)" fill="#af9590"/>
    <path id="Path_536" data-name="Path 536" d="M153.348,105.414c-4.684,2.311-11.147,5.34-18.392,8.306-5.183,2.186-10.8,4.34-16.393,6.245-1.9.656-3.841,1.311-5.745,1.9-10.117,3.123-19.891,5.246-26.916,4.684-17.549-1.374.343-83.434.343-83.434l17.424-5.589.187,46.526s3.123-1.343,7.869-3.466c3.591-1.624,8.087-3.653,12.771-5.87a243.569,243.569,0,0,0,23.794-12.49c12.3-7.9,21.577-6.807,21.577-6.807C195.846,62.385,171.272,96.608,153.348,105.414Z" transform="translate(124.787 79.715)" fill="#ffdabe"/>
    <path id="Path_537" data-name="Path 537" d="M115.69,50.627,112.162,88.44c-5.183,2.186-10.8,4.34-16.393,6.245-1.9.656-3.841,1.311-5.745,1.9,8.306-16.112-1.093-41.28-1.093-41.28,3.591-1.624,8.087-3.653,12.771-5.87Z" transform="translate(147.582 104.995)" fill="rgba(0,0,0,0.05)"/>
    <path id="Path_538" data-name="Path 538" d="M132.3,97.532a135.924,135.924,0,0,1-35.253,16.955c6.495-21.389-2.5-40.031-8.119-46.057a353.127,353.127,0,0,0,36.565-18.3c12.3-7.9,21.577-6.807,21.577-6.807C173.051,50.194,148.477,85.947,132.3,97.532Z" transform="translate(147.582 91.906)" fill="#cbcbcb"/>
    <path id="Path_539" data-name="Path 539" d="M112.925,65.5a109.281,109.281,0,0,0-6.432,12.49A65.1,65.1,0,0,1,95.5,71.026c-4.184-3.591-4.4-14.894-4.4-14.894a17.642,17.642,0,0,0-4.621-1.53c-1.405,0-8.181,2.935-9.368,1.655s.156-2.155.874-2.81l.468-.406a2.716,2.716,0,0,1-1.624.312,1.874,1.874,0,0,1-1.53-.937c-1.28-1.811,5.09-7.65,7.276-8.212a71.288,71.288,0,0,1,10.773,0,49.083,49.083,0,0,0-7.681-4.184c-2-.562-11.959.874-11.834-1.624S83.448,34.68,86.6,33.681s9.617,2.654,11.272,3.528c-2.56-1.561-17.111-10.429-14.426-12.49s20.64,5.464,24.387,8.993S112.925,65.5,112.925,65.5Z" transform="translate(115.531 51.777)" fill="#ffdabe"/>
    <path id="Path_540" data-name="Path 540" d="M90.747,33.883c-5.683-2.436-10.367,0-14.832,3.123l.468-.406a2.716,2.716,0,0,1-1.624.312,15.831,15.831,0,0,1,16.362-3.966.5.5,0,1,1-.375.937Z" transform="translate(117.506 68.249)" fill="#f47567"/>
    <path id="Path_541" data-name="Path 541" d="M86.387,35.159c-1.124,2.81-9.711-.156-11.522.219s-8.056,2.81-8.056,2.81S84.7,39.405,83.92,43.027a3.56,3.56,0,0,1-1.187,2.155,3.122,3.122,0,0,1-2.311.593,1.842,1.842,0,0,1,.906.656,1.749,1.749,0,0,1,.219,1.343c-.406,2.092-9.555,3.123-9.555,3.123a15.3,15.3,0,0,1-1.218,11.959c-3.4,7.556-12.49,4.247-12.49,4.247l-5.558-6.62S52.414,34.722,55.412,31.1s19.734-9.9,23.169-8.649-11.772,8.306-12.834,8.712a38.625,38.625,0,0,1,10.4-1.311C79.767,30.256,86.98,33.691,86.387,35.159Z" transform="translate(70.719 47.364)" fill="#ffdabe"/>
    <path id="Path_542" data-name="Path 542" d="M71.256,31.461a1.842,1.842,0,0,1,.906.656A38.749,38.749,0,0,0,66.7,30.805c-3.123-.468-6.245-.437-9.524-.687a.219.219,0,0,1,0-.406,29.2,29.2,0,0,1,16.456,1.155A3.123,3.123,0,0,1,71.256,31.461Z" transform="translate(79.886 61.678)" fill="#f47567"/>
    <path id="Path_543" data-name="Path 543" d="M186.4,72.72s5.4,17.923-14.395,14.3L101.777,72.033s-26.2-4.809-11.616-18.954a31.661,31.661,0,0,1-4.122-4.528c-3.9-5.215-7.369-13.583,6.432-17.58,0,0-6.495-18.267,15.831-16.206,0,0,3.123-21.108,22.232-7.338,0,0,11.147-16.456,20.89-.375,0,0,12.053-6.838,18.048,1.842a20.046,20.046,0,0,1,3.123,9.524s19.922-2.529,12.022,17.049c0,0,16.737,5.277,4.215,18.985C188.646,54.453,201.23,63.883,186.4,72.72Z" transform="translate(134.079 0.061)" fill="#2f1a10"/>
    <path id="Path_544" data-name="Path 544" d="M169.423,8.938a23.013,23.013,0,0,0-19.047,1.124C139.072-1.4,130.86,11.5,130.86,11.5c-14.645-11.3-20.609,7.275-20.609,7.275-19.079.187-13.177,15.613-13.177,15.613-9.555,2.748-11.147,9.368-11.085,14.145-3.9-5.215-7.369-13.583,6.432-17.58,0,0-6.495-18.267,15.831-16.206,0,0,3.122-21.108,22.232-7.338,0,0,11.147-16.456,20.89-.375C151.375,7.1,163.428.257,169.423,8.938Z" transform="translate(133.973 0.018)" fill="#44331c"/>
    <path id="Path_545" data-name="Path 545" d="M107.8,34.333c-1.5,4.091-7.744,5.558-13.9,3.279S83.94,30.149,85.47,26.059s7.744-5.558,13.9-3.279S109.326,30.243,107.8,34.333Z" transform="translate(139.52 46.128)" fill="#f2c6a5"/>
    <path id="Path_546" data-name="Path 546" d="M159.554,47.313a52.9,52.9,0,0,1-1,7.806c-4.528,23.7-28.29,38.345-51.147,36.284C90.421,89.873,85.362,68.327,89.89,44.565c.312-1.592.687-3.123,1.093-4.621a48.056,48.056,0,0,1,14.239-23.575,32.506,32.506,0,0,1,24.325-8.681c17.455,1.53,26.885,12.49,29.445,27.135a50.834,50.834,0,0,1,.562,12.49Z" transform="translate(146.278 16.225)" fill="#ffdabe"/>
    <path id="Path_547" data-name="Path 547" d="M160.26,34.992l-2.5,6.245-5.777,14.582a81.655,81.655,0,0,1-10.929-19.8s-11.522,2.779-14.676-3.934c0,0-11.21,3.934-15.144-2.56,0,0-11.866,7.931-15.831,0,0,0-1.311,5.308-6.245,4.528A48.056,48.056,0,0,1,103.4,10.48c12.49.749,46.12,2.935,46.12,2.935l7.65,15.613Z" transform="translate(148.07 22.301)" fill="rgba(0,0,0,0.05)"/>
    <path id="Path_548" data-name="Path 548" d="M151.659,65.473a112.414,112.414,0,0,1-7.026-28.1,11.647,11.647,0,0,1-15.613-4.278s-12.49,6.838-17.174-1.436c0,0-12.646,8.806-16.581-.781,0,0-1.28,5.933-4.309,5.745s-5.683-17.08,15.082-25.761a42.966,42.966,0,0,1,44.184,5.371c8.15,5.87,12.084,20.515,11.179,28.1-.5,4.184-.437,15.425-2.935,19.984C156.436,67.94,151.659,65.473,151.659,65.473Z" transform="translate(147.522 15.051)" fill="#2f1a10"/>
    <path id="Path_549" data-name="Path 549" d="M130.185,31.238c.312,4.34-4.746,8.243-11.3,8.712s-12.147-2.654-12.49-7.026,4.746-8.243,11.335-8.712S129.748,26.773,130.185,31.238Z" transform="translate(184.609 51.347)" fill="#ffdabe"/>
    <path id="Path_550" data-name="Path 550" d="M101.093,26.664c-.406,1.686-1.468,2.9-2.373,2.685s-1.343-1.78-.937-3.5,1.468-2.873,2.4-2.654S101.5,24.978,101.093,26.664Z" transform="translate(166.051 49.239)" fill="#333"/>
    <path id="Path_551" data-name="Path 551" d="M94.029,25.583c0,1.749-.937,3.123-1.874,3.123s-1.624-1.5-1.53-3.123.906-3.123,1.842-3.123S94.123,23.834,94.029,25.583Z" transform="translate(151.163 47.729)" fill="#333"/>
    <path id="Path_552" data-name="Path 552" d="M94.163,23.43a12.49,12.49,0,0,0,0,9.024" transform="translate(156.9 49.788)" fill="none" stroke="#db4242" stroke-linecap="round" stroke-linejoin="round" stroke-width="0.75"/>
    <path id="Path_553" data-name="Path 553" d="M98.61,20.043a11.148,11.148,0,0,1,9.149,3.279" transform="translate(168.128 42.464)" fill="none" stroke="#2f1a10" stroke-linecap="round" stroke-linejoin="round" stroke-width="0.75"/>
    <path id="Path_554" data-name="Path 554" d="M89.85,21.914a7.557,7.557,0,0,1,8.212-1.749" transform="translate(149.535 41.718)" fill="none" stroke="#2f1a10" stroke-linecap="round" stroke-linejoin="round" stroke-width="0.75"/>
    <path id="Path_555" data-name="Path 555" d="M93.84,33.209s11.366,3.622,18.2-5.839" transform="translate(158.004 58.15)" fill="none" stroke="#db4242" stroke-linecap="round" stroke-linejoin="round" stroke-width="0.75"/>
    <path id="Path_556" data-name="Path 556" d="M197.8,141.46c-28.977,51.9-135.986,55.893-135.986,55.893,6.62-1.187,13.083-5.777,19.141-12.115C97.75,167.72,111.24,136.87,115.3,127.1c9.18-22.108,28.1-19.11,55.644-22.108,21.046-2.311,37.47-23.232,44.215-32.974,2.061-3.123,3.122-4.965,3.122-4.965S226.8,89.563,197.8,141.46Z" transform="translate(90.019 142.372)" fill="#f63b45"/>
    <path id="Path_557" data-name="Path 557" d="M202.189,68.64c-2.873,10.773-16.3,32.349-37.658,37.158-30.289,7.026-47.213,4.715-53.083,13.489-5.09,7.681-20.2,49.96-43.528,62.451,16.8-17.517,30.289-48.368,34.348-58.141,9.18-22.107,28.1-19.11,55.643-22.107C179.02,99.3,195.569,78.382,202.189,68.64Z" transform="translate(102.988 145.747)" fill="rgba(0,0,0,0.16)"/>
  </g>
</svg>
