<svg xmlns="http://www.w3.org/2000/svg" width="1027.229" height="745.117" viewBox="0 0 1027 745">
  <defs>
    <clipPath id="a">
      <circle cx="42.5" cy="42.5" r="42.5" transform="translate(235 1510.7)" fill="#fff"/>
    </clipPath>
    <clipPath id="b">
      <circle cx="40" cy="40" r="40" transform="translate(316 1563)" fill="#fff"/>
    </clipPath>
    <clipPath id="c">
      <circle cx="37" cy="37" r="37" transform="translate(250 1631)" fill="#fff"/>
    </clipPath>
    <clipPath id="d">
      <circle data-name="Ellipse 197" cx="35.5" cy="35.5" r="35.5" transform="translate(312 1698)" fill="#fff"/>
    </clipPath>
    <clipPath id="e">
      <circle data-name="Ellipse 198" cx="30.5" cy="30.5" r="30.5" transform="translate(278 1764)" fill="#fff" stroke="#fffcf8" stroke-width="3"/>
    </clipPath>
  </defs>
  <g data-name="Group 1061">
    <g data-name="Group 1086">
      <g data-name="Girl Live streaming" transform="translate(-182.827 -1115.796)">
        <path data-name="Path 2572" d="m633.509 1682.88-398.334 105.114a21.708 21.708 0 0 1-27.822-21.049l4.1-524.323a21.713 21.713 0 0 1 16.065-20.758l394.262-66.072a21.715 21.715 0 0 1 27.358 20.963v485.325a21.714 21.714 0 0 1-15.629 20.8Z" fill="#f63b45"/>
        <g transform="translate(182.827 1218.839)" data-name="Layer 2">
          <circle data-name="Ellipse 167" cx="29.476" cy="29.476" transform="translate(223.564 72.897)" fill="#8c75ff" r="29.476"/>
          <path data-name="Path 773" d="M97.122 247.501c6.028-21.057 6.028-43.4 3.376-65.14s-7.635-43.078-11.674-64.577c-1.346-7.153-2.572-14.527-1.185-21.68s6.028-14.065 12.859-16.335a73.7 73.7 0 0 1 27.707-64.678 74.985 74.985 0 0 1 70.2-10.77 60.78 60.78 0 0 1 51.5 10.589 62.487 62.487 0 0 1 23.89 47.681c.342 20.514-9.484 41.33-3.576 60.981 6.952 23.187 32.63 35 46.213 55.013a61.061 61.061 0 0 1 1.728 64.5Z"/>
          <path data-name="Path 774" d="m308.796 436.832 27.647 6.55s29.757 2.351 38.337 6.03 32.49 26.763 32.49 26.763 15.853 1.648 8.62 18.626H307.41Z" fill="#fff0d9"/>
          <path data-name="Path 775" d="M490.01 189.514s-1.768-12.437-4.019-24.794-12.6-41.35-6.872-45.288 20.193 30.42 20.193 30.42 19.028-62.407 26.763-63.09c9.162-.824-3.757 41.069-3.757 41.069s22.1-42.194 28.551-41.19-12.879 42.917-12.879 42.917 28.029-40.386 33.856-39.16-17.48 41.893-17.48 41.893 23.407-33.374 28.937-30.46-48.383 102.23-48.383 102.23Z" fill="#fff0d9"/>
          <path data-name="Path 776" d="M512.855 178.584a1.607 1.607 0 0 1-.683-.141 1.788 1.788 0 0 1-.985-2.351 42.194 42.194 0 0 1 28.993-24.613 1.808 1.808 0 0 1 .824 3.516 38.518 38.518 0 0 0-26.482 22.483 1.808 1.808 0 0 1-1.668 1.105Z"/>
          <path data-name="Path 777" d="M142.351 212.48c-18.083 8.037-73.217 36.97-81.816 50.814S6.526 402.052.438 459.617c-2.612 24.493 6.53 35.1 26.12 35.1H307.41l7.093-70.6s32.148-19.028 20.956-62.508c0 0 99.8 87.282 132.771 81.816s43.54-40.084 54.089-89.19 32.228-148.985 32.228-148.985l-76.512-24.657-39.763 142.656S328.226 221.003 320.39 214.569s-76.974-12.055-76.974-12.055Z" fill="#ffda73"/>
          <path data-name="Path 778" d="M167.767 195.803 142.35 212.48s50.111 37.01 75.266 29.415 25.8-39.381 25.8-39.381l-19.831-1.889Z" fill="#fff0d9"/>
          <path data-name="Path 779" d="m169.298 217.765-24.919-78.523s-30.139 14.949-35.965-10.488c-5.2-22.664 19.55-27.667 32.952-18.445 0 0-32.027-77.316 36.488-92.747s81.575 79.486 84.85 102.471c5.746 40.426-20.776 63.633-41.511 68.314l4.842 24.618s4.5 21.519-15.793 25c-27.085 4.693-40.944-20.2-40.944-20.2Z" fill="#fff0d9"/>
          <path data-name="Path 780" d="M236.162 80.714c4.8-6.028-15.11-8.358-15.31-4.521s12.497 8.017 15.31 4.521Z"/>
          <path data-name="Path 781" d="M189.025 103.518a7.515 7.515 0 1 0 7.595-7.434 7.515 7.515 0 0 0-7.595 7.434Z"/>
          <path data-name="Path 782" d="M225.633 98.315a7.494 7.494 0 1 0 2.252-5.3 7.515 7.515 0 0 0-2.252 5.3Z"/>
          <path data-name="Path 783" d="M137.709 129.056h.382a1.728 1.728 0 0 0 1.306-2.009 14.527 14.527 0 0 0-21.82-9.263 1.748 1.748 0 0 0-.563 2.391 1.768 1.768 0 0 0 2.391.563 11.051 11.051 0 0 1 16.616 7.052 1.728 1.728 0 0 0 1.688 1.266Z"/>
          <path data-name="Path 784" d="M221.193 188.409c-24.653 4.277-41.973-5.063-41.973-5.063s10.89 11.774 42.656 9.524Z"/>
          <path data-name="Path 785" d="M187.197 124.555a5.485 5.485 0 1 1-4.481-6.329 5.485 5.485 0 0 1 4.481 6.329Z" fill="#f63b45"/>
          <path data-name="Path 786" d="M252.959 120.657a5.485 5.485 0 1 1-4.5-6.349 5.485 5.485 0 0 1 4.5 6.349Z" fill="#f63b45"/>
          <path data-name="Path 787" d="m254.908 48.043-18.445-25.638-20.092-9.464-24.734-6.771-46.635 15.391L118.42 85.29a183.625 183.625 0 0 1 22.946 25.015c9.926 13.482 18.465 28.129 23.147 27.326s-2.592-28.129-2.592-28.129C214.542 81.034 227.04 49.09 227.04 49.09c10.046 24.412 31.3 44.083 31.3 44.083l3.54-23.25Z"/>
          <path data-name="Path 788" d="M231.701 134.601a39.241 39.241 0 0 1-36.166-12.055c-2.331 5.465-.261 13.221 4.018 17.4a20.354 20.354 0 0 0 16.774 4.963c5.81-.944 10.03-3.155 15.374-10.308Z"/>
          <path data-name="Path 789" d="M93.321 49.852C82.712 39.806 68.145 32.352 53.136 34.3c-13.015 1.688-24.107 12.638-27.744 25.055a36.97 36.97 0 0 0 14.587 39.884c10.609 7.233 24.312 9.243 36.85 6.932a81.053 81.053 0 0 0 34.458-16.175l1.587-8.881a72.554 72.554 0 0 0-19.553-31.263Z"/>
          <path data-name="Path 790" d="M225.673 121.239a1.768 1.768 0 0 1-.985-.3 1.788 1.788 0 0 1-.522-2.491c1.125-1.708 1.547-3.094 1.165-3.737-.643-1.045-3.737-1.366-5.646-1.185a1.788 1.788 0 0 1-2.009-1.346l-4.7-19.329a1.813 1.813 0 0 1 3.516-.884l4.521 17.9c2.23 0 6.028.4 7.474 2.974 1.206 2.009.784 4.521-1.226 7.595a1.828 1.828 0 0 1-1.588.803Z"/>
          <path data-name="Path 791" d="M304.355 424.457h-.12L107.59 411.033a1.808 1.808 0 0 1-1.627-2.25c5.1-20.314 9.283-37.553 15.552-65.461 3.878-17.36 3.456-32.55-1.346-47.82-5.244-16.6-17.259-29.154-31.4-32.811a1.768 1.768 0 0 1-1.286-2.19 1.808 1.808 0 0 1 2.19-1.306c15.331 4.018 28.33 17.44 33.936 35.222 5.023 15.893 5.465 31.686 1.427 49.709-6.031 26.963-10.173 43.981-15.031 63.451l194.475 13.261a1.80951167 1.80951167 0 1 1-.121 3.617Z"/>
          <path data-name="Path 792" d="M332.626 352.463a1.788 1.788 0 0 1-1.748-1.406c-4.661-19.59-21.619-59.172-21.8-59.574a1.814 1.814 0 1 1 3.335-1.427c.7 1.627 17.239 40.185 21.981 60.177a1.808 1.808 0 0 1-1.346 2.17Z"/>
          <circle data-name="Ellipse 168" cx="29.476" cy="29.476" transform="rotate(-76.8 136.69845261 14.12853337)" fill="#8c75ff" r="29.476"/>
          <path data-name="Path 793" d="M118.782 104.202s0-98.734 79.626-99.88c0 0-64.3 31.907-61 103.315Z" fill="#8c75ff"/>
          <path data-name="Path 794" d="m437.6093635 418.7223635-76.49198316-76.49198316 35.51868072-35.51868073 76.49198316 76.49198316a5.324 5.324 0 0 1 0 7.529273l-28.04597626 28.04597627a5.324 5.324 0 0 1-7.47270446-.05656854Z"/>
          <path data-name="Path 795" d="m361.053 342.288-16.25355647-16.25355647a10.629 10.629 0 0 1 0-15.03167596l20.54428042-20.54428042a10.629 10.629 0 0 1 15.03167595 0l16.25355648 16.25355647L361.053 342.288Z" fill="#fff"/>
          <path data-name="Path 796" d="m373.152 307.959-12.658-12.658 3.7-3.717 12.68 12.678a2.612 2.612 0 0 1 0 3.7 2.632 2.632 0 0 1-3.717 0Z" fill="#f63b45"/>
          <path data-name="Path 797" d="m358.725 322.41-12.678-12.683 3.717-3.7 12.658 12.658a2.632 2.632 0 0 1 0 3.717 2.612 2.612 0 0 1-3.7 0Z" fill="#f63b45"/>
          <path data-name="Path 798" d="m365.878 315.232-12.658-12.658 3.717-3.717 12.658 12.658a2.632 2.632 0 0 1 0 3.717 2.632 2.632 0 0 1-3.717 0Z" fill="#f63b45"/>
          <path data-name="Rectangle 608" d="m455.083 418.779-5.0155084-5.0155084 18.0291016-18.0291016 5.0155084 5.0155084z"/>
          <path data-name="Path 799" d="M408.896 390.117V358.29a7.414 7.414 0 0 0-14.828 0v17Z"/>
          <path data-name="Path 800" d="M411.388 486.718v-125.98a7.414 7.414 0 1 0-14.828 0v125.98h-31.847v12.94h78.5v-12.94Z"/>
          <path data-name="Rectangle 609" d="M396.56 476.173h14.828v5.606H396.56z"/>
        </g>
        <g data-name="Mask Group 1" transform="translate(607.844 -328.7)" clip-path="url(#a)">
          <g data-name="Layer 2">
            <g data-name="Layer 1">
              <path data-name="Path 2575" d="M319.701 1553.351a42.15 42.15 0 0 1-11.41 28.915c-.091.109-.182.209-.282.309l-.391.4a42.232 42.232 0 0 1-30.267 12.717 44.61 44.61 0 0 1-5.45-.336 42.3 42.3 0 0 1-12.364-3.634l-.954-.454a42.341 42.341 0 0 1-15.688-13.308c-.345-.491-.69-.981-1.017-1.49a39.389 39.389 0 0 1-2.235-3.833 42.35 42.35 0 1 1 80.058-19.286Z" fill="#edddd6"/>
              <path data-name="Path 2576" d="M308.291 1582.266c-.091.109-.182.209-.282.309l-.391.4a42.232 42.232 0 0 1-30.267 12.717 44.61 44.61 0 0 1-5.45-.336 42.3 42.3 0 0 1-12.364-3.634c.363-15.343.209-28.769.209-29.023.145-.318 7.267-2.144 16.705-2.453 14.871-.427 27.422 7.985 31.84 22.02Z" fill="#01ae63"/>
              <path data-name="Path 2577" d="M271.919 1595.365a42.3 42.3 0 0 1-12.363-3.634l-.954-.454a42.341 42.341 0 0 1-15.707-13.317c8.157-11.182 14.816-14.444 16.824-15.179a5.886 5.886 0 0 1 .618-.218Z" fill="#01ae63"/>
              <path data-name="Path 2578" d="M277.514 1535.401s9.774.463 10.329-8.911c.59-9.992-8.648-10.9-12.563-6.9s-3.2 8.176-3.2 8.176-2.725-2.462-5.714.563c-2.189 2.216-1.063 5.85-1.063 5.85s-5.042-.191-4.542 4.215a9.865 9.865 0 0 0 3.634 6.64Z" fill="#e56445"/>
              <path data-name="Path 2579" d="m268.612 1552.661.981 10.392s2.162 2.807 8.294 2.725c4.542-.082 6.05-1.254 6.05-1.254l-1.145-5.202-1.123-5.071-11.241-1.362Z" fill="#ffdfad"/>
              <path data-name="Path 2580" d="M270.428 1552.889a3.288 3.288 0 0 0 .4.972c2.834 4.969 9.3 5.45 11.936 5.45l-1.126-5.069Z"/>
              <path data-name="Path 2581" d="M281.665 1530.323s6.731 12.491 5.287 19.985-8.176 6.849-12.254 5.768a13.2 13.2 0 0 1-6.086-3.407 5.623 5.623 0 0 1-6.359-1.7c-2.725-3.243-1.562-7.322.481-8.4s4.687.233 4.687.233l-2.289-3.634s6.689-19.773 16.533-8.845Z" fill="#ffdfad"/>
              <path data-name="Path 2582" d="M267.494 1548.501a.518.518 0 0 1-.227-.055l-4.106-2.4a.454.454 0 1 1 .454-.781l4.088 2.389a.463.463 0 0 1 .173.618.472.472 0 0 1-.382.227Z"/>
              <path data-name="Path 2583" d="M264.134 1548.868a.454.454 0 0 1-.4-.245.445.445 0 0 1 .191-.609l2.1-1.1a.454.454 0 0 1 .609.191.463.463 0 0 1-.191.618l-2.1 1.09a.418.418 0 0 1-.209.055Z"/>
              <path data-name="Path 2584" d="M283.491 1535.22a.445.445 0 0 1-.254-.082 2.017 2.017 0 0 0-2.271 0 .45524499.45524499 0 0 1-.536-.736 2.925 2.925 0 0 1 3.316 0 .454.454 0 0 1-.254.827Z"/>
              <path data-name="Path 2585" d="M282.092 1547.047h-.082a.454.454 0 0 1-.363-.527 7.858 7.858 0 0 0-1.517-6.45.445.445 0 0 1 0-.636.454.454 0 0 1 .645 0 8.648 8.648 0 0 1 1.735 7.213.445.445 0 0 1-.418.4Z"/>
              <path data-name="Path 2586" d="M283.5 1541.352a.454.454 0 0 1-.454-.436l-.109-2.48a.455.455 0 1 1 .908-.036l.109 2.48a.454.454 0 0 1-.436.472Z"/>
              <path data-name="Path 2587" d="M276.678 1542.008a.454.454 0 0 1-.454-.436l-.109-2.48a.454.454 0 0 1 .436-.472.445.445 0 0 1 .472.436l.109 2.48a.454.454 0 0 1-.436.472Z"/>
              <path data-name="Path 2588" d="M283.046 1533.148a4.415 4.415 0 0 0-3.924-1.744 5.623 5.623 0 0 0-3.921 2.217s1.562 4.251-1.735 6.913-6.086 2.262-6.086 2.262l-2.653-.663-2.235-3.552 6.609-8.694 9.084-5.986 5.316 3.951Z" fill="#e56445"/>
              <path data-name="Path 2589" d="M279.939 1549.708a3.8 3.8 0 0 1-3.4-1.817.436.436 0 0 1 .154-.618.445.445 0 0 1 .618.154 3.07 3.07 0 0 0 3.107 1.335.4621669.4621669 0 1 1 .173.908 3.46 3.46 0 0 1-.654.036Z"/>
              <path data-name="Path 2590" d="M286.235 1545.094a4.542 4.542 0 1 1 4.424-4.542 4.542 4.542 0 0 1-4.424 4.542Zm0-8.176a3.654 3.654 0 1 0 0-.036Z" fill="#fff"/>
              <path data-name="Path 2591" d="M275.715 1546.112a4.542 4.542 0 1 1 4.542-4.542 4.542 4.542 0 0 1-4.542 4.542Zm0-8.176a1.508 1.508 0 1 0 0-.036Z" fill="#fff"/>
              <path data-name="Path 2592" d="M279.386 1541.533a.454.454 0 0 1-.454-.418.445.445 0 0 1 .418-.491l3.207-.263a.456.456 0 1 1 .073.908l-3.207.263Z" fill="#fff"/>
              <path data-name="Path 2593" d="M264.724 1542.606a.445.445 0 0 1-.327-.763c2.444-2.6 7.213-.191 7.422-.091a.454.454 0 0 1 .191.609.445.445 0 0 1-.609.2s-4.369-2.189-6.359-.091a.463.463 0 0 1-.318.136Z" fill="#fff"/>
              <path data-name="Path 2594" d="M278.005 1565.851a15.979 15.979 0 0 1-9.647-3.179.454.454 0 0 1-.1-.636.463.463 0 0 1 .636-.1c8.021 5.9 16.678 1.308 16.76 1.254a.45554802.45554802 0 1 1 .436.8 18.549 18.549 0 0 1-8.085 1.862Z" fill="#fff"/>
              <path data-name="Path 2595" d="M273.461 1536.692a.472.472 0 0 1-.245-.064.463.463 0 0 1-.145-.627 3.27 3.27 0 0 1 4.034-1.481.45807778.45807778 0 0 1-.354.845 2.362 2.362 0 0 0-2.907 1.117.445.445 0 0 1-.382.209Z"/>
            </g>
          </g>
        </g>
        <g data-name="Mask Group 2" transform="translate(442.844 -339)" clip-path="url(#b)">
          <g data-name="Layer 2">
            <g data-name="Layer 1">
              <path data-name="Path 2596" d="M395.999 1602.994a40 40 0 0 1-69.824 26.658c-.438-.48-.858-.978-1.27-1.484a40 40 0 1 1 71.094-25.174Z" fill="#edddd6"/>
              <path data-name="Path 2597" d="M345.412 1594.465s-9.3 7.01-10 15.538c-1.047 12.87 13.625 7.25 15.238-.97s-5.238-14.568-5.238-14.568Z"/>
              <path data-name="Path 2598" d="M381.817 1633.539a39.991 39.991 0 0 1-55.641-3.887c-.438-.48-.858-.978-1.27-1.484l25.319-18.344.944-.712 9.944.807 4.127.335Z" fill="#ffda73"/>
              <path data-name="Path 2599" d="M344.58 1593.594a11.892 11.892 0 0 1-2.394-9.438c.661-3.9 2.394-5.148 2.394-5.148s-2.643-5.32 5.217-4.994a22.068 22.068 0 0 1 12.527 4.144s3.561-1.759 5.148 2.428 0 10.373 0 10.373Z"/>
              <path data-name="Path 2600" d="m351.169 1609.755-24.994 19.9c-.438-.48-.858-.978-1.27-1.484a40.12 40.12 0 0 1-3.234-4.619c.772-.695 1.579-1.39 2.411-2.085 11.471-9.567 22.8-11.283 26.143-11.643.644-.06.944-.069.944-.069Z" fill="#ffda73"/>
              <path data-name="Path 2601" d="m361.843 1600.068-.2 10.253s-1.785 2.891-7.413 3.2c-4.2.232-5.474-2.1-5.474-2.1l1.184-8.958 10.184-2.059Z" fill="#fff0d9"/>
              <path data-name="Path 2602" d="M390.783 1622.754a40.214 40.214 0 0 1-22 18.155l6.469-7.885-14.104-23.106-.1-.163a36.536 36.536 0 0 1 4.23.5c5.934.984 16.968 3.91 25.505 12.499Z" fill="#ffda73"/>
              <path data-name="Path 2603" d="M361.843 1599.476a3.337 3.337 0 0 1-.309.927c-2.265 4.736-9.876 6.547-12.3 6.7l.695-4.728Z"/>
              <path data-name="Path 2604" d="M348.346 1580.446s-5.345 11.909-3.526 18.648 7.954 5.731 11.626 4.47a12.132 12.132 0 0 0 5.4-3.492 5.148 5.148 0 0 0 5.723-1.965c2.325-3.157.944-6.864-1-7.722s-4.29.541-4.29.541l1.854-3.432s-7.481-17.73-15.787-7.048Z" fill="#fff0d9"/>
              <path data-name="Path 2605" d="M362.323 1590.956s-5.148 1.03-8.717-4.693-3.295-8.069-3.295-8.069l-3.544 5.9s-.8-4.093.858-6.71 3.338-2.068 3.338-2.068l11.36 2.831 2.986 9.095Z"/>
              <path data-name="Path 2606" d="M348.749 1595.694a.438.438 0 0 1-.412-.309c-.789-2.574 1.03-5.191 1.107-5.3a.431.431 0 0 1 .7.5s-1.653 2.379-.983 4.55a.438.438 0 0 1-.283.541Z"/>
              <path data-name="Path 2607" d="M362.778 1596.61a.429.429 0 0 1-.309-.721l3.26-3.432a.429.429 0 0 1 .618.592l-3.256 3.433a.4.4 0 0 1-.309.129Z"/>
              <path data-name="Path 2608" d="M366.218 1595.701h-.06l-2.248-.343a.438.438 0 0 1-.36-.489.429.429 0 0 1 .489-.36l2.248.343a.430385.430385 0 0 1-.069.858Z"/>
              <path data-name="Path 2609" d="M353.057 1599.116a5.843 5.843 0 0 1-2.574-.858.42.42 0 0 1-.206-.378.446.446 0 0 1 .232-.369l3.6-1.913a.412.412 0 0 1 .36 0 .438.438 0 0 1 .249.275c0 .077.592 2.016-.618 2.943a1.716 1.716 0 0 1-1.043.3Zm-1.45-1.253c.695.309 1.562.558 1.973.249a1.6 1.6 0 0 0 .4-1.484Z"/>
              <path data-name="Path 2610" d="M346.45 1585.894a.431.431 0 1 1-.077-.858l2.128-.369a.43516663.43516663 0 0 1 .146.858l-2.128.369Z"/>
              <path data-name="Path 2611" d="M355.27 1587.294a.4.4 0 0 1-.189-.051l-3.483-1.759a.429.429 0 1 1 .386-.764l3.475 1.759a.429.429 0 0 1-.2.815Z"/>
              <path data-name="Path 2612" d="M368.784 1594.465a20.884 20.884 0 0 1 6.409 16.9c-1.09 10.476-11.48 9.112-13.659 5.311-3.312-5.792.309-16.611.309-16.611s6.366 1.067 6.941-5.6Z"/>
              <path data-name="Path 2613" d="M346.45 1590.802a.335.335 0 0 1-.129 0 .429.429 0 0 1-.283-.532l.592-1.939-.515-.635a.429.429 0 0 1 .06-.6.42.42 0 0 1 .6.06l.669.807a.455.455 0 0 1 .077.4l-.643 2.136a.412.412 0 0 1-.428.303Z"/>
              <path data-name="Path 2614" d="M352.945 1591.385h-.129a.438.438 0 0 1-.283-.541l.592-1.931-.755-.858a.42.42 0 0 1 .043-.6.438.438 0 0 1 .609.043l.909 1.073a.429.429 0 0 1 .086.4l-.661 2.162a.438.438 0 0 1-.412.249Z"/>
              <path data-name="Path 2615" d="M354.258 1613.942a9.026 9.026 0 0 1-5.843-2.042.42.42 0 0 1 0-.6.438.438 0 0 1 .609 0c.172.163 4.29 3.9 10.922.163a.429.429 0 1 1 .42.746 12.415 12.415 0 0 1-6.109 1.733Z" fill="#fff"/>
            </g>
          </g>
        </g>
        <g data-name="Mask Group 3" transform="translate(582.844 -347)" clip-path="url(#c)">
          <g data-name="Layer 2">
            <g data-name="Layer 1">
              <path data-name="Path 2616" d="M323.995 1667.997a37 37 0 1 1-25.628-35.2 37 37 0 0 1 25.628 35.2Z" fill="#edddd6"/>
              <path data-name="Path 2617" d="M284.175 1646.615s4.976-6.968 17.713-.071 7.333 38.56 7.333 38.56l-23.975-3.087Z"/>
              <path data-name="Path 2618" d="m288.349 1665.121.532 9.1s-1.421 2.714-6.523 3.46c-3.793.548-5.135-1.413-5.135-1.413l.436-8.039 9.126-2.674Z" fill="#ffdfad"/>
              <path data-name="Path 2619" d="M288.302 1664.558a2.928 2.928 0 0 1-.214.889c-1.674 4.674-8.46 6.984-10.65 7.325l.246-4.539Z"/>
              <path data-name="Path 2620" d="M274.445 1647.575s-3.889 11.705-1.682 17.943 7.706 4.817 10.952 3.325a11.11 11.11 0 0 0 4.635-3.722 4.611 4.611 0 0 0 5.055-2.317c1.857-3.174.3-6.539-1.54-7.2s-3.857.841-3.857.841l1.4-3.428s-8.265-16.22-14.963-5.442Z" fill="#ffdfad"/>
              <path data-name="Path 2621" d="M276.025 1661.987a.4.4 0 0 1-.365-.254c-.928-2.381.516-4.992.571-5.095a.4.4 0 0 1 .54-.159.4.4 0 0 1 .159.54s-1.325 2.381-.532 4.42a.4.4 0 0 1-.214.508.421.421 0 0 1-.159.04Z"/>
              <path data-name="Path 2622" d="M288.881 1661.749a.389.389 0 0 1-.317-.635l2.7-3.508a.4.4 0 0 1 .556-.079.4.4 0 0 1 .071.556l-2.696 3.514a.381.381 0 0 1-.317.151Z"/>
              <path data-name="Path 2623" d="m291.944 1660.614-2.1-.151a.4.4 0 1 1 .056-.794l2.079.151a.4.4 0 0 1 0 .794Z"/>
              <path data-name="Path 2624" d="M273.128 1652.884a.4.4 0 0 1-.381-.294.4.4 0 0 1 .278-.492l1.9-.516a.41014388.41014388 0 1 1 .206.794l-1.9.516Z"/>
              <path data-name="Path 2625" d="M281.286 1653.511h-.1l-2.7-.7a.40940078.40940078 0 1 1 .2-.794l2.7.7a.40013623.40013623 0 0 1-.1.794Z"/>
              <path data-name="Path 2626" d="M273.533 1657.535h-.079a.4.4 0 0 1-.309-.468l.381-1.9-.516-.579a.4.4 0 1 1 .587-.54l.667.714a.389.389 0 0 1 .1.357l-.436 2.063a.4.4 0 0 1-.395.353Z"/>
              <path data-name="Path 2627" d="M279.54 1657.606h-.079a.4.4 0 0 1-.309-.468l.389-1.889-.794-.794a.389.389 0 0 1 0-.556.4.4 0 0 1 .563 0l.944.9a.421.421 0 0 1 .1.357l-.429 2.1a.389.389 0 0 1-.389.349Z"/>
              <path data-name="Path 2628" d="M277.144 1677.906s-.96-4.849.3-5.135 2.785.54 5.761-.206 4.531-1.849 5.484-1.9.659 6.039.659 6.039l-7.353 3.107Z" fill="#3c76eb"/>
              <path data-name="Path 2629" d="M292.389 1655.868a5.857 5.857 0 0 0-2.508-.27 4.46 4.46 0 0 0-1.873.873l-1.313 1.833.738-3.754a26.125 26.125 0 0 0-2.381-1.1l.484-3.23-1.309 2.9a20.086 20.086 0 0 0-4.642-1.175c-.873-.1-1.667-.135-2.381-.143l.436-3.524-1.317 3.524a11.824 11.824 0 0 0-2.643.3l-1.19 3.627s-.294-9.777 3.968-12.459 11.967-2.762 15.531 1.889.4 10.709.4 10.709Z"/>
              <path data-name="Path 2630" d="M279.048 1664.407a.4.4 0 0 1-.048-.794 2.841 2.841 0 0 0 1.945-1.666.4.4 0 1 1 .706.365 3.563 3.563 0 0 1-2.547 2.111Z"/>
              <path data-name="Path 2631" d="M313.958 1693.325a37 37 0 0 1-56.773-3.42c3.333-4.127 10.539-11.642 20.07-13.634 12.459-2.611 30.14.226 36.703 17.054Z" fill="#3c76eb"/>
              <path data-name="Path 2632" d="M284.588 1675.636a.4.4 0 0 1 0-.794 11.11 11.11 0 0 0 4.158-.992.389.389 0 0 1 .524.19.4.4 0 0 1-.19.532 11.809 11.809 0 0 1-4.492 1.063Z" fill="#fff"/>
            </g>
          </g>
        </g>
        <g data-name="Mask Group 4" transform="translate(454.844 -377)" clip-path="url(#d)">
          <g data-name="Layer 2">
            <g data-name="Layer 1">
              <g data-name="Path 2633" fill="#edddd6">
                <path d="M347.49320464 1766.49931714c-8.12644005.00017547-15.93688965-2.9817009-21.99255944-8.39635086-1.14529037-1.03022003-2.22736025-2.14559174-3.21948004-3.31811142-2.31423997-2.74256134-4.15340995-5.8172493-5.46771997-9.14022064-1.28319-3.24427033-2.04097002-6.65835953-2.25230998-10.14741898-.21135008-3.48904991.12881995-6.96964073 1.01102996-10.34507942.90361-3.45732117 2.35820997-6.73153114 4.3233701-9.73167038 3.0204699-4.61120987 7.18292022-8.4203701 12.03734947-11.01566005 4.77778053-2.55431005 10.16135025-3.90444004 15.5686798-3.90444004 3.18968201 0 6.36286164.46412003 9.43138886 1.37947999 3.43682098 1.02521999 6.66021347 2.58918 9.58065033 4.64845015 2.85127258 2.01049995 5.3561325 4.4509697 7.44499206 7.25362014 2.08885956 2.8026495 3.7117691 5.90044976 4.82365036 9.20735932 1.13884736 3.3871212 1.71646882 6.92302131 1.7168274 10.50949096 0 5.1494999-1.22905731 10.29942132-3.5542984 14.89317132-2.26089096 4.46662902-5.55889893 8.4090538-9.55406952 11.4259758l-.00308228.009243-.38055801.28186799c-.1916771.1419754-.38905716.28816986-.60902405.4310379-2.79776382 1.95768738-5.861866 3.46220398-9.10785675 4.47208405-3.17158127.9867363-6.46775818 1.48708725-9.7969799 1.48717117Zm18.66568946-6.34978485.14529038.20726394c.27396393-.0269966.52884292-.12955093.7395401-.28970337l-.88362885-1.2027893-.00120163 1.28522873Zm-.8862381-2.49465561.88734437 1.209301-.88734436-1.209301Z"/>
                <path d="M347.50156073 1702.00037c-10.42355728 0-20.42328262 5.19203186-26.3512497 14.2420082-7.63130569 11.65039826-6.70581054 26.9294548 2.2759285 37.57356263.95170594 1.1247673 1.97883606 2.18348312 3.07423783 3.16883468 10.90291214 9.74880219 27.08345794 10.70603943 39.05976486 2.31074143.1891861-.12161255.37160873-.25675202.55404663-.39188004.01350784-.04053497.0472908-.04053116.04575348-.039402 8.07172775-5.92985917 12.83903503-15.34762192 12.83903503-25.3653164v-.00001335c-.00138855-13.92726898-9.1487999-26.20044708-22.49490738-30.18164444-2.9789276-.8886261-6.00748443-1.31689071-9.00260925-1.31689071m-.0000019-3.00000763c3.3349552 0 6.65239906.48519134 9.86017799 1.44207 3.59282302 1.07175446 6.96277618 2.7068863 10.01625824 4.85997773 2.98094177 2.10192108 5.59962463 4.65324783 7.78329467 7.58310699 2.18367005 2.92985916 3.8802948 6.16841125 5.04273987 9.62570572 1.19072724 3.5414238 1.7946701 7.23811722 1.79504395 10.98738861 0 5.38386154-1.28496552 10.76803589-3.7159729 15.57075119-2.29283905 4.52971268-5.60603714 8.5439148-9.61491394 11.65941238l-.00730896.0219307-.7609787.56364822c-.19464493.14417649-.41291428.3058548-.66233826.46900177-2.91926956 2.03960037-6.11572266 3.60764313-9.50175476 4.661129-3.31609344 1.03170013-6.76221085 1.55483246-10.24263573 1.55483246-8.49601173 0-16.66151619-3.11748123-22.992342-8.77816391l-.00667953-.00597763c-1.19240188-1.07260895-2.32222366-2.23721314-3.35808563-3.46143341-2.42052841-2.86851883-4.3432808-6.08306122-5.7174797-9.5574112-1.3415413-3.39181518-2.13377762-6.96100235-2.35470582-10.60842514-.22094345-3.64742279.1347046-7.28614044 1.05703354-10.81508255.94477845-3.61482238 2.46547318-7.03794098 4.51984787-10.17427063 3.15774155-4.82078933 7.50952912-8.80315399 12.58490753-11.51656341 4.9945984-2.67022705 10.62270356-4.0816269 16.27589226-4.0816269Z" fill="#fffcf8"/>
              </g>
              <path data-name="Path 2634" d="M373.344 1751.505A31.513 31.513 0 0 1 354 1764.343c0-5.844.351-10.486.351-10.486s9.824-14.189 9.959-14.047c1.061.851 5.061 4.337 9.034 11.695Z" fill="#e23061"/>
              <path data-name="Path 2635" d="M366.121 1758.904a31.492 31.492 0 0 1-39.614-1.919 32.493 32.493 0 0 1-3.081-3.169 35.935 35.935 0 0 1 7.432-12.946 7.56 7.56 0 0 1 1.074-1 16.351 16.351 0 0 1 6.007-2.642h.041a37.162 37.162 0 0 1 6.714-.945c.791-.041 1.263-.041 1.263-.041s4.054.4 8.459 1.088c3.926.615 8.108 1.459 9.871 2.473a.8.8 0 0 1 .236.257c1.003 1.581 1.471 9.54 1.598 18.844Z" fill="#e23061"/>
              <path data-name="Path 2636" d="M337.994 1721.769s.264 4.73 2.392 4.946 5.257-2.473 5.257-2.473l-1.466-5.317Z"/>
              <path data-name="Path 2637" d="m344.135 1730.6.095 7.432s1.432 2.122 5.98 2.459c3.378.243 4.567-.493 4.567-.493l-.527-3.75-.514-3.662-8.223-1.693Z" fill="#fff0d9"/>
              <path data-name="Path 2638" d="M345.966 1730.925a2.5 2.5 0 0 0 .223.716c1.689 3.689 6.23 4.446 8.108 4.594l-.466-3.655Z"/>
              <path data-name="Path 2639" d="M355.317 1715.662s3.977 9.263 2.487 14.445-6.209 4.317-9.034 3.3a9.317 9.317 0 0 1-4.122-2.763 3.986 3.986 0 0 1-4.4-1.588c-1.75-2.473-.642-5.284.865-5.919a4.172 4.172 0 0 1 3.3.466l-1.4-2.7s6.021-13.593 12.304-5.241Z" fill="#fff0d9"/>
              <path data-name="Path 2640" d="M344.176 1727.668a.311.311 0 0 1-.2-.068l-3.378-2.372a.338.338 0 0 1 .385-.547l3.378 2.372a.34.34 0 0 1-.189.615Z"/>
              <path data-name="Path 2641" d="M341.128 1727.668a.34.34 0 1 1-.081-.675l2.189-.588a.351.351 0 0 1 .419.243.338.338 0 0 1-.243.412l-2.2.588Z"/>
              <path data-name="Path 2642" d="M348.905 1720.148a.318.318 0 0 1-.169-.047.345.345 0 0 1-.122-.466 2.338 2.338 0 0 1 2.858-1.115.338.338 0 0 1 .189.439.345.345 0 0 1-.439.189 1.669 1.669 0 0 0-2.027.831.338.338 0 0 1-.29.169Z"/>
              <path data-name="Path 2643" d="M356.324 1719.263a.345.345 0 0 1-.209-.074 1.419 1.419 0 0 0-1.608-.149.345.345 0 0 1-.466-.122.338.338 0 0 1 .115-.459 2.088 2.088 0 0 1 2.365.2.331.331 0 0 1 .047.473.345.345 0 0 1-.244.131Z"/>
              <path data-name="Path 2644" d="M355.027 1727.148h-.088a.338.338 0 0 1-.243-.412c.473-1.743-.757-4.365-.77-4.392a.34018598.34018598 0 0 1 .615-.291c.054.115 1.351 2.872.811 4.858a.338.338 0 0 1-.324.236Z"/>
              <path data-name="Path 2645" d="M355.648 1722.824a.331.331 0 0 1-.324-.25l-.48-1.662a.338.338 0 0 1 .236-.412.331.331 0 0 1 .412.23l.48 1.7a.338.338 0 0 1-.23.419Z"/>
              <path data-name="Path 2646" d="M350.642 1722.938a.345.345 0 0 1-.324-.25l-.48-1.7a.35003571.35003571 0 0 1 .676-.182l.473 1.7a.331.331 0 0 1-.23.419Z"/>
              <path data-name="Path 2647" d="M355.858 1717.006s-.547-.736-2.4-.736a4.007 4.007 0 0 0-2.919 1.318s-.155 3.378-2.655 5.034-3.466.993-3.466.993l-1.831-.635-1.351-2.655 5.23-5.736 6.284-2.7 3.108 3.48Z"/>
              <path data-name="Path 2648" d="M353.155 1729.303a2.777 2.777 0 0 1-2.581-1.554.338.338 0 0 1 .155-.453.345.345 0 0 1 .453.155 2.182 2.182 0 0 0 2.112 1.17.34.34 0 1 1 .068.676.919.919 0 0 1-.209.007Z"/>
              <path data-name="Path 2649" d="M339.027 1726.127a9.588 9.588 0 0 1-2.088-6.426l.055-.364s-2.155-.236-1.439-3.1 4.378-6.7 10.081-8.108 10.223 7.236 10.223 7.236a14.242 14.242 0 0 0-8.358 2.459 18.179 18.179 0 0 0-4.9 5.149Z" fill="#7c6053"/>
              <path data-name="Path 2650" d="M351.628 1740.722a15.668 15.668 0 0 1-8.108-2.378.33823254.33823254 0 1 1 .378-.561c.047.034 5.054 3.378 10.756 1.878a.34840243.34840243 0 1 1 .169.676 12.777 12.777 0 0 1-3.2.385Z" fill="#f7734f"/>
              <path data-name="Path 2651" d="M336.939 1720.04a.365.365 0 0 1-.169-.041.345.345 0 0 1-.128-.459l1.081-1.885a.331.331 0 0 1 .459-.122.338.338 0 0 1 .128.459l-1.081 1.878a.338.338 0 0 1-.29.17Z" fill="#ffbf69"/>
              <path data-name="Path 2652" d="M366.168 1758.863a.053.053 0 0 0-.047.041c-.182.135-.365.27-.554.392l-1.73-8.621a.338.338 0 0 1 .264-.4.331.331 0 0 1 .4.264Z" fill="#f7734f"/>
            </g>
          </g>
        </g>
        <g data-name="Mask Group 5" transform="translate(530.844 -383)" clip-path="url(#e)">
          <g data-name="Layer 2">
            <g data-name="Layer 1">
              <g data-name="Path 2653" fill="#edddd6">
                <path d="M308.4999322 1822.47715826c-5.52611923 0-10.88061904-1.61460113-15.48462963-4.66926193l-.01631927-.01081848-.01603031-.01124954-.31304932-.2196846c-1.01739788-.6877594-1.99313545-1.45590592-2.90049362-2.28335572-.09714508-.08572387-.20558071-.18177032-.31690455-.29137802-.4532094-.41547775-.84756803-.81030273-1.204319-1.2057457-.18392324-.19506835-.3669982-.389225-.55550384-.58883666l-.02199984-.02328873-.02097988-.02421188-.06754255-.07793045c-2.03190899-2.2868309-3.66451132-4.86961365-4.85231751-7.67655945-1.16052002-2.74245835-1.87306005-5.64073944-2.11784-8.61433983-.24477005-2.97359848-.01576006-5.94937897.68067998-8.84468842.71355999-2.96648025 1.90348-5.78411102 3.53670997-8.37464046 2.5381999-4.02595043 6.08482027-7.35755062 10.25645017-9.63464046 4.10684967-2.24173 8.7456894-3.42665004 13.41502-3.42665004 2.62091064 0 5.23176955.37005007 7.76006888 1.09985005 2.9422722.8493 5.70438004 2.16296995 8.20960236 3.90452993 2.4451294 1.69976998 4.59458923 3.77042008 6.38866806 6.1544199 1.79409027 2.38401032 3.18867874 5.02272988 4.14504242 7.8428793.9798584 2.88946152 1.47744751 5.90731048 1.47892761 8.96970176l.00001145.04583931c-.00001145 3.50807953-.64855957 6.94194794-1.92764283 10.20653916-.96095657 2.45413208-2.26875686 4.75358581-3.88692092 6.83424759-.19363404.2549591-.3929329.4926796-.58571625.7226448-.09896088.11804963-.19244003.22954941-.28132248.33879853l-.00665665.0081787-.00677109.00809098c-.19733047.2356987-.41596221.4859085-.6683998.76491165l-.0024109.00267029-.00242996.00265884c-1.57986831 1.72941971-3.37599182 3.25481034-5.33845901 4.53379822-.48658371.31627655-1.13462067.72677231-1.85021973 1.10842514-4.1059761 2.2433815-8.74847221 3.42909622-13.42630195 3.42909622Z"/>
                <path d="M308.49993602 1820.97716208c4.36543655 0 8.74113655-1.07711792 12.71357536-3.2489853.60782242-.32378768 1.17588044-.6759796 1.74393082-1.04520797 1.85765076-1.21068191 3.55448914-2.65175247 5.05001068-4.2888298.21585846-.23858261.42604828-.47716141.63055039-.72143173.2726593-.33514786.57373046-.67597962.84072113-1.02817917 1.53151702-1.96775055 2.7710266-4.14624024 3.68018722-6.46809006 1.20552063-3.0768509 1.82426071-6.352211 1.82427216-9.65900993l-.00001145-.04544068c-.0057106-11.79259968-7.80820083-22.16062927-19.13824081-25.43109953-11.33001518-3.27046025-23.45747852 1.3447107-29.74666882 11.32025969-6.28919983 9.97554016-5.22466981 22.907732 2.61111021 31.72056007l.07385016.0852089c.19313955.20450973.38058996.4033203.5680499.60214233.35787964.39764023.7384801.77256012 1.13610983 1.1361084.09088994.09088897.18745995.17610168.28402997.26131057.86256027.7873993 1.7814703 1.51074982 2.74938964 2.16429139l.32379055.22721862c4.42609501 2.936615 9.53367138 4.4191742 14.65534306 4.4191742m-.00000381 2.99999618c-5.82205964 0-11.46331978-1.70108032-16.31391907-4.91934967l-.0646906-.0441513-.30237579-.21219254c-1.06975364-.7239151-2.09592866-1.53177643-3.05072069-2.40164184-.10011863-.08838272-.21953058-.19445038-.34802055-.31985093-.47595358-.43723297-.89355803-.85567855-1.27432919-1.27687072-.1799755-.19088364-.35924482-.38101197-.5437336-.57636261l-.04399967-.04658127-.10338735-.11929321c-2.1379497-2.4076004-3.85583997-5.12641907-5.10632283-8.08146668-1.22275-2.88951874-1.97348994-5.9430809-2.2313699-9.07584-.25788022-3.13275909-.0165701-6.26796913.71721982-9.31855964.75189006-3.12585068 2.00558005-6.09461022 3.72623003-8.82380009 2.67425024-4.24172973 6.41112005-7.75198984 10.8066498-10.15129983 4.3266306-2.36169005 9.21399021-3.61002004 14.13370037-3.61002004 2.76169014 0 5.5125103.38984012 8.17606926 1.1586901 3.0997696.89475994 6.00997925 2.27892994 8.64979935 4.11405002 2.57625198 1.7909298 4.84089279 3.97249985 6.7310028 6.48410988 1.89011765 2.5116005 3.35940934 5.2917099 4.36705018 8.26309967 1.03250885 3.04471016 1.55682754 6.22439003 1.55838775 9.4507103l.00001145.04623031c-.00001145 3.69643975-.68334198 7.31440926-2.03100968 10.75407982-1.01262665 2.58607102-2.39066314 5.00964356-4.09548568 7.20277024-.21351243.2806015-.43151474.54064178-.62429429.77058792-.0953102.11368179-.18534088.22107315-.26724243.321743l-.02684784.03253938c-.20978164.25057983-.44079971.51499939-.70624923.8083992l-.0096817.01063919c-1.66524125 1.82287216-3.55841065 3.43067932-5.6269188 4.77878952-.51202392.33281707-1.19327545.76419067-1.95698547 1.17188644-4.32413101 2.36102295-9.21280289 3.60895538-14.13853645 3.60895538Z" fill="#fffcf8"/>
              </g>
              <path data-name="Path 2654" d="M328.025 1812.417a26.261 26.261 0 0 1-5.05 4.289c-.568.369-1.136.721-1.744 1.045a26.505 26.505 0 0 1-27.369-1.17l-.324-.227a23.989 23.989 0 0 1-2.75-2.165c-.1-.085-.193-.17-.284-.261-.4-.364-.778-.738-1.136-1.136a50.16 50.16 0 0 1 5.033-9.657 12.065 12.065 0 0 1 9.265-5.544 61.448 61.448 0 0 1 15.014 1.21 6.658 6.658 0 0 1 4.38 3.471 90.623 90.623 0 0 1 4.965 10.145Z" fill="#8c75ff"/>
              <path data-name="Path 2655" d="M315.056 1775.368s-.233-1.494 1.193-.886.818 2.113 0 1.909a2.011 2.011 0 0 1-1.193-1.023Z" fill="#7772d3"/>
              <path data-name="Path 2656" d="M317.8 1784.815s-.227 4.033-2.045 4.221-4.488-2.107-4.488-2.107l1.255-4.544Z"/>
              <path data-name="Path 2657" d="M303.95 1783.668s-5.93-1.9-6.817-4.419 10.322 1.28 10.322 1.28Z" fill="#5c5cc6"/>
              <path data-name="Path 2658" d="m312.539 1792.308-.46 6.4s-1.136 1.806-4.868 2.073c-2.761.2-3.721-.432-3.721-.432l.415-3.2.4-3.119 6.707-1.421Z" fill="#f49282"/>
              <path data-name="Path 2659" d="M311.012 1792.629a1.948 1.948 0 0 1-.193.608c-1.443 3.153-5.323 3.8-6.913 3.925l.4-3.119Z"/>
              <path data-name="Path 2660" d="M303.03 1779.6s-3.408 7.908-2.118 12.329 5.3 3.7 7.709 2.84a8.027 8.027 0 0 0 3.5-2.38 3.408 3.408 0 0 0 3.755-1.358c1.494-2.107.568-4.51-.744-5.05a3.6 3.6 0 0 0-2.84.4l1.187-2.3s-5.092-11.61-10.449-4.481Z" fill="#f49282"/>
              <path data-name="Path 2661" d="M312.539 1789.829a.273.273 0 0 1-.233-.119.284.284 0 0 1 .068-.4l2.84-2.022a.284.284 0 1 1 .329.46l-2.857 2.028a.267.267 0 0 1-.148.051Z"/>
              <path data-name="Path 2662" d="M315.135 1789.82a.182.182 0 0 1-.074 0l-1.869-.5a.293.293 0 1 1 .142-.568l1.875.5a.284.284 0 0 1 .2.347.29.29 0 0 1-.278.222Z"/>
              <path data-name="Path 2663" d="M308.302 1783.401a.29.29 0 0 1-.227-.114 1.267 1.267 0 0 0-.818-.568 1.244 1.244 0 0 0-.818.222.284.284 0 0 1-.352-.443 1.669 1.669 0 0 1 2.443.432.29.29 0 0 1-.057.4.278.278 0 0 1-.171.071Z"/>
              <path data-name="Path 2664" d="M302.161 1782.838a.278.278 0 0 1-.216-.1.29.29 0 0 1 .04-.4 1.341 1.341 0 0 1 1.045-.375.767.767 0 0 1 .511.358.284.284 0 0 1-.494.278.222.222 0 0 0-.131-.08.811.811 0 0 0-.568.261.3.3 0 0 1-.187.058Z"/>
              <path data-name="Path 2665" d="M303.274 1789.399a.284.284 0 0 1-.273-.21 6.3 6.3 0 0 1 .21-3.471.278.278 0 0 1 .364-.165.284.284 0 0 1 .165.364 5.862 5.862 0 0 0-.193 3.124.278.278 0 0 1-.2.347Z"/>
              <path data-name="Path 2666" d="M302.167 1785.872h-.08a.29.29 0 0 1-.2-.352l.415-1.449a.278.278 0 0 1 .347-.193.284.284 0 0 1 .2.352l-.386 1.437a.278.278 0 0 1-.3.2Z"/>
              <path data-name="Path 2667" d="M306.812 1785.997h-.074a.29.29 0 0 1-.2-.352l.409-1.449a.29412285.29412285 0 1 1 .568.153l-.409 1.449a.29.29 0 0 1-.294.199Z"/>
              <path data-name="Path 2668" d="M302.576 1780.748s.466-.631 2.045-.625a3.408 3.408 0 0 1 2.491 1.136 5.969 5.969 0 0 0 2.272 4.294c2.142 1.454 2.948.846 2.948.846l1.562-.568 1.165-2.272-4.457-4.89-5.368-2.273-2.653 2.954Z"/>
              <path data-name="Path 2669" d="M304.871 1791.24h-.176a.284.284 0 0 1-.256-.312.29.29 0 0 1 .312-.256 1.858 1.858 0 0 0 1.812-.994.284.284 0 1 1 .511.244 2.374 2.374 0 0 1-2.2 1.318Z"/>
              <path data-name="Path 2670" d="M302.371 1779.004s2.232-6.357 10.168-5 5.26 11.446 5.26 11.446l-3.6-1.176Z" fill="#7772d3"/>
              <path data-name="Path 2671" d="M300.065 1778.555s2.772.1 9.93 3.408a48.426 48.426 0 0 1 4.617 2.477s-8.236-3.459-11.44-3.411a4.482 4.482 0 0 0-2.022.477Z" fill="#5c5cc6"/>
              <path data-name="Path 2672" d="M305.912 1801.016a11.463 11.463 0 0 1-2.488-.25.29.29 0 0 1-.21-.341.278.278 0 0 1 .341-.21c.051 0 4.732 1.085 8.356-1.6a.29.29 0 0 1 .4.062.284.284 0 0 1-.062.4 10.606 10.606 0 0 1-6.337 1.939Z" fill="#46467f"/>
            </g>
          </g>
        </g>
        <text data-name="24+" transform="translate(885.344 1391.64)" fill="#f63b45" font-size="28" font-family="TTCommons-Bold, TT Commons" font-weight="700"><tspan x="0" y="0">24+</tspan></text>
        <text transform="translate(885.344 1416)" fill="#f63b45" font-size="28" font-family="TTCommons-Light, TT Commons" font-weight="300"><tspan x="0" y="0">Joined</tspan></text>
        <path data-name="Path 2673" d="m549.769 1180.591 80.25-13.591a5.825 5.825 0 0 1 5.825 5.825v16.826a5.825 5.825 0 0 1-5.825 5.825l-80.25 13.591a5.825 5.825 0 0 1-5.825-5.825v-16.827a5.825 5.825 0 0 1 5.825-5.824Z" fill="#fffcf8"/>
        <path data-name="Path 2674" d="m522.86 1236.678 105.338-17.839a7.645 7.645 0 0 1 7.645 7.645v22.087a7.645 7.645 0 0 1-7.645 7.645l-105.338 17.84a7.645 7.645 0 0 1-7.645-7.645v-22.087a7.645 7.645 0 0 1 7.645-7.646Z" fill="#d9353e"/>
        <path data-name="Path 2675" d="m488.018 1289.042 105.338-17.839a7.645 7.645 0 0 1 7.645 7.645v22.087a7.645 7.645 0 0 1-7.645 7.645l-105.338 17.84a7.645 7.645 0 0 1-7.645-7.645v-22.087a7.645 7.645 0 0 1 7.645-7.646Z" fill="#d9353e"/>
        <path data-name="Path 2676" d="m509.395 1332.262 105.338-17.839a7.645 7.645 0 0 1 7.645 7.645v22.087a7.645 7.645 0 0 1-7.645 7.645l-105.338 17.84a7.645 7.645 0 0 1-7.645-7.645v-22.087a7.645 7.645 0 0 1 7.645-7.646Z" fill="#d9353e"/>
        <text transform="rotate(-9 7891.27832742 -3073.58272258)" fill="#f63b45" font-size="24" font-family="TTCommons-BoldItalic, TT Commons" font-weight="700" font-style="italic"><tspan x="0" y="0">LIVE</tspan></text>
        <g data-name="Icon Frame">
          <path data-name="Rectangle 55" d="m568.911 1189.579 3.423-1.711v6.846h-3.423Z" fill="#f63b45" stroke="#f63b45" stroke-linejoin="round" stroke-width="2"/>
          <path d="M551.796 1183.589h20.538v20.538h-20.538Z" fill="none"/>
          <path data-name="Rectangle 54" d="m554.363 1187.867 11.98-1.711v11.98l-11.98 1.712Z" fill="#f63b45" stroke="#f63b45" stroke-linejoin="round" stroke-width="2"/>
        </g>
        <ellipse data-name="Ellipse 199" cx="12" cy="13.5" rx="12" ry="13.5" transform="rotate(25.97 -2415.28889604 1767.50953995)" fill="#c42d36"/>
        <ellipse data-name="Ellipse 200" cx="12" cy="13.5" rx="12" ry="13.5" transform="rotate(25.97 -2545.77430275 1716.49361776)" fill="#c42d36"/>
        <ellipse data-name="Ellipse 201" cx="12" cy="13.5" rx="12" ry="13.5" transform="rotate(25.97 -2628.49349897 1783.51334109)" fill="#c42d36"/>
        <path data-name="Path 2677" d="m554.369 1244.9 71.048-12.2" fill="none" stroke="#c42d36" stroke-linecap="round" stroke-width="3"/>
        <path data-name="Path 2680" d="m518.845 1296.9 71.048-12.2" fill="none" stroke="#c42d36" stroke-linecap="round" stroke-width="3"/>
        <path data-name="Path 2682" d="m539.845 1339.9 71.048-12.2" fill="none" stroke="#c42d36" stroke-linecap="round" stroke-width="3"/>
        <path data-name="Path 2678" d="m554.369 1254.548 54.848-9.448" fill="none" stroke="#c42d36" stroke-linecap="round" stroke-width="3"/>
        <path data-name="Path 2679" d="m518.845 1306.548 54.848-9.448" fill="none" stroke="#c42d36" stroke-linecap="round" stroke-width="3"/>
        <path data-name="Path 2681" d="m539.845 1349.548 54.848-9.448" fill="none" stroke="#c42d36" stroke-linecap="round" stroke-width="3"/>
        <path data-name="Path 2888" d="M640.047 1145.12s13.74-.226 17.343 15.092" fill="none" stroke="#f63b45" stroke-linecap="round" stroke-miterlimit="10" stroke-width="6"/>
        <path data-name="Path 2889" d="M640.951 1132.506s27.593 2.59 29.95 26.58" fill="none" stroke="#f63b45" stroke-linecap="round" stroke-miterlimit="10" stroke-width="6"/>
        <path data-name="Path 2890" d="M639.486 1118.878s40.771 1.128 47.3 42.122" fill="none" stroke="#f63b45" stroke-linecap="round" stroke-miterlimit="10" stroke-width="6"/>
      </g>
      <g data-name="Group 1053" transform="translate(50.017 -207.796)">
        <rect data-name="Rectangle 639" width="223" height="35" rx="5" transform="translate(435 528)" fill="#8c75ff"/>
        <text transform="translate(472.438 553.64)" fill="#fff" font-size="28" font-family="TTCommons-Bold, TT Commons" font-weight="700"><tspan x="0" y="0">Speaking</tspan></text>
        <text transform="translate(587.438 553)" fill="#fff" font-size="28" font-family="TTCommons-Light, TT Commons" font-weight="300"><tspan x="0" y="0">Class</tspan></text>
        <g data-name="Media / Camera Video">
          <g data-name="Icon Frame">
            <path data-name="Rectangle 55" d="m460.438 543 4-1v8l-4-1Z" fill="#fff" stroke="#fff" stroke-linejoin="round" stroke-width="2"/>
            <path data-name="Base" d="M440.438 534h24v24h-24Z" fill="none"/>
            <path data-name="Rectangle 54" d="M443.438 539h14v14h-14Z" fill="#fff" stroke="#fff" stroke-linejoin="round" stroke-width="2"/>
          </g>
        </g>
      </g>
      <g data-name="Group 1054" transform="translate(81.017 -160.796)">
        <rect data-name="Rectangle 639" width="274" height="35" rx="5" transform="translate(435 528)" fill="#01ae63"/>
        <text transform="translate(472.438 553.64)" fill="#fff" font-size="28" font-family="TTCommons-Bold, TT Commons" font-weight="700"><tspan x="0" y="0">Pronunciation</tspan></text>
        <text data-name="Class" transform="translate(643.875 553)" fill="#fff" font-size="28" font-family="TTCommons-Light, TT Commons" font-weight="300"><tspan x="0" y="0">Class</tspan></text>
        <g data-name="Media / Camera Video">
          <g data-name="Icon Frame">
            <path data-name="Rectangle 55" d="m462 542.64 4-1v8l-4-1Z" fill="#fff" stroke="#fff" stroke-linejoin="round" stroke-width="2"/>
            <path data-name="Base" d="M442 533.64h24v24h-24Z" fill="none"/>
            <path data-name="Rectangle 54" d="M445 538.64h14v14h-14Z" fill="#fff" stroke="#fff" stroke-linejoin="round" stroke-width="2"/>
          </g>
        </g>
      </g>
      <g data-name="Group 1052" transform="translate(13.017 -113.796)">
        <rect data-name="Rectangle 639" width="220" height="35" rx="5" transform="translate(435 528)" fill="#3c76eb"/>
        <text transform="translate(472.438 553.64)" fill="#fff" font-size="28" font-family="TTCommons-Bold, TT Commons" font-weight="700"><tspan x="0" y="0">Listening</tspan></text>
        <text data-name="Class" transform="translate(587.875 553)" fill="#fff" font-size="28" font-family="TTCommons-Light, TT Commons" font-weight="300"><tspan x="0" y="0">Class</tspan></text>
        <g data-name="vuesax/bold/calendar-2">
          <g data-name="Media / Camera Video">
            <g data-name="Icon Frame">
              <path data-name="Rectangle 55" d="m462.5 542 4-1v8l-4-1Z" fill="#fff" stroke="#fff" stroke-linejoin="round" stroke-width="2"/>
              <path data-name="Base" d="M442.5 533h24v24h-24Z" fill="none"/>
              <path data-name="Rectangle 54" d="M445.5 538h14v14h-14Z" fill="#fff" stroke="#fff" stroke-linejoin="round" stroke-width="2"/>
            </g>
          </g>
        </g>
      </g>
      <g data-name="Connection red">
        <g data-name="Layer 1">
          <path data-name="Path 2683" d="M623.8288392 634.22942147c30.98627077-8.88517017 55.00603119-36.78677424 67.53742004-61.74368138 10.75285787-21.33850688 17.27966436-44.70990697 23.60785929-67.34816147 4.02260545-14.26955884 8.10357286-28.98861727 13.23486436-43.0632191 35.19764004-96.63006944 127.08656651-171.98522093 228.69212557-187.65242966l-.40930127-2.5593252a293.029 293.029 0 0 0-140.65246463 63.85989757 293.134 293.134 0 0 0-90.07732887 125.45873539c-5.1610143 14.16322776-9.30358824 28.95404714-13.28879026 43.2669763-6.28808811 22.49151512-12.78588519 45.74640575-23.41448294 66.8869949-15.22278924 30.19153837-47.43421313 64.98505178-88.4013761 63.21038466-25.21535053-1.07224438-47.77884596-15.72346563-69.43218048-29.9324289-23.76073928-15.52506743-48.34792391-31.57049346-76.5023132-29.69025479-30.14351471 2.01784665-53.06569077 23.6542107-75.24211696 44.58987428-20.08545995 18.98369939-40.88197855 38.60405613-67.0831409 43.90024044-39.18619629 7.82844002-76.71923247-18.1878813-108.89213599-43.14668913l-1.60158943 2.05506771c32.65701735 25.30476996 70.82635011 51.6535844 110.98009918 43.5206553 26.99054806-5.46740115 47.99303402-25.3091048 68.36108662-44.53716334 22.86153078-21.56487872 44.43849046-41.94997905 73.65516851-43.89139406 27.27946075-1.81869145 50.40863344 13.29242351 74.89121212 29.25965368 22.05693197 14.386598 44.81843532 29.25672074 70.74782226 30.36660825a73.05 73.05 0 0 0 23.28956309-2.81034145Z" fill="#f63b45"/>
        </g>
      </g>
    </g>
  </g>
</svg>
