<svg xmlns="http://www.w3.org/2000/svg" width="995" height="649.935" viewBox="0 0 995 649.935">
  <g id="Group_1087" data-name="Group 1087" transform="translate(6944 -436.302)">
    <g id="Group_1062" data-name="Group 1062" transform="translate(-1155 -245)">
      <g id="Light_bulb" data-name="Light bulb" transform="translate(-6607 -1361.977)">
        <circle id="Ellipse_203" data-name="Ellipse 203" cx="124.5" cy="124.5" r="124.5" transform="translate(1010 2043.279)" fill="#fffae9"/>
        <circle id="Ellipse_202" data-name="Ellipse 202" cx="90.5" cy="90.5" r="90.5" transform="translate(1044 2077.279)" fill="#fff3c9"/>
        <g id="vuesax_bold_lamp-charge" data-name="vuesax/bold/lamp-charge" transform="translate(514.723 1917.779)">
          <g id="lamp-charge" transform="translate(556 188)">
            <path id="Vector" d="M38.237,9.813a3.331,3.331,0,0,1-1.008-.159,59.416,59.416,0,0,0-32.516,0A3.7,3.7,0,0,1,.151,7.108,3.662,3.662,0,0,1,2.7,2.546a67.04,67.04,0,0,1,36.6,0,3.685,3.685,0,0,1,2.546,4.562A3.836,3.836,0,0,1,38.237,9.813Z" transform="translate(42.709 106.885)" fill="#ffc800"/>
            <path id="Vector-2" data-name="Vector" d="M80.84,23.115A41.986,41.986,0,0,0,52.3,1.048,42.853,42.853,0,0,0,15.966,9.429,42.291,42.291,0,0,0,0,42.688C0,56.426,8.222,70.8,20.634,79.13v4.4a7.117,7.117,0,0,0,1.7,5.623c1.857,1.91,4.615,2.122,6.79,2.122H56.333A8.861,8.861,0,0,0,62.858,89a7.934,7.934,0,0,0,1.91-6.153V79.13C81.211,68.043,91.555,44.651,80.84,23.115Zm-29.121,27.9-5.676,9.866A4.009,4.009,0,0,1,42.595,62.9a3.641,3.641,0,0,1-1.963-.53,4,4,0,0,1-1.485-5.411l4.509-7.851H39.2a6.337,6.337,0,0,1-5.729-9.919l5.676-9.866a3.967,3.967,0,1,1,6.9,3.925L41.534,41.1H45.99a6.337,6.337,0,0,1,5.729,9.919Z" transform="translate(21.059 10.622)" fill="#ffc800"/>
            <path id="Vector-3" data-name="Vector" d="M0,0H127.307V127.307H0Z" transform="translate(127.307 127.307) rotate(180)" fill="none" opacity="0"/>
          </g>
        </g>
      </g>
      <g id="Boy_practice" data-name="Boy practice" transform="translate(-5676 737.302)">
        <g id="Layer_1" data-name="Layer 1">
          <path id="Path_2687" data-name="Path 2687" d="M224.453,166.5s7.849-56.967,11.14-60.322S309.081,44.466,312.182,27.5A23.673,23.673,0,0,0,303.131,2.88S112.607,70.291,107.48,76.115s20.065,88.616,20.065,88.616Z" transform="translate(569.166 15.35)" fill="#ffd6be"/>
          <path id="Path_2688" data-name="Path 2688" d="M315.533,23.483,115.2,105.326,105.45,77.6,307.558,0Z" transform="translate(562.017)"/>
          <path id="Path_2689" data-name="Path 2689" d="M181.229,42.972,158.695,64.114,126.35,21.958l22.66-15.7Z" transform="translate(673.408 33.364)"/>
          <path id="Path_2690" data-name="Path 2690" d="M205.061,179.926s-2.659-57.664,0-61.4,61.082-74.058,61.082-91.274A23.673,23.673,0,0,0,252.724,4.72s-175.08,100.9-179.067,107.6S109.483,196,109.483,196Z" transform="translate(391.071 25.156)" fill="#ffd6be"/>
          <path id="Path_2691" data-name="Path 2691" d="M69.041,234.291s27.091-29.18,141.279-31.649S355.9,209.479,355.9,209.479l-4.431-169.13L495.22,21.36s66.209,173.75,64.753,255.277-68.551,111.086-89.945,115.9S59.61,394.686,59.61,394.686Z" transform="translate(317.704 113.843)" fill="#ffda73"/>
          <path id="Path_2692" data-name="Path 2692" d="M16.267,112.675H838.306a16.267,16.267,0,1,0,0-32.535H16.267a16.267,16.267,0,0,0,0,32.535Z" transform="translate(0 427.123)" fill="#8c75ff"/>
          <path id="Path_2693" data-name="Path 2693" d="M282.87,200.333,217.864,25.57,74.37,37.153l42.979,148.432Z" transform="translate(396.37 136.281)" fill="#ffda73"/>
          <path id="Path_2694" data-name="Path 2694" d="M466.6,137.459,356.531,244.367a374.281,374.281,0,0,1-85.324,12.153c-48.232,1.266-85.768,0-85.768,0l-24.433-29.686-34.434,30.193L8.65,154.486A666.579,666.579,0,0,1,144.232,70.111C219.746,35.93,330.9,34.158,466.6,137.459Z" transform="translate(46.102 262.009)" fill="#f63b45"/>
          <path id="Path_2695" data-name="Path 2695" d="M30.712,170.62a1.962,1.962,0,0,1-1.962-1.962V62.762a1.962,1.962,0,0,1,3.924,0v105.9a1.962,1.962,0,0,1-1.962,1.962Z" transform="translate(153.229 324.046)" fill="#222"/>
          <path id="Path_2696" data-name="Path 2696" d="M101.484,110.373a1.139,1.139,0,0,1-.633,0c-1.582-.57-37.978-14.432-42.536-28.61a9.3,9.3,0,0,1,1.139-8.355,7.785,7.785,0,0,1,6.33-3.8c13.292,0,34.687,34.054,37.092,37.978a1.962,1.962,0,0,1-1.709,2.975Zm-35.51-36.9a3.734,3.734,0,0,0-3.291,1.962,5.57,5.57,0,0,0-.633,5c2.848,8.672,22.344,18.989,34.434,23.8-7.912-11.71-22.344-30.7-30.383-30.762Z" transform="translate(308.048 371.001)" fill="#222"/>
          <path id="Path_2697" data-name="Path 2697" d="M85.219,116.572,23.314,67.2S3.946,91.253,8.44,144.3c5.254,61.841,92.287,78.931,92.287,78.931L114.842,171.7Z" transform="translate(41.375 358.156)" fill="#ffd6be"/>
          <path id="Path_2698" data-name="Path 2698" d="M70.172,96.518s3.671-27.028-12.28-22.534-8.482,28.1-8.482,28.1Z" transform="translate(254.035 391.629)" fill="#ffa98f"/>
          <path id="Path_2699" data-name="Path 2699" d="M91.531,46,100.9,81.889a50.2,50.2,0,0,1-36.332,18.989C38.362,103.6,43.3,90.308,43.3,90.308L41.21,71.319,84.189,49.355Z" transform="translate(219.637 245.166)" fill="#ffd6be"/>
          <path id="Path_2700" data-name="Path 2700" d="M83.922,46.56a15.442,15.442,0,0,1,0,4.494C80.314,75.36,56.071,86.817,42.906,86.817L41.26,69.41Z" transform="translate(219.904 248.151)"/>
          <path id="Path_2701" data-name="Path 2701" d="M36.644,55.249S29.3,115.761,46.962,143.422s43.358,14.622,57.98,3.924a56.081,56.081,0,0,0,18.989-23.04,24.116,24.116,0,0,0,22.85-16.647c5.95-17.343-5.254-31.649-15.065-32.914a25.319,25.319,0,0,0-18.356,8.292l3.228-18.166S58.925-3.807,36.644,55.249Z" transform="translate(187.237 166.733)" fill="#ffd6be"/>
          <path id="Path_2702" data-name="Path 2702" d="M43.567,68.869a1.836,1.836,0,0,1-1.582-.823A31.965,31.965,0,0,1,39.58,42.728a1.972,1.972,0,1,1,3.735,1.266,28.42,28.42,0,0,0,1.9,21.711,1.962,1.962,0,0,1-.506,2.722,2.6,2.6,0,0,1-1.139.443Z" transform="translate(202.595 220.588)"/>
          <path id="Path_2703" data-name="Path 2703" d="M50.67,63.323A1.962,1.962,0,0,1,48.9,60.475l9.748-19.812a1.982,1.982,0,1,1,3.545,1.772L52.379,62.247A1.962,1.962,0,0,1,50.67,63.323Z" transform="translate(259.485 210.88)"/>
          <path id="Path_2704" data-name="Path 2704" d="M51.156,46.755a1.9,1.9,0,0,1-1.9-1.646A2.025,2.025,0,0,1,50.9,42.831L61.41,41.311a1.962,1.962,0,0,1,.57,3.861L51.473,46.755Z" transform="translate(262.418 220.169)"/>
          <path id="Path_2705" data-name="Path 2705" d="M145.758,114.565a6.963,6.963,0,0,1-10.317,0c-5.95-5-2.848-26.205-2.848-26.205s-15.381,8.8-27.281,6.33S83.79,78.8,83.79,78.8s-2.722,17.976-27.344,18.04S18.025,67.472,40.179,53.8,78.79,46.774,78.79,46.774s-3.8-23.23,29.37-21.331c30.193,1.709,45.194,34.307,45.194,34.307a22.407,22.407,0,0,1,25.319,12.659c8.545,16.774-8.229,35.953-8.229,35.953a29.623,29.623,0,0,0-24.686,6.2Z" transform="translate(154.839 135.015)"/>
          <path id="Path_2706" data-name="Path 2706" d="M44.913,53.438a2.025,2.025,0,0,1-1.962-1.646L41.179,41.475A2.025,2.025,0,0,1,42.761,39.2a1.962,1.962,0,0,1,2.279,1.582L46.812,51.1a1.962,1.962,0,0,1-1.582,2.279Z" transform="translate(219.352 208.738)"/>
          <path id="Path_2707" data-name="Path 2707" d="M40,54.479a2.026,2.026,0,0,1-1.962-1.646L36.457,42.453A1.962,1.962,0,0,1,38.1,40.237a2.025,2.025,0,0,1,2.279,1.646L41.963,52.2a2.025,2.025,0,0,1-1.646,2.279Z" transform="translate(194.198 214.344)"/>
          <path id="Path_2708" data-name="Path 2708" d="M53.168,46.324a1.836,1.836,0,0,1-1.772-1.2c-2.026-5-8.735-4.3-9.051-4.241a2.089,2.089,0,0,1-2.215-1.772A1.962,1.962,0,0,1,41.9,36.956,12.659,12.659,0,0,1,55,43.665,1.9,1.9,0,0,1,53.927,46.2a1.582,1.582,0,0,1-.76.127Z" transform="translate(213.819 196.231)"/>
          <path id="Path_2709" data-name="Path 2709" d="M37.5,47.554a1.962,1.962,0,0,1-1.962-2.026c0-2.658,2.279-7.659,10.254-7.849a1.962,1.962,0,0,1,0,3.924c-6.33,0-6.33,3.671-6.33,4.051A2.026,2.026,0,0,1,37.5,47.554Z" transform="translate(189.417 200.823)"/>
          <path id="Path_2710" data-name="Path 2710" d="M42.69,59.429a1.962,1.962,0,0,1-.886-3.735,8.8,8.8,0,0,0,4.684-7.659,1.962,1.962,0,0,1,1.772-2.152,1.836,1.836,0,0,1,2.152,1.709,12.659,12.659,0,0,1-6.836,11.837A2.658,2.658,0,0,1,42.69,59.429Z" transform="translate(216.828 244.397)"/>
          <path id="Path_2711" data-name="Path 2711" d="M268.381,23.618,86.212,140.464,71.59,114.955,256.291,1.97Z" transform="translate(381.554 10.5)"/>
          <path id="Path_2712" data-name="Path 2712" d="M149.29,39.673,131,64.612,91.5,28.975,111,9.48Z" transform="translate(487.668 50.526)"/>
          <path id="Path_2713" data-name="Path 2713" d="M258.519,109.116a5.7,5.7,0,0,1-2.658-.633c-8.988-4.367-12.659-32.978-13.419-40.32C231.175,65.378,150.281,46.769,83.186,55.5a1.836,1.836,0,0,1-2.152-1.646,1.9,1.9,0,0,1,1.646-2.215C154.712,41.895,242.252,63.8,244.72,64.3a1.329,1.329,0,0,1,.633,0h0c2.405,2.6,22.154,24.369,20.572,36.586a8.609,8.609,0,0,1-3.861,6.33A7.406,7.406,0,0,1,258.519,109.116ZM246.936,72.657c1.836,13.166,5.633,29.876,10.634,32.281a2.279,2.279,0,0,0,2.6-.316,4.177,4.177,0,0,0,2.089-3.355C263.2,94.115,253.709,80.823,246.936,72.657Z" transform="translate(431.735 261.931)"/>
          <path id="Path_2714" data-name="Path 2714" d="M234.057,65.59s65.386,88.173-2.152,137.165S64.8,243.9,64.8,243.9L49.23,169.461l116.53-51.207Z" transform="translate(262.381 349.575)" fill="#ffd6be"/>
          <path id="Path_2715" data-name="Path 2715" d="M51.248,95.745s-12.659,34.877,17.154,35,26.521-35,26.521-35L65.173,86.82Z" transform="translate(258.907 462.725)" fill="#ffd6be"/>
          <path id="Path_2716" data-name="Path 2716" d="M63.5,96.847s19.875,30.319-9.874,30.446S16.28,86.34,16.28,86.34l33.168,1.519Z" transform="translate(86.768 460.167)" fill="#ffd6be"/>
          <path id="Path_2717" data-name="Path 2717" d="M63.369,77.648c-20.382,0-22.6-9.621-22.66-10.064a1.962,1.962,0,0,1,1.519-2.342A2.026,2.026,0,0,1,44.57,66.76s2.279,8.1,22.787,6.836a51.081,51.081,0,0,0,38.738-22.217,2.025,2.025,0,0,1,3.418,2.089A54.562,54.562,0,0,1,67.546,77.521Z" transform="translate(216.721 269.98)" fill="#222"/>
          <rect id="Rectangle_640" data-name="Rectangle 640" width="167.674" height="120.138" rx="1.51" transform="translate(311.358 581.32) rotate(180)" fill="#fff"/>
          <rect id="Rectangle_641" data-name="Rectangle 641" width="168.37" height="120.138" rx="1.51" transform="translate(300.851 581.32) rotate(180)"/>
          <path id="Path_2718" data-name="Path 2718" d="M85.566,102.4a24.939,24.939,0,0,0-7.975-8.672C66.514,86.073,31.764,70.122,21.446,79.87s9.115,18.989,9.115,18.989S13.724,94.3,14.547,106.835A17.027,17.027,0,0,0,26,120.823s-18.04-3.1-11.457,11.963,43.738,28.231,57.41,27.534,3.988-18.356,3.988-18.356,14.748-2.405,14.748-10.571-11.583-11.9-11.583-11.9a11.647,11.647,0,0,0,6.456-17.09Z" transform="translate(69.828 409.353)" fill="#ffd6be"/>
          <path id="Path_2719" data-name="Path 2719" d="M61.845,103.85a1.964,1.964,0,0,1-.823,0l-44.308-20a1.962,1.962,0,0,1-1.013-2.6,2.025,2.025,0,0,1,2.785-1.076l44.308,19.939a2.025,2.025,0,0,1,.949,2.6A1.9,1.9,0,0,1,61.845,103.85Z" transform="translate(82.788 426.199)"/>
          <path id="Path_2720" data-name="Path 2720" d="M61.442,106.976a1.712,1.712,0,0,1-.76,0L15.995,87.164a1.962,1.962,0,0,1-1.013-2.6,2.026,2.026,0,0,1,2.6-1.013l44.308,19.5a1.962,1.962,0,0,1-.823,3.8Z" transform="translate(78.951 444.531)"/>
          <path id="Path_2721" data-name="Path 2721" d="M48.747,102.4a24.37,24.37,0,0,1,7.975-8.672C67.8,86.073,102.55,70.122,112.867,79.87s-9.178,18.989-9.178,18.989,16.9-4.557,16.077,7.975a17.027,17.027,0,0,1-11.457,13.989s18.04-3.1,11.457,11.963-43.738,28.231-57.41,27.534S58.3,141.965,58.3,141.965,43.62,139.559,43.62,131.394s11.583-11.9,11.583-11.9a11.647,11.647,0,0,1-6.456-17.09Z" transform="translate(232.482 409.353)" fill="#ffd6be"/>
          <path id="Path_2722" data-name="Path 2722" d="M47.757,103.808a1.9,1.9,0,0,1-1.772-1.2,2.025,2.025,0,0,1,.949-2.6L91.242,80.135a2.025,2.025,0,0,1,2.6.949,1.962,1.962,0,0,1-1.013,2.6l-44.308,20a1.963,1.963,0,0,1-.76.127Z" transform="translate(244.232 426.241)"/>
          <path id="Path_2723" data-name="Path 2723" d="M48.573,106.869a1.962,1.962,0,0,1-.823-3.8l44.308-19.5a2.06,2.06,0,0,1,2.089,3.481l-44.308,19.5a1.709,1.709,0,0,1-1.266.316Z" transform="translate(247.657 444.638)"/>
        </g>
      </g>
      <g id="Group_1056" data-name="Group 1056" transform="translate(-6198 388.899)">
        <rect id="Rectangle_639" data-name="Rectangle 639" width="163" height="35" rx="5" transform="translate(435 528)" fill="#3c76eb"/>
        <text id="False" transform="translate(525.094 553.64)" fill="#fff" font-size="28" font-family="TTCommons-Bold, TT Commons" font-weight="700"><tspan x="0" y="0">False</tspan></text>
        <text id="True" transform="translate(471.438 553)" fill="#fff" font-size="28" font-family="TTCommons-Light, TT Commons" font-weight="300"><tspan x="0" y="0">True</tspan></text>
        <g id="vuesax_bold_lamp-charge-2" data-name="vuesax/bold/lamp-charge" transform="translate(-114.781 345)">
          <g id="lamp-charge-2" data-name="lamp-charge" transform="translate(556 188)">
            <path id="Vector-4" data-name="Vector" d="M7.678,1.97a.669.669,0,0,1-.2-.032,11.93,11.93,0,0,0-6.529,0A.744.744,0,0,1,.03,1.427.735.735,0,0,1,.541.511a13.461,13.461,0,0,1,7.349,0,.74.74,0,0,1,.511.916A.77.77,0,0,1,7.678,1.97Z" transform="translate(8.576 21.462)" fill="#fff"/>
            <path id="Vector-5" data-name="Vector" d="M16.232,4.641A8.431,8.431,0,0,0,10.5.21a8.6,8.6,0,0,0-7.3,1.683A8.492,8.492,0,0,0,0,8.571a9.218,9.218,0,0,0,4.143,7.317v.884A1.429,1.429,0,0,0,4.484,17.9a1.837,1.837,0,0,0,1.363.426h5.464a1.779,1.779,0,0,0,1.31-.458A1.593,1.593,0,0,0,13,16.634v-.746A8.926,8.926,0,0,0,16.232,4.641Zm-5.847,5.6-1.14,1.981a.8.8,0,0,1-.692.4.731.731,0,0,1-.394-.107.8.8,0,0,1-.3-1.086L8.766,9.86H7.871a1.272,1.272,0,0,1-1.15-1.992L7.86,5.887a.8.8,0,1,1,1.385.788L8.34,8.252h.895a1.272,1.272,0,0,1,1.15,1.992Z" transform="translate(4.228 2.133)" fill="#fff"/>
            <path id="Vector-6" data-name="Vector" d="M0,0H25.563V25.563H0Z" transform="translate(25.563 25.563) rotate(180)" fill="none" opacity="0"/>
          </g>
        </g>
      </g>
      <g id="Group_1057" data-name="Group 1057" transform="translate(-6176 434.834)">
        <rect id="Rectangle_639-2" data-name="Rectangle 639" width="228" height="35" rx="5" transform="translate(435 528)" fill="#01ae63"/>
        <text id="Correct" transform="translate(560.094 553.64)" fill="#fff" font-size="28" font-family="TTCommons-Bold, TT Commons" font-weight="700"><tspan x="0" y="0">Correct</tspan></text>
        <text id="Choose" transform="translate(471.438 553)" fill="#fff" font-size="28" font-family="TTCommons-Light, TT Commons" font-weight="300"><tspan x="0" y="0">Choose</tspan></text>
        <g id="vuesax_bold_lamp-charge-3" data-name="vuesax/bold/lamp-charge" transform="translate(-114.781 345)">
          <g id="lamp-charge-3" data-name="lamp-charge" transform="translate(556 188)">
            <path id="Vector-7" data-name="Vector" d="M7.678,1.97a.669.669,0,0,1-.2-.032,11.93,11.93,0,0,0-6.529,0A.744.744,0,0,1,.03,1.427.735.735,0,0,1,.541.511a13.461,13.461,0,0,1,7.349,0,.74.74,0,0,1,.511.916A.77.77,0,0,1,7.678,1.97Z" transform="translate(8.576 21.462)" fill="#fff"/>
            <path id="Vector-8" data-name="Vector" d="M16.232,4.641A8.431,8.431,0,0,0,10.5.21a8.6,8.6,0,0,0-7.3,1.683A8.492,8.492,0,0,0,0,8.571a9.218,9.218,0,0,0,4.143,7.317v.884A1.429,1.429,0,0,0,4.484,17.9a1.837,1.837,0,0,0,1.363.426h5.464a1.779,1.779,0,0,0,1.31-.458A1.593,1.593,0,0,0,13,16.634v-.746A8.926,8.926,0,0,0,16.232,4.641Zm-5.847,5.6-1.14,1.981a.8.8,0,0,1-.692.4.731.731,0,0,1-.394-.107.8.8,0,0,1-.3-1.086L8.766,9.86H7.871a1.272,1.272,0,0,1-1.15-1.992L7.86,5.887a.8.8,0,1,1,1.385.788L8.34,8.252h.895a1.272,1.272,0,0,1,1.15,1.992Z" transform="translate(4.228 2.133)" fill="#fff"/>
            <path id="Vector-9" data-name="Vector" d="M0,0H25.563V25.563H0Z" transform="translate(25.563 25.563) rotate(180)" fill="none" opacity="0"/>
          </g>
        </g>
      </g>
      <g id="Group_1059" data-name="Group 1059" transform="translate(-6132 526.705)">
        <rect id="Rectangle_639-3" data-name="Rectangle 639" width="253" height="35" rx="5" transform="translate(435 528)" fill="#8c75ff"/>
        <text id="Listening" transform="translate(472.094 553.64)" fill="#fff" font-size="28" font-family="TTCommons-Bold, TT Commons" font-weight="700"><tspan x="0" y="0">Listening</tspan></text>
        <text id="Practice" transform="translate(587 553)" fill="#fff" font-size="28" font-family="TTCommons-Light, TT Commons" font-weight="300"><tspan x="0" y="0">Practice</tspan></text>
        <g id="vuesax_bold_lamp-charge-4" data-name="vuesax/bold/lamp-charge" transform="translate(-114.781 345)">
          <g id="lamp-charge-4" data-name="lamp-charge" transform="translate(556 188)">
            <path id="Vector-10" data-name="Vector" d="M7.678,1.97a.669.669,0,0,1-.2-.032,11.93,11.93,0,0,0-6.529,0A.744.744,0,0,1,.03,1.427.735.735,0,0,1,.541.511a13.461,13.461,0,0,1,7.349,0,.74.74,0,0,1,.511.916A.77.77,0,0,1,7.678,1.97Z" transform="translate(8.576 21.462)" fill="#fff"/>
            <path id="Vector-11" data-name="Vector" d="M16.232,4.641A8.431,8.431,0,0,0,10.5.21a8.6,8.6,0,0,0-7.3,1.683A8.492,8.492,0,0,0,0,8.571a9.218,9.218,0,0,0,4.143,7.317v.884A1.429,1.429,0,0,0,4.484,17.9a1.837,1.837,0,0,0,1.363.426h5.464a1.779,1.779,0,0,0,1.31-.458A1.593,1.593,0,0,0,13,16.634v-.746A8.926,8.926,0,0,0,16.232,4.641Zm-5.847,5.6-1.14,1.981a.8.8,0,0,1-.692.4.731.731,0,0,1-.394-.107.8.8,0,0,1-.3-1.086L8.766,9.86H7.871a1.272,1.272,0,0,1-1.15-1.992L7.86,5.887a.8.8,0,1,1,1.385.788L8.34,8.252h.895a1.272,1.272,0,0,1,1.15,1.992Z" transform="translate(4.228 2.133)" fill="#fff"/>
            <path id="Vector-12" data-name="Vector" d="M0,0H25.563V25.563H0Z" transform="translate(25.563 25.563) rotate(180)" fill="none" opacity="0"/>
          </g>
        </g>
      </g>
      <g id="Group_1058" data-name="Group 1058" transform="translate(-6224 480.77)">
        <rect id="Rectangle_639-4" data-name="Rectangle 639" width="185" height="35" rx="5" transform="translate(435 528)" fill="#f63b45"/>
        <text id="Completion" transform="translate(472.094 553.64)" fill="#fff" font-size="28" font-family="TTCommons-Bold, TT Commons" font-weight="700"><tspan x="0" y="0">Completion</tspan></text>
        <g id="vuesax_bold_lamp-charge-5" data-name="vuesax/bold/lamp-charge" transform="translate(-114.781 345)">
          <g id="lamp-charge-5" data-name="lamp-charge" transform="translate(556 188)">
            <path id="Vector-13" data-name="Vector" d="M7.678,1.97a.669.669,0,0,1-.2-.032,11.93,11.93,0,0,0-6.529,0A.744.744,0,0,1,.03,1.427.735.735,0,0,1,.541.511a13.461,13.461,0,0,1,7.349,0,.74.74,0,0,1,.511.916A.77.77,0,0,1,7.678,1.97Z" transform="translate(8.576 21.462)" fill="#fff"/>
            <path id="Vector-14" data-name="Vector" d="M16.232,4.641A8.431,8.431,0,0,0,10.5.21a8.6,8.6,0,0,0-7.3,1.683A8.492,8.492,0,0,0,0,8.571a9.218,9.218,0,0,0,4.143,7.317v.884A1.429,1.429,0,0,0,4.484,17.9a1.837,1.837,0,0,0,1.363.426h5.464a1.779,1.779,0,0,0,1.31-.458A1.593,1.593,0,0,0,13,16.634v-.746A8.926,8.926,0,0,0,16.232,4.641Zm-5.847,5.6-1.14,1.981a.8.8,0,0,1-.692.4.731.731,0,0,1-.394-.107.8.8,0,0,1-.3-1.086L8.766,9.86H7.871a1.272,1.272,0,0,1-1.15-1.992L7.86,5.887a.8.8,0,1,1,1.385.788L8.34,8.252h.895a1.272,1.272,0,0,1,1.15,1.992Z" transform="translate(4.228 2.133)" fill="#fff"/>
            <path id="Vector-15" data-name="Vector" d="M0,0H25.563V25.563H0Z" transform="translate(25.563 25.563) rotate(180)" fill="none" opacity="0"/>
          </g>
        </g>
      </g>
      <g id="Group_1055" data-name="Group 1055" transform="translate(-6599 -1345.698)">
        <rect id="Rectangle_639-5" data-name="Rectangle 639" width="228" height="35" rx="5" transform="translate(869 2214)" fill="#8c75ff"/>
        <text id="_3_Straight" data-name="3 Straight" transform="translate(896.094 2239.64)" fill="#fff" font-size="28" font-family="TTCommons-Bold, TT Commons" font-weight="700"><tspan x="0" y="0">3 Straight</tspan></text>
        <text id="Puzzle" transform="translate(1017 2239)" fill="#fff" font-size="28" font-family="TTCommons-Light, TT Commons" font-weight="300"><tspan x="0" y="0">Puzzle</tspan></text>
        <g id="Group_965" data-name="Group 965" transform="translate(47.931 107.931)">
          <g id="Rectangle_642" data-name="Rectangle 642" transform="translate(788.069 2086.069)" fill="#fff" stroke="#8c75ff" stroke-width="3">
            <rect width="55" height="55" rx="12" stroke="none"/>
            <rect x="1.5" y="1.5" width="52" height="52" rx="10.5" fill="none"/>
          </g>
          <circle id="Ellipse_204" data-name="Ellipse 204" cx="4.5" cy="4.5" r="4.5" transform="translate(795.069 2093.069)" fill="#f63b45"/>
          <g id="Ellipse_209" data-name="Ellipse 209" transform="translate(795.069 2109.069)" fill="#ffefb7" stroke="#ffe482" stroke-width="1">
            <circle cx="4.5" cy="4.5" r="4.5" stroke="none"/>
            <circle cx="4.5" cy="4.5" r="4" fill="none"/>
          </g>
          <g id="Ellipse_212" data-name="Ellipse 212" transform="translate(795.069 2125.069)" fill="#ffefb7" stroke="#ffe482" stroke-width="1">
            <circle cx="4.5" cy="4.5" r="4.5" stroke="none"/>
            <circle cx="4.5" cy="4.5" r="4" fill="none"/>
          </g>
          <g id="Ellipse_205" data-name="Ellipse 205" transform="translate(811.069 2093.069)" fill="#ffefb7" stroke="#ffe482" stroke-width="1">
            <circle cx="4.5" cy="4.5" r="4.5" stroke="none"/>
            <circle cx="4.5" cy="4.5" r="4" fill="none"/>
          </g>
          <circle id="Ellipse_208" data-name="Ellipse 208" cx="4.5" cy="4.5" r="4.5" transform="translate(811.069 2109.069)" fill="#f63b45"/>
          <g id="Ellipse_211" data-name="Ellipse 211" transform="translate(811.069 2125.069)" fill="#ffefb7" stroke="#ffe482" stroke-width="1">
            <circle cx="4.5" cy="4.5" r="4.5" stroke="none"/>
            <circle cx="4.5" cy="4.5" r="4" fill="none"/>
          </g>
          <g id="Ellipse_206" data-name="Ellipse 206" transform="translate(827.069 2093.069)" fill="#ffefb7" stroke="#ffe482" stroke-width="1">
            <circle cx="4.5" cy="4.5" r="4.5" stroke="none"/>
            <circle cx="4.5" cy="4.5" r="4" fill="none"/>
          </g>
          <g id="Path_2724" data-name="Path 2724" transform="translate(827.115 2109.128)" fill="#ffefb7">
            <path d="M 4.440885543823242 8.381775856018066 C 2.26787543296814 8.381775856018066 0.4999955296516418 6.613895416259766 0.4999955296516418 4.440885543823242 C 0.4999955296516418 2.26787543296814 2.26787543296814 0.4999955296516418 4.440885543823242 0.4999955296516418 C 6.613895416259766 0.4999955296516418 8.381775856018066 2.26787543296814 8.381775856018066 4.440885543823242 C 8.381775856018066 6.613895416259766 6.613895416259766 8.381775856018066 4.440885543823242 8.381775856018066 Z" stroke="none"/>
            <path d="M 4.440885543823242 0.9999957084655762 C 2.543575763702393 0.9999957084655762 0.9999957084655762 2.543575763702393 0.9999957084655762 4.440885543823242 C 0.9999957084655762 6.33819580078125 2.543575763702393 7.881775379180908 4.440885543823242 7.881775379180908 C 6.33819580078125 7.881775379180908 7.881775379180908 6.33819580078125 7.881775379180908 4.440885543823242 C 7.881775379180908 2.543575763702393 6.33819580078125 0.9999957084655762 4.440885543823242 0.9999957084655762 M 4.440885543823242 -4.76837158203125e-06 C 6.893515586853027 -4.76837158203125e-06 8.881775856018066 1.988255500793457 8.881775856018066 4.440885543823242 C 8.881775856018066 6.893515586853027 6.893515586853027 8.881775856018066 4.440885543823242 8.881775856018066 C 1.988255500793457 8.881775856018066 -4.76837158203125e-06 6.893515586853027 -4.76837158203125e-06 4.440885543823242 C -4.76837158203125e-06 1.988255500793457 1.988255500793457 -4.76837158203125e-06 4.440885543823242 -4.76837158203125e-06 Z" stroke="none" fill="#ffe482"/>
          </g>
          <circle id="Ellipse_210" data-name="Ellipse 210" cx="4.5" cy="4.5" r="4.5" transform="translate(827.069 2125.069)" fill="#f63b45"/>
          <path id="Path_2725" data-name="Path 2725" d="M-3217.5,1285.5l15.759,15.759" transform="translate(4017.087 812.087)" fill="none" stroke="#f63b45" stroke-width="4"/>
          <path id="Path_2726" data-name="Path 2726" d="M-3217.5,1285.5l15.759,15.759" transform="translate(4033.297 828.292)" fill="none" stroke="#f63b45" stroke-width="4"/>
        </g>
      </g>
      <g id="Group_1060" data-name="Group 1060" transform="translate(-6599 -1111.698)">
        <rect id="Rectangle_639-6" data-name="Rectangle 639" width="190" height="35" rx="5" transform="translate(869 2214)" fill="#01ae63"/>
        <text id="Jigsaw" transform="translate(896.094 2237.64)" fill="#fff" font-size="28" font-family="TTCommons-Bold, TT Commons" font-weight="700"><tspan x="0" y="0">Jigsaw</tspan></text>
        <text id="Puzzle-2" data-name="Puzzle" transform="translate(982 2237)" fill="#fff" font-size="28" font-family="TTCommons-Light, TT Commons" font-weight="300"><tspan x="0" y="0">Puzzle</tspan></text>
        <g id="Group_965-2" data-name="Group 965" transform="translate(47.931 107.931)">
          <g id="Rectangle_642-2" data-name="Rectangle 642" transform="translate(788.069 2086.069)" fill="#fff" stroke="#01ae63" stroke-width="3">
            <rect width="55" height="55" rx="12" stroke="none"/>
            <rect x="1.5" y="1.5" width="52" height="52" rx="10.5" fill="none"/>
          </g>
          <path id="Union_1" data-name="Union 1" d="M4101.07,822.569a4.477,4.477,0,0,1,.758-2.5h-6.759a1,1,0,0,1-1-1v-22a1,1,0,0,1,1-1h6.257a4.5,4.5,0,1,0,8.487,0h7.256a1,1,0,0,1,1,1v7.756a4.5,4.5,0,1,1,0,7.486v6.757a1,1,0,0,1-1,1h-7.757a4.5,4.5,0,1,1-8.242,2.5Z" transform="translate(4922.139 2923.138) rotate(180)" fill="#01ae63"/>
        </g>
      </g>
    </g>
  </g>
</svg>
