<svg xmlns="http://www.w3.org/2000/svg" viewBox="-34.788 -175.228 694.555 605.652" width="694.555" height="605.652">
    <defs>
        <clipPath id="clip0_1_183">
            <rect width="57.505" height="71.11" fill="white" transform="translate(532 444)"/>
        </clipPath>
        <clipPath id="clip1_1_183">
            <rect width="57.244" height="91.127" fill="white" transform="translate(0 236)"/>
        </clipPath>
        <clipPath id="clip2_1_183">
            <rect width="310.966" height="678.541" fill="white" transform="translate(214 75)"/>
        </clipPath>
    </defs>
    <g clip-path="url(#clip0_1_183)" transform="matrix(1, 0, 0, 1, -31.070768, -187.01567)">
        <path d="M533.403 446.806C534.178 446.806 534.806 446.178 534.806 445.403C534.806 444.628 534.178 444 533.403 444C532.628 444 532 444.628 532 445.403C532 446.178 532.628 446.806 533.403 446.806Z" fill="#F63B45"/>
        <path d="M547.07 446.806C547.845 446.806 548.473 446.178 548.473 445.403C548.473 444.628 547.845 444 547.07 444C546.295 444 545.667 444.628 545.667 445.403C545.667 446.178 546.295 446.806 547.07 446.806Z" fill="#F63B45"/>
        <path d="M560.722 446.806C561.497 446.806 562.125 446.178 562.125 445.403C562.125 444.628 561.497 444 560.722 444C559.947 444 559.319 444.628 559.319 445.403C559.319 446.178 559.947 446.806 560.722 446.806Z" fill="#F63B45"/>
        <path d="M574.389 446.806C575.164 446.806 575.792 446.178 575.792 445.403C575.792 444.628 575.164 444 574.389 444C573.614 444 572.986 444.628 572.986 445.403C572.986 446.178 573.614 446.806 574.389 446.806Z" fill="#F63B45"/>
        <path d="M588.056 446.806C588.831 446.806 589.459 446.178 589.459 445.403C589.459 444.628 588.831 444 588.056 444C587.281 444 586.653 444.628 586.653 445.403C586.653 446.178 587.281 446.806 588.056 446.806Z" fill="#F63B45"/>
        <path d="M533.403 460.473C534.178 460.473 534.806 459.845 534.806 459.07C534.806 458.295 534.178 457.667 533.403 457.667C532.628 457.667 532 458.295 532 459.07C532 459.845 532.628 460.473 533.403 460.473Z" fill="#F63B45"/>
        <path d="M547.07 460.473C547.845 460.473 548.473 459.845 548.473 459.07C548.473 458.295 547.845 457.667 547.07 457.667C546.295 457.667 545.667 458.295 545.667 459.07C545.667 459.845 546.295 460.473 547.07 460.473Z" fill="#F63B45"/>
        <path d="M560.722 460.473C561.497 460.473 562.125 459.845 562.125 459.07C562.125 458.295 561.497 457.667 560.722 457.667C559.947 457.667 559.319 458.295 559.319 459.07C559.319 459.845 559.947 460.473 560.722 460.473Z" fill="#F63B45"/>
        <path d="M574.389 460.473C575.164 460.473 575.792 459.845 575.792 459.07C575.792 458.295 575.164 457.667 574.389 457.667C573.614 457.667 572.986 458.295 572.986 459.07C572.986 459.845 573.614 460.473 574.389 460.473Z" fill="#F63B45"/>
        <path d="M588.056 460.473C588.831 460.473 589.459 459.845 589.459 459.07C589.459 458.295 588.831 457.667 588.056 457.667C587.281 457.667 586.653 458.295 586.653 459.07C586.653 459.845 587.281 460.473 588.056 460.473Z" fill="#F63B45"/>
        <path d="M533.403 474.125C534.178 474.125 534.806 473.497 534.806 472.722C534.806 471.947 534.178 471.319 533.403 471.319C532.628 471.319 532 471.947 532 472.722C532 473.497 532.628 474.125 533.403 474.125Z" fill="#F63B45"/>
        <path d="M547.07 474.125C547.845 474.125 548.473 473.497 548.473 472.722C548.473 471.947 547.845 471.319 547.07 471.319C546.295 471.319 545.667 471.947 545.667 472.722C545.667 473.497 546.295 474.125 547.07 474.125Z" fill="#F63B45"/>
        <path d="M560.722 474.125C561.497 474.125 562.125 473.497 562.125 472.722C562.125 471.947 561.497 471.319 560.722 471.319C559.947 471.319 559.319 471.947 559.319 472.722C559.319 473.497 559.947 474.125 560.722 474.125Z" fill="#F63B45"/>
        <path d="M574.389 474.125C575.164 474.125 575.792 473.497 575.792 472.722C575.792 471.947 575.164 471.319 574.389 471.319C573.614 471.319 572.986 471.947 572.986 472.722C572.986 473.497 573.614 474.125 574.389 474.125Z" fill="#F63B45"/>
        <path d="M588.056 474.125C588.831 474.125 589.459 473.497 589.459 472.722C589.459 471.947 588.831 471.319 588.056 471.319C587.281 471.319 586.653 471.947 586.653 472.722C586.653 473.497 587.281 474.125 588.056 474.125Z" fill="#F63B45"/>
        <path d="M533.4 487.791C533.677 487.791 533.947 487.709 534.177 487.555C534.407 487.402 534.587 487.183 534.693 486.928C534.799 486.672 534.827 486.391 534.773 486.12C534.72 485.848 534.587 485.599 534.392 485.403C534.196 485.207 533.947 485.073 533.676 485.019C533.405 484.964 533.124 484.991 532.868 485.096C532.612 485.201 532.393 485.38 532.238 485.61C532.084 485.839 532.001 486.109 532 486.386C532 486.757 532.147 487.113 532.41 487.376C532.673 487.638 533.029 487.786 533.4 487.786V487.791Z" fill="#F63B45"/>
        <path d="M547.07 487.791C547.347 487.791 547.618 487.709 547.848 487.555C548.078 487.401 548.257 487.183 548.363 486.927C548.469 486.671 548.497 486.389 548.443 486.118C548.389 485.846 548.256 485.597 548.06 485.401C547.864 485.205 547.615 485.072 547.343 485.018C547.072 484.964 546.79 484.992 546.534 485.098C546.278 485.204 546.06 485.383 545.906 485.613C545.752 485.843 545.67 486.114 545.67 486.391C545.67 486.762 545.817 487.118 546.08 487.381C546.343 487.643 546.699 487.791 547.07 487.791Z" fill="#F63B45"/>
        <path d="M560.722 487.791C560.999 487.791 561.27 487.709 561.5 487.555C561.73 487.401 561.909 487.183 562.015 486.927C562.121 486.671 562.149 486.389 562.095 486.118C562.041 485.846 561.908 485.597 561.712 485.401C561.516 485.205 561.267 485.072 560.995 485.018C560.724 484.964 560.442 484.992 560.186 485.098C559.93 485.204 559.712 485.383 559.558 485.613C559.404 485.843 559.322 486.114 559.322 486.391C559.322 486.762 559.47 487.118 559.732 487.381C559.995 487.643 560.351 487.791 560.722 487.791Z" fill="#F63B45"/>
        <path d="M574.386 487.791C574.663 487.791 574.934 487.709 575.164 487.555C575.394 487.401 575.573 487.183 575.679 486.927C575.785 486.671 575.813 486.389 575.759 486.118C575.705 485.846 575.572 485.597 575.376 485.401C575.18 485.205 574.931 485.072 574.659 485.018C574.388 484.964 574.106 484.992 573.85 485.098C573.594 485.204 573.376 485.383 573.222 485.613C573.068 485.843 572.986 486.114 572.986 486.391C572.986 486.762 573.133 487.118 573.396 487.381C573.659 487.643 574.015 487.791 574.386 487.791Z" fill="#F63B45"/>
        <path d="M588.1 487.791C588.377 487.791 588.648 487.709 588.878 487.555C589.108 487.401 589.287 487.183 589.393 486.927C589.499 486.671 589.527 486.389 589.473 486.118C589.419 485.846 589.286 485.597 589.09 485.401C588.894 485.205 588.645 485.072 588.373 485.018C588.102 484.964 587.82 484.992 587.564 485.098C587.308 485.204 587.09 485.383 586.936 485.613C586.782 485.843 586.7 486.114 586.7 486.391C586.7 486.762 586.847 487.118 587.11 487.381C587.373 487.643 587.729 487.791 588.1 487.791Z" fill="#F63B45"/>
        <path d="M533.403 501.459C534.178 501.459 534.806 500.831 534.806 500.056C534.806 499.281 534.178 498.653 533.403 498.653C532.628 498.653 532 499.281 532 500.056C532 500.831 532.628 501.459 533.403 501.459Z" fill="#F63B45"/>
        <path d="M547.07 501.459C547.845 501.459 548.473 500.831 548.473 500.056C548.473 499.281 547.845 498.653 547.07 498.653C546.295 498.653 545.667 499.281 545.667 500.056C545.667 500.831 546.295 501.459 547.07 501.459Z" fill="#F63B45"/>
        <path d="M560.722 501.459C561.497 501.459 562.125 500.831 562.125 500.056C562.125 499.281 561.497 498.653 560.722 498.653C559.947 498.653 559.319 499.281 559.319 500.056C559.319 500.831 559.947 501.459 560.722 501.459Z" fill="#F63B45"/>
        <path d="M574.389 501.459C575.164 501.459 575.792 500.831 575.792 500.056C575.792 499.281 575.164 498.653 574.389 498.653C573.614 498.653 572.986 499.281 572.986 500.056C572.986 500.831 573.614 501.459 574.389 501.459Z" fill="#F63B45"/>
        <path d="M588.056 501.459C588.831 501.459 589.459 500.831 589.459 500.056C589.459 499.281 588.831 498.653 588.056 498.653C587.281 498.653 586.653 499.281 586.653 500.056C586.653 500.831 587.281 501.459 588.056 501.459Z" fill="#F63B45"/>
        <path d="M533.403 515.111C534.178 515.111 534.806 514.483 534.806 513.708C534.806 512.933 534.178 512.305 533.403 512.305C532.628 512.305 532 512.933 532 513.708C532 514.483 532.628 515.111 533.403 515.111Z" fill="#F63B45"/>
        <path d="M547.07 515.111C547.845 515.111 548.473 514.483 548.473 513.708C548.473 512.933 547.845 512.305 547.07 512.305C546.295 512.305 545.667 512.933 545.667 513.708C545.667 514.483 546.295 515.111 547.07 515.111Z" fill="#F63B45"/>
        <path d="M560.722 515.111C561.497 515.111 562.125 514.483 562.125 513.708C562.125 512.933 561.497 512.305 560.722 512.305C559.947 512.305 559.319 512.933 559.319 513.708C559.319 514.483 559.947 515.111 560.722 515.111Z" fill="#F63B45"/>
        <path d="M574.389 515.111C575.164 515.111 575.792 514.483 575.792 513.708C575.792 512.933 575.164 512.305 574.389 512.305C573.614 512.305 572.986 512.933 572.986 513.708C572.986 514.483 573.614 515.111 574.389 515.111Z" fill="#F63B45"/>
        <path d="M588.056 515.111C588.831 515.111 589.459 514.483 589.459 513.708C589.459 512.933 588.831 512.305 588.056 512.305C587.281 512.305 586.653 512.933 586.653 513.708C586.653 514.483 587.281 515.111 588.056 515.111Z" fill="#F63B45"/>
    </g>
    <g clip-path="url(#clip1_1_183)" transform="matrix(1, 0, 0, 1, -31.070768, -187.01567)">
        <path d="M1.797 239.594C2.78946 239.594 3.594 238.789 3.594 237.797C3.594 236.805 2.78946 236 1.797 236C0.804544 236 0 236.805 0 237.797C0 238.789 0.804544 239.594 1.797 239.594Z" fill="#F63B45"/>
        <path d="M15.202 239.594C16.1945 239.594 16.999 238.789 16.999 237.797C16.999 236.805 16.1945 236 15.202 236C14.2095 236 13.405 236.805 13.405 237.797C13.405 238.789 14.2095 239.594 15.202 239.594Z" fill="#F63B45"/>
        <path d="M28.591 239.594C29.5835 239.594 30.388 238.789 30.388 237.797C30.388 236.805 29.5835 236 28.591 236C27.5986 236 26.794 236.805 26.794 237.797C26.794 238.789 27.5986 239.594 28.591 239.594Z" fill="#F63B45"/>
        <path d="M41.996 239.594C42.9885 239.594 43.793 238.789 43.793 237.797C43.793 236.805 42.9885 236 41.996 236C41.0035 236 40.199 236.805 40.199 237.797C40.199 238.789 41.0035 239.594 41.996 239.594Z" fill="#F63B45"/>
        <path d="M55.387 239.594C56.3795 239.594 57.184 238.789 57.184 237.797C57.184 236.805 56.3795 236 55.387 236C54.3945 236 53.59 236.805 53.59 237.797C53.59 238.789 54.3945 239.594 55.387 239.594Z" fill="#F63B45"/>
        <path d="M1.797 257.108C2.78946 257.108 3.594 256.303 3.594 255.311C3.594 254.319 2.78946 253.514 1.797 253.514C0.804544 253.514 0 254.319 0 255.311C0 256.303 0.804544 257.108 1.797 257.108Z" fill="#F63B45"/>
        <path d="M15.202 257.108C16.1945 257.108 16.999 256.303 16.999 255.311C16.999 254.319 16.1945 253.514 15.202 253.514C14.2095 253.514 13.405 254.319 13.405 255.311C13.405 256.303 14.2095 257.108 15.202 257.108Z" fill="#F63B45"/>
        <path d="M28.591 257.108C29.5835 257.108 30.388 256.303 30.388 255.311C30.388 254.319 29.5835 253.514 28.591 253.514C27.5986 253.514 26.794 254.319 26.794 255.311C26.794 256.303 27.5986 257.108 28.591 257.108Z" fill="#F63B45"/>
        <path d="M41.996 257.108C42.9885 257.108 43.793 256.303 43.793 255.311C43.793 254.319 42.9885 253.514 41.996 253.514C41.0035 253.514 40.199 254.319 40.199 255.311C40.199 256.303 41.0035 257.108 41.996 257.108Z" fill="#F63B45"/>
        <path d="M55.387 257.108C56.3795 257.108 57.184 256.303 57.184 255.311C57.184 254.319 56.3795 253.514 55.387 253.514C54.3945 253.514 53.59 254.319 53.59 255.311C53.59 256.303 54.3945 257.108 55.387 257.108Z" fill="#F63B45"/>
        <path d="M1.797 274.603C2.78946 274.603 3.594 273.798 3.594 272.806C3.594 271.814 2.78946 271.009 1.797 271.009C0.804544 271.009 0 271.814 0 272.806C0 273.798 0.804544 274.603 1.797 274.603Z" fill="#F63B45"/>
        <path d="M15.202 274.603C16.1945 274.603 16.999 273.798 16.999 272.806C16.999 271.814 16.1945 271.009 15.202 271.009C14.2095 271.009 13.405 271.814 13.405 272.806C13.405 273.798 14.2095 274.603 15.202 274.603Z" fill="#F63B45"/>
        <path d="M28.591 274.603C29.5835 274.603 30.388 273.798 30.388 272.806C30.388 271.814 29.5835 271.009 28.591 271.009C27.5986 271.009 26.794 271.814 26.794 272.806C26.794 273.798 27.5986 274.603 28.591 274.603Z" fill="#F63B45"/>
        <path d="M41.996 274.603C42.9885 274.603 43.793 273.798 43.793 272.806C43.793 271.814 42.9885 271.009 41.996 271.009C41.0035 271.009 40.199 271.814 40.199 272.806C40.199 273.798 41.0035 274.603 41.996 274.603Z" fill="#F63B45"/>
        <path d="M55.387 274.603C56.3795 274.603 57.184 273.798 57.184 272.806C57.184 271.814 56.3795 271.009 55.387 271.009C54.3945 271.009 53.59 271.814 53.59 272.806C53.59 273.798 54.3945 274.603 55.387 274.603Z" fill="#F63B45"/>
        <path d="M1.80001 292.118C2.15623 292.118 2.50444 292.012 2.80055 291.814C3.09667 291.616 3.32737 291.335 3.46346 291.006C3.59955 290.676 3.63491 290.314 3.56505 289.965C3.49519 289.616 3.32326 289.295 3.07102 289.043C2.81879 288.792 2.49759 288.621 2.14809 288.552C1.7986 288.483 1.43652 288.519 1.10771 288.656C0.778887 288.793 0.498112 289.025 0.300928 289.322C0.103744 289.618 -0.00098255 289.967 6.9476e-06 290.323C6.9476e-06 290.559 0.0465653 290.793 0.137024 291.012C0.227482 291.23 0.360069 291.429 0.527215 291.596C0.69436 291.763 0.892791 291.896 1.11118 291.986C1.32956 292.076 1.56363 292.123 1.80001 292.123V292.118Z" fill="#F63B45"/>
        <path d="M15.202 292.118C15.558 292.118 15.906 292.012 16.202 291.815C16.498 291.617 16.7288 291.336 16.865 291.007C17.0012 290.678 17.0369 290.316 16.9674 289.967C16.898 289.618 16.7265 289.297 16.4748 289.045C16.2231 288.793 15.9023 288.622 15.5532 288.553C15.204 288.483 14.8421 288.519 14.5132 288.655C14.1843 288.791 13.9031 289.022 13.7054 289.318C13.5076 289.614 13.402 289.962 13.402 290.318C13.402 290.795 13.5916 291.253 13.9292 291.591C14.2668 291.928 14.7246 292.118 15.202 292.118Z" fill="#F63B45"/>
        <path d="M28.591 292.118C28.947 292.118 29.295 292.012 29.591 291.815C29.8871 291.617 30.1178 291.336 30.254 291.007C30.3902 290.678 30.4259 290.316 30.3564 289.967C30.287 289.618 30.1155 289.297 29.8638 289.045C29.6121 288.793 29.2913 288.622 28.9422 288.553C28.593 288.483 28.2311 288.519 27.9022 288.655C27.5733 288.791 27.2922 289.022 27.0944 289.318C26.8966 289.614 26.791 289.962 26.791 290.318C26.791 290.795 26.9807 291.253 27.3182 291.591C27.6558 291.928 28.1136 292.118 28.591 292.118Z" fill="#F63B45"/>
        <path d="M41.999 292.118C42.355 292.118 42.703 292.012 42.999 291.815C43.295 291.617 43.5258 291.336 43.662 291.007C43.7982 290.678 43.8339 290.316 43.7644 289.967C43.695 289.618 43.5235 289.297 43.2718 289.045C43.0201 288.793 42.6993 288.622 42.3502 288.553C42.001 288.483 41.6391 288.519 41.3102 288.655C40.9813 288.791 40.7001 289.022 40.5024 289.318C40.3046 289.614 40.199 289.962 40.199 290.318C40.199 290.795 40.3886 291.253 40.7262 291.591C41.0638 291.928 41.5216 292.118 41.999 292.118Z" fill="#F63B45"/>
        <path d="M55.45 292.118C55.806 292.118 56.154 292.012 56.45 291.815C56.746 291.617 56.9767 291.336 57.113 291.007C57.2492 290.678 57.2849 290.316 57.2154 289.967C57.146 289.618 56.9745 289.297 56.7228 289.045C56.4711 288.793 56.1503 288.622 55.8012 288.553C55.452 288.483 55.0901 288.519 54.7612 288.655C54.4323 288.791 54.1511 289.022 53.9534 289.318C53.7556 289.614 53.65 289.962 53.65 290.318C53.65 290.795 53.8396 291.253 54.1772 291.591C54.5148 291.928 54.9726 292.118 55.45 292.118Z" fill="#F63B45"/>
        <path d="M1.797 309.632C2.78946 309.632 3.594 308.827 3.594 307.835C3.594 306.843 2.78946 306.038 1.797 306.038C0.804544 306.038 0 306.843 0 307.835C0 308.827 0.804544 309.632 1.797 309.632Z" fill="#F63B45"/>
        <path d="M15.202 309.632C16.1945 309.632 16.999 308.827 16.999 307.835C16.999 306.843 16.1945 306.038 15.202 306.038C14.2095 306.038 13.405 306.843 13.405 307.835C13.405 308.827 14.2095 309.632 15.202 309.632Z" fill="#F63B45"/>
        <path d="M28.591 309.632C29.5835 309.632 30.388 308.827 30.388 307.835C30.388 306.843 29.5835 306.038 28.591 306.038C27.5986 306.038 26.794 306.843 26.794 307.835C26.794 308.827 27.5986 309.632 28.591 309.632Z" fill="#F63B45"/>
        <path d="M41.996 309.632C42.9885 309.632 43.793 308.827 43.793 307.835C43.793 306.843 42.9885 306.038 41.996 306.038C41.0035 306.038 40.199 306.843 40.199 307.835C40.199 308.827 41.0035 309.632 41.996 309.632Z" fill="#F63B45"/>
        <path d="M55.387 309.632C56.3795 309.632 57.184 308.827 57.184 307.835C57.184 306.843 56.3795 306.038 55.387 306.038C54.3945 306.038 53.59 306.843 53.59 307.835C53.59 308.827 54.3945 309.632 55.387 309.632Z" fill="#F63B45"/>
        <path d="M1.797 327.126C2.78946 327.126 3.594 326.321 3.594 325.329C3.594 324.337 2.78946 323.532 1.797 323.532C0.804544 323.532 0 324.337 0 325.329C0 326.321 0.804544 327.126 1.797 327.126Z" fill="#F63B45"/>
        <path d="M15.202 327.126C16.1945 327.126 16.999 326.321 16.999 325.329C16.999 324.337 16.1945 323.532 15.202 323.532C14.2095 323.532 13.405 324.337 13.405 325.329C13.405 326.321 14.2095 327.126 15.202 327.126Z" fill="#F63B45"/>
        <path d="M28.591 327.126C29.5835 327.126 30.388 326.321 30.388 325.329C30.388 324.337 29.5835 323.532 28.591 323.532C27.5986 323.532 26.794 324.337 26.794 325.329C26.794 326.321 27.5986 327.126 28.591 327.126Z" fill="#F63B45"/>
        <path d="M41.996 327.126C42.9885 327.126 43.793 326.321 43.793 325.329C43.793 324.337 42.9885 323.532 41.996 323.532C41.0035 323.532 40.199 324.337 40.199 325.329C40.199 326.321 41.0035 327.126 41.996 327.126Z" fill="#F63B45"/>
        <path d="M55.387 327.126C56.3795 327.126 57.184 326.321 57.184 325.329C57.184 324.337 56.3795 323.532 55.387 323.532C54.3945 323.532 53.59 324.337 53.59 325.329C53.59 326.321 54.3945 327.126 55.387 327.126Z" fill="#F63B45"/>
    </g>
    <path d="M558.5 261.5C569.546 261.5 578.5 252.546 578.5 241.5C578.5 230.454 569.546 221.5 558.5 221.5C547.454 221.5 538.5 230.454 538.5 241.5C538.5 252.546 547.454 261.5 558.5 261.5Z" fill="#03C06E" stroke="#03C06E" stroke-width="0.5" stroke-linecap="round" stroke-linejoin="round" transform="matrix(1, 0, 0, 1, -31.070768, -187.01567)"/>
    <path d="M558.2 232C556.999 231.953 555.807 232.224 554.745 232.786C553.683 233.348 552.788 234.181 552.152 235.2C552.027 235.379 551.977 235.599 552.011 235.815C552.044 236.03 552.16 236.224 552.334 236.356L553.85 237.506C554.025 237.639 554.246 237.698 554.464 237.671C554.683 237.643 554.882 237.532 555.019 237.36C555.9 236.26 556.553 235.622 557.928 235.622C559.01 235.622 560.347 236.322 560.347 237.367C560.347 238.16 559.692 238.567 558.625 239.167C557.38 239.867 555.732 240.734 555.732 242.908V243.252C555.732 243.363 555.754 243.473 555.796 243.575C555.839 243.677 555.901 243.77 555.979 243.849C556.058 243.927 556.151 243.989 556.253 244.032C556.355 244.074 556.465 244.096 556.576 244.096H559.124C559.348 244.096 559.563 244.007 559.721 243.849C559.879 243.691 559.968 243.476 559.968 243.252V243.052C559.968 241.545 564.368 241.482 564.368 237.405C564.372 234.329 561.186 232 558.2 232ZM557.85 245.129C557.368 245.129 556.898 245.272 556.497 245.539C556.097 245.807 555.785 246.187 555.6 246.632C555.416 247.077 555.368 247.567 555.462 248.039C555.556 248.511 555.788 248.945 556.128 249.286C556.469 249.626 556.903 249.858 557.375 249.952C557.847 250.046 558.337 249.998 558.782 249.814C559.227 249.629 559.607 249.317 559.875 248.917C560.142 248.516 560.285 248.046 560.285 247.564C560.284 246.918 560.027 246.3 559.571 245.843C559.114 245.387 558.496 245.13 557.85 245.129Z" fill="white" transform="matrix(1, 0, 0, 1, -31.070768, -187.01567)"/>
    <path d="M655.5 128.5C666.546 128.5 675.5 119.546 675.5 108.5C675.5 97.4543 666.546 88.5 655.5 88.5C644.454 88.5 635.5 97.4543 635.5 108.5C635.5 119.546 644.454 128.5 655.5 128.5Z" fill="#03C06E" stroke="#03C06E" stroke-width="0.5" stroke-linecap="round" stroke-linejoin="round" transform="matrix(1, 0, 0, 1, -31.070768, -187.01567)"/>
    <path d="M655.2 99C653.999 98.9525 652.807 99.2235 651.745 99.7856C650.683 100.348 649.788 101.181 649.152 102.2C649.027 102.379 648.977 102.599 649.011 102.815C649.044 103.03 649.16 103.224 649.334 103.356L650.85 104.506C651.025 104.639 651.246 104.698 651.464 104.671C651.683 104.643 651.882 104.532 652.019 104.36C652.9 103.26 653.553 102.622 654.928 102.622C656.01 102.622 657.347 103.322 657.347 104.367C657.347 105.16 656.692 105.567 655.625 106.167C654.38 106.867 652.732 107.734 652.732 109.908V110.252C652.732 110.363 652.754 110.473 652.796 110.575C652.839 110.677 652.901 110.77 652.979 110.849C653.058 110.927 653.151 110.989 653.253 111.032C653.355 111.074 653.465 111.096 653.576 111.096H656.124C656.348 111.096 656.563 111.007 656.721 110.849C656.879 110.691 656.968 110.476 656.968 110.252V110.052C656.968 108.545 661.368 108.482 661.368 104.405C661.372 101.329 658.186 99 655.2 99ZM654.85 112.129C654.368 112.129 653.898 112.272 653.497 112.539C653.097 112.807 652.785 113.187 652.6 113.632C652.416 114.077 652.368 114.567 652.462 115.039C652.556 115.511 652.788 115.945 653.128 116.286C653.469 116.626 653.903 116.858 654.375 116.952C654.847 117.046 655.337 116.998 655.782 116.814C656.227 116.629 656.607 116.317 656.875 115.917C657.142 115.516 657.285 115.046 657.285 114.564C657.284 113.918 657.027 113.3 656.571 112.843C656.114 112.387 655.496 112.13 654.85 112.129Z" fill="white" transform="matrix(1, 0, 0, 1, -31.070768, -187.01567)"/>
    <path d="M655.5 224.5C666.546 224.5 675.5 215.546 675.5 204.5C675.5 193.454 666.546 184.5 655.5 184.5C644.454 184.5 635.5 193.454 635.5 204.5C635.5 215.546 644.454 224.5 655.5 224.5Z" fill="#03C06E" stroke="#03C06E" stroke-width="0.5" stroke-linecap="round" stroke-linejoin="round" transform="matrix(1, 0, 0, 1, -31.070768, -187.01567)"/>
    <path d="M465.5 86.5C476.546 86.5 485.5 77.5457 485.5 66.5C485.5 55.4543 476.546 46.5 465.5 46.5C454.454 46.5 445.5 55.4543 445.5 66.5C445.5 77.5457 454.454 86.5 465.5 86.5Z" fill="#03C06E" stroke="#03C06E" stroke-width="0.5" stroke-linecap="round" stroke-linejoin="round" transform="matrix(1, 0, 0, 1, -31.070768, -187.01567)"/>
    <path d="M465.2 57C463.999 56.9525 462.807 57.2235 461.745 57.7856C460.683 58.3476 459.788 59.1806 459.152 60.2C459.027 60.3789 458.977 60.5992 459.01 60.8146C459.044 61.0301 459.16 61.2241 459.334 61.356L460.85 62.506C461.025 62.6389 461.246 62.698 461.464 62.6707C461.683 62.6434 461.882 62.5319 462.019 62.36C462.9 61.26 463.553 60.622 464.928 60.622C466.01 60.622 467.347 61.322 467.347 62.367C467.347 63.16 466.692 63.567 465.625 64.167C464.38 64.867 462.732 65.734 462.732 67.908V68.252C462.732 68.3628 462.754 68.4726 462.796 68.575C462.839 68.6774 462.901 68.7704 462.979 68.8488C463.058 68.9272 463.151 68.9893 463.253 69.0318C463.355 69.0742 463.465 69.096 463.576 69.096H466.124C466.348 69.096 466.563 69.0071 466.721 68.8488C466.879 68.6905 466.968 68.4759 466.968 68.252V68.052C466.968 66.545 471.368 66.482 471.368 62.405C471.372 59.329 468.186 57 465.2 57ZM464.85 70.129C464.368 70.129 463.898 70.2718 463.497 70.5394C463.097 70.8069 462.785 71.1872 462.6 71.6322C462.416 72.0771 462.368 72.5667 462.462 73.0391C462.556 73.5114 462.788 73.9453 463.128 74.2858C463.469 74.6264 463.903 74.8583 464.375 74.9522C464.847 75.0462 465.337 74.998 465.782 74.8137C466.227 74.6294 466.607 74.3173 466.875 73.9168C467.142 73.5164 467.285 73.0456 467.285 72.564C467.284 71.9185 467.027 71.2996 466.571 70.8431C466.114 70.3866 465.496 70.1298 464.85 70.129Z" fill="white" transform="matrix(1, 0, 0, 1, -31.070768, -187.01567)"/>
    <path d="M564.5 160.5C575.546 160.5 584.5 151.546 584.5 140.5C584.5 129.454 575.546 120.5 564.5 120.5C553.454 120.5 544.5 129.454 544.5 140.5C544.5 151.546 553.454 160.5 564.5 160.5Z" fill="#03C06E" stroke="#03C06E" stroke-width="0.5" stroke-linecap="round" stroke-linejoin="round" transform="matrix(1, 0, 0, 1, -31.070768, -187.01567)"/>
    <path d="M564.2 131C562.999 130.953 561.807 131.224 560.745 131.786C559.683 132.348 558.788 133.181 558.152 134.2C558.027 134.379 557.977 134.599 558.011 134.815C558.044 135.03 558.16 135.224 558.334 135.356L559.85 136.506C560.025 136.639 560.246 136.698 560.464 136.671C560.683 136.643 560.882 136.532 561.019 136.36C561.9 135.26 562.553 134.622 563.928 134.622C565.01 134.622 566.347 135.322 566.347 136.367C566.347 137.16 565.692 137.567 564.625 138.167C563.38 138.867 561.732 139.734 561.732 141.908V142.252C561.732 142.363 561.754 142.473 561.796 142.575C561.839 142.677 561.901 142.77 561.979 142.849C562.058 142.927 562.151 142.989 562.253 143.032C562.355 143.074 562.465 143.096 562.576 143.096H565.124C565.348 143.096 565.563 143.007 565.721 142.849C565.879 142.691 565.968 142.476 565.968 142.252V142.052C565.968 140.545 570.368 140.482 570.368 136.405C570.372 133.329 567.186 131 564.2 131ZM563.85 144.129C563.368 144.129 562.898 144.272 562.497 144.539C562.097 144.807 561.785 145.187 561.6 145.632C561.416 146.077 561.368 146.567 561.462 147.039C561.556 147.511 561.788 147.945 562.128 148.286C562.469 148.626 562.903 148.858 563.375 148.952C563.847 149.046 564.337 148.998 564.782 148.814C565.227 148.629 565.607 148.317 565.875 147.917C566.142 147.516 566.285 147.046 566.285 146.564C566.284 145.918 566.027 145.3 565.571 144.843C565.114 144.387 564.496 144.13 563.85 144.129Z" fill="white" transform="matrix(1, 0, 0, 1, -31.070768, -187.01567)"/>
    <path d="M564.5 63.5C575.546 63.5 584.5 54.5457 584.5 43.5C584.5 32.4543 575.546 23.5 564.5 23.5C553.454 23.5 544.5 32.4543 544.5 43.5C544.5 54.5457 553.454 63.5 564.5 63.5Z" fill="#03C06E" stroke="#03C06E" stroke-width="0.5" stroke-linecap="round" stroke-linejoin="round" transform="matrix(1, 0, 0, 1, -31.070768, -187.01567)"/>
    <path d="M564.2 34C562.999 33.9525 561.807 34.2235 560.745 34.7856C559.683 35.3476 558.788 36.1806 558.152 37.2C558.027 37.3789 557.977 37.5992 558.011 37.8146C558.044 38.0301 558.16 38.2241 558.334 38.356L559.85 39.506C560.025 39.6389 560.246 39.698 560.464 39.6707C560.683 39.6434 560.882 39.5319 561.019 39.36C561.9 38.26 562.553 37.622 563.928 37.622C565.01 37.622 566.347 38.322 566.347 39.367C566.347 40.16 565.692 40.567 564.625 41.167C563.38 41.867 561.732 42.734 561.732 44.908V45.252C561.732 45.3628 561.754 45.4726 561.796 45.575C561.839 45.6774 561.901 45.7704 561.979 45.8488C562.058 45.9272 562.151 45.9893 562.253 46.0318C562.355 46.0742 562.465 46.096 562.576 46.096H565.124C565.348 46.096 565.563 46.0071 565.721 45.8488C565.879 45.6905 565.968 45.4759 565.968 45.252V45.052C565.968 43.545 570.368 43.482 570.368 39.405C570.372 36.329 567.186 34 564.2 34ZM563.85 47.129C563.368 47.129 562.898 47.2718 562.497 47.5394C562.097 47.8069 561.785 48.1872 561.6 48.6322C561.416 49.0771 561.368 49.5667 561.462 50.0391C561.556 50.5114 561.788 50.9453 562.128 51.2858C562.469 51.6264 562.903 51.8583 563.375 51.9522C563.847 52.0462 564.337 51.998 564.782 51.8137C565.227 51.6294 565.607 51.3173 565.875 50.9168C566.142 50.5164 566.285 50.0456 566.285 49.564C566.284 48.9185 566.027 48.2996 565.571 47.8431C565.114 47.3866 564.496 47.1298 563.85 47.129Z" fill="white" transform="matrix(1, 0, 0, 1, -31.070768, -187.01567)"/>
    <path d="M183.5 192.5C194.546 192.5 203.5 183.546 203.5 172.5C203.5 161.454 194.546 152.5 183.5 152.5C172.454 152.5 163.5 161.454 163.5 172.5C163.5 183.546 172.454 192.5 183.5 192.5Z" fill="#03C06E" stroke="#03C06E" stroke-width="0.5" stroke-linecap="round" stroke-linejoin="round" transform="matrix(1, 0, 0, 1, -31.070768, -187.01567)"/>
    <path d="M183.2 163C181.999 162.953 180.807 163.224 179.745 163.786C178.683 164.348 177.788 165.181 177.152 166.2C177.027 166.379 176.977 166.599 177.01 166.815C177.044 167.03 177.16 167.224 177.334 167.356L178.85 168.506C179.025 168.639 179.246 168.698 179.464 168.671C179.683 168.643 179.882 168.532 180.019 168.36C180.9 167.26 181.553 166.622 182.928 166.622C184.01 166.622 185.347 167.322 185.347 168.367C185.347 169.16 184.692 169.567 183.625 170.167C182.38 170.867 180.732 171.734 180.732 173.908V174.252C180.732 174.363 180.754 174.473 180.796 174.575C180.839 174.677 180.901 174.77 180.979 174.849C181.058 174.927 181.151 174.989 181.253 175.032C181.355 175.074 181.465 175.096 181.576 175.096H184.124C184.348 175.096 184.563 175.007 184.721 174.849C184.879 174.691 184.968 174.476 184.968 174.252V174.052C184.968 172.545 189.368 172.482 189.368 168.405C189.372 165.329 186.186 163 183.2 163ZM182.85 176.129C182.368 176.129 181.898 176.272 181.497 176.539C181.097 176.807 180.785 177.187 180.6 177.632C180.416 178.077 180.368 178.567 180.462 179.039C180.556 179.511 180.788 179.945 181.128 180.286C181.469 180.626 181.903 180.858 182.375 180.952C182.847 181.046 183.337 180.998 183.782 180.814C184.227 180.629 184.607 180.317 184.875 179.917C185.142 179.516 185.285 179.046 185.285 178.564C185.284 177.918 185.027 177.3 184.571 176.843C184.114 176.387 183.496 176.13 182.85 176.129Z" fill="white" transform="matrix(1, 0, 0, 1, -31.070768, -187.01567)"/>
    <path d="M655.5 224.5C666.546 224.5 675.5 215.546 675.5 204.5C675.5 193.454 666.546 184.5 655.5 184.5C644.454 184.5 635.5 193.454 635.5 204.5C635.5 215.546 644.454 224.5 655.5 224.5Z" fill="#03C06E" stroke="#03C06E" stroke-width="0.5" stroke-linecap="round" stroke-linejoin="round" transform="matrix(1, 0, 0, 1, -31.070768, -187.01567)"/>
    <path d="M655.2 195C653.999 194.953 652.807 195.224 651.745 195.786C650.683 196.348 649.788 197.181 649.152 198.2C649.027 198.379 648.977 198.599 649.011 198.815C649.044 199.03 649.16 199.224 649.334 199.356L650.85 200.506C651.025 200.639 651.246 200.698 651.464 200.671C651.683 200.643 651.882 200.532 652.019 200.36C652.9 199.26 653.553 198.622 654.928 198.622C656.01 198.622 657.347 199.322 657.347 200.367C657.347 201.16 656.692 201.567 655.625 202.167C654.38 202.867 652.732 203.734 652.732 205.908V206.252C652.732 206.363 652.754 206.473 652.796 206.575C652.839 206.677 652.901 206.77 652.979 206.849C653.058 206.927 653.151 206.989 653.253 207.032C653.355 207.074 653.465 207.096 653.576 207.096H656.124C656.348 207.096 656.563 207.007 656.721 206.849C656.879 206.691 656.968 206.476 656.968 206.252V206.052C656.968 204.545 661.368 204.482 661.368 200.405C661.372 197.329 658.186 195 655.2 195ZM654.85 208.129C654.368 208.129 653.898 208.272 653.497 208.539C653.097 208.807 652.785 209.187 652.6 209.632C652.416 210.077 652.368 210.567 652.462 211.039C652.556 211.511 652.788 211.945 653.128 212.286C653.469 212.626 653.903 212.858 654.375 212.952C654.847 213.046 655.337 212.998 655.782 212.814C656.227 212.629 656.607 212.317 656.875 211.917C657.142 211.516 657.285 211.046 657.285 210.564C657.284 209.918 657.027 209.3 656.571 208.843C656.114 208.387 655.496 208.13 654.85 208.129Z" fill="white" transform="matrix(1, 0, 0, 1, -31.070768, -187.01567)"/>
    <path d="M223.5 109.5C234.546 109.5 243.5 100.546 243.5 89.5C243.5 78.4543 234.546 69.5 223.5 69.5C212.454 69.5 203.5 78.4543 203.5 89.5C203.5 100.546 212.454 109.5 223.5 109.5Z" fill="#03C06E" stroke="#03C06E" stroke-width="0.5" stroke-linecap="round" stroke-linejoin="round" transform="matrix(1, 0, 0, 1, -31.070768, -187.01567)"/>
    <path d="M223.2 80C221.999 79.9525 220.807 80.2235 219.745 80.7856C218.683 81.3476 217.788 82.1806 217.152 83.2C217.027 83.3789 216.977 83.5992 217.01 83.8146C217.044 84.0301 217.16 84.2241 217.334 84.356L218.85 85.506C219.025 85.6389 219.246 85.698 219.464 85.6707C219.683 85.6434 219.882 85.5319 220.019 85.36C220.9 84.26 221.553 83.622 222.928 83.622C224.01 83.622 225.347 84.322 225.347 85.367C225.347 86.16 224.692 86.567 223.625 87.167C222.38 87.867 220.732 88.734 220.732 90.908V91.252C220.732 91.3628 220.754 91.4726 220.796 91.575C220.839 91.6774 220.901 91.7704 220.979 91.8488C221.058 91.9272 221.151 91.9893 221.253 92.0318C221.355 92.0742 221.465 92.096 221.576 92.096H224.124C224.348 92.096 224.563 92.0071 224.721 91.8488C224.879 91.6905 224.968 91.4759 224.968 91.252V91.052C224.968 89.545 229.368 89.482 229.368 85.405C229.372 82.329 226.186 80 223.2 80ZM222.85 93.129C222.368 93.129 221.898 93.2718 221.497 93.5394C221.097 93.8069 220.785 94.1872 220.6 94.6322C220.416 95.0771 220.368 95.5667 220.462 96.0391C220.556 96.5114 220.788 96.9453 221.128 97.2858C221.469 97.6264 221.903 97.8583 222.375 97.9522C222.847 98.0462 223.337 97.998 223.782 97.8137C224.227 97.6294 224.607 97.3173 224.875 96.9168C225.142 96.5164 225.285 96.0456 225.285 95.564C225.284 94.9185 225.027 94.2996 224.571 93.8431C224.114 93.3866 223.496 93.1298 222.85 93.129Z" fill="white" transform="matrix(1, 0, 0, 1, -31.070768, -187.01567)"/>
    <g clip-path="url(#clip2_1_183)" transform="matrix(1, 0, 0, 1, -31.070768, -187.01567)">
        <path d="M437.478 389.991C437.478 389.991 438.899 395.219 441.178 404.169C443.457 413.119 446.598 425.79 450.037 440.675C453.476 455.56 457.213 472.659 460.688 490.465C464.163 508.271 467.375 526.784 469.765 544.497C472.155 562.21 474.255 582.685 475.965 603.503C477.675 624.321 478.983 645.48 479.793 664.56C480.603 683.64 480.912 700.641 480.614 713.142C480.316 725.643 479.409 733.642 477.788 734.723C476.167 735.804 470.231 736.96 462.237 738.09C454.243 739.22 444.193 740.321 434.345 741.29C424.497 742.259 414.852 743.09 407.668 743.678C400.484 744.266 395.768 744.616 395.768 744.616C395.768 744.616 394.173 745.232 391.095 746.14C388.017 747.048 383.453 748.249 377.516 749.418C370.3 750.823 363.016 751.854 355.694 752.509C345.92 753.387 336.104 753.708 326.294 753.472C321.396 753.349 316.51 753.086 311.636 752.685C306.762 752.284 301.91 751.744 297.08 751.065C292.25 750.387 287.447 749.572 282.671 748.619C277.895 747.666 273.152 746.579 268.441 745.356C268.441 745.356 268.831 725.667 269.795 695.371C270.759 665.075 272.295 624.171 274.595 581.749C276.895 539.327 279.951 495.376 283.954 458.987C287.957 422.598 292.904 393.769 298.981 381.587C303.741 372.039 314.775 367.795 328.651 366.795C342.527 365.795 359.241 368.04 375.367 371.476C389.945 374.669 404.347 378.62 418.514 383.311C430.012 387.081 437.478 389.991 437.478 389.991Z" fill="#FFDA73"/>
        <path d="M353.291 91.783C352.112 90.6504 350.803 89.6622 349.391 88.839C345.775 86.6749 341.787 85.2063 337.631 84.509C331.049 83.4531 324.318 83.8086 317.884 85.552C309.959 87.545 300.684 91.56 290.04 98.722C279.396 105.884 273.451 117.931 270.519 131.973C267.587 146.015 267.669 162.052 269.082 177.193C270.407 190.603 272.594 203.913 275.631 217.042C278.021 227.503 280.057 234.178 280.057 234.178L364.457 213.923L353.291 91.783Z" fill="black"/>
        <path d="M453.583 359.555V380.842C453.583 380.842 450.213 381.613 444.466 382.723C438.719 383.833 430.596 385.282 421.09 386.639C411.584 387.996 400.693 389.259 389.415 389.995C378.094 390.807 366.732 390.88 355.401 390.214C344.336 389.476 334.993 388.421 327.201 387.254C319.409 386.087 313.176 384.808 308.323 383.621C303.47 382.434 300.001 381.34 297.744 380.542C295.487 379.744 294.444 379.242 294.444 379.242L275.693 271.407L332.239 191.695L378.47 187.995L490.999 269.719L463.899 344.129L453.583 359.555Z" fill="#8C75FF"/>
        <path d="M400.323 139.514C403.759 135.184 406.237 130.174 407.595 124.816C408.953 119.457 409.159 113.872 408.2 108.428C407.755 105.68 407.038 102.982 406.059 100.376C405.372 98.5462 404.498 96.792 403.452 95.141C402.812 94.1272 402.075 93.1781 401.252 92.307C400.966 91.9994 400.656 91.7145 400.325 91.455C400.729 90.5848 401.048 89.6775 401.277 88.746C401.803 86.8256 401.853 84.806 401.423 82.862C401.106 81.6283 400.521 80.4794 399.711 79.4964C398.901 78.5134 397.885 77.7202 396.735 77.173C393.923 75.683 389.617 74.786 383.158 75.044C368.353 75.3403 353.99 80.1497 341.992 88.829C340.366 88.0344 338.583 87.6132 336.774 87.5963C334.964 87.5793 333.174 87.9671 331.533 88.7311C329.893 89.4952 328.444 90.6162 327.292 92.0123C326.141 93.4083 325.316 95.0441 324.878 96.8C323.582 100.381 322.828 104.137 322.643 107.941C322.431 111.632 322.514 115.334 322.891 119.012C323.223 122.412 323.723 125.38 324.133 127.5C324.543 129.62 324.878 130.888 324.878 130.888L400.323 139.514Z" fill="black"/>
        <path d="M378.563 189.824C381.113 189.94 383.655 190.189 386.179 190.571C392.985 191.559 399.71 193.047 406.297 195.024C416.139 197.957 425.688 201.799 434.819 206.499C446.538 212.532 457.549 219.85 467.649 228.318C477.991 236.844 487.627 246.192 496.463 256.271C503.839 264.634 510.212 273.829 515.454 283.671C519.873 291.932 522.87 300.878 524.317 310.134C525.573 318.528 525.037 327.093 522.745 335.265C520.445 343.376 515.129 349.551 508.445 354.25C501.761 358.949 493.706 362.172 485.945 364.382C479.136 366.279 472.187 367.632 465.164 368.43C459.627 369.073 456.031 369.164 456.031 369.164L439.094 302.119L483.402 273.143L378.563 189.824Z" fill="#8C75FF"/>
        <path d="M343.586 160.8L344.386 192.308C344.75 192.814 345.158 193.288 345.605 193.723C346.833 194.94 348.197 196.011 349.672 196.914C352.027 198.359 354.557 199.497 357.201 200.3C360.974 201.442 364.873 202.114 368.811 202.3C371.703 202.495 374.608 202.263 377.432 201.613C379.38 201.159 381.245 200.402 382.959 199.37C384.045 198.715 385.035 197.912 385.901 196.986C386.225 196.645 386.516 196.274 386.768 195.877L382.737 168.4L349.213 161.878L343.586 160.8Z" fill="#FFD6BE"/>
        <path d="M402.482 332.031L450.62 336.006C450.819 336.023 451.019 336 451.209 335.939C451.4 335.878 451.576 335.78 451.728 335.651C451.881 335.522 452.006 335.364 452.097 335.186C452.188 335.009 452.244 334.815 452.26 334.616L459.483 247.134C459.5 246.935 459.477 246.735 459.416 246.545C459.355 246.354 459.257 246.178 459.128 246.026C458.999 245.873 458.841 245.748 458.663 245.657C458.486 245.566 458.292 245.51 458.093 245.494L409.955 241.519C409.756 241.502 409.556 241.525 409.366 241.586C409.175 241.647 408.999 241.745 408.847 241.874C408.694 242.003 408.569 242.161 408.478 242.339C408.387 242.516 408.331 242.71 408.315 242.909L401.092 330.394C401.075 330.593 401.098 330.793 401.159 330.983C401.22 331.174 401.318 331.35 401.447 331.502C401.576 331.654 401.734 331.78 401.912 331.871C402.089 331.962 402.283 332.018 402.482 332.034V332.031Z" fill="white"/>
        <path d="M409.918 332.646L458.056 336.621C458.255 336.638 458.455 336.615 458.645 336.554C458.836 336.493 459.012 336.395 459.164 336.266C459.317 336.137 459.442 335.979 459.533 335.801C459.624 335.624 459.68 335.43 459.696 335.231L466.919 247.749C466.936 247.55 466.913 247.35 466.852 247.16C466.791 246.969 466.693 246.793 466.564 246.641C466.435 246.488 466.277 246.363 466.099 246.272C465.922 246.181 465.728 246.125 465.529 246.109L417.391 242.134C417.192 242.117 416.992 242.14 416.802 242.201C416.611 242.262 416.435 242.36 416.283 242.489C416.13 242.618 416.005 242.776 415.914 242.954C415.823 243.131 415.767 243.325 415.751 243.524L408.528 331.009C408.511 331.208 408.534 331.408 408.595 331.598C408.656 331.789 408.754 331.965 408.883 332.117C409.012 332.269 409.17 332.395 409.348 332.486C409.525 332.577 409.719 332.633 409.918 332.649V332.646Z" fill="black"/>
        <path d="M349.446 315.059C349.446 315.059 352.746 314.039 357.808 312.54C362.87 311.041 369.707 309.064 376.781 307.147C383.855 305.23 391.17 303.376 397.196 302.123C403.222 300.87 407.961 300.22 409.883 300.712C411.805 301.204 415.129 303.056 419.007 305.647C423.315 308.562 427.471 311.696 431.458 315.038C435.267 318.152 438.843 321.541 442.158 325.177C444.869 328.269 446.443 330.869 446.033 332.357C445.718 333.626 445.008 334.762 444.007 335.602C443.173 336.264 442.194 336.721 441.151 336.935C440.314 337.114 439.457 337.187 438.602 337.151C438.234 337.141 437.866 337.108 437.502 337.051C437.502 337.051 437.902 337.306 438.476 337.751C439.19 338.305 439.85 338.926 440.446 339.605C441.136 340.362 441.657 341.258 441.974 342.232C442.129 342.732 442.178 343.259 442.119 343.78C442.06 344.3 441.893 344.802 441.63 345.255C441.041 346.241 440.138 347.001 439.066 347.413C437.994 347.835 436.861 348.08 435.711 348.138C434.739 348.2 433.764 348.183 432.795 348.09C432.033 348.018 431.55 347.927 431.55 347.927C431.811 348.086 432.059 348.265 432.292 348.463C432.763 348.839 433.144 349.315 433.408 349.856C433.552 350.164 433.611 350.506 433.58 350.844C433.549 351.183 433.428 351.508 433.231 351.785C432.414 352.786 431.325 353.53 430.096 353.929C427.861 354.647 425.495 354.864 423.166 354.564C420.295 354.305 417.446 353.84 414.641 353.173C411.854 352.537 409.283 351.812 407.408 351.246C405.533 350.68 404.355 350.272 404.355 350.272C395.775 356.709 385.198 359.914 374.488 359.321C370.534 359.223 366.59 358.884 362.678 358.307C360.075 357.927 357.502 357.365 354.978 356.625C353.546 356.208 352.149 355.681 350.8 355.047C350.363 354.845 349.942 354.611 349.54 354.347L349.446 315.059Z" fill="#FFD6BE"/>
        <path d="M438.204 337.659C438.417 337.663 438.627 337.614 438.815 337.515C439.003 337.417 439.164 337.273 439.282 337.096C439.484 336.803 439.563 336.441 439.502 336.09C439.441 335.739 439.244 335.426 438.954 335.219L413.072 317.45C412.928 317.341 412.763 317.262 412.588 317.219C412.413 317.175 412.23 317.168 412.052 317.197C411.874 317.226 411.703 317.291 411.551 317.388C411.399 317.485 411.268 317.612 411.166 317.762C411.064 317.911 410.994 318.079 410.959 318.257C410.924 318.434 410.926 318.616 410.964 318.793C411.002 318.97 411.076 319.137 411.18 319.284C411.285 319.431 411.418 319.556 411.572 319.65L437.454 337.33C437.666 337.511 437.927 337.625 438.204 337.658V337.659Z" fill="black"/>
        <path d="M431.546 349.052C431.828 349.031 432.096 348.922 432.313 348.741C432.531 348.56 432.686 348.316 432.758 348.043C432.831 347.77 432.816 347.481 432.716 347.216C432.616 346.952 432.437 346.725 432.202 346.567L404.396 330.485C404.243 330.395 404.074 330.337 403.898 330.314C403.722 330.292 403.543 330.305 403.373 330.353C403.202 330.402 403.043 330.484 402.905 330.596C402.767 330.707 402.653 330.845 402.57 331.002C402.399 331.301 402.352 331.655 402.44 331.988C402.528 332.321 402.743 332.606 403.039 332.782L431.077 348.865C431.113 348.887 431.15 348.907 431.188 348.926C431.226 348.945 431.265 348.962 431.304 348.978C431.343 348.994 431.383 349.008 431.423 349.02C431.463 349.032 431.504 349.043 431.546 349.052Z" fill="black"/>
        <path d="M346.211 189.824C341.998 190.065 337.801 190.534 333.639 191.229C323.246 192.884 313.023 195.469 303.093 198.955C289.667 203.603 276.956 210.103 265.329 218.268C251.624 227.923 239.986 240.219 231.1 254.434C221.48 269.884 216.161 284.958 214.54 299.056C212.801 312.039 214.659 325.25 219.91 337.251C225.162 349.251 233.607 359.579 244.324 367.111C255.063 374.896 268.285 380.502 283.383 383.327C296.51 385.847 309.839 387.165 323.205 387.266C332.832 387.339 342.445 386.553 351.932 384.915C357.844 383.903 363.664 382.408 369.332 380.445C371.333 379.767 373.288 378.96 375.184 378.028L360.79 307.697L329.8 303.009L299.511 266.109L346.211 189.824Z" fill="#8C75FF"/>
        <path d="M343.585 158.878C343.636 159.139 343.695 159.397 343.764 159.654C343.833 159.911 343.91 160.164 343.996 160.415C344.082 160.666 344.177 160.913 344.281 161.158C344.385 161.403 344.497 161.643 344.617 161.878C346.595 165.788 349.448 169.189 352.955 171.817C356.54 174.55 360.463 176.81 364.625 178.542C368.432 180.158 372.365 181.463 376.383 182.442C379.205 183.166 382.081 183.659 384.983 183.914L382.736 168.396L343.585 158.878Z" fill="black"/>
        <path d="M387.941 96.284C387.941 96.284 389.041 98.731 390.595 102.747C392.149 106.763 394.16 112.347 395.983 118.626C397.94 125.177 399.365 131.874 400.244 138.654C401.044 145.437 401.022 152.033 399.522 157.566C398.022 163.099 395.639 167.037 392.722 169.766C389.927 172.345 386.452 174.069 382.708 174.735C379.022 175.379 375.253 175.401 371.56 174.798C368.093 174.261 364.68 173.42 361.36 172.285C354.516 170.114 348.379 166.148 343.59 160.798C340.18 161.825 336.533 161.754 333.165 160.593C329.798 159.432 326.882 157.241 324.829 154.33C323.068 151.983 321.837 149.281 321.222 146.412C320.7 143.931 320.697 141.368 321.214 138.886C321.66 136.691 322.552 134.611 323.835 132.775C324.909 131.192 326.386 129.925 328.113 129.104C330.45 128.407 332.907 128.201 335.328 128.5C337.748 128.799 340.081 129.595 342.179 130.839L336.079 119.492C336.079 119.492 337.629 115.854 340.362 110.934C343.524 105.099 347.368 99.6612 351.814 94.734C356.597 89.643 362.229 85.646 368.365 85.114C374.501 84.582 381.142 87.516 387.941 96.284Z" fill="#FFD6BE"/>
        <path d="M341.992 131.027C342.926 131.186 343.872 131.266 344.82 131.268C347.216 131.296 349.604 131 351.92 130.388C355.265 129.504 358.417 128.011 361.22 125.983C365.009 123.191 368.209 119.679 370.639 115.648C373.102 111.75 375.316 107.701 377.269 103.525C378.535 100.831 379.591 98.0442 380.427 95.188C380.893 93.6162 381.214 92.0052 381.387 90.375C381.447 89.8615 381.459 89.3437 381.424 88.828L393.145 108.24C393.145 108.24 393.306 107.399 393.464 106.003C393.672 104.156 393.772 102.298 393.764 100.439C393.766 98.0308 393.532 95.6283 393.064 93.266C392.59 90.7722 391.68 88.3813 390.377 86.203C389.326 84.4376 387.99 82.858 386.424 81.528C385.399 80.6648 384.214 80.013 382.936 79.61C382.132 79.3608 381.29 79.2559 380.45 79.3C380.129 79.3136 379.811 79.3646 379.502 79.452L341.992 88.829L332.192 118.696L341.992 131.027Z" fill="black"/>
        <path d="M386.627 146.171C386.881 146.171 387.127 146.089 387.33 145.936C387.533 145.784 387.681 145.57 387.752 145.327C388.054 143.842 388.203 142.33 388.197 140.814C388.191 139.314 388.034 137.818 387.726 136.35C387.418 134.882 386.961 133.449 386.364 132.073C385.76 130.683 385.016 129.358 384.142 128.12C384.058 127.988 383.947 127.875 383.816 127.788C383.686 127.701 383.538 127.643 383.384 127.616C383.229 127.589 383.071 127.595 382.919 127.634C382.767 127.672 382.625 127.741 382.501 127.838C382.37 127.923 382.258 128.033 382.17 128.162C382.083 128.291 382.022 128.436 381.991 128.589C381.96 128.742 381.96 128.899 381.991 129.052C382.021 129.205 382.082 129.35 382.17 129.479C382.942 130.573 383.602 131.742 384.141 132.968C384.674 134.182 385.086 135.445 385.37 136.74C385.654 138.035 385.808 139.355 385.832 140.68C385.856 142.018 385.746 143.356 385.503 144.672C385.452 144.816 385.432 144.97 385.442 145.122C385.453 145.275 385.495 145.424 385.565 145.56C385.635 145.696 385.732 145.816 385.851 145.913C385.969 146.011 386.106 146.083 386.253 146.125L386.627 146.171Z" fill="black"/>
        <path d="M340.538 149.219C340.687 149.222 340.835 149.195 340.972 149.139C341.11 149.082 341.235 148.998 341.338 148.891C341.451 148.782 341.542 148.651 341.603 148.506C341.665 148.361 341.697 148.205 341.697 148.047C341.697 147.889 341.665 147.733 341.603 147.588C341.542 147.443 341.451 147.312 341.338 147.203L330.692 135.715C330.465 135.497 330.163 135.375 329.848 135.375C329.533 135.375 329.231 135.497 329.004 135.715C328.891 135.824 328.8 135.955 328.739 136.1C328.677 136.245 328.645 136.401 328.645 136.559C328.645 136.717 328.677 136.873 328.739 137.018C328.8 137.163 328.891 137.294 329.004 137.403L339.645 148.844C339.881 149.082 340.201 149.217 340.536 149.219H340.538Z" fill="black"/>
        <path d="M371.999 157.659C372.599 157.641 373.195 157.598 373.786 157.53C374.377 157.462 374.966 157.369 375.552 157.251C376.136 157.134 376.715 156.991 377.288 156.824C377.861 156.657 378.428 156.466 378.988 156.251C379.189 156.181 379.366 156.056 379.499 155.89C379.631 155.724 379.714 155.524 379.738 155.313C379.776 155.105 379.756 154.89 379.682 154.692C379.608 154.494 379.481 154.32 379.316 154.188L368.764 145.937C368.632 145.821 368.473 145.738 368.302 145.698C368.13 145.657 367.951 145.659 367.781 145.703C367.602 145.729 367.431 145.798 367.284 145.904C367.137 146.011 367.018 146.151 366.937 146.313C366.937 146.313 366.747 146.691 366.508 147.313C366.201 148.105 365.962 148.921 365.793 149.753C365.578 150.761 365.529 151.797 365.65 152.82C365.773 153.886 366.222 154.889 366.936 155.69C367.581 156.374 368.37 156.905 369.246 157.246C370.122 157.586 371.063 157.727 372 157.659H371.999ZM376.081 154.705C375.471 154.857 374.8 155.005 374.116 155.105C373.44 155.215 372.757 155.276 372.072 155.288C371.455 155.306 370.838 155.238 370.239 155.088C369.732 154.967 369.27 154.704 368.907 154.33C368.376 153.508 368.063 152.565 367.998 151.588C367.932 150.612 368.116 149.635 368.532 148.75L376.081 154.705Z" fill="black"/>
        <path d="M394.177 114.007C394.455 114.001 394.724 113.901 394.937 113.721C395.15 113.542 395.296 113.295 395.349 113.022C395.383 112.87 395.385 112.713 395.355 112.561C395.325 112.408 395.264 112.264 395.176 112.136C395.087 112.009 394.973 111.901 394.841 111.819C394.709 111.738 394.561 111.685 394.407 111.663L387.425 110.444C387.271 110.41 387.112 110.407 386.957 110.437C386.801 110.466 386.654 110.526 386.523 110.613C386.391 110.701 386.279 110.814 386.192 110.946C386.106 111.078 386.047 111.226 386.019 111.381C385.976 111.697 386.054 112.017 386.237 112.278C386.42 112.539 386.695 112.721 387.007 112.788L393.989 114.007H394.177Z" fill="black"/>
        <path d="M365.203 118.602H365.719L377.159 112.788C377.303 112.724 377.432 112.629 377.538 112.512C377.643 112.394 377.723 112.256 377.771 112.105C377.82 111.955 377.836 111.796 377.819 111.639C377.802 111.482 377.752 111.33 377.672 111.194C377.523 110.92 377.274 110.714 376.978 110.618C376.681 110.522 376.359 110.544 376.078 110.678L364.638 116.492C364.364 116.641 364.158 116.89 364.062 117.186C363.966 117.483 363.988 117.805 364.122 118.086C364.235 118.265 364.397 118.409 364.588 118.5C364.779 118.591 364.993 118.627 365.203 118.602Z" fill="black"/>
        <path d="M394.176 130.137H394.552C394.855 130.041 395.108 129.83 395.257 129.55C395.406 129.269 395.441 128.942 395.352 128.637L393.332 122.166L395.114 120.009C395.332 119.782 395.454 119.48 395.454 119.165C395.454 118.85 395.332 118.548 395.114 118.321C394.895 118.106 394.6 117.985 394.294 117.985C393.987 117.985 393.692 118.106 393.473 118.321L391.269 120.994C391.192 121.171 391.152 121.363 391.152 121.556C391.152 121.75 391.192 121.942 391.269 122.119L393.469 129.199C393.493 129.403 393.571 129.597 393.694 129.762C393.816 129.926 393.98 130.056 394.169 130.137H394.176Z" fill="black"/>
        <path d="M374.344 132.059H374.813C375.116 131.963 375.369 131.752 375.518 131.472C375.667 131.191 375.702 130.864 375.613 130.559L373.64 124.088L376.219 121.088C376.359 120.841 376.408 120.553 376.358 120.273C376.309 119.994 376.163 119.74 375.946 119.557C375.729 119.373 375.456 119.271 375.172 119.268C374.888 119.265 374.612 119.361 374.391 119.54L371.391 123.01C371.262 123.164 371.173 123.347 371.132 123.543C371.091 123.739 371.099 123.943 371.155 124.135L373.218 131.027C373.251 131.305 373.383 131.562 373.589 131.751C373.796 131.941 374.063 132.05 374.343 132.059H374.344Z" fill="black"/>
        <path d="M329.801 304.509C330.08 304.504 330.348 304.403 330.561 304.224C330.774 304.044 330.92 303.797 330.973 303.524C331.007 303.37 331.009 303.211 330.98 303.056C330.951 302.901 330.891 302.753 330.803 302.622C330.715 302.491 330.602 302.379 330.47 302.292C330.338 302.206 330.19 302.147 330.035 302.119C329.93 302.119 327.235 301.6 322.885 300.819C318.535 300.038 312.511 299.006 305.748 297.969C298.985 296.932 291.476 295.894 284.144 295.119C277.321 294.338 270.463 293.904 263.596 293.819C263.285 293.819 262.987 293.942 262.767 294.162C262.547 294.382 262.424 294.68 262.424 294.991C262.424 295.302 262.547 295.6 262.767 295.82C262.987 296.04 263.285 296.163 263.596 296.163C270.403 296.247 277.202 296.675 283.966 297.447C291.248 298.218 298.715 299.247 305.443 300.278C312.171 301.309 318.161 302.344 322.489 303.126C326.817 303.908 329.484 304.439 329.566 304.462L329.801 304.509Z" fill="#222222"/>
        <path d="M294.588 298.602C294.809 298.598 295.025 298.533 295.212 298.414C295.399 298.296 295.549 298.127 295.646 297.928C295.743 297.73 295.783 297.508 295.762 297.287C295.741 297.067 295.659 296.857 295.526 296.68C295.069 296.094 293.712 294.374 291.799 292.195C289.583 289.651 287.225 287.234 284.736 284.957C282.246 282.6 279.44 280.603 276.398 279.022C273.636 277.711 271.004 277.291 268.847 278.44C268.285 278.67 267.807 279.069 267.479 279.58C267.152 280.092 266.99 280.693 267.016 281.3C267.075 282.718 268.405 284.339 270.466 286.013C272.927 287.913 275.548 289.597 278.298 291.047C281.278 292.679 284.448 294.216 287.264 295.509C290.08 296.802 292.545 297.851 294.116 298.509L294.588 298.602ZM271.661 280.171C273.105 280.269 274.505 280.702 275.752 281.437C277.47 282.377 279.099 283.473 280.616 284.711C282.384 286.131 284.078 287.641 285.692 289.234C287.356 290.865 288.962 292.576 290.416 294.241C287.732 293.069 285.077 291.815 282.602 290.553C280.127 289.291 277.833 288.023 275.869 286.821C274.204 285.836 272.617 284.723 271.123 283.494C269.973 282.502 269.305 281.652 269.269 281.019C269.27 281.002 269.274 280.986 269.279 280.97C269.294 280.922 269.317 280.878 269.346 280.837C269.397 280.765 269.458 280.699 269.527 280.643C269.636 280.553 269.754 280.475 269.879 280.409C270.442 280.177 271.056 280.095 271.661 280.171Z" fill="#222222"/>
        <path d="M392.398 698.012C392.554 698.012 392.71 697.993 392.862 697.957C393.001 697.924 393.136 697.872 393.262 697.805C393.377 697.745 393.481 697.667 393.571 697.574C393.653 697.49 393.716 697.389 393.756 697.279C398.445 683.079 401.897 660.479 404.436 634.366C406.975 608.253 408.602 578.635 409.636 550.402C410.67 522.169 411.126 495.32 411.31 474.756C411.494 454.192 411.41 439.905 411.388 436.795L440.363 428.056C440.522 428.008 440.671 427.934 440.806 427.837C440.919 427.756 441.015 427.651 441.085 427.531C441.148 427.423 441.181 427.301 441.18 427.176C441.177 427.046 441.138 426.92 441.067 426.811C440.981 426.69 440.872 426.588 440.745 426.511C440.605 426.425 440.454 426.361 440.295 426.321C440.125 426.277 439.95 426.255 439.774 426.256C439.593 426.257 439.412 426.283 439.238 426.333L409.465 435.326C409.345 435.361 409.23 435.41 409.121 435.471C409.024 435.525 408.935 435.593 408.857 435.671C408.787 435.742 408.729 435.824 408.686 435.914C408.646 435.999 408.624 436.092 408.621 436.186C408.621 436.696 408.721 449.606 408.57 469.593C408.419 489.58 408.02 516.645 407.021 545.464C406.022 574.283 404.421 604.858 401.876 631.864C399.331 658.87 395.833 682.311 391.039 696.864C391.015 696.923 391 696.985 390.994 697.048C390.989 697.11 390.993 697.172 391.006 697.232C391.02 697.294 391.042 697.354 391.073 697.41C391.106 697.47 391.147 697.527 391.194 697.577C391.245 697.632 391.302 697.68 391.363 697.723C391.428 697.768 391.498 697.808 391.57 697.841C391.647 697.876 391.727 697.905 391.809 697.928C391.895 697.952 391.983 697.969 392.072 697.98L392.398 698.012Z" fill="#222222"/>
        <path d="M387.66 201.358C387.66 201.358 387.786 200.297 387.902 198.696C388.018 197.095 388.123 194.955 388.082 192.796C388.09 190.77 387.855 188.751 387.382 186.781C386.912 185.104 386.159 183.929 384.982 183.781C383.755 183.654 382.517 183.699 381.303 183.916C379.995 184.116 378.576 184.416 376.964 184.684C375.146 185 373.308 185.192 371.464 185.258C369.068 185.329 366.671 185.18 364.303 184.813C361.859 184.442 359.437 183.945 357.044 183.325C354.907 182.775 353.044 182.196 351.409 181.671C349.774 181.146 348.378 180.676 347.173 180.343C346.179 180.028 345.145 179.857 344.102 179.835C343.246 179.86 342.786 181.185 342.577 183.159C342.391 185.56 342.385 187.973 342.56 190.375C342.709 192.995 342.966 195.612 343.185 197.575C343.404 199.538 343.585 200.844 343.585 200.844L370.92 209.377L387.66 201.358Z" fill="#8C75FF"/>
        <path d="M364.31 195.92C364.606 195.921 364.891 195.81 365.108 195.61C365.325 195.41 365.459 195.135 365.482 194.84C365.502 194.684 365.489 194.527 365.444 194.376C365.399 194.226 365.323 194.087 365.221 193.968C365.12 193.849 364.994 193.752 364.853 193.684C364.712 193.616 364.558 193.579 364.401 193.574C363.17 193.457 361.324 193.249 359.245 193.002C357.166 192.755 354.854 192.469 352.691 192.197C350.528 191.925 348.518 191.665 347.036 191.471C345.554 191.277 344.601 191.148 344.571 191.136C344.413 191.109 344.252 191.115 344.097 191.154C343.941 191.192 343.795 191.261 343.668 191.358C343.541 191.455 343.434 191.576 343.356 191.716C343.277 191.855 343.228 192.009 343.211 192.168C343.17 192.485 343.256 192.804 343.448 193.059C343.641 193.313 343.926 193.482 344.242 193.528C344.242 193.528 345.177 193.648 346.657 193.836C348.137 194.024 350.164 194.278 352.347 194.548C354.53 194.818 356.87 195.102 358.978 195.348C361.086 195.594 362.961 195.802 364.215 195.919L364.31 195.92Z" fill="#222222"/>
        <path d="M304.81 428.995H305.232C308.803 427.987 312.217 426.489 315.377 424.544C318.477 422.633 321.303 420.31 323.777 417.639C326.253 414.967 328.355 411.972 330.024 408.734C331.723 405.437 332.957 401.92 333.691 398.284C333.741 398.093 333.751 397.894 333.719 397.699C333.688 397.504 333.615 397.318 333.507 397.153C333.399 396.988 333.257 396.848 333.091 396.741C332.925 396.634 332.738 396.564 332.543 396.534C332.348 396.504 332.148 396.516 331.958 396.568C331.768 396.62 331.59 396.712 331.438 396.837C331.285 396.963 331.161 397.119 331.072 397.295C330.984 397.472 330.934 397.665 330.925 397.862C330.286 401.261 329.169 404.551 327.605 407.636C326.07 410.662 324.122 413.46 321.817 415.949C319.513 418.438 316.875 420.595 313.977 422.357C311.019 424.153 307.82 425.52 304.477 426.416C304.299 426.464 304.132 426.548 303.988 426.662C303.843 426.777 303.723 426.92 303.635 427.082C303.548 427.244 303.494 427.423 303.477 427.607C303.461 427.79 303.482 427.976 303.539 428.151C303.642 428.402 303.817 428.616 304.043 428.767C304.268 428.917 304.534 428.997 304.805 428.995H304.81Z" fill="#222222"/>
        <path d="M437.031 299.445C438.394 296.978 440.342 294.883 442.704 293.345C445.404 291.542 448.231 289.938 451.164 288.545C454.911 286.708 458.777 285.125 462.736 283.805C466.444 282.508 470.305 281.696 474.222 281.389C477.68 281.22 480.59 281.815 482.422 283.55C484.254 285.285 484.757 286.985 484.493 288.562C484.102 290.212 483.204 291.699 481.926 292.814C480.727 293.941 479.406 294.93 477.987 295.762C476.809 296.468 475.947 296.862 475.947 296.862C476.557 296.707 477.176 296.585 477.799 296.496C479.133 296.287 480.487 296.242 481.832 296.362C483.27 296.444 484.646 296.98 485.759 297.895C486.359 298.496 486.81 299.229 487.077 300.036C487.343 300.842 487.418 301.7 487.295 302.54C487.005 304.778 486.091 306.888 484.656 308.63C483.222 310.372 481.325 311.673 479.184 312.386C479.825 312.29 480.47 312.233 481.118 312.215C482.432 312.152 483.748 312.294 485.018 312.638C485.672 312.787 486.283 313.082 486.807 313.501C487.33 313.92 487.753 314.451 488.042 315.056C488.587 316.351 488.511 318.211 487.342 320.872C486.173 323.533 483.65 326.117 480.377 328.493C476.785 331.014 472.937 333.149 468.897 334.862C464.875 336.62 460.722 338.064 456.477 339.182C453.293 340.099 450.003 340.597 446.69 340.662C444.264 340.592 442.875 339.742 442.156 338.507C441.488 337.118 441.307 335.544 441.644 334.04C441.912 332.523 442.351 331.041 442.952 329.622C443.447 328.422 443.877 327.622 443.877 327.622C443.877 327.622 443.226 327.517 442.251 327.268C441.026 326.963 439.828 326.56 438.668 326.062C437.347 325.519 436.135 324.743 435.09 323.77C434.589 323.311 434.187 322.756 433.908 322.136C433.63 321.517 433.48 320.848 433.468 320.169C433.481 318.814 433.928 317.499 434.743 316.417C435.518 315.386 436.465 314.496 437.543 313.786C438.429 313.189 439.366 312.67 440.343 312.237C441.108 311.896 441.618 311.729 441.618 311.729C440.41 311.352 439.305 310.703 438.386 309.834C437.467 308.964 436.76 307.895 436.317 306.71C435.875 305.525 435.709 304.254 435.832 302.995C435.956 301.736 436.366 300.521 437.031 299.445Z" fill="#FFD6BE"/>
        <path d="M444.627 312.387H445.237L476.51 298.321C476.842 298.167 477.1 297.89 477.231 297.548C477.361 297.207 477.354 296.828 477.21 296.492C477.047 296.157 476.761 295.898 476.412 295.767C476.063 295.637 475.678 295.646 475.335 295.792L444.064 309.855C443.763 309.972 443.513 310.193 443.359 310.477C443.206 310.762 443.159 311.092 443.226 311.408C443.294 311.724 443.472 312.006 443.729 312.202C443.986 312.399 444.304 312.498 444.627 312.481V312.387Z" fill="black"/>
        <path d="M447.628 327.578H448.191L479.746 313.887C479.914 313.816 480.066 313.711 480.193 313.579C480.32 313.448 480.419 313.292 480.485 313.121C480.55 312.951 480.58 312.768 480.574 312.586C480.567 312.403 480.524 312.224 480.446 312.058C480.292 311.726 480.015 311.468 479.673 311.337C479.332 311.207 478.953 311.214 478.617 311.358L447.065 325.142C446.897 325.213 446.745 325.318 446.618 325.45C446.491 325.581 446.392 325.737 446.326 325.908C446.261 326.078 446.231 326.261 446.237 326.443C446.244 326.626 446.287 326.805 446.365 326.971C446.5 327.178 446.69 327.345 446.913 327.452C447.136 327.56 447.384 327.604 447.631 327.581L447.628 327.578Z" fill="black"/>
    </g>
</svg>
