<svg xmlns="http://www.w3.org/2000/svg" xmlns:xlink="http://www.w3.org/1999/xlink" width="1008" height="502.188" viewBox="0 0 1008 502.188">
  <defs>
    <clipPath id="clip-path">
      <rect id="Rectangle_667" data-name="Rectangle 667" width="1008" height="485" transform="translate(-5852 -1383)" fill="#fffcf8"/>
    </clipPath>
  </defs>
  <g id="Group_1079" data-name="Group 1079" transform="translate(5852 1400.188)">
    <g id="Mask_Group_8" data-name="Mask Group 8" clip-path="url(#clip-path)">
      <g id="Boy_and_Girl_welcome" data-name="Boy and Girl welcome" transform="translate(-5730.563 -1333)">
        <g id="Layer_1" data-name="Layer 1" transform="translate(0 0)">
          <path id="Path_801" data-name="Path 801" d="M142.369,12.829S163.046-8.88,205.62,19.768s9.987,135.457,9.987,135.457l-84.4-20.255Z" transform="translate(483.995 18.204)"/>
          <path id="Path_802" data-name="Path 802" d="M63.129,155.28S98.623,183.647,97.966,188.1s16.41,60.953,16.41,60.953L29.23,226.033V155.28Z" transform="translate(107.821 572.729)" fill="#fcaa3d"/>
          <path id="Path_803" data-name="Path 803" d="M17.35,160.169v41.308l81.021-4.454V157.59Z" transform="translate(63.999 581.25)" fill="#ffd6be"/>
          <path id="Path_804" data-name="Path 804" d="M177.806,72.767s79.708,141.74,80.177,197.582S143.391,511.583,143.391,511.583a204.988,204.988,0,0,1-77.317,11.393c-46.043-1.5-53.264-6.752-53.264-6.752s7.877-397.6,26.3-434.784S177.806,72.767,177.806,72.767Z" transform="translate(47.252 229.836)" fill="#ffda73"/>
          <path id="Path_805" data-name="Path 805" d="M41.682,449.4a1.36,1.36,0,0,1-1.36-1.454c7.549-129.971,4.689-340.916,4.689-343.026a1.407,1.407,0,0,1,.7-1.219L86.131,79.746a1.36,1.36,0,0,1,1.876.516,1.313,1.313,0,0,1-.469,1.875L47.825,105.581c0,14.441,2.438,216.478-4.689,342.276a1.407,1.407,0,0,1-1.454,1.547Z" transform="translate(148.726 293.422)" fill="#222"/>
          <path id="Path_806" data-name="Path 806" d="M42.832,139.784a1.266,1.266,0,0,1-1.125-.563,1.36,1.36,0,0,1,0-1.641c.891-1.172,21.615-28.695,35.306-29.961a8.346,8.346,0,0,1,6.8,2.157,5.533,5.533,0,0,1,1.969,5.533c-2.3,10.784-38.4,23.022-42.527,24.428Zm35.212-29.445h-.75c-9.659.891-24.241,17.536-30.43,25.131,12.613-4.689,34.743-14.066,36.2-20.818a2.86,2.86,0,0,0-1.125-2.907,5.486,5.486,0,0,0-3.892-1.407Z" transform="translate(152.828 396.645)" fill="#fff"/>
          <path id="Path_807" data-name="Path 807" d="M20.31,104.395a1.4,1.4,0,0,1-.281-2.766C39.956,97.643,50.505,72.418,50.6,72.183a1.407,1.407,0,0,1,1.829-.75,1.36,1.36,0,0,1,.75,1.782c-.469,1.125-11.206,26.819-32.587,31.18Z" transform="translate(69.807 263.053)" fill="#222"/>
          <path id="Path_808" data-name="Path 808" d="M17.839,164.875s90.914-4.032,91.57-1.407,2.626,20.677,2.626,20.677l88.1,48.575s30.242,8.955,30.9,24.1-23.678,17.114-31.555,19.411-162.089.234-177.7-2.344C9.915,271.918,17.839,164.875,17.839,164.875Z" transform="translate(56.243 599.659)" fill="#ffba57"/>
          <path id="Path_809" data-name="Path 809" d="M62.379,198.317a1.407,1.407,0,0,1-.8-2.532l13.035-9.377-38.869,3.141a1.5,1.5,0,0,1-1.407-.891,1.36,1.36,0,0,1,.375-1.594L55.3,169.809a1.313,1.313,0,0,1,1.922,0,1.36,1.36,0,0,1,0,1.922L39.967,186.22l39.573-3.188a1.407,1.407,0,0,1,1.407.938,1.313,1.313,0,0,1-.469,1.594l-13.269,9.377,39.76-1.922a1.407,1.407,0,0,1,1.454,1.313,1.36,1.36,0,0,1-1.313,1.453l-44.543,2.157Z" transform="translate(126.247 624.779)" fill="#f63b45"/>
          <path id="Path_810" data-name="Path 810" d="M111.522,47.138,71.762,31.244,55.023,24.82,26,35.6,41.191,223.715s45.762,12.472,75.957-3.47S111.522,47.138,111.522,47.138Z" transform="translate(95.906 91.5)" fill="#fff"/>
          <path id="Path_811" data-name="Path 811" d="M30.129,42.707C44.2,29.532,67.639,25.922,81.049,24.89c0,0-3.329,89.085,1.36,143.9,2.673,30.992,4.267,52.56,5.158,65.642-32.587.844-69.065,0-69.065,0S9.124,62.165,30.129,42.707Z" transform="translate(60.55 91.759)" fill="#f63b45"/>
          <path id="Path_812" data-name="Path 812" d="M125.9,166.7c0,33.1-.938,59.922-.938,59.922a217.177,217.177,0,0,1-32.821,7.689c0-24.381-.75-84.4-4.689-120.594A284.137,284.137,0,0,0,65.365,31.525L30.2,25.2c4.126-.328,7.408-.375,9.377-.375h1.782S87.4,26.7,109.2,38.323l1.547.8A22.74,22.74,0,0,1,119,46.81C125.287,58.485,126.225,118.969,125.9,166.7Z" transform="translate(111.399 91.5)" fill="#f63b45"/>
          <path id="Path_813" data-name="Path 813" d="M105.918,26.58A141.787,141.787,0,0,0,34.509,71.732,173.482,173.482,0,0,0,0,145.767a344.519,344.519,0,0,1,46.465-4.689c17.536,0,42.761,2.251,42.761,2.251Z" transform="translate(0 97.993)" fill="#f63b45"/>
          <path id="Path_814" data-name="Path 814" d="M105.894,39.8S125.118,9.044,109.927,2.01s-33.9,9.659-33.9,9.659S41.659,13.92,28.2,32.018,46.067,82.984,46.067,82.984Z" transform="translate(91.641 0.984)"/>
          <path id="Path_815" data-name="Path 815" d="M32.743,19.44,30.07,51s4.923,9.377,23.444,12.613c13.644,2.3,18.755-.422,18.755-.422l-.563-16.129-.75-15.613L38.135,21.269Z" transform="translate(110.919 71.655)" fill="#ffd6be"/>
          <path id="Path_816" data-name="Path 816" d="M31.81,19.8a9.893,9.893,0,0,0,.656,3.141c5.72,16.364,24.756,21.38,32.821,22.787l-.75-15.613Z" transform="translate(117.338 72.983)"/>
          <path id="Path_817" data-name="Path 817" d="M98.5,17.23s13.222,40.979,4.689,62.407S75.058,95.578,63.477,90.14a40.042,40.042,0,0,1-16.41-13.41,17.067,17.067,0,0,1-18.1-8.533c-6.47-11.206-.61-22.693,6.048-24.8a17.77,17.77,0,0,1,14.066,3.282l-4.689-12S75.1-20.8,98.5,17.23Z" transform="translate(96.502 14.365)" fill="#ffd6be"/>
          <path id="Path_818" data-name="Path 818" d="M41.989,27.777a1.313,1.313,0,0,1-.891-.328L27.735,16.008a1.407,1.407,0,0,1,1.829-2.11l13.316,11.44a1.467,1.467,0,0,1-.891,2.438Z" transform="translate(100.97 50.331)"/>
          <path id="Path_819" data-name="Path 819" d="M28.818,19.856a1.393,1.393,0,0,1-.234-2.766L37.961,15.5a1.313,1.313,0,0,1,1.594,1.125,1.36,1.36,0,0,1-1.125,1.594l-9.377,1.594Z" transform="translate(101.2 56.985)"/>
          <path id="Path_820" data-name="Path 820" d="M44.7,31.347h-.328a1.407,1.407,0,0,1-1.032-1.688A16.129,16.129,0,0,0,39.826,14.7a1.407,1.407,0,0,1,0-1.969,1.453,1.453,0,0,1,1.969,0,18.755,18.755,0,0,1,4.314,17.63A1.407,1.407,0,0,1,44.7,31.347Z" transform="translate(145.424 45.495)"/>
          <path id="Path_821" data-name="Path 821" d="M44.078,21.337a1.407,1.407,0,0,1-1.36-1.125L41.359,12.8a1.384,1.384,0,1,1,2.719-.516l1.36,7.549a1.407,1.407,0,0,1-1.078,1.641Z" transform="translate(152.472 41.063)"/>
          <path id="Path_822" data-name="Path 822" d="M39.855,21.023A1.407,1.407,0,0,1,38.449,19.9l-1.36-7.408a1.407,1.407,0,1,1,2.766-.516l1.594,7.6a1.407,1.407,0,0,1-1.125,1.641Z" transform="translate(136.721 39.876)"/>
          <path id="Path_823" data-name="Path 823" d="M92.813,32.539a13.269,13.269,0,0,0-10.737-7.314,16.973,16.973,0,0,0-12.941,4.407s2.344,13.55-8.955,19.693a26.21,26.21,0,0,1-19.552,3.329l-7.549-3.423L28.39,37.368,53.006,15.144,83.389,2.25l13.5,14.816Z" transform="translate(104.722 8.246)"/>
          <path id="Path_824" data-name="Path 824" d="M47.5,26.426a12.1,12.1,0,0,1-11.159-7.643,1.38,1.38,0,0,1,2.579-.985,9.377,9.377,0,0,0,8.58,5.814,1.407,1.407,0,0,1,0,2.813Z" transform="translate(133.718 62.325)"/>
          <path id="Path_825" data-name="Path 825" d="M62.09,42.073a46.887,46.887,0,0,1-31.7-13.41,1.407,1.407,0,1,1,2.063-1.875,42.761,42.761,0,0,0,39.2,11.347,1.407,1.407,0,1,1,.656,2.719A43.51,43.51,0,0,1,62.09,42.073Z" transform="translate(110.267 96.519)" fill="#222"/>
          <path id="Path_826" data-name="Path 826" d="M65.712,12.664s.469-17.4-18.52-11.394S27.64,31.419,27.64,31.419Z" transform="translate(101.956 -0.011)"/>
          <path id="Path_827" data-name="Path 827" d="M3.874,54.751s-14.863,46.887,21.8,67.33S179.56,99.809,179.56,99.809L173.277,51H73.689S15.455,51,3.874,54.751Z" transform="translate(3.3 188.071)" fill="#ffd6be"/>
          <path id="Path_828" data-name="Path 828" d="M47.956,13h0L42,11.925a1.38,1.38,0,1,1,.469-2.719l5.955,1.078a1.36,1.36,0,0,1,1.125,1.594A1.407,1.407,0,0,1,47.956,13Z" transform="translate(150.705 33.83)"/>
          <path id="Path_829" data-name="Path 829" d="M37.63,14.816a1.453,1.453,0,0,1-1.313-.938,1.407,1.407,0,0,1,.891-1.782L45.6,9.236a1.386,1.386,0,0,1,.891,2.626L38.1,14.722Z" transform="translate(133.695 33.753)"/>
          <path id="Path_830" data-name="Path 830" d="M142.434,51.254A69.252,69.252,0,0,1,103.94,87.825C78.011,97.2,71.4,64.945,71.4,64.945L104.877,32.78Z" transform="translate(263.374 120.863)" fill="#ffd6be"/>
          <path id="Path_831" data-name="Path 831" d="M117.326,53.546a82.615,82.615,0,0,0,31.039-.7A146.052,146.052,0,0,0,179.685,35.87l25.647,41.87S176.825,134,122.905,139.3C71.329,144.46,42.4,116.938,42.4,116.938Z" transform="translate(156.401 132.261)" fill="#ffd6be"/>
          <path id="Path_832" data-name="Path 832" d="M74.343,29.52A199.694,199.694,0,0,0,101.35,55.214c15.426,11.956,25.178,18.755,25.178,18.755s-7.08,25.882-17.958,56.265c-8.627,24.1-14.441,48.575-14.441,48.575s-47.965,10.55-51.576-13.55S74.343,29.52,74.343,29.52Z" transform="translate(156.013 108.837)" fill="#f63b45"/>
          <path id="Path_833" data-name="Path 833" d="M49.33,65.6S76.243,46.423,82.151,46.845s28.836,5.064,30.1,9.377S92.466,65.6,92.466,65.6A73.566,73.566,0,0,0,110.33,77.744c8.393,3.423,33.712.938,36.244,7.127s-6.752,5.72-6.752,5.72,11.018,5.533-1.735,12.331-69.112,20.349-94.337,7.6S49.33,65.6,49.33,65.6Z" transform="translate(124.762 172.72)" fill="#ffd6be"/>
          <path id="Path_834" data-name="Path 834" d="M53.067,64.066H51.285a1.36,1.36,0,0,1-1.313-1.454A1.454,1.454,0,0,1,51.426,61.3,70.33,70.33,0,0,0,79.558,56a1.454,1.454,0,0,1,1.876.7,1.407,1.407,0,0,1-.7,1.829,71.551,71.551,0,0,1-27.663,5.533Z" transform="translate(184.322 206.091)"/>
          <path id="Path_835" data-name="Path 835" d="M58.945,53.353H44.317a1.407,1.407,0,0,1,0-2.813H58.945a1.407,1.407,0,1,1,0,2.813Z" transform="translate(158.282 186.374)"/>
          <path id="Path_836" data-name="Path 836" d="M109.31,153.52l13.035,68.361,44.777,25.178,41.354-14.113-6.611-79.427Z" transform="translate(403.213 566.237)" fill="#ffd6be"/>
          <path id="Path_837" data-name="Path 837" d="M301.651,189.777,276.192,238.4l-16.129,30.8s-158.853,6.048-166.918,0-8.018-23.115,0-30.148,102.589-58.328,102.589-58.328,0-14.066,5.861-15.426,45.059,15.426,45.059,15.426l45.715-15.473Z" transform="translate(321.337 609.407)" fill="#ffba57"/>
          <path id="Path_838" data-name="Path 838" d="M276.192,180.907l-16.129,30.8s-158.853,6.048-166.918,0-8.018-23.115,0-30.148c0,0,109.012,8.065,169.637,0a64.653,64.653,0,0,1,13.41-.656Z" transform="translate(321.337 666.898)" fill="#e99c35"/>
          <path id="Path_839" data-name="Path 839" d="M128.26,155.31l10.315,71.034h76.332l3.235-71.034Z" transform="translate(473.114 572.84)" fill="#ffd6be"/>
          <path id="Path_840" data-name="Path 840" d="M267.764,250.924c0,8.674-5.345,20.771-24.1,24.756s-116.936,0-119.984-3.329a38.821,38.821,0,0,1-3.235-15.285,29.679,29.679,0,0,1,4.689-19.318l40.182-61.281a41.4,41.4,0,0,1,32.821-9.377,73.988,73.988,0,0,1,32.305,9.377s9.987-10.081,14.676-6.7c3.892,2.813,17.02,50.779,21.38,72.019a61.293,61.293,0,0,1,1.266,9.143Z" transform="translate(443.701 614.652)" fill="#fcaa3d"/>
          <path id="Path_841" data-name="Path 841" d="M151.278,91.176s-25.647,106.293-36.431,196.316S98.483,523.709,105.8,529.2s92.555,12.566,92.555,12.566,28.789,12.519,78.4,11.253A257.877,257.877,0,0,0,342.015,542.7s-7.033-400.275-34.462-462.213C286.078,32,151.278,91.176,151.278,91.176Z" transform="translate(378.03 226.43)" fill="#ffda73"/>
          <path id="Path_842" data-name="Path 842" d="M141.636,198.71V220s53.92,12.331,98.182,9.377S300.771,218.4,300.771,218.4l18.755-107.84L262.98,30.854l-46.231-3.7L104.22,108.874l27.1,74.41Z" transform="translate(384.437 100.095)" fill="#8c75ff"/>
          <path id="Path_843" data-name="Path 843" d="M130.224,67.564a39.1,39.1,0,0,1-7.877-31.086c2.157-12.8,7.877-16.973,7.877-16.973s-8.674-17.442,17.161-16.41a72.722,72.722,0,0,1,41.167,13.785,12.144,12.144,0,0,1,17.114,7.971c5.3,13.785,0,34.087,0,34.087Z" transform="translate(449.113 11.199)"/>
          <path id="Path_844" data-name="Path 844" d="M243.378,27.54s-44.261,1.032-89.085,38.494S90.01,140.538,99.2,172.984s66.72,33.9,66.72,33.9l16.926-67.049-44.308-28.976Z" transform="translate(357.714 101.534)" fill="#8c75ff"/>
          <path id="Path_845" data-name="Path 845" d="M134.188,65.385a1.266,1.266,0,0,1-.844-.375s-14.066-14.535-26.866-17.583a1.206,1.206,0,0,1,.563-2.344C120.5,48.318,134.47,62.76,135.173,63.369a1.219,1.219,0,0,1,0,1.688,1.36,1.36,0,0,1-.985.328Z" transform="translate(389.493 166.137)" fill="#222"/>
          <path id="Path_846" data-name="Path 846" d="M116.374,61.4a1.125,1.125,0,0,1-.844-.328c-.938-.938-9.1-9.377-8.815-14.488a4.126,4.126,0,0,1,1.36-3,2.907,2.907,0,0,1,2.954-.563c3.985,1.594,5.861,13.5,6.33,17.114a1.219,1.219,0,0,1-.656,1.219A.938.938,0,0,1,116.374,61.4ZM110.232,45.18a.891.891,0,0,0-.469,0,1.594,1.594,0,0,0-.656,1.36,19.317,19.317,0,0,0,5.439,9.753c-1.032-5.486-2.719-10.69-4.22-11.3Z" transform="translate(393.616 157.976)" fill="#222"/>
          <path id="Path_847" data-name="Path 847" d="M169.633,21.35l-.8,31.508s-5.955,8.955-24.428,9.987c-13.785.75-17.958-6.424-17.958-6.424l4.032-27.476,33.524-6.517Z" transform="translate(466.437 78.701)" fill="#ffd6be"/>
          <rect id="Rectangle_610" data-name="Rectangle 610" width="51.341" height="90.82" rx="1.52" transform="matrix(-0.997, 0.082, -0.082, -0.997, 578.689, 271.156)" fill="#fff"/>
          <rect id="Rectangle_611" data-name="Rectangle 611" width="51.341" height="90.82" rx="1.52" transform="matrix(-0.997, 0.082, -0.082, -0.997, 571.252, 271.771)"/>
          <path id="Path_848" data-name="Path 848" d="M210.448,65.667S157.7,49.351,150.011,51.32s-37.791,25.694-36.15,31.649,8.533,4.689,8.533,4.689-6.47,4.079-4.126,8.205,10.081,2.673,10.081,2.673-5.439,3.141,1.453,6,25.741-3.657,25.741-3.657a45.574,45.574,0,0,0,29.867,9.049c18.755-.563,24.944-4.97,24.944-4.97Z" transform="translate(419.761 188.642)" fill="#ffd6be"/>
          <path id="Path_849" data-name="Path 849" d="M116.517,75.15a1.266,1.266,0,0,1-1.078-.563,1.36,1.36,0,0,1,.328-1.875l25.882-17.77a1.333,1.333,0,1,1,1.5,2.2L117.267,74.822A1.406,1.406,0,0,1,116.517,75.15Z" transform="translate(424.935 201.758)"/>
          <path id="Path_850" data-name="Path 850" d="M117.89,76.251a1.36,1.36,0,0,1-.656-2.485l27.8-16.082a1.335,1.335,0,0,1,1.36,2.3L118.359,76.064a1.548,1.548,0,0,1-.469.188Z" transform="translate(430.22 212.051)"/>
          <path id="Path_851" data-name="Path 851" d="M157.9,27.54S234.51,30.353,273,92.15s8.111,117.593-52.279,128.893-91.8-5.3-91.8-5.3l14.394-70.331,30.992-4.689,30.289-36.9Z" transform="translate(475.548 101.534)" fill="#8c75ff"/>
          <path id="Path_852" data-name="Path 852" d="M168.231,20.94a11.394,11.394,0,0,1-1.032,3c-7.455,15.567-32.446,21.521-40.37,22.037l2.251-15.52Z" transform="translate(467.839 77.188)"/>
          <path id="Path_853" data-name="Path 853" d="M136.293,16.425s-17.583,39.151-11.581,61.281,26.116,18.755,38.166,14.723a40.136,40.136,0,0,0,17.77-11.487,16.973,16.973,0,0,0,18.755-6.47c7.643-10.362,3.095-22.412-3.282-25.225a17.676,17.676,0,0,0-14.066,1.735l6.1-11.347S163.488-18.647,136.293,16.425Z" transform="translate(455.422 19.109)" fill="#ffd6be"/>
          <path id="Path_854" data-name="Path 854" d="M176.733,55.7s-16.926,3.423-28.648-15.379S137.3,13.506,137.3,13.506L125.579,32.917S123,19.461,128.346,10.88s10.878-6.752,10.878-6.752l37.51,9.377,9.8,29.867Z" transform="translate(460.931 14.573)"/>
          <path id="Path_855" data-name="Path 855" d="M127.716,32.84A1.172,1.172,0,0,1,126.591,32a22.178,22.178,0,0,1,3.61-17.208,1.125,1.125,0,0,1,1.641-.281,1.172,1.172,0,0,1,.328,1.641,20.067,20.067,0,0,0-3.329,15.191,1.125,1.125,0,0,1-.75,1.453Z" transform="translate(465.312 52.581)"/>
          <path id="Path_856" data-name="Path 856" d="M137.219,29.77a1.078,1.078,0,0,1-.8-.328,1.172,1.172,0,0,1,0-1.688l10.643-11.487a1.219,1.219,0,0,1,1.688,0,1.172,1.172,0,0,1,0,1.688L138.11,29.4a1.266,1.266,0,0,1-.891.375Z" transform="translate(501.898 58.699)"/>
          <path id="Path_857" data-name="Path 857" d="M145.494,20.983l-7.6-1.125a1.187,1.187,0,1,1,.375-2.344l7.408,1.125a1.266,1.266,0,0,1,1.079,1.219,1.219,1.219,0,0,1-1.266,1.125Z" transform="translate(504.971 64.486)"/>
          <path id="Path_858" data-name="Path 858" d="M135.7,30.114a21.192,21.192,0,0,1-6.986-1.407,1.125,1.125,0,0,1-.75-.938,1.172,1.172,0,0,1,.422-1.125l10.55-8.252a1.078,1.078,0,0,1,.985-.234,1.125,1.125,0,0,1,.844.61s3.048,6.048,0,9.377a6.33,6.33,0,0,1-5.064,1.969Zm-4.079-2.954c2.438.61,5.861,1.078,7.174-.375a5.767,5.767,0,0,0,.375-5.58Z" transform="translate(471.955 66.796)"/>
          <path id="Path_859" data-name="Path 859" d="M125.814,14.2a1.219,1.219,0,0,1-1.172-.985,1.125,1.125,0,0,1,.938-1.36l6.986-1.219a1.172,1.172,0,0,1,1.407.938,1.266,1.266,0,0,1-.985,1.407L126,14.2Z" transform="translate(459.665 39.062)"/>
          <path id="Path_860" data-name="Path 860" d="M140.982,18.677h-.516l-11.44-5.814a1.125,1.125,0,0,1-.516-1.594,1.219,1.219,0,0,1,1.594-.516l11.44,5.814a1.219,1.219,0,0,1,.516,1.594,1.125,1.125,0,0,1-1.078.516Z" transform="translate(473.473 39.175)"/>
          <path id="Path_861" data-name="Path 861" d="M125.875,24.369H125.5a1.219,1.219,0,0,1-.8-1.5l2.016-6.47-1.782-2.157a1.219,1.219,0,0,1,0-1.688,1.172,1.172,0,0,1,1.641,0l2.2,2.673a1.407,1.407,0,0,1,0,1.125l-2.2,7.08a1.172,1.172,0,0,1-.7.938Z" transform="translate(459.604 45.017)"/>
          <path id="Path_862" data-name="Path 862" d="M130.7,25.283h-.469a1.219,1.219,0,0,1-.8-1.5l1.969-6.47-2.579-3a1.219,1.219,0,0,1,1.829-1.547l3,3.47a1.219,1.219,0,0,1,.234,1.125l-2.063,6.892A1.172,1.172,0,0,1,130.7,25.283Z" transform="translate(474.612 46.026)"/>
          <path id="Path_863" data-name="Path 863" d="M139.544,60.41a1.219,1.219,0,0,1-1.172-.985,1.172,1.172,0,0,1,.938-1.407c.422,0,42.2-8.3,66.439-8.3a1.172,1.172,0,0,1,0,2.344c-23.959,0-65.642,8.205-65.97,8.3Z" transform="translate(510.311 183.349)" fill="#222"/>
          <path id="Path_864" data-name="Path 864" d="M147.037,67.128a1.2,1.2,0,0,1-.938-1.922c1.829-2.344,18.052-22.834,26.679-18.239a2.954,2.954,0,0,1,1.829,2.86c-.234,5.673-20.818,14.582-27.1,17.208ZM169.965,48.7c-4.689,0-12.941,7.408-18.755,14.066,10.737-4.689,21.005-10.69,21.146-13.222,0,0,0-.281-.61-.61a3.517,3.517,0,0,0-1.782-.234Z" transform="translate(538.03 170.724)" fill="#222"/>
          <rect id="Rectangle_612" data-name="Rectangle 612" width="110.985" height="63.34" rx="2.032" transform="translate(362.876 118.533) rotate(17.526)" fill="#3c76eb"/>
          <rect id="Rectangle_613" data-name="Rectangle 613" width="93.048" height="53.11" rx="1.704" transform="translate(366.137 124.917) rotate(17.526)" fill="#fff"/>
          <path id="Path_865" data-name="Path 865" d="M103.493,43.3a4.032,4.032,0,1,1-2.579-5.017A4.032,4.032,0,0,1,103.493,43.3Z" transform="translate(352.671 140.398)" fill="#fff"/>
          <path id="Path_866" data-name="Path 866" d="M161.068,477.51a1.407,1.407,0,0,1-1.36-1.078c-18.755-83.506-17.723-364.688-17.63-382.974L113.1,80.611a1.385,1.385,0,1,1,1.125-2.532L144,91.3a1.407,1.407,0,0,1,.844,1.266c0,3-1.594,297.686,17.583,383.255a1.313,1.313,0,0,1-1.032,1.641Z" transform="translate(414.19 287.54)" fill="#222"/>
          <path id="Path_867" data-name="Path 867" d="M267.764,194.985c0,8.674-5.345,20.771-24.1,24.756s-116.936,0-119.984-3.329a38.821,38.821,0,0,1-3.235-15.285,29.679,29.679,0,0,1,4.689-19.318s6.283,10.034,66.251,12.1c38.447,1.313,62.594-4.032,75.019-8.065a61.282,61.282,0,0,1,1.36,9.143Z" transform="translate(443.701 670.591)" fill="#e99422"/>
          <path id="Path_868" data-name="Path 868" d="M126.6,46.933s-2.016-16.973,2.673-17.583,9.8,2.673,20.677,1.032,16.786-5.064,20.208-4.97.516,21.005.516,21.005L143.338,54.95Z" transform="translate(465.397 93.675)" fill="#8c75ff"/>
          <path id="Path_869" data-name="Path 869" d="M132.169,32.615A1.172,1.172,0,0,1,131,31.537a1.125,1.125,0,0,1,1.078-1.266c4.923-.469,19.693-2.391,19.833-2.438a1.172,1.172,0,0,1,1.36,1.032,1.219,1.219,0,0,1-1.031,1.36s-14.957,1.922-19.974,2.391Z" transform="translate(483.177 102.554)" fill="#222"/>
          <path id="Path_870" data-name="Path 870" d="M166.688,104.1h-.422a40.182,40.182,0,0,1-28.46-30.711,1.407,1.407,0,1,1,2.766-.422,36.572,36.572,0,0,0,26.444,28.554,1.305,1.305,0,0,1-.328,2.579Z" transform="translate(508.158 264.148)" fill="#222"/>
          <path id="Path_871" data-name="Path 871" d="M156.12,65.147a17.207,17.207,0,0,0-5.673-6.1c-7.783-5.439-32.4-16.739-39.713-9.8s6.47,13.316,6.47,13.316-11.909-3.235-11.347,5.673a12,12,0,0,0,8.111,9.846s-12.847-2.157-8.158,8.487,30.945,20.068,40.651,19.786,2.813-13.035,2.813-13.035,10.409-1.688,10.409-7.455-8.158-8.44-8.158-8.44a8.3,8.3,0,0,0,4.595-12.284Z" transform="translate(386.504 173.549)" fill="#ffd6be"/>
          <path id="Path_872" data-name="Path 872" d="M139.836,66.829h-.61L107.952,52.763a1.407,1.407,0,0,1-.7-1.829,1.454,1.454,0,0,1,1.875-.7L140.4,64.3a1.36,1.36,0,0,1-.563,2.626Z" transform="translate(395.193 184.807)"/>
          <path id="Path_873" data-name="Path 873" d="M139.392,69.772h-.563L107.274,56.081a1.36,1.36,0,0,1-.7-1.829,1.407,1.407,0,0,1,1.829-.7l31.555,13.785a1.255,1.255,0,0,1-.563,2.438Z" transform="translate(392.636 197.056)"/>
          <path id="Path_874" data-name="Path 874" d="M71.14,60.526s16.317-27.71,26.585-30.1,26.022.7,32.024,10.643-18.474,6.986-18.474,6.986-10.737,26.866-25.085,30.1S71.14,60.526,71.14,60.526Z" transform="translate(262.415 109.34)" fill="#ffd6be"/>
          <path id="Path_875" data-name="Path 875" d="M77.517,53.993a8.956,8.956,0,0,1-3.939-.891A1.405,1.405,0,0,1,74.8,50.571c6.986,3.423,17.4-8.487,20.818-13.363A1.379,1.379,0,0,1,97.867,38.8C97.4,39.505,87.129,53.993,77.517,53.993Z" transform="translate(268.556 135.049)"/>
          <g id="vuesax_linear_video-circle" data-name="vuesax/linear/video-circle" transform="translate(396.393 141.017) rotate(19)">
            <g id="video-circle">
              <path id="Vector" d="M29.855,14.927A14.927,14.927,0,1,1,14.927,0,14.927,14.927,0,0,1,29.855,14.927Z" transform="translate(5.162 5.162)" fill="#3c76eb" stroke="#3c76eb" stroke-linecap="round" stroke-linejoin="round" stroke-width="1.5"/>
              <path id="Vector-2" data-name="Vector" d="M0,0H39.806V39.806H0Z" fill="none" opacity="0"/>
              <path id="Vector-3" data-name="Vector" d="M0,5.439V3.213C0,.341,2.03-.817,4.512.612L6.437,1.724,8.362,2.837c2.481,1.429,2.481,3.775,0,5.2L6.437,9.154,4.512,10.266C2.03,11.7,0,10.522,0,7.665Z" transform="translate(15.542 14.464)" fill="#fff" stroke="#fff" stroke-linecap="round" stroke-linejoin="round" stroke-width="1.5"/>
            </g>
          </g>
        </g>
      </g>
    </g>
    <g id="Group_1078" data-name="Group 1078" transform="translate(-136.5 111)">
      <g id="Group_1077" data-name="Group 1077" transform="translate(-5755 -1945.188)">
        <rect id="Rectangle_639" data-name="Rectangle 639" width="194" height="35" rx="5" transform="translate(435 528)" fill="#3c76eb"/>
        <text id="_140_" data-name="140+" transform="translate(471.438 554.64)" fill="#fff" font-size="28" font-family="TTCommons-Bold, TT Commons" font-weight="700"><tspan x="0" y="0">140+</tspan></text>
        <text id="Courses" transform="translate(531.875 554)" fill="#fff" font-size="28" font-family="TTCommons-Light, TT Commons" font-weight="300"><tspan x="0" y="0">Courses</tspan></text>
        <g id="vuesax_linear_video-circle-2" data-name="vuesax/linear/video-circle" transform="translate(139.684 278.684)">
          <g id="video-circle-2" data-name="video-circle" transform="translate(300 254)">
            <path id="Vector-4" data-name="Vector" d="M19.973,9.987A9.987,9.987,0,1,1,9.987,0,9.987,9.987,0,0,1,19.973,9.987Z" transform="translate(3.454 3.454)" fill="#fff" stroke="#fff" stroke-linecap="round" stroke-linejoin="round" stroke-width="1.5"/>
            <path id="Vector-5" data-name="Vector" d="M0,0H26.631V26.631H0Z" fill="none" opacity="0"/>
            <path id="Vector-6" data-name="Vector" d="M0,3.639V2.15C0,.228,1.358-.547,3.018.409l1.288.745L5.594,1.9c1.66.956,1.66,2.525,0,3.481l-1.288.745-1.288.745C1.358,7.824,0,7.04,0,5.128Z" transform="translate(10.398 9.677)" fill="#3c76eb" stroke="#3c76eb" stroke-linecap="round" stroke-linejoin="round" stroke-width="1.5"/>
          </g>
        </g>
      </g>
      <g id="Group_1075" data-name="Group 1075" transform="translate(-5792 -1991.188)">
        <rect id="Rectangle_639-2" data-name="Rectangle 639" width="265" height="35" rx="5" transform="translate(435 528)" fill="#01ae63"/>
        <text id="Practice" transform="translate(593.094 553.64)" fill="#fff" font-size="28" font-family="TTCommons-Bold, TT Commons" font-weight="700"><tspan x="0" y="0">Practice</tspan></text>
        <text id="Interactive" transform="translate(471.438 553)" fill="#fff" font-size="28" font-family="TTCommons-Light, TT Commons" font-weight="300"><tspan x="0" y="0">Interactive</tspan></text>
        <g id="vuesax_bold_lamp-charge" data-name="vuesax/bold/lamp-charge" transform="translate(-114.781 345)">
          <g id="lamp-charge" transform="translate(556 188)">
            <path id="Vector-7" data-name="Vector" d="M7.678,1.97a.669.669,0,0,1-.2-.032,11.93,11.93,0,0,0-6.529,0A.744.744,0,0,1,.03,1.427.735.735,0,0,1,.541.511a13.461,13.461,0,0,1,7.349,0,.74.74,0,0,1,.511.916A.77.77,0,0,1,7.678,1.97Z" transform="translate(8.576 21.462)" fill="#fff"/>
            <path id="Vector-8" data-name="Vector" d="M16.232,4.641A8.431,8.431,0,0,0,10.5.21a8.6,8.6,0,0,0-7.3,1.683A8.492,8.492,0,0,0,0,8.571a9.218,9.218,0,0,0,4.143,7.317v.884A1.429,1.429,0,0,0,4.484,17.9a1.837,1.837,0,0,0,1.363.426h5.464a1.779,1.779,0,0,0,1.31-.458A1.593,1.593,0,0,0,13,16.634v-.746A8.926,8.926,0,0,0,16.232,4.641Zm-5.847,5.6-1.14,1.981a.8.8,0,0,1-.692.4.731.731,0,0,1-.394-.107.8.8,0,0,1-.3-1.086L8.766,9.86H7.871a1.272,1.272,0,0,1-1.15-1.992L7.86,5.887a.8.8,0,1,1,1.385.788L8.34,8.252h.895a1.272,1.272,0,0,1,1.15,1.992Z" transform="translate(4.228 2.133)" fill="#fff"/>
            <path id="Vector-9" data-name="Vector" d="M0,0H25.563V25.563H0Z" transform="translate(25.563 25.563) rotate(180)" fill="none" opacity="0"/>
          </g>
        </g>
      </g>
      <g id="Group_1076" data-name="Group 1076" transform="translate(-5677 -2037.188)">
        <rect id="Rectangle_639-3" data-name="Rectangle 639" width="255" height="35" rx="5" transform="translate(435 528)" fill="#8c75ff"/>
        <text id="Schedule" transform="translate(571.094 553.64)" fill="#fff" font-size="28" font-family="TTCommons-Bold, TT Commons" font-weight="700"><tspan x="0" y="0">Schedule</tspan></text>
        <text id="Learning" transform="translate(471.438 553)" fill="#fff" font-size="28" font-family="TTCommons-Light, TT Commons" font-weight="300"><tspan x="0" y="0">Learning</tspan></text>
        <g id="vuesax_bold_calendar-2" data-name="vuesax/bold/calendar-2" transform="translate(270 281)">
          <g id="calendar-2" transform="translate(172 252)">
            <path id="Vector-10" data-name="Vector" d="M0,0H25V25H0Z" fill="none" opacity="0"/>
            <path id="Vector-11" data-name="Vector" d="M14.282,2.406V.781a.781.781,0,1,0-1.562,0V2.344H5.949V.781a.781.781,0,0,0-1.562,0V2.406A4.425,4.425,0,0,0,0,6.833a.523.523,0,0,0,.521.552H18.147a.517.517,0,0,0,.521-.552A4.425,4.425,0,0,0,14.282,2.406Z" transform="translate(3.165 1.302)" fill="#fff"/>
            <path id="Vector-12" data-name="Vector" d="M17.708,0H1.042A1.045,1.045,0,0,0,0,1.042V7.458c0,3.125,1.563,5.208,5.208,5.208h8.333c3.646,0,5.208-2.083,5.208-5.208V1.042A1.045,1.045,0,0,0,17.708,0ZM6.469,8.719a1.2,1.2,0,0,1-.344.219.982.982,0,0,1-.792,0,1.2,1.2,0,0,1-.344-.219,1.056,1.056,0,0,1,0-1.479,1.2,1.2,0,0,1,.344-.219,1.042,1.042,0,0,1,.792,0,1.2,1.2,0,0,1,.344.219,1.056,1.056,0,0,1,0,1.479Zm.219-3.99a1.2,1.2,0,0,1-.219.344,1.2,1.2,0,0,1-.344.219.982.982,0,0,1-.792,0,1.2,1.2,0,0,1-.344-.219,1.2,1.2,0,0,1-.219-.344.982.982,0,0,1,0-.792,1.2,1.2,0,0,1,.219-.344,1.2,1.2,0,0,1,.344-.219,1.042,1.042,0,0,1,.792,0,1.2,1.2,0,0,1,.344.219,1.2,1.2,0,0,1,.219.344.982.982,0,0,1,0,.792Zm3.427.344a1.2,1.2,0,0,1-.344.219.982.982,0,0,1-.792,0,1.2,1.2,0,0,1-.344-.219,1.056,1.056,0,0,1,0-1.479,1.2,1.2,0,0,1,.344-.219.955.955,0,0,1,.792,0,1.2,1.2,0,0,1,.344.219,1.056,1.056,0,0,1,0,1.479Z" transform="translate(3.125 10.25)" fill="#fff"/>
          </g>
        </g>
      </g>
      <g id="Group_1074" data-name="Group 1074" transform="translate(-5853 -2037.188)">
        <rect id="Rectangle_639-4" data-name="Rectangle 639" width="164" height="35" rx="5" transform="translate(435 528)" fill="#f63b45"/>
        <text id="LIVE" transform="translate(471.438 554.64)" fill="#fff" font-size="28" font-family="TTCommons-Bold, TT Commons" font-weight="700"><tspan x="0" y="0">LIVE</tspan></text>
        <text id="Class" transform="translate(531.875 554)" fill="#fff" font-size="28" font-family="TTCommons-Light, TT Commons" font-weight="300"><tspan x="0" y="0">Class</tspan></text>
        <g id="Media_Camera_Video" data-name="Media / Camera Video" transform="translate(441 534)">
          <g id="Icon_Frame" data-name="Icon Frame">
            <path id="Rectangle_55" data-name="Rectangle 55" d="M0,1,4,0V8L0,7Z" transform="translate(20 8)" fill="#fff" stroke="#fff" stroke-linejoin="round" stroke-width="2"/>
            <path id="Base" d="M0,0H24V24H0Z" fill="none"/>
            <path id="Rectangle_54" data-name="Rectangle 54" d="M0,0H14V14H0Z" transform="translate(3 5)" fill="#fff" stroke="#fff" stroke-linejoin="round" stroke-width="2"/>
          </g>
        </g>
      </g>
    </g>
  </g>
</svg>
