<svg xmlns="http://www.w3.org/2000/svg" xmlns:xlink="http://www.w3.org/1999/xlink" width="1027.229" height="745.117" viewBox="0 0 1027 745">
  <defs>
    <clipPath id="clip-path">
      <circle id="Ellipse_194" cx="42.5" cy="42.5" r="42.5" transform="translate(235 1510.7)" fill="#fff"/>
    </clipPath>
    <clipPath id="clip-path-2">
      <circle id="Ellipse_195" cx="40" cy="40" r="40" transform="translate(316 1563)" fill="#fff"/>
    </clipPath>
    <clipPath id="clip-path-3">
      <circle id="Ellipse_196" cx="37" cy="37" r="37" transform="translate(250 1631)" fill="#fff"/>
    </clipPath>
    <clipPath id="clip-path-4">
      <circle id="Ellipse_197" data-name="Ellipse 197" cx="35.5" cy="35.5" r="35.5" transform="translate(312 1698)" fill="#fff"/>
    </clipPath>
    <clipPath id="clip-path-5">
      <circle id="Ellipse_198" data-name="Ellipse 198" cx="30.5" cy="30.5" r="30.5" transform="translate(278 1764)" fill="#fff" stroke="#fffcf8" stroke-width="3"/>
    </clipPath>
  </defs>
  <g id="Group_1061" data-name="Group 1061" transform="translate(5620.173 392.186)">
    <g id="Group_1086" data-name="Group 1086">
      <g id="Girl_Live_streaming" data-name="Girl Live streaming" transform="translate(-5803 -1507.982)">
        <path id="Path_2572" data-name="Path 2572" d="M1124.156,1258.6,725.822,1363.714A21.708,21.708,0,0,1,698,1342.665l4.1-524.323a21.713,21.713,0,0,1,16.065-20.758l394.262-66.072a21.715,21.715,0,0,1,27.358,20.963V1237.8A21.714,21.714,0,0,1,1124.156,1258.6Z" transform="translate(-490.647 424.28)" fill="#f63b45"/>
        <g id="Layer_2" data-name="Layer 2" transform="translate(182.827 1218.839)">
          <g id="OBJECTS" transform="translate(0 0)">
            <ellipse id="Ellipse_167" data-name="Ellipse 167" cx="29.476" cy="29.476" rx="29.476" ry="29.476" transform="translate(223.564 72.897)" fill="#8c75ff"/>
            <path id="Path_773" data-name="Path 773" d="M53.41,247.51c6.028-21.057,6.028-43.4,3.376-65.14s-7.635-43.078-11.674-64.577c-1.346-7.153-2.572-14.527-1.185-21.68s6.028-14.065,12.859-16.335A73.7,73.7,0,0,1,84.493,15.1a74.985,74.985,0,0,1,70.2-10.77,60.78,60.78,0,0,1,51.5,10.589A62.487,62.487,0,0,1,230.083,62.6c.342,20.514-9.484,41.33-3.576,60.981,6.952,23.187,32.63,35,46.213,55.013a61.061,61.061,0,0,1,1.728,64.5Z" transform="translate(43.712 -0.009)"/>
            <path id="Path_774" data-name="Path 774" d="M154.386,217.42l27.647,6.55S211.79,226.321,220.37,230s32.49,26.763,32.49,26.763,15.853,1.648,8.62,18.626H153Z" transform="translate(154.41 219.412)" fill="#fff0d9"/>
            <path id="Path_775" data-name="Path 775" d="M250.207,146.012s-1.768-12.437-4.019-24.794-12.6-41.35-6.872-45.288,20.193,30.42,20.193,30.42,19.028-62.407,26.763-63.09c9.162-.824-3.757,41.069-3.757,41.069s22.1-42.194,28.551-41.19-12.879,42.917-12.879,42.917,28.029-40.386,33.856-39.16-17.48,41.893-17.48,41.893S337.97,55.415,343.5,58.329s-48.383,102.23-48.383,102.23Z" transform="translate(239.803 43.502)" fill="#fff0d9"/>
            <path id="Path_776" data-name="Path 776" d="M256.157,102.519a1.607,1.607,0,0,1-.683-.141,1.788,1.788,0,0,1-.985-2.351,42.194,42.194,0,0,1,28.993-24.613,1.808,1.808,0,0,1,.824,3.516,38.518,38.518,0,0,0-26.482,22.483,1.808,1.808,0,0,1-1.668,1.105Z" transform="translate(256.698 76.065)"/>
            <path id="Path_777" data-name="Path 777" d="M142.353,121.777c-18.083,8.037-73.217,36.97-81.816,50.814S6.528,311.349.44,368.914c-2.612,24.493,6.53,35.1,26.12,35.1H307.412l7.093-70.6s32.148-19.028,20.956-62.508c0,0,99.8,87.282,132.771,81.816s43.54-40.084,54.089-89.19,32.228-148.985,32.228-148.985L478.037,89.89,438.274,232.546S328.228,130.3,320.392,123.866s-76.974-12.055-76.974-12.055Z" transform="translate(-0.002 90.703)" fill="#ffda73"/>
            <path id="Path_778" data-name="Path 778" d="M96.267,97.46,70.85,114.137s50.111,37.01,75.266,29.415,25.8-39.381,25.8-39.381l-19.831-1.889Z" transform="translate(71.5 98.343)" fill="#fff0d9"/>
            <path id="Path_779" data-name="Path 779" d="M115.2,209.8,90.281,131.277s-30.139,14.949-35.965-10.488c-5.2-22.664,19.55-27.667,32.952-18.445,0,0-32.027-77.316,36.488-92.747s81.575,79.486,84.85,102.471c5.746,40.426-20.776,63.633-41.511,68.314L171.937,205s4.5,21.519-15.793,25C129.059,234.693,115.2,209.8,115.2,209.8Z" transform="translate(54.098 7.965)" fill="#fff0d9"/>
            <path id="Path_780" data-name="Path 780" d="M125.232,43.392c4.8-6.028-15.11-8.358-15.31-4.521S122.419,46.888,125.232,43.392Z" transform="translate(110.93 37.322)"/>
            <path id="Path_781" data-name="Path 781" d="M94.08,55.264a7.515,7.515,0,1,0,7.595-7.434A7.515,7.515,0,0,0,94.08,55.264Z" transform="translate(94.945 48.254)"/>
            <path id="Path_782" data-name="Path 782" d="M112.3,52.675a7.494,7.494,0,1,0,2.252-5.3,7.515,7.515,0,0,0-2.252,5.3Z" transform="translate(113.333 45.64)"/>
            <path id="Path_783" data-name="Path 783" d="M79.064,70.989h.382a1.728,1.728,0,0,0,1.306-2.009,14.527,14.527,0,0,0-21.82-9.263,1.748,1.748,0,0,0-.563,2.391,1.768,1.768,0,0,0,2.391.563,11.051,11.051,0,0,1,16.616,7.052,1.728,1.728,0,0,0,1.688,1.266Z" transform="translate(58.645 58.067)"/>
            <path id="Path_784" data-name="Path 784" d="M131.173,96.323C106.52,100.6,89.2,91.26,89.2,91.26s10.89,11.774,42.656,9.524Z" transform="translate(90.02 92.086)"/>
            <path id="Path_785" data-name="Path 785" d="M98.642,65.219a5.485,5.485,0,1,1-4.481-6.329A5.485,5.485,0,0,1,98.642,65.219Z" transform="translate(88.555 59.336)" fill="#f63b45"/>
            <path id="Path_786" data-name="Path 786" d="M131.37,63.287a5.485,5.485,0,1,1-4.5-6.349A5.485,5.485,0,0,1,131.37,63.287Z" transform="translate(121.589 57.37)" fill="#f63b45"/>
            <path id="Path_787" data-name="Path 787" d="M195.428,44.953,176.983,19.315,156.891,9.851,132.157,3.08,85.522,18.471,58.94,82.2a183.625,183.625,0,0,1,22.946,25.015c9.926,13.482,18.465,28.129,23.147,27.326s-2.592-28.129-2.592-28.129C155.062,77.944,167.56,46,167.56,46c10.046,24.412,31.3,44.083,31.3,44.083L202.4,66.833Z" transform="translate(59.48 3.09)"/>
            <path id="Path_788" data-name="Path 788" d="M133.974,73.055A39.241,39.241,0,0,1,97.808,61c-2.331,5.465-.261,13.221,4.018,17.4A20.354,20.354,0,0,0,118.6,83.363C124.41,82.419,128.63,80.208,133.974,73.055Z" transform="translate(97.727 61.546)"/>
            <path id="Path_789" data-name="Path 789" d="M81.2,32.788c-10.609-10.046-25.176-17.5-40.185-15.552C28,18.924,16.908,29.874,13.271,42.291A36.97,36.97,0,0,0,27.858,82.175c10.609,7.233,24.312,9.243,36.85,6.932A81.053,81.053,0,0,0,99.166,72.932l1.587-8.881A72.554,72.554,0,0,0,81.2,32.788Z" transform="translate(12.121 17.064)"/>
            <path id="Path_790" data-name="Path 790" d="M118.726,75.743a1.768,1.768,0,0,1-.985-.3,1.788,1.788,0,0,1-.522-2.491c1.125-1.708,1.547-3.094,1.165-3.737-.643-1.045-3.737-1.366-5.646-1.185a1.788,1.788,0,0,1-2.009-1.346l-4.7-19.329a1.813,1.813,0,0,1,3.516-.884l4.521,17.9h0c2.23,0,6.028.4,7.474,2.974,1.206,2.009.784,4.521-1.226,7.595A1.828,1.828,0,0,1,118.726,75.743Z" transform="translate(106.947 45.496)"/>
            <path id="Path_791" data-name="Path 791" d="M260.45,294.3h-.12L63.685,280.876a1.808,1.808,0,0,1-1.627-2.25c5.1-20.314,9.283-37.553,15.552-65.461,3.878-17.36,3.456-32.55-1.346-47.82-5.244-16.6-17.259-29.154-31.4-32.811a1.768,1.768,0,0,1-1.286-2.19,1.808,1.808,0,0,1,2.19-1.306c15.331,4.018,28.33,17.44,33.936,35.222,5.023,15.893,5.465,31.686,1.427,49.709C75.1,240.932,70.958,257.95,66.1,277.42l194.475,13.261a1.809,1.809,0,1,1-.121,3.617Z" transform="translate(43.905 130.157)"/>
            <path id="Path_792" data-name="Path 792" d="M177.452,207.33a1.788,1.788,0,0,1-1.748-1.406c-4.661-19.59-21.619-59.172-21.8-59.574a1.814,1.814,0,1,1,3.335-1.427c.7,1.627,17.239,40.185,21.981,60.177a1.808,1.808,0,0,1-1.346,2.17Z" transform="translate(155.174 145.133)"/>
            <ellipse id="Ellipse_168" data-name="Ellipse 168" cx="29.476" cy="29.476" rx="29.476" ry="29.476" transform="translate(91.728 143.989) rotate(-76.8)" fill="#8c75ff"/>
            <path id="Path_793" data-name="Path 793" d="M59.12,102.04s0-98.734,79.626-99.88c0,0-64.3,31.907-61,103.315Z" transform="translate(59.662 2.162)" fill="#8c75ff"/>
            <path id="Path_794" data-name="Path 794" d="M5.324,0H113.5V50.231H5.324A5.324,5.324,0,0,1,0,44.907V5.244A5.324,5.324,0,0,1,5.324,0Z" transform="translate(441.374 422.487) rotate(-135)"/>
            <path id="Path_795" data-name="Path 795" d="M0,0H22.986A10.629,10.629,0,0,1,33.615,10.629V39.683A10.629,10.629,0,0,1,22.986,50.312H0V0Z" transform="translate(361.053 342.288) rotate(-135)" fill="#fff"/>
            <path id="Path_796" data-name="Path 796" d="M192.078,161.505,179.42,148.847l3.7-3.717L195.8,157.808a2.612,2.612,0,0,1,0,3.7h0a2.632,2.632,0,0,1-3.717,0Z" transform="translate(181.074 146.454)" fill="#f63b45"/>
            <path id="Path_797" data-name="Path 797" d="M184.908,168.7,172.23,156.017l3.717-3.7,12.658,12.658a2.632,2.632,0,0,1,0,3.717h0a2.612,2.612,0,0,1-3.7,0Z" transform="translate(173.817 153.71)" fill="#f63b45"/>
            <path id="Path_798" data-name="Path 798" d="M188.458,165.125,175.8,152.467l3.717-3.717,12.658,12.658a2.632,2.632,0,0,1,0,3.717h0a2.632,2.632,0,0,1-3.717,0Z" transform="translate(177.42 150.107)" fill="#f63b45"/>
            <rect id="Rectangle_608" data-name="Rectangle 608" width="7.093" height="25.497" transform="translate(455.083 418.779) rotate(-135)"/>
            <path id="Path_799" data-name="Path 799" d="M210.958,213.881V182.054a7.414,7.414,0,0,0-14.828,0v17Z" transform="translate(197.938 176.236)"/>
            <path id="Path_800" data-name="Path 800" d="M228.195,306.794V180.814a7.414,7.414,0,1,0-14.828,0v125.98H181.52v12.94h78.5v-12.94Z" transform="translate(183.193 179.924)"/>
            <rect id="Rectangle_609" data-name="Rectangle 609" width="14.828" height="5.606" transform="translate(396.56 476.173)"/>
          </g>
        </g>
        <g id="Mask_Group_1" data-name="Mask Group 1" transform="translate(607.844 -328.7)" clip-path="url(#clip-path)">
          <g id="Layer_2-2" data-name="Layer 2" transform="translate(235 1511.008)">
            <g id="Layer_1" data-name="Layer 1" transform="translate(0 0)">
              <path id="Path_2575" data-name="Path 2575" d="M84.7,42.349A42.15,42.15,0,0,1,73.29,71.264c-.091.109-.182.209-.282.309l-.391.4A42.232,42.232,0,0,1,42.35,84.69a44.61,44.61,0,0,1-5.45-.336h0A42.3,42.3,0,0,1,24.536,80.72l-.954-.454A42.341,42.341,0,0,1,7.894,66.958c-.345-.491-.69-.981-1.017-1.49a39.389,39.389,0,0,1-2.235-3.833A42.35,42.35,0,1,1,84.7,42.349Z" transform="translate(0.001 -0.006)" fill="#edddd6"/>
              <path id="Path_2576" data-name="Path 2576" d="M72.218,69.114c-.091.109-.182.209-.282.309l-.391.4A42.232,42.232,0,0,1,41.278,82.54a44.61,44.61,0,0,1-5.45-.336h0A42.3,42.3,0,0,1,23.464,78.57c.363-15.343.209-28.769.209-29.023.145-.318,7.267-2.144,16.705-2.453C55.249,46.667,67.8,55.079,72.218,69.114Z" transform="translate(1.073 2.144)" fill="#01ae63"/>
              <path id="Path_2577" data-name="Path 2577" d="M36.573,82.111h0a42.3,42.3,0,0,1-12.363-3.634l-.954-.454A42.341,42.341,0,0,1,7.549,64.706c8.157-11.182,14.816-14.444,16.824-15.179a5.886,5.886,0,0,1,.618-.218Z" transform="translate(0.346 2.246)" fill="#01ae63"/>
              <path id="Path_2578" data-name="Path 2578" d="M41.389,24.121s9.774.463,10.329-8.911c.59-9.992-8.648-10.9-12.563-6.9s-3.2,8.176-3.2,8.176-2.725-2.462-5.714.563c-2.189,2.216-1.063,5.85-1.063,5.85s-5.042-.191-4.542,4.215a9.865,9.865,0,0,0,3.634,6.64Z" transform="translate(1.125 0.272)" fill="#e56445"/>
              <path id="Path_2579" data-name="Path 2579" d="M32.143,39.839l.981,10.392s2.162,2.807,8.294,2.725c4.542-.082,6.05-1.254,6.05-1.254L46.323,46.5,45.2,41.429,33.959,40.067Z" transform="translate(1.469 1.814)" fill="#ffdfad"/>
              <path id="Path_2580" data-name="Path 2580" d="M33.88,40.057a3.288,3.288,0,0,0,.4.972c2.834,4.969,9.3,5.45,11.936,5.45L45.09,41.41Z" transform="translate(1.548 1.824)"/>
              <path id="Path_2581" data-name="Path 2581" d="M45.544,18.621s6.731,12.491,5.287,19.985-8.176,6.849-12.254,5.768a13.2,13.2,0,0,1-6.086-3.407,5.623,5.623,0,0,1-6.359-1.7c-2.725-3.243-1.562-7.322.481-8.4S31.3,31.1,31.3,31.1l-2.289-3.634S35.7,7.693,45.544,18.621Z" transform="translate(1.121 0.694)" fill="#ffdfad"/>
              <path id="Path_2582" data-name="Path 2582" d="M31.275,36.006a.518.518,0,0,1-.227-.055l-4.106-2.4a.454.454,0,1,1,.454-.781l4.088,2.389a.463.463,0,0,1,.173.618.472.472,0,0,1-.382.227Z" transform="translate(1.219 1.487)"/>
              <path id="Path_2583" data-name="Path 2583" d="M27.88,36.3a.454.454,0,0,1-.4-.245.445.445,0,0,1,.191-.609l2.1-1.1a.454.454,0,0,1,.609.191.463.463,0,0,1-.191.618l-2.1,1.09A.418.418,0,0,1,27.88,36.3Z" transform="translate(1.254 1.56)"/>
              <path id="Path_2584" data-name="Path 2584" d="M46.514,23.218a.445.445,0,0,1-.254-.082,2.017,2.017,0,0,0-2.271,0,.455.455,0,0,1-.536-.736,2.925,2.925,0,0,1,3.316,0,.454.454,0,0,1-.254.827Z" transform="translate(1.977 0.994)"/>
              <path id="Path_2585" data-name="Path 2585" d="M45.126,34.809h-.082a.454.454,0,0,1-.363-.527,7.858,7.858,0,0,0-1.517-6.45.445.445,0,0,1,0-.636.454.454,0,0,1,.645,0,8.648,8.648,0,0,1,1.735,7.213.445.445,0,0,1-.418.4Z" transform="translate(1.966 1.23)"/>
              <path id="Path_2586" data-name="Path 2586" d="M46.405,29.172a.454.454,0,0,1-.454-.436l-.109-2.48a.455.455,0,1,1,.908-.036l.109,2.48a.454.454,0,0,1-.436.472Z" transform="translate(2.095 1.172)"/>
              <path id="Path_2587" data-name="Path 2587" d="M39.881,29.8a.454.454,0,0,1-.454-.436l-.109-2.48a.454.454,0,0,1,.436-.472.445.445,0,0,1,.472.436l.109,2.48a.454.454,0,0,1-.436.472Z" transform="translate(1.797 1.2)"/>
              <path id="Path_2588" data-name="Path 2588" d="M46.845,21.583a4.415,4.415,0,0,0-3.924-1.744A5.623,5.623,0,0,0,39,22.056s1.562,4.251-1.735,6.913-6.086,2.262-6.086,2.262l-2.653-.663-2.235-3.552L32.9,18.322l9.084-5.986L47.3,16.287Z" transform="translate(1.201 0.557)" fill="#e56445"/>
              <path id="Path_2589" data-name="Path 2589" d="M43.127,37.125a3.8,3.8,0,0,1-3.4-1.817.436.436,0,0,1,.154-.618.445.445,0,0,1,.618.154,3.07,3.07,0,0,0,3.107,1.335.462.462,0,1,1,.173.908,3.46,3.46,0,0,1-.654.036Z" transform="translate(1.812 1.575)"/>
              <path id="Path_2590" data-name="Path 2590" d="M49.2,33a4.542,4.542,0,1,1,4.424-4.542A4.542,4.542,0,0,1,49.2,33Zm0-8.176a3.654,3.654,0,1,0,0-.036Z" transform="translate(2.035 1.086)" fill="#fff"/>
              <path id="Path_2591" data-name="Path 2591" d="M39.134,33.973a4.542,4.542,0,1,1,4.542-4.542A4.542,4.542,0,0,1,39.134,33.973Zm0-8.176a1.508,1.508,0,1,0,0-.036Z" transform="translate(1.581 1.131)" fill="#fff"/>
              <path id="Path_2592" data-name="Path 2592" d="M42.466,29.249a.454.454,0,0,1-.454-.418.445.445,0,0,1,.418-.491l3.207-.263a.456.456,0,1,1,.073.908l-3.207.263Z" transform="translate(1.92 1.276)" fill="#fff"/>
              <path id="Path_2593" data-name="Path 2593" d="M28.445,30.309a.445.445,0,0,1-.327-.763c2.444-2.6,7.213-.191,7.422-.091a.454.454,0,0,1,.191.609.445.445,0,0,1-.609.2s-4.369-2.189-6.359-.091A.463.463,0,0,1,28.445,30.309Z" transform="translate(1.279 1.289)" fill="#fff"/>
              <path id="Path_2594" data-name="Path 2594" d="M41.555,52.628a15.979,15.979,0,0,1-9.647-3.179.454.454,0,0,1-.1-.636.463.463,0,0,1,.636-.1c8.021,5.9,16.678,1.308,16.76,1.254a.455.455,0,1,1,.436.8,18.549,18.549,0,0,1-8.085,1.862Z" transform="translate(1.45 2.215)" fill="#fff"/>
              <path id="Path_2595" data-name="Path 2595" d="M36.8,24.672a.472.472,0,0,1-.245-.064.463.463,0,0,1-.145-.627A3.27,3.27,0,0,1,40.444,22.5a.458.458,0,0,1-.354.845,2.362,2.362,0,0,0-2.907,1.117.445.445,0,0,1-.382.209Z" transform="translate(1.661 1.012)"/>
            </g>
          </g>
        </g>
        <g id="Mask_Group_2" data-name="Mask Group 2" transform="translate(442.844 -339)" clip-path="url(#clip-path-2)">
          <g id="Layer_2-3" data-name="Layer 2" transform="translate(315.991 1562.994)">
            <g id="Layer_1-2" data-name="Layer 1">
              <path id="Path_2596" data-name="Path 2596" d="M80.008,40A40,40,0,0,1,10.184,66.658c-.438-.48-.858-.978-1.27-1.484A40,40,0,1,1,80.008,40Z" fill="#edddd6"/>
              <path id="Path_2597" data-name="Path 2597" d="M29.421,31.471s-9.3,7.01-10,15.538c-1.047,12.87,13.625,7.25,15.238-.97S29.421,31.471,29.421,31.471Z"/>
              <path id="Path_2598" data-name="Path 2598" d="M65.826,70.545a39.991,39.991,0,0,1-55.641-3.887c-.438-.48-.858-.978-1.27-1.484L34.234,46.83l.944-.712,9.944.807,4.127.335Z" fill="#ffda73"/>
              <path id="Path_2599" data-name="Path 2599" d="M28.589,30.6a11.892,11.892,0,0,1-2.394-9.438c.661-3.9,2.394-5.148,2.394-5.148s-2.643-5.32,5.217-4.994a22.068,22.068,0,0,1,12.527,4.144s3.561-1.759,5.148,2.428,0,10.373,0,10.373Z"/>
              <path id="Path_2600" data-name="Path 2600" d="M35.178,46.761l-24.994,19.9c-.438-.48-.858-.978-1.27-1.484A40.12,40.12,0,0,1,5.68,60.558c.772-.695,1.579-1.39,2.411-2.085,11.471-9.567,22.8-11.283,26.143-11.643C34.878,46.77,35.178,46.761,35.178,46.761Z" fill="#ffda73"/>
              <path id="Path_2601" data-name="Path 2601" d="M45.852,37.074l-.2,10.253s-1.785,2.891-7.413,3.2c-4.2.232-5.474-2.1-5.474-2.1l1.184-8.958,10.184-2.059Z" fill="#fff0d9"/>
              <path id="Path_2602" data-name="Path 2602" d="M74.792,59.76a40.214,40.214,0,0,1-22,18.155l6.469-7.885L45.157,46.924l-.1-.163a36.536,36.536,0,0,1,4.23.5C55.221,48.245,66.255,51.171,74.792,59.76Z" fill="#ffda73"/>
              <path id="Path_2603" data-name="Path 2603" d="M45.852,36.482a3.337,3.337,0,0,1-.309.927c-2.265,4.736-9.876,6.547-12.3,6.7l.695-4.728Z"/>
              <path id="Path_2604" data-name="Path 2604" d="M32.355,17.452S27.01,29.361,28.829,36.1s7.954,5.731,11.626,4.47a12.132,12.132,0,0,0,5.4-3.492,5.148,5.148,0,0,0,5.723-1.965c2.325-3.157.944-6.864-1-7.722s-4.29.541-4.29.541L48.142,24.5S40.661,6.77,32.355,17.452Z" fill="#fff0d9"/>
              <path id="Path_2605" data-name="Path 2605" d="M46.332,27.962s-5.148,1.03-8.717-4.693S34.32,15.2,34.32,15.2l-3.544,5.9s-.8-4.093.858-6.71,3.338-2.068,3.338-2.068l11.36,2.831,2.986,9.095Z"/>
              <path id="Path_2606" data-name="Path 2606" d="M32.758,32.7a.438.438,0,0,1-.412-.309c-.789-2.574,1.03-5.191,1.107-5.3a.431.431,0,0,1,.7.5S32.5,29.97,33.17,32.141a.438.438,0,0,1-.283.541Z"/>
              <path id="Path_2607" data-name="Path 2607" d="M46.787,33.616a.429.429,0,0,1-.309-.721l3.26-3.432a.429.429,0,0,1,.618.592L47.1,33.488a.4.4,0,0,1-.309.129Z"/>
              <path id="Path_2608" data-name="Path 2608" d="M50.227,32.707h-.06l-2.248-.343a.438.438,0,0,1-.36-.489.429.429,0,0,1,.489-.36l2.248.343a.43.43,0,0,1-.069.858Z"/>
              <path id="Path_2609" data-name="Path 2609" d="M37.066,36.122a5.843,5.843,0,0,1-2.574-.858.42.42,0,0,1-.206-.378.446.446,0,0,1,.232-.369l3.6-1.913a.412.412,0,0,1,.36,0,.438.438,0,0,1,.249.275c0,.077.592,2.016-.618,2.943A1.716,1.716,0,0,1,37.066,36.122Zm-1.45-1.253c.695.309,1.562.558,1.973.249a1.6,1.6,0,0,0,.4-1.484Z"/>
              <path id="Path_2610" data-name="Path 2610" d="M30.459,22.9a.431.431,0,1,1-.077-.858l2.128-.369a.435.435,0,0,1,.146.858l-2.128.369Z"/>
              <path id="Path_2611" data-name="Path 2611" d="M39.279,24.3a.4.4,0,0,1-.189-.051l-3.483-1.759a.429.429,0,1,1,.386-.764l3.475,1.759a.429.429,0,0,1-.2.815Z"/>
              <path id="Path_2612" data-name="Path 2612" d="M52.793,31.471a20.884,20.884,0,0,1,6.409,16.9c-1.09,10.476-11.48,9.112-13.659,5.311-3.312-5.792.309-16.611.309-16.611S52.218,38.138,52.793,31.471Z"/>
              <path id="Path_2613" data-name="Path 2613" d="M30.459,27.808a.335.335,0,0,1-.129,0,.429.429,0,0,1-.283-.532l.592-1.939-.515-.635a.429.429,0,0,1,.06-.6.42.42,0,0,1,.6.06l.669.807a.455.455,0,0,1,.077.4l-.643,2.136A.412.412,0,0,1,30.459,27.808Z"/>
              <path id="Path_2614" data-name="Path 2614" d="M36.954,28.391h-.129a.438.438,0,0,1-.283-.541l.592-1.931-.755-.858a.42.42,0,0,1,.043-.6.438.438,0,0,1,.609.043l.909,1.073a.429.429,0,0,1,.086.4l-.661,2.162a.438.438,0,0,1-.412.249Z"/>
              <path id="Path_2615" data-name="Path 2615" d="M38.267,50.948a9.026,9.026,0,0,1-5.843-2.042.42.42,0,0,1,0-.6.438.438,0,0,1,.609,0c.172.163,4.29,3.9,10.922.163a.429.429,0,1,1,.42.746,12.415,12.415,0,0,1-6.109,1.733Z" fill="#fff"/>
            </g>
          </g>
        </g>
        <g id="Mask_Group_3" data-name="Mask Group 3" transform="translate(582.844 -347)" clip-path="url(#clip-path-3)">
          <g id="Layer_2-4" data-name="Layer 2" transform="translate(249.995 1630.997)">
            <g id="Layer_1-3" data-name="Layer 1">
              <path id="Path_2616" data-name="Path 2616" d="M74,37A37,37,0,1,1,48.372,1.8,37,37,0,0,1,74,37Z" fill="#edddd6"/>
              <path id="Path_2617" data-name="Path 2617" d="M34.18,15.618s4.976-6.968,17.713-.071,7.333,38.56,7.333,38.56L35.251,51.02Z"/>
              <path id="Path_2618" data-name="Path 2618" d="M38.354,34.124l.532,9.1s-1.421,2.714-6.523,3.46c-3.793.548-5.135-1.413-5.135-1.413l.436-8.039,9.126-2.674Z" fill="#ffdfad"/>
              <path id="Path_2619" data-name="Path 2619" d="M38.307,33.561a2.928,2.928,0,0,1-.214.889c-1.674,4.674-8.46,6.984-10.65,7.325l.246-4.539Z"/>
              <path id="Path_2620" data-name="Path 2620" d="M24.45,16.578s-3.889,11.705-1.682,17.943,7.706,4.817,10.952,3.325a11.11,11.11,0,0,0,4.635-3.722,4.611,4.611,0,0,0,5.055-2.317c1.857-3.174.3-6.539-1.54-7.2s-3.857.841-3.857.841l1.4-3.428S31.148,5.8,24.45,16.578Z" fill="#ffdfad"/>
              <path id="Path_2621" data-name="Path 2621" d="M26.03,30.99a.4.4,0,0,1-.365-.254c-.928-2.381.516-4.992.571-5.095a.4.4,0,0,1,.54-.159.4.4,0,0,1,.159.54s-1.325,2.381-.532,4.42a.4.4,0,0,1-.214.508.421.421,0,0,1-.159.04Z"/>
              <path id="Path_2622" data-name="Path 2622" d="M38.886,30.752a.389.389,0,0,1-.317-.635l2.7-3.508a.4.4,0,0,1,.556-.079.4.4,0,0,1,.071.556L39.2,30.6a.381.381,0,0,1-.317.151Z"/>
              <path id="Path_2623" data-name="Path 2623" d="M41.949,29.617l-2.1-.151a.4.4,0,1,1,.056-.794l2.079.151a.4.4,0,0,1,0,.794Z"/>
              <path id="Path_2624" data-name="Path 2624" d="M23.133,21.887a.4.4,0,0,1-.381-.294.4.4,0,0,1,.278-.492l1.9-.516a.41.41,0,1,1,.206.794l-1.9.516Z"/>
              <path id="Path_2625" data-name="Path 2625" d="M31.291,22.514h-.1l-2.7-.7a.409.409,0,1,1,.2-.794l2.7.7a.4.4,0,0,1-.1.794Z"/>
              <path id="Path_2626" data-name="Path 2626" d="M23.538,26.538h-.079a.4.4,0,0,1-.309-.468l.381-1.9-.516-.579a.4.4,0,1,1,.587-.54l.667.714a.389.389,0,0,1,.1.357l-.436,2.063A.4.4,0,0,1,23.538,26.538Z"/>
              <path id="Path_2627" data-name="Path 2627" d="M29.545,26.609h-.079a.4.4,0,0,1-.309-.468l.389-1.889-.794-.794a.389.389,0,0,1,0-.556.4.4,0,0,1,.563,0l.944.9a.421.421,0,0,1,.1.357l-.429,2.1a.389.389,0,0,1-.389.349Z"/>
              <path id="Path_2628" data-name="Path 2628" d="M27.149,46.909s-.96-4.849.3-5.135,2.785.54,5.761-.206,4.531-1.849,5.484-1.9.659,6.039.659,6.039L32,48.814Z" fill="#3c76eb"/>
              <path id="Path_2629" data-name="Path 2629" d="M42.394,24.871a5.857,5.857,0,0,0-2.508-.27,4.46,4.46,0,0,0-1.873.873L36.7,27.307l.738-3.754a26.125,26.125,0,0,0-2.381-1.1l.484-3.23-1.309,2.9a20.086,20.086,0,0,0-4.642-1.175c-.873-.1-1.667-.135-2.381-.143l.436-3.524-1.317,3.524a11.824,11.824,0,0,0-2.643.3l-1.19,3.627s-.294-9.777,3.968-12.459,11.967-2.762,15.531,1.889S42.394,24.871,42.394,24.871Z"/>
              <path id="Path_2630" data-name="Path 2630" d="M29.053,33.41a.4.4,0,0,1-.048-.794A2.841,2.841,0,0,0,30.95,30.95a.4.4,0,1,1,.706.365,3.563,3.563,0,0,1-2.547,2.111Z"/>
              <path id="Path_2631" data-name="Path 2631" d="M63.963,62.328A37,37,0,0,1,7.19,58.908c3.333-4.127,10.539-11.642,20.07-13.634C39.719,42.663,57.4,45.5,63.963,62.328Z" fill="#3c76eb"/>
              <path id="Path_2632" data-name="Path 2632" d="M34.593,44.639a.4.4,0,0,1,0-.794,11.11,11.11,0,0,0,4.158-.992.389.389,0,0,1,.524.19.4.4,0,0,1-.19.532,11.809,11.809,0,0,1-4.492,1.063Z" fill="#fff"/>
            </g>
          </g>
        </g>
        <g id="Mask_Group_4" data-name="Mask Group 4" transform="translate(454.844 -377)" clip-path="url(#clip-path-4)">
          <g id="Layer_2-5" data-name="Layer 2" transform="translate(315.994 1701.993)">
            <g id="Layer_1-4" data-name="Layer 1">
              <g id="Path_2633" data-name="Path 2633" fill="#edddd6">
                <path d="M 31.49920463562012 64.50631713867188 C 23.37276458740234 64.50649261474609 15.56231498718262 61.52461624145508 9.506645202636719 56.10996627807617 C 8.361354827880859 55.07974624633789 7.279284954071045 53.96437454223633 6.28716516494751 52.79185485839844 C 3.972925186157227 50.04929351806641 2.133755207061768 46.97460556030273 0.8194451928138733 43.65163421630859 C -0.4637448191642761 40.40736389160156 -1.221524834632874 36.9932746887207 -1.432864785194397 33.50421524047852 C -1.644214868545532 30.01516532897949 -1.304044842720032 26.53457450866699 -0.4218348264694214 23.15913581848145 C 0.481775164604187 19.70181465148926 1.936375141143799 16.42760467529297 3.901535272598267 13.42746543884277 C 6.922005176544189 8.816255569458008 11.0844554901123 5.007095336914062 15.93888473510742 2.411805391311646 C 20.71666526794434 -0.1425046622753143 26.10023498535156 -1.492634654045105 31.50756454467773 -1.492634654045105 C 34.69724655151367 -1.492634654045105 37.87042617797852 -1.028514623641968 40.9389533996582 -0.1131546646356583 C 44.37577438354492 0.912065327167511 47.59916687011719 2.476025342941284 50.51960372924805 4.535295486450195 C 53.37087631225586 6.545795440673828 55.87573623657227 8.986265182495117 57.96459579467773 11.78891563415527 C 60.0534553527832 14.59156513214111 61.67636489868164 17.68936538696289 62.78824615478516 20.99627494812012 C 63.92709350585938 24.38339614868164 64.50471496582031 27.91929626464844 64.50507354736328 31.50576591491699 C 64.50507354736328 36.65526580810547 63.27601623535156 41.8051872253418 60.95077514648438 46.3989372253418 C 58.68988418579102 50.86556625366211 55.39187622070312 54.80799102783203 51.39670562744141 57.82491302490234 L 51.39362335205078 57.83415603637695 L 51.01306533813477 58.11602401733398 C 50.82138824462891 58.25799942016602 50.62400817871094 58.40419387817383 50.4040412902832 58.54706192016602 C 47.60627746582031 60.5047492980957 44.54217529296875 62.0092658996582 41.29618453979492 63.01914596557617 C 38.12460327148438 64.00588226318359 34.82842636108398 64.50623321533203 31.49920463562012 64.50631713867188 Z M 50.16489410400391 58.15653228759766 L 50.31018447875977 58.36379623413086 C 50.58414840698242 58.33679962158203 50.83902740478516 58.23424530029297 51.04972457885742 58.07409286499023 L 50.16609573364258 56.87130355834961 L 50.16489410400391 58.15653228759766 Z M 49.27865600585938 55.6618766784668 L 50.16600036621094 56.87117767333984 L 49.27865600585938 55.6618766784668 Z" stroke="none"/>
                <path d="M 31.50756072998047 0.0073699951171875 C 21.08400344848633 0.0073699951171875 11.08427810668945 5.19940185546875 5.15631103515625 14.2493782043457 C -2.474994659423828 25.89977645874023 -1.54949951171875 41.1788330078125 7.432239532470703 51.82294082641602 C 8.383945465087891 52.94770812988281 9.411075592041016 54.00642395019531 10.50647735595703 54.99177551269531 C 21.40938949584961 64.74057769775391 37.58993530273438 65.69781494140625 49.56624221801758 57.30251693725586 C 49.75542831420898 57.18090438842773 49.93785095214844 57.0457649230957 50.12028884887695 56.91063690185547 C 50.13379669189453 56.87010192871094 50.16757965087891 56.8701057434082 50.16604232788086 56.87123489379883 C 58.23777008056641 50.94137573242188 63.00507736206055 41.52361297607422 63.00507736206055 31.50591850280762 L 63.00507736206055 31.50590515136719 C 63.00368881225586 17.57863616943359 53.85627746582031 5.305458068847656 40.51016998291016 1.324260711669922 C 37.53124237060547 0.4356346130371094 34.502685546875 0.0073699951171875 31.50756072998047 0.0073699951171875 M 31.50755882263184 -2.992637634277344 C 34.84251403808594 -2.992637634277344 38.15995788574219 -2.5074462890625 41.36773681640625 -1.550567626953125 C 44.9605598449707 -0.4788131713867188 48.33051300048828 1.156318664550781 51.38399505615234 3.309410095214844 C 54.36493682861328 5.411331176757812 56.98361968994141 7.962657928466797 59.16728973388672 10.89251708984375 C 61.35095977783203 13.8223762512207 63.04758453369141 17.06092834472656 64.21002960205078 20.51822280883789 C 65.4007568359375 24.05964660644531 66.00469970703125 27.75634002685547 66.00507354736328 31.50561141967773 C 66.00507354736328 36.88947296142578 64.72010803222656 42.27364730834961 62.28910064697266 47.07636260986328 C 59.99626159667969 51.60607528686523 56.68306350708008 55.62027740478516 52.67418670654297 58.73577499389648 L 52.66687774658203 58.75770568847656 L 51.90589904785156 59.32135391235352 C 51.71125411987305 59.46553039550781 51.49298477172852 59.6272087097168 51.24356079101562 59.79035568237305 C 48.32429122924805 61.8299560546875 45.12783813476562 63.39799880981445 41.74180603027344 64.45148468017578 C 38.42571258544922 65.48318481445312 34.97959518432617 66.00631713867188 31.49917030334473 66.00631713867188 C 23.00315856933594 66.00631713867188 14.83765411376953 62.88883590698242 8.506828308105469 57.22815322875977 L 8.500148773193359 57.22217559814453 C 7.307746887207031 56.14956665039062 6.177925109863281 54.98496246337891 5.142063140869141 53.7607421875 C 2.721534729003906 50.8922233581543 0.7987823486328125 47.67768096923828 -0.5754165649414062 44.20333099365234 C -1.916957855224609 40.81151580810547 -2.709194183349609 37.24232864379883 -2.930122375488281 33.59490585327148 C -3.151065826416016 29.94748306274414 -2.795417785644531 26.30876541137695 -1.873088836669922 22.77982330322266 C -0.9283103942871094 19.16500091552734 0.5923843383789062 15.74188232421875 2.646759033203125 12.60555267333984 C 5.804500579833984 7.784763336181641 10.15628814697266 3.802398681640625 15.23166656494141 1.0889892578125 C 20.22626495361328 -1.58123779296875 25.8543701171875 -2.992637634277344 31.50755882263184 -2.992637634277344 Z" stroke="none" fill="#fffcf8"/>
              </g>
              <path id="Path_2634" data-name="Path 2634" d="M57.35,49.512A31.513,31.513,0,0,1,38.006,62.35c0-5.844.351-10.486.351-10.486s9.824-14.189,9.959-14.047C49.377,38.668,53.377,42.154,57.35,49.512Z" fill="#e23061"/>
              <path id="Path_2635" data-name="Path 2635" d="M50.127,56.911a31.492,31.492,0,0,1-39.614-1.919,32.493,32.493,0,0,1-3.081-3.169,35.935,35.935,0,0,1,7.432-12.946,7.56,7.56,0,0,1,1.074-1h0a16.351,16.351,0,0,1,6.007-2.642h.041A37.162,37.162,0,0,1,28.7,34.29c.791-.041,1.263-.041,1.263-.041s4.054.4,8.459,1.088c3.926.615,8.108,1.459,9.871,2.473a.8.8,0,0,1,.236.257C49.532,39.648,50,47.607,50.127,56.911Z" fill="#e23061"/>
              <path id="Path_2636" data-name="Path 2636" d="M22,19.776s.264,4.73,2.392,4.946,5.257-2.473,5.257-2.473l-1.466-5.317Z"/>
              <path id="Path_2637" data-name="Path 2637" d="M28.141,28.607l.095,7.432s1.432,2.122,5.98,2.459c3.378.243,4.567-.493,4.567-.493l-.527-3.75-.514-3.662L29.519,28.9Z" fill="#fff0d9"/>
              <path id="Path_2638" data-name="Path 2638" d="M29.972,28.932a2.5,2.5,0,0,0,.223.716c1.689,3.689,6.23,4.446,8.108,4.594l-.466-3.655Z"/>
              <path id="Path_2639" data-name="Path 2639" d="M39.323,13.669S43.3,22.932,41.81,28.114s-6.209,4.317-9.034,3.3a9.317,9.317,0,0,1-4.122-2.763,3.986,3.986,0,0,1-4.4-1.588c-1.75-2.473-.642-5.284.865-5.919a4.172,4.172,0,0,1,3.3.466l-1.4-2.7S33.04,5.317,39.323,13.669Z" fill="#fff0d9"/>
              <path id="Path_2640" data-name="Path 2640" d="M28.182,25.675a.311.311,0,0,1-.2-.068l-3.378-2.372a.338.338,0,0,1,.385-.547l3.378,2.372a.34.34,0,0,1-.189.615Z"/>
              <path id="Path_2641" data-name="Path 2641" d="M25.134,25.675A.34.34,0,1,1,25.053,25l2.189-.588a.351.351,0,0,1,.419.243.338.338,0,0,1-.243.412l-2.2.588Z"/>
              <path id="Path_2642" data-name="Path 2642" d="M32.911,18.155a.318.318,0,0,1-.169-.047.345.345,0,0,1-.122-.466,2.338,2.338,0,0,1,2.858-1.115.338.338,0,0,1,.189.439.345.345,0,0,1-.439.189,1.669,1.669,0,0,0-2.027.831A.338.338,0,0,1,32.911,18.155Z"/>
              <path id="Path_2643" data-name="Path 2643" d="M40.33,17.27a.345.345,0,0,1-.209-.074,1.419,1.419,0,0,0-1.608-.149.345.345,0,0,1-.466-.122.338.338,0,0,1,.115-.459,2.088,2.088,0,0,1,2.365.2.331.331,0,0,1,.047.473A.345.345,0,0,1,40.33,17.27Z"/>
              <path id="Path_2644" data-name="Path 2644" d="M39.033,25.155h-.088a.338.338,0,0,1-.243-.412c.473-1.743-.757-4.365-.77-4.392a.34.34,0,0,1,.615-.291c.054.115,1.351,2.872.811,4.858a.338.338,0,0,1-.324.236Z"/>
              <path id="Path_2645" data-name="Path 2645" d="M39.654,20.831a.331.331,0,0,1-.324-.25l-.48-1.662a.338.338,0,0,1,.236-.412.331.331,0,0,1,.412.23l.48,1.7a.338.338,0,0,1-.23.419Z"/>
              <path id="Path_2646" data-name="Path 2646" d="M34.648,20.945a.345.345,0,0,1-.324-.25l-.48-1.7a.35.35,0,0,1,.676-.182l.473,1.7a.331.331,0,0,1-.23.419Z"/>
              <path id="Path_2647" data-name="Path 2647" d="M39.864,15.013s-.547-.736-2.4-.736a4.007,4.007,0,0,0-2.919,1.318s-.155,3.378-2.655,5.034-3.466.993-3.466.993l-1.831-.635-1.351-2.655,5.23-5.736,6.284-2.7,3.108,3.48Z"/>
              <path id="Path_2648" data-name="Path 2648" d="M37.161,27.31a2.777,2.777,0,0,1-2.581-1.554.338.338,0,0,1,.155-.453.345.345,0,0,1,.453.155A2.182,2.182,0,0,0,37.3,26.628a.34.34,0,1,1,.068.676.919.919,0,0,1-.209.007Z"/>
              <path id="Path_2649" data-name="Path 2649" d="M23.033,24.134a9.588,9.588,0,0,1-2.088-6.426L21,17.344s-2.155-.236-1.439-3.1,4.378-6.7,10.081-8.108,10.223,7.236,10.223,7.236a14.242,14.242,0,0,0-8.358,2.459,18.179,18.179,0,0,0-4.9,5.149Z" fill="#7c6053"/>
              <path id="Path_2650" data-name="Path 2650" d="M35.634,38.729a15.668,15.668,0,0,1-8.108-2.378.338.338,0,1,1,.378-.561c.047.034,5.054,3.378,10.756,1.878a.348.348,0,1,1,.169.676,12.777,12.777,0,0,1-3.2.385Z" fill="#f7734f"/>
              <path id="Path_2651" data-name="Path 2651" d="M20.945,18.047a.365.365,0,0,1-.169-.041.345.345,0,0,1-.128-.459l1.081-1.885a.331.331,0,0,1,.459-.122.338.338,0,0,1,.128.459l-1.081,1.878A.338.338,0,0,1,20.945,18.047Z" fill="#ffbf69"/>
              <path id="Path_2652" data-name="Path 2652" d="M50.174,56.87a.053.053,0,0,0-.047.041c-.182.135-.365.27-.554.392l-1.73-8.621a.338.338,0,0,1,.264-.4.331.331,0,0,1,.4.264Z" fill="#f7734f"/>
            </g>
          </g>
        </g>
        <g id="Mask_Group_5" data-name="Mask Group 5" transform="translate(530.844 -383)" clip-path="url(#clip-path-5)">
          <g id="Layer_2-6" data-name="Layer 2" transform="translate(282.012 1768.029)">
            <g id="Layer_1-5" data-name="Layer 1">
              <g id="Path_2653" data-name="Path 2653" fill="#edddd6">
                <path d="M 26.4879322052002 54.44815826416016 C 20.96181297302246 54.44815826416016 15.60731315612793 52.83355712890625 11.00330257415771 49.77889633178711 L 10.98698329925537 49.7680778503418 L 10.9709529876709 49.75682830810547 L 10.65790367126465 49.53714370727539 C 9.640505790710449 48.84938430786133 8.664768218994141 48.08123779296875 7.757410049438477 47.25378799438477 C 7.66026496887207 47.16806411743164 7.55182933807373 47.07201766967773 7.440505504608154 46.96240997314453 C 6.987296104431152 46.54693222045898 6.592937469482422 46.15210723876953 6.236186504364014 45.75666427612305 C 6.052263259887695 45.56159591674805 5.86918830871582 45.36743927001953 5.68068265914917 45.16782760620117 L 5.658682823181152 45.14453887939453 L 5.637702941894531 45.12032699584961 L 5.570160388946533 45.04239654541016 C 3.538251399993896 42.75556564331055 1.905649065971375 40.17278289794922 0.7178428769111633 37.36583709716797 C -0.4426771402359009 34.62337875366211 -1.155217170715332 31.72509765625 -1.399997115135193 28.75149726867676 C -1.644767165184021 25.77789878845215 -1.415757179260254 22.8021183013916 -0.7193171381950378 19.90680885314941 C -0.005757151637226343 16.94032859802246 1.184162855148315 14.1226978302002 2.817392826080322 11.5321683883667 C 5.355592727661133 7.506217956542969 8.902213096618652 4.174617767333984 13.07384300231934 1.897527933120728 C 17.18069267272949 -0.344202071428299 21.81953239440918 -1.529122114181519 26.48886299133301 -1.529122114181519 C 29.10977363586426 -1.529122114181519 31.72063255310059 -1.159072041511536 34.24893188476562 -0.4292720556259155 C 37.19120407104492 0.4200279414653778 39.95331192016602 1.733697891235352 42.45853424072266 3.475257873535156 C 44.90366363525391 5.175027847290039 47.05312347412109 7.245677947998047 48.84720230102539 9.629677772521973 C 50.64129257202148 12.01368808746338 52.03588104248047 14.6524076461792 52.99224472045898 17.47255706787109 C 53.97210311889648 20.36201858520508 54.46969223022461 23.37986755371094 54.47117233276367 26.44225883483887 L 54.47118377685547 26.48809814453125 C 54.47117233276367 29.99617767333984 53.82262420654297 33.43004608154297 52.54354095458984 36.69463729858398 C 51.58258438110352 39.14876937866211 50.27478408813477 41.44822311401367 48.65662002563477 43.52888488769531 C 48.46298599243164 43.78384399414062 48.26368713378906 44.02156448364258 48.07090377807617 44.25152969360352 C 47.97194290161133 44.36957931518555 47.87846374511719 44.4810791015625 47.78958129882812 44.59032821655273 L 47.78292465209961 44.59850692749023 L 47.77615356445312 44.60659790039062 C 47.57882308959961 44.8422966003418 47.36019134521484 45.09250640869141 47.10775375366211 45.37150955200195 L 47.10534286499023 45.37417984008789 L 47.10291290283203 45.37683868408203 C 45.52304458618164 47.10625839233398 43.72692108154297 48.63164901733398 41.76445388793945 49.91063690185547 C 41.27787017822266 50.22691345214844 40.62983322143555 50.63740921020508 39.91423416137695 51.01906204223633 C 35.80825805664062 53.26244354248047 31.16576194763184 54.44815826416016 26.4879322052002 54.44815826416016 Z" stroke="none"/>
                <path d="M 26.48793601989746 52.94816207885742 C 30.85337257385254 52.94816207885742 35.22907257080078 51.87104415893555 39.20151138305664 49.69917678833008 C 39.80933380126953 49.37538909912109 40.37739181518555 49.02319717407227 40.94544219970703 48.65396881103516 C 42.80309295654297 47.44328689575195 44.49993133544922 46.00221633911133 45.99545288085938 44.36513900756836 C 46.21131134033203 44.12655639648438 46.42150115966797 43.88797760009766 46.62600326538086 43.64370727539062 C 46.89866256713867 43.30855941772461 47.19973373413086 42.96772766113281 47.46672439575195 42.61552810668945 C 48.99824142456055 40.64777755737305 50.23775100708008 38.46928787231445 51.14691162109375 36.14743804931641 C 52.35243225097656 33.07058715820312 52.97117233276367 29.79522705078125 52.97118377685547 26.48842811584473 L 52.97117233276367 26.4429874420166 C 52.96546173095703 14.65038776397705 45.16297149658203 4.282358169555664 33.83293151855469 1.011887907981873 C 22.50291633605957 -2.258572340011597 10.37545299530029 2.356598615646362 4.086262702941895 12.3321475982666 C -2.202937126159668 22.30768775939941 -1.138407111167908 35.2398796081543 6.697372913360596 44.05270767211914 L 6.771223068237305 44.13791656494141 C 6.964362621307373 44.34242630004883 7.15181303024292 44.54123687744141 7.339272975921631 44.74005889892578 C 7.697152614593506 45.13769912719727 8.077753067016602 45.51261901855469 8.475382804870605 45.87616729736328 C 8.566272735595703 45.96705627441406 8.662842750549316 46.05226898193359 8.75941276550293 46.13747787475586 C 9.621973037719727 46.92487716674805 10.54088306427002 47.64822769165039 11.50880241394043 48.3017692565918 L 11.83259296417236 48.52898788452148 C 16.25868797302246 51.46560287475586 21.36626434326172 52.94816207885742 26.48793601989746 52.94816207885742 M 26.4879322052002 55.94815826416016 C 20.66587257385254 55.94815826416016 15.02461242675781 54.24707794189453 10.17401313781738 51.02880859375 L 10.1093225479126 50.98465728759766 L 9.806946754455566 50.77246475219727 C 8.73719310760498 50.04854965209961 7.711018085479736 49.24068832397461 6.756226062774658 48.37082290649414 C 6.656107425689697 48.28244018554688 6.53669548034668 48.17637252807617 6.408205509185791 48.05097198486328 C 5.932251930236816 47.61373901367188 5.514647483825684 47.19529342651367 5.133876323699951 46.77410125732422 C 4.953900814056396 46.58321762084961 4.774631500244141 46.39308929443359 4.590142726898193 46.19773864746094 L 4.546143054962158 46.15115737915039 L 4.442755699157715 46.03186416625977 C 2.304805994033813 43.62426376342773 0.5869157314300537 40.90544509887695 -0.6635671257972717 37.95039749145508 C -1.886317133903503 35.06087875366211 -2.637057065963745 32.00731658935547 -2.894937038421631 28.87455749511719 C -3.152817249298096 25.74179840087891 -2.911507129669189 22.60658836364746 -2.177717208862305 19.55599784851074 C -1.425827145576477 16.43014717102051 -0.1721371561288834 13.46138763427734 1.548512816429138 10.73219776153564 C 4.222763061523438 6.49046802520752 7.959632873535156 2.980207920074463 12.35516262054443 0.5808979272842407 C 16.68179321289062 -1.780792117118835 21.56915283203125 -3.029122114181519 26.48886299133301 -3.029122114181519 C 29.25055313110352 -3.029122114181519 32.00137329101562 -2.639281988143921 34.66493225097656 -1.870432019233704 C 37.76470184326172 -0.9756720662117004 40.67491149902344 0.4084979295730591 43.31473159790039 2.243618011474609 C 45.89098358154297 4.034547805786133 48.15562438964844 6.216117858886719 50.04573440551758 8.727727890014648 C 51.93585205078125 11.23932838439941 53.40514373779297 14.01943778991699 54.41278457641602 16.9908275604248 C 55.44529342651367 20.03553771972656 55.96961212158203 23.21521759033203 55.97117233276367 26.44153785705566 L 55.97118377685547 26.48776817321777 C 55.97117233276367 30.18420791625977 55.287841796875 33.80217742919922 53.9401741027832 37.24184799194336 C 52.92754745483398 39.82791900634766 51.54951095581055 42.25149154663086 49.84468841552734 44.44461822509766 C 49.63117599487305 44.7252197265625 49.41317367553711 44.98526000976562 49.22039413452148 45.21520614624023 C 49.12508392333984 45.32888793945312 49.03505325317383 45.436279296875 48.95315170288086 45.53694915771484 L 48.92630386352539 45.56948852539062 C 48.71652221679688 45.820068359375 48.48550415039062 46.08448791503906 48.22005462646484 46.37788772583008 L 48.21037292480469 46.38852691650391 C 46.54513168334961 48.21139907836914 44.65196228027344 49.81920623779297 42.58345413208008 51.16731643676758 C 42.07143020629883 51.5001335144043 41.39017868041992 51.9315071105957 40.62646865844727 52.33920288085938 C 36.30233764648438 54.70022583007812 31.41366577148438 55.94815826416016 26.4879322052002 55.94815826416016 Z" stroke="none" fill="#fffcf8"/>
              </g>
              <path id="Path_2654" data-name="Path 2654" d="M46.013,44.388a26.261,26.261,0,0,1-5.05,4.289c-.568.369-1.136.721-1.744,1.045a26.505,26.505,0,0,1-27.369-1.17l-.324-.227A23.989,23.989,0,0,1,8.776,46.16c-.1-.085-.193-.17-.284-.261-.4-.364-.778-.738-1.136-1.136a50.16,50.16,0,0,1,5.033-9.657,12.065,12.065,0,0,1,9.265-5.544,61.448,61.448,0,0,1,15.014,1.21,6.658,6.658,0,0,1,4.38,3.471,90.623,90.623,0,0,1,4.965,10.145Z" fill="#8c75ff"/>
              <path id="Path_2655" data-name="Path 2655" d="M33.044,7.339s-.233-1.494,1.193-.886.818,2.113,0,1.909A2.011,2.011,0,0,1,33.044,7.339Z" fill="#7772d3"/>
              <path id="Path_2656" data-name="Path 2656" d="M35.788,16.786s-.227,4.033-2.045,4.221S29.255,18.9,29.255,18.9l1.255-4.544Z"/>
              <path id="Path_2657" data-name="Path 2657" d="M21.938,15.639s-5.93-1.9-6.817-4.419S25.443,12.5,25.443,12.5Z" fill="#5c5cc6"/>
              <path id="Path_2658" data-name="Path 2658" d="M30.527,24.279l-.46,6.4s-1.136,1.806-4.868,2.073c-2.761.2-3.721-.432-3.721-.432l.415-3.2.4-3.119L29,24.58Z" fill="#f49282"/>
              <path id="Path_2659" data-name="Path 2659" d="M29,24.6a1.948,1.948,0,0,1-.193.608c-1.443,3.153-5.323,3.8-6.913,3.925l.4-3.119Z"/>
              <path id="Path_2660" data-name="Path 2660" d="M21.018,11.571S17.61,19.479,18.9,23.9s5.3,3.7,7.709,2.84a8.027,8.027,0,0,0,3.5-2.38,3.408,3.408,0,0,0,3.755-1.358c1.494-2.107.568-4.51-.744-5.05a3.6,3.6,0,0,0-2.84.4l1.187-2.3S26.375,4.442,21.018,11.571Z" fill="#f49282"/>
              <path id="Path_2661" data-name="Path 2661" d="M30.527,21.8a.273.273,0,0,1-.233-.119.284.284,0,0,1,.068-.4l2.84-2.022a.284.284,0,1,1,.329.46l-2.857,2.028a.267.267,0,0,1-.148.051Z"/>
              <path id="Path_2662" data-name="Path 2662" d="M33.123,21.791a.182.182,0,0,1-.074,0l-1.869-.5a.293.293,0,1,1,.142-.568l1.875.5a.284.284,0,0,1,.2.347.29.29,0,0,1-.278.222Z"/>
              <path id="Path_2663" data-name="Path 2663" d="M26.29,15.372a.29.29,0,0,1-.227-.114,1.267,1.267,0,0,0-.818-.568,1.244,1.244,0,0,0-.818.222.284.284,0,0,1-.352-.443,1.669,1.669,0,0,1,2.443.432.29.29,0,0,1-.057.4A.278.278,0,0,1,26.29,15.372Z"/>
              <path id="Path_2664" data-name="Path 2664" d="M20.149,14.809a.278.278,0,0,1-.216-.1.29.29,0,0,1,.04-.4,1.341,1.341,0,0,1,1.045-.375.767.767,0,0,1,.511.358.284.284,0,0,1-.494.278.222.222,0,0,0-.131-.08.811.811,0,0,0-.568.261A.3.3,0,0,1,20.149,14.809Z"/>
              <path id="Path_2665" data-name="Path 2665" d="M21.262,21.37a.284.284,0,0,1-.273-.21,6.3,6.3,0,0,1,.21-3.471.278.278,0,0,1,.364-.165.284.284,0,0,1,.165.364,5.862,5.862,0,0,0-.193,3.124.278.278,0,0,1-.2.347Z"/>
              <path id="Path_2666" data-name="Path 2666" d="M20.155,17.843h-.08a.29.29,0,0,1-.2-.352l.415-1.449a.278.278,0,0,1,.347-.193.284.284,0,0,1,.2.352l-.386,1.437a.278.278,0,0,1-.3.2Z"/>
              <path id="Path_2667" data-name="Path 2667" d="M24.8,17.968h-.074a.29.29,0,0,1-.2-.352l.409-1.449a.294.294,0,1,1,.568.153l-.409,1.449A.29.29,0,0,1,24.8,17.968Z"/>
              <path id="Path_2668" data-name="Path 2668" d="M20.564,12.719s.466-.631,2.045-.625A3.408,3.408,0,0,1,25.1,13.23a5.969,5.969,0,0,0,2.272,4.294c2.142,1.454,2.948.846,2.948.846l1.562-.568,1.165-2.272L28.59,10.64,23.222,8.367l-2.653,2.954Z"/>
              <path id="Path_2669" data-name="Path 2669" d="M22.859,23.211h-.176a.284.284,0,0,1-.256-.312.29.29,0,0,1,.312-.256,1.858,1.858,0,0,0,1.812-.994.284.284,0,1,1,.511.244,2.374,2.374,0,0,1-2.2,1.318Z"/>
              <path id="Path_2670" data-name="Path 2670" d="M20.359,10.975s2.232-6.357,10.168-5,5.26,11.446,5.26,11.446l-3.6-1.176Z" fill="#7772d3"/>
              <path id="Path_2671" data-name="Path 2671" d="M18.053,10.526s2.772.1,9.93,3.408A48.426,48.426,0,0,1,32.6,16.411S24.364,12.952,21.16,13a4.482,4.482,0,0,0-2.022.477Z" fill="#5c5cc6"/>
              <path id="Path_2672" data-name="Path 2672" d="M23.9,32.987a11.463,11.463,0,0,1-2.488-.25.29.29,0,0,1-.21-.341.278.278,0,0,1,.341-.21c.051,0,4.732,1.085,8.356-1.6a.29.29,0,0,1,.4.062.284.284,0,0,1-.062.4A10.606,10.606,0,0,1,23.9,32.987Z" fill="#46467f"/>
            </g>
          </g>
        </g>
        <text id="_24_" data-name="24+" transform="translate(885.344 1391.64)" fill="#f63b45" font-size="28" font-family="TTCommons-Bold, TT Commons" font-weight="700"><tspan x="0" y="0">24+</tspan></text>
        <text id="Joined" transform="translate(885.344 1416)" fill="#f63b45" font-size="28" font-family="TTCommons-Light, TT Commons" font-weight="300"><tspan x="0" y="0">Joined</tspan></text>
        <path id="Path_2673" data-name="Path 2673" d="M5.825-7.409,86.075-21A5.825,5.825,0,0,1,91.9-15.175V1.651a5.825,5.825,0,0,1-5.825,5.825L5.825,21.067A5.825,5.825,0,0,1,0,15.242V-1.585A5.825,5.825,0,0,1,5.825-7.409Z" transform="translate(543.944 1188)" fill="#fffcf8"/>
        <path id="Path_2674" data-name="Path 2674" d="M7.645-3.161,112.983-21a7.645,7.645,0,0,1,7.645,7.645V8.732a7.645,7.645,0,0,1-7.645,7.645L7.645,34.217A7.645,7.645,0,0,1,0,26.572V4.485A7.645,7.645,0,0,1,7.645-3.161Z" transform="translate(515.215 1239.839)" fill="#d9353e"/>
        <path id="Path_2675" data-name="Path 2675" d="M7.645-3.161,112.983-21a7.645,7.645,0,0,1,7.645,7.645V8.732a7.645,7.645,0,0,1-7.645,7.645L7.645,34.217A7.645,7.645,0,0,1,0,26.572V4.485A7.645,7.645,0,0,1,7.645-3.161Z" transform="translate(480.373 1292.203)" fill="#d9353e"/>
        <path id="Path_2676" data-name="Path 2676" d="M7.645-3.161,112.983-21a7.645,7.645,0,0,1,7.645,7.645V8.732a7.645,7.645,0,0,1-7.645,7.645L7.645,34.217A7.645,7.645,0,0,1,0,26.572V4.485A7.645,7.645,0,0,1,7.645-3.161Z" transform="translate(501.75 1335.423)" fill="#d9353e"/>
        <text id="LIVE" transform="translate(577.969 1196.627) rotate(-9)" fill="#f63b45" font-size="24" font-family="TTCommons-BoldItalic, TT Commons" font-weight="700" font-style="italic"><tspan x="0" y="0">LIVE</tspan></text>
        <g id="Icon_Frame" data-name="Icon Frame" transform="translate(551.796 1183.589)">
          <path id="Rectangle_55" data-name="Rectangle 55" d="M0,.711,3.423-1V5.846H0Z" transform="translate(17.115 5.279)" fill="#f63b45" stroke="#f63b45" stroke-linejoin="round" stroke-width="2"/>
          <path id="Base" d="M0,0H20.538V20.538H0Z" transform="translate(0)" fill="none"/>
          <path id="Rectangle_54" data-name="Rectangle 54" d="M0-.289,11.98-2V9.98L0,11.692Z" transform="translate(2.567 4.567)" fill="#f63b45" stroke="#f63b45" stroke-linejoin="round" stroke-width="2"/>
        </g>
        <ellipse id="Ellipse_199" data-name="Ellipse 199" cx="12" cy="13.5" rx="12" ry="13.5" transform="matrix(0.899, 0.438, -0.438, 0.899, 530.225, 1236.415)" fill="#c42d36"/>
        <ellipse id="Ellipse_200" data-name="Ellipse 200" cx="12" cy="13.5" rx="12" ry="13.5" transform="matrix(0.899, 0.438, -0.438, 0.899, 494.701, 1288.415)" fill="#c42d36"/>
        <ellipse id="Ellipse_201" data-name="Ellipse 201" cx="12" cy="13.5" rx="12" ry="13.5" transform="matrix(0.899, 0.438, -0.438, 0.899, 515.701, 1331.415)" fill="#c42d36"/>
        <path id="Path_2677" data-name="Path 2677" d="M-3399.048,427.9-3328,415.7" transform="translate(3953.417 817)" fill="none" stroke="#c42d36" stroke-linecap="round" stroke-width="3"/>
        <path id="Path_2680" data-name="Path 2680" d="M-3399.048,427.9-3328,415.7" transform="translate(3917.893 869)" fill="none" stroke="#c42d36" stroke-linecap="round" stroke-width="3"/>
        <path id="Path_2682" data-name="Path 2682" d="M-3399.048,427.9-3328,415.7" transform="translate(3938.893 912)" fill="none" stroke="#c42d36" stroke-linecap="round" stroke-width="3"/>
        <path id="Path_2678" data-name="Path 2678" d="M-3399.048,427.9l54.848-9.448" transform="translate(3953.417 826.648)" fill="none" stroke="#c42d36" stroke-linecap="round" stroke-width="3"/>
        <path id="Path_2679" data-name="Path 2679" d="M-3399.048,427.9l54.848-9.448" transform="translate(3917.893 878.648)" fill="none" stroke="#c42d36" stroke-linecap="round" stroke-width="3"/>
        <path id="Path_2681" data-name="Path 2681" d="M-3399.048,427.9l54.848-9.448" transform="translate(3938.893 921.648)" fill="none" stroke="#c42d36" stroke-linecap="round" stroke-width="3"/>
        <path id="Path_2888" data-name="Path 2888" d="M1308.61,428.229s13.74-.226,17.343,15.092" transform="translate(-668.563 716.891)" fill="none" stroke="#f63b45" stroke-linecap="round" stroke-miterlimit="10" stroke-width="6"/>
        <path id="Path_2889" data-name="Path 2889" d="M1314,352.84s27.593,2.59,29.95,26.58" transform="translate(-673.049 779.666)" fill="none" stroke="#f63b45" stroke-linecap="round" stroke-miterlimit="10" stroke-width="6"/>
        <path id="Path_2890" data-name="Path 2890" d="M1305.25,271.39s40.771,1.128,47.3,42.122" transform="translate(-665.764 847.488)" fill="none" stroke="#f63b45" stroke-linecap="round" stroke-miterlimit="10" stroke-width="6"/>
      </g>
      <g id="Group_1053" data-name="Group 1053" transform="translate(-5570.156 -599.982)">
        <rect id="Rectangle_639" data-name="Rectangle 639" width="223" height="35" rx="5" transform="translate(435 528)" fill="#8c75ff"/>
        <text id="Speaking" transform="translate(472.438 553.64)" fill="#fff" font-size="28" font-family="TTCommons-Bold, TT Commons" font-weight="700"><tspan x="0" y="0">Speaking</tspan></text>
        <text id="Class" transform="translate(587.438 553)" fill="#fff" font-size="28" font-family="TTCommons-Light, TT Commons" font-weight="300"><tspan x="0" y="0">Class</tspan></text>
        <g id="Media_Camera_Video" data-name="Media / Camera Video" transform="translate(440.438 534)">
          <g id="Icon_Frame-2" data-name="Icon Frame">
            <path id="Rectangle_55-2" data-name="Rectangle 55" d="M0,1,4,0V8L0,7Z" transform="translate(20 8)" fill="#fff" stroke="#fff" stroke-linejoin="round" stroke-width="2"/>
            <path id="Base-2" data-name="Base" d="M0,0H24V24H0Z" fill="none"/>
            <path id="Rectangle_54-2" data-name="Rectangle 54" d="M0,0H14V14H0Z" transform="translate(3 5)" fill="#fff" stroke="#fff" stroke-linejoin="round" stroke-width="2"/>
          </g>
        </g>
      </g>
      <g id="Group_1054" data-name="Group 1054" transform="translate(-5539.156 -552.982)">
        <rect id="Rectangle_639-2" data-name="Rectangle 639" width="274" height="35" rx="5" transform="translate(435 528)" fill="#01ae63"/>
        <text id="Pronunciation" transform="translate(472.438 553.64)" fill="#fff" font-size="28" font-family="TTCommons-Bold, TT Commons" font-weight="700"><tspan x="0" y="0">Pronunciation</tspan></text>
        <text id="Class-2" data-name="Class" transform="translate(643.875 553)" fill="#fff" font-size="28" font-family="TTCommons-Light, TT Commons" font-weight="300"><tspan x="0" y="0">Class</tspan></text>
        <g id="Media_Camera_Video-2" data-name="Media / Camera Video" transform="translate(442 533.64)">
          <g id="Icon_Frame-3" data-name="Icon Frame">
            <path id="Rectangle_55-3" data-name="Rectangle 55" d="M0,1,4,0V8L0,7Z" transform="translate(20 8)" fill="#fff" stroke="#fff" stroke-linejoin="round" stroke-width="2"/>
            <path id="Base-3" data-name="Base" d="M0,0H24V24H0Z" fill="none"/>
            <path id="Rectangle_54-3" data-name="Rectangle 54" d="M0,0H14V14H0Z" transform="translate(3 5)" fill="#fff" stroke="#fff" stroke-linejoin="round" stroke-width="2"/>
          </g>
        </g>
      </g>
      <g id="Group_1052" data-name="Group 1052" transform="translate(-5607.156 -505.982)">
        <rect id="Rectangle_639-3" data-name="Rectangle 639" width="220" height="35" rx="5" transform="translate(435 528)" fill="#3c76eb"/>
        <text id="Listening" transform="translate(472.438 553.64)" fill="#fff" font-size="28" font-family="TTCommons-Bold, TT Commons" font-weight="700"><tspan x="0" y="0">Listening</tspan></text>
        <text id="Class-3" data-name="Class" transform="translate(587.875 553)" fill="#fff" font-size="28" font-family="TTCommons-Light, TT Commons" font-weight="300"><tspan x="0" y="0">Class</tspan></text>
        <g id="vuesax_bold_calendar-2" data-name="vuesax/bold/calendar-2" transform="translate(270 281)">
          <g id="Media_Camera_Video-3" data-name="Media / Camera Video" transform="translate(172.5 252)">
            <g id="Icon_Frame-4" data-name="Icon Frame">
              <path id="Rectangle_55-4" data-name="Rectangle 55" d="M0,1,4,0V8L0,7Z" transform="translate(20 8)" fill="#fff" stroke="#fff" stroke-linejoin="round" stroke-width="2"/>
              <path id="Base-4" data-name="Base" d="M0,0H24V24H0Z" fill="none"/>
              <path id="Rectangle_54-4" data-name="Rectangle 54" d="M0,0H14V14H0Z" transform="translate(3 5)" fill="#fff" stroke="#fff" stroke-linejoin="round" stroke-width="2"/>
            </g>
          </g>
        </g>
      </g>
      <g id="Connection_red" data-name="Connection red" transform="translate(-4592.943 126.37) rotate(164)">
        <g id="Layer_1-6" data-name="Layer 1" transform="translate(0 0)">
          <path id="Path_2683" data-name="Path 2683" d="M419.658,0c-32.235,0-63.015,20.2-81.94,40.736C321.5,58.284,308.784,78.951,296.461,98.968c-7.8,12.608-15.78,25.632-24.592,37.747C211.4,219.9,102.3,267.008.312,254.062L0,256.635a293.029,293.029,0,0,0,152.806-22.617,293.134,293.134,0,0,0,121.169-95.77c8.865-12.192,16.924-25.268,24.7-37.928,12.244-19.887,24.9-40.45,40.944-57.842,22.955-24.826,63.509-49.393,102.4-36.395,23.943,7.981,41.594,28.284,58.492,47.911,18.561,21.473,37.773,43.674,65.355,49.627,29.532,6.369,57.53-8.111,84.618-22.123,24.54-12.712,49.939-25.84,76.585-23.709,39.826,3.276,68.734,38.63,92.781,71.49l2.106-1.534C797.539,94.419,768.111,58.57,727.271,55.32c-27.452-2.184-53.11,11.1-77.989,23.969-27.92,14.428-54.28,28.076-82.9,21.889-26.724-5.771-44.792-26.672-63.925-48.769C485.22,32.5,467.439,11.932,442.82,3.718A73.05,73.05,0,0,0,419.658,0Z" transform="translate(0 0)" fill="#f63b45"/>
        </g>
      </g>
    </g>
  </g>
</svg>
