<svg xmlns="http://www.w3.org/2000/svg" viewBox="45.852 -230.737 959.994 763.277" width="959.994" height="763">
  <g data-name="Group 1061">
    <g data-name="Group 976" opacity=".1" fill="none" stroke="#8c75ff">
      <path data-name="Path 2840" d="M513.777541 620.67154v-740.733"/>
      <path data-name="Path 2841" d="M573.777541 620.67154v-740.733"/>
      <path data-name="Path 2842" d="M633.777541 620.67154v-740.733"/>
      <path data-name="Path 2843" d="M873.777541 620.67154v-740.733"/>
      <path data-name="Path 2845" d="M693.777541 620.67154v-740.733"/>
      <path data-name="Path 2846" d="M933.777541 620.67154v-740.733"/>
      <path data-name="Path 2847" d="M753.777541 620.67154v-740.733"/>
      <path data-name="Path 2849" d="M813.777541 620.67154v-740.733"/>
      <g data-name="Rectangle 650">
        <path stroke="none" d="M452.826541-120.26146h541v748h-541z"/>
        <path d="M453.326541-119.76146h540v747h-540z"/>
      </g>
      <path data-name="Path 2827" d="M452.826541-59.26146h540.8"/>
      <path data-name="Path 2828" d="M452.826541.73854h540.8"/>
      <path data-name="Path 2829" d="M452.826541 60.73854h540.8"/>
      <path data-name="Path 2835" d="M452.826541 300.73854h540.8"/>
      <path data-name="Path 2839" d="M452.826541 540.73854h540.8"/>
      <path data-name="Path 2830" d="M452.826541 120.73854h540.8"/>
      <path data-name="Path 2836" d="M452.826541 360.73854h540.8"/>
      <path data-name="Path 2831" d="M452.826541 180.73854h540.8"/>
      <path data-name="Path 2834" d="M452.826541 420.73854h540.8"/>
      <path data-name="Path 2832" d="M452.826541 240.73854h540.8"/>
      <path data-name="Path 2833" d="M452.826541 480.73854h540.8"/>
    </g>
    <g data-name="Girl Hands up">
      <g data-name="Layer 1">
        <path data-name="Path 2850" d="M573.263541 19.15754s49.176-86.635 50.07-141.553 52.262-4.648 52.262-4.648l10.156 20.741s3.242 121.944-38.552 165.5c-51.281 53.43-73.936-40.04-73.936-40.04Z" fill="#ffd6be"/>
        <path data-name="Path 2851" d="M678.607541-87.71546s19.1-45 21.092-75.7-4.492-41.52-8.984-42.458-9.96 18.007-9.96 18.007.977-28.865-8.945-30.779-13.593 23.436-13.593 23.436-3.554-20.78-11.718-17.186-10.976 50.5-10.976 50.5-6.25-23.436-12.577-20.819-10.937 36.951-6.484 49.606a130.107 130.107 0 0 0 16.171 28.006Z" fill="#ffd6be"/>
        <path data-name="Path 2852" d="M653.726541-117.59046a1.445 1.445 0 0 1-1.484-1.367c-1.484-31.482-17.3-41.521-17.46-41.6a1.484 1.484 0 0 1 1.523-2.539c.7.43 17.3 10.82 18.866 43.981a1.445 1.445 0 0 1-1.406 1.523Z"/>
        <path data-name="Path 2853" d="M684.623541-153.44746h-.43l-48.4-15.624a1.484 1.484 0 1 1 .9-2.812l48.356 15.624a1.445 1.445 0 0 1-.43 2.851Z"/>
        <path data-name="Path 2854" d="M391.124541 165.28054s-53.43 84.017-101.551 110.5 20.389 48.512 20.389 48.512l23.045-.742s109.367-54.215 128.194-111.516c23.241-70.507-70.077-46.754-70.077-46.754Z" fill="#ffd6be"/>
        <path data-name="Path 2855" d="M346.092541 308.39454s-30.857 37.966-57.066 53.981-38.747 15.624-41.638 12.03 11.21-17.266 11.21-17.266-25.037 14.413-31.248 6.484 14.335-22.967 14.335-22.967-20.038 6.564-20.663-2.264 39.49-33.353 39.49-33.353-23.67 5.468-24.256-1.367 27.537-26.951 40.778-28.943a130.617 130.617 0 0 1 32.341 1.172Z" fill="#ffd6be"/>
        <path data-name="Path 2856" d="M276.956541 309.99554a35.623 35.623 0 0 1-17.264-3.906 1.464 1.464 0 1 1 1.523-2.5s16.405 9.374 44.919-3.906a1.484 1.484 0 0 1 1.25 2.656 71.714 71.714 0 0 1-30.428 7.656Z"/>
        <path data-name="Path 2857" d="M289.573541 346.63454a1.406 1.406 0 0 1-1.016-.43l-36.325-35.505a1.49230778 1.49230778 0 1 1 2.187-2.031l36.287 35.545a1.484 1.484 0 0 1 0 2.07 1.562 1.562 0 0 1-1.133.351Z"/>
        <path data-name="Path 2858" d="m648.688541 603.21754 79.213 5.82-22.03 75.424-64.214 10.746Z" fill="#ffd6be"/>
        <path data-name="Path 2859" d="M427.297541 262.89054s-113.507 343.726-32.654 410.83 259.786 39.333 259.786 39.333l11.211-138.543-97.649-10.741-100.77-286.622Z" fill="#ffda73"/>
        <path data-name="Path 2861" d="M593.067541 277.14654s19.53 75.424 16.132 124.718-8.828 161.082-7.812 180.807-180.3 38.159-176.509-34.18 17.031-271.501 17.031-271.501Z" fill="#ffda73"/>
        <path data-name="Path 2862" d="M481.980541-48.53346a52.34 52.34 0 0 1 57.3 7.343c28.24 23.436 5.117 51.246 26.131 64.683s40.9 28.943 37.81 51.52 6.992 50.426 26.17 39.568c29.178-16.483 87.455 70.308 44.841 104.446-92.024 73.236-217.64-101.556-217.64-101.556s-28.631-15.038-21.248-53.981c5.155-27.107 46.714-69.839 46.636-112.023Z"/>
        <path data-name="Path 2863" d="M552.679541-21.93346s-3.242 29.568 17.733 37.654c16.561 6.328 31.521 8.867 39.06 31.912s-6.835 36.755 10.195 50.465 25.076-1.8 50 13.632c32.927 20.428 14.218 60.972-3.4 62.5s-94.095-57.34-94.095-57.34l-46.874-121.283Z"/>
        <path data-name="Path 2864" d="m524.477541 48.02254-.937 37.458s-7.031 10.585-28.982 11.718c-16.327.9-21.288-7.812-21.288-7.812l4.77-32.654 39.763-7.812Z" fill="#ffd6be"/>
        <path data-name="Path 2865" d="M524.480541 45.71754a11.248 11.248 0 0 1-1.172 3.593c-8.828 18.515-38.555 25.546-47.968 26.17l2.7-18.436Z"/>
        <path data-name="Path 2866" d="M471.825541-28.53446s-20.819 46.442-13.749 72.729 31.013 22.3 45.348 17.46a47.223 47.223 0 0 0 21.053-13.632 20.194 20.194 0 0 0 22.381-7.812c9.023-12.343 3.672-26.639-3.906-30s-16.718 2.07-16.718 2.07l7.226-13.476s-29.059-69.016-61.635-27.339Z" fill="#ffd6be"/>
        <path data-name="Path 2867" d="M526.236541 12.43954s-20.077 3.906-34.021-18.28-12.656-31.482-12.656-31.482l-13.866 23.045s-3.125-15.975 3.281-26.17 13.007-8.085 13.007-8.085l44.255 11.053 11.717 35.462Z"/>
        <path data-name="Path 2868" d="M473.427541 30.71954a1.484 1.484 0 0 1-1.406-1.012c-3.047-10 3.906-20.116 4.3-20.506a1.458 1.458 0 1 1 2.383 1.68s-6.523 9.374-3.906 17.967a1.445 1.445 0 0 1-.937 1.836Z"/>
        <path data-name="Path 2869" d="M528.149541 34.31254a1.367 1.367 0 0 1-.976-.391 1.445 1.445 0 0 1 0-2.07l12.733-13.4a1.445 1.445 0 0 1 2.07 0 1.484 1.484 0 0 1 0 2.07l-12.733 13.4a1.523 1.523 0 0 1-1.094.391Z"/>
        <path data-name="Path 2870" d="M541.586541 30.75754h-.231l-8.749-1.367a1.461 1.461 0 0 1 .43-2.89l8.788 1.367a1.445 1.445 0 0 1 1.211 1.641 1.484 1.484 0 0 1-1.445 1.25Z"/>
        <path data-name="Path 2871" d="M464.443541 11.81354h-.43a1.484 1.484 0 0 1-.976-1.836l2.578-8.437a1.523 1.523 0 0 1 1.836-.976 1.484 1.484 0 0 1 .976 1.836l-2.617 8.437a1.367 1.367 0 0 1-1.367.977Z"/>
        <path data-name="Path 2872" d="M514.439541 85.05054s48.827-62.105 67.69-104.289l84.642 74.643c-34.49 66.128-57.3 100.188-57.3 100.188s-1.289 141.709-3.242 144.326-55.074 14.413-114.8 11.132-72.69-11.718-75.932-13.749 24.728-187.49 24.728-187.49 27.341-24.1 74.214-24.761Z" fill="#f63b45"/>
        <path data-name="Path 2873" d="M487.996541 13.92354h-.43a1.484 1.484 0 0 1-.976-1.836l2.614-8.437a1.406 1.406 0 0 1 1.8-.976 1.484 1.484 0 0 1 .977 1.836l-2.577 8.437a1.484 1.484 0 0 1-1.406.976Z"/>
        <path data-name="Path 2874" d="M490.769541 44.39054a25.312 25.312 0 0 1-8.32-1.719 1.445 1.445 0 0 1-.937-1.133 1.523 1.523 0 0 1 .547-1.367l12.538-9.843a1.51 1.51 0 0 1 2.226.469c0 .312 3.633 7.226-.234 11.484a7.5 7.5 0 0 1-5.82 2.109Zm-4.687-3.634c2.851.742 6.835 1.25 8.359-.43a6.875 6.875 0 0 0 .43-6.484Z"/>
        <path data-name="Path 2875" d="M464.442541-7.47946a1.484 1.484 0 0 1-1.445-1.211 1.445 1.445 0 0 1 1.172-1.68l8.281-1.25a1.484 1.484 0 1 1 .508 2.89l-8.278 1.445Z"/>
        <path data-name="Path 2876" d="M498.855541-2.05246a1.25 1.25 0 0 1-.625 0l-13.593-6.874a1.459 1.459 0 0 1 1.289-2.617l13.593 6.875a1.445 1.445 0 0 1-.664 2.773Z"/>
        <path data-name="Path 2877" d="M468.583541 93.83954a54.452 54.452 0 0 1 4.14-11.288c2.07-3.359 12.733 0 27.342-2.265s21.561-10.428 24.061-10.742 4.023 8.671 4.023 8.671-7.812 10.116-9.3 11.718-50.266 3.906-50.266 3.906Z" fill="#ffda73"/>
        <path data-name="Path 2878" d="M498.855541 93.48754a1.484 1.484 0 0 1 0-2.93c5.078-.82 19.061-4.14 22.616-9.687a1.445 1.445 0 0 1 1.992-.43 1.406 1.406 0 0 1 .469 1.992c-4.961 7.812-23.826 10.9-24.647 11.015Z"/>
        <path data-name="Path 2881" d="M332.069541 216.72154s20.545-18.788 52.106-51.52 56.05-55.543 56.05-55.543l32.927 52.067-40 112.531Z" fill="#f63b45"/>
        <path data-name="Path 2882" d="M415.228541 265.70254a1.484 1.484 0 0 1-1.445-1.6l7.812-90.111a1.484 1.484 0 0 1 1.6-1.328 1.445 1.445 0 0 1 1.328 1.6l-8.007 90.072a1.445 1.445 0 0 1-1.289 1.367Z"/>
        <path data-name="Path 2883" d="M448.584541 696.64854a1.484 1.484 0 0 1-1.445-1.25c-18.592-125.421 5.7-326.774 7.812-344.116l-32.224-11.366a1.484 1.484 0 0 1-.9-1.875 1.445 1.445 0 0 1 1.875-.9l33.4 11.718a1.484 1.484 0 0 1 .976 1.6c-.273 2.109-27.342 214.4-8.046 344.468a1.484 1.484 0 0 1-1.211 1.679Z"/>
        <path data-name="Path 2884" d="M581.582541 359.21154c-29.842 0-40.544-31.013-40.622-31.248a1.445 1.445 0 0 1 .9-1.836 1.484 1.484 0 0 1 1.875.937c.43 1.367 11.718 33.513 43.981 28.865a1.406 1.406 0 0 1 1.68 1.25 1.445 1.445 0 0 1-1.25 1.641 42.969 42.969 0 0 1-6.562.391Z"/>
        <path data-name="Path 2885" d="M601.425541 669.42354a1.484 1.484 0 0 1-1.484-1.445v-100.5a1.484 1.484 0 1 1 2.93 0v100.54a1.484 1.484 0 0 1-1.445 1.406Z"/>
      </g>
    </g>
    <g data-name="Interface / Check Circle 1">
      <g data-name="Icon Frame" transform="translate(700.826541 -112.26146)">
        <path d="M0 0h46v46H0Z" fill="none"/>
        <circle data-name="Ellipse 14" cx="20" cy="20" r="20" transform="translate(3 3)" fill="#03c06e" stroke="#03c06e" stroke-linecap="round" stroke-linejoin="round" stroke-width=".5"/>
        <path d="M31.35 17.434 20.217 28.567l-5.567-5.566" fill="none" stroke="#fff" stroke-linecap="round" stroke-linejoin="round" stroke-width="5"/>
      </g>
    </g>
    <g data-name="Interface / Check Circle 1">
      <g data-name="Icon Frame" transform="translate(700.826541 67.73854)">
        <path data-name="Base" d="M0 0h46v46H0Z" fill="none"/>
        <circle data-name="Ellipse 14" cx="20" cy="20" r="20" transform="translate(3 3)" fill="#03c06e" stroke="#03c06e" stroke-linecap="round" stroke-linejoin="round" stroke-width=".5"/>
        <path data-name="Vector" d="M31.35 17.434 20.217 28.567l-5.567-5.566" fill="none" stroke="#fff" stroke-linecap="round" stroke-linejoin="round" stroke-width="5"/>
      </g>
    </g>
    <g data-name="Interface / Check Circle 1">
      <g data-name="Icon Frame" transform="translate(941.826541 67.73854)">
        <path data-name="Base" d="M0 0h46v46H0Z" fill="none"/>
        <circle data-name="Ellipse 14" cx="20" cy="20" r="20" transform="translate(3 3)" fill="#03c06e" stroke="#03c06e" stroke-linecap="round" stroke-linejoin="round" stroke-width=".5"/>
        <path data-name="Vector" d="M31.35 17.434 20.217 28.567l-5.567-5.566" fill="none" stroke="#fff" stroke-linecap="round" stroke-linejoin="round" stroke-width="5"/>
      </g>
    </g>
    <g data-name="Interface / Check Circle 1">
      <g data-name="Icon Frame" transform="translate(941.826541 -53.26146)">
        <path data-name="Base" d="M0 0h46v46H0Z" fill="none"/>
        <circle data-name="Ellipse 14" cx="20" cy="20" r="20" transform="translate(3 3)" fill="#03c06e" stroke="#03c06e" stroke-linecap="round" stroke-linejoin="round" stroke-width=".5"/>
        <path data-name="Vector" d="M31.35 17.434 20.217 28.567l-5.567-5.566" fill="none" stroke="#fff" stroke-linecap="round" stroke-linejoin="round" stroke-width="5"/>
      </g>
    </g>
    <g data-name="Interface / Check Circle 1">
      <g data-name="Icon Frame" transform="translate(820.826541 -112.26146)">
        <path data-name="Base" d="M0 0h46v46H0Z" fill="none"/>
        <circle data-name="Ellipse 14" cx="20" cy="20" r="20" transform="translate(3 3)" fill="#03c06e" stroke="#03c06e" stroke-linecap="round" stroke-linejoin="round" stroke-width=".5"/>
        <path data-name="Vector" d="M31.35 17.434 20.217 28.567l-5.567-5.566" fill="none" stroke="#fff" stroke-linecap="round" stroke-linejoin="round" stroke-width="5"/>
      </g>
    </g>
    <g data-name="Interface / Check Circle 1">
      <g data-name="Icon Frame" transform="translate(820.826541 -53.26146)">
        <path data-name="Base" d="M0 0h46v46H0Z" fill="none"/>
        <circle data-name="Ellipse 14" cx="20" cy="20" r="20" transform="translate(3 3)" fill="#03c06e" stroke="#03c06e" stroke-linecap="round" stroke-linejoin="round" stroke-width=".5"/>
        <path data-name="Vector" d="M31.35 17.434 20.217 28.567l-5.567-5.566" fill="none" stroke="#fff" stroke-linecap="round" stroke-linejoin="round" stroke-width="5"/>
      </g>
    </g>
    <g data-name="Interface / Check Circle 1">
      <g data-name="Icon Frame" transform="translate(820.826541 5.73854)">
        <path data-name="Base" d="M0 0h46v46H0Z" fill="none"/>
        <circle data-name="Ellipse 14" cx="20" cy="20" r="20" transform="translate(3 3)" fill="#03c06e" stroke="#03c06e" stroke-linecap="round" stroke-linejoin="round" stroke-width=".5"/>
        <path data-name="Vector" d="M31.35 17.434 20.217 28.567l-5.567-5.566" fill="none" stroke="#fff" stroke-linecap="round" stroke-linejoin="round" stroke-width="5"/>
      </g>
    </g>
    <g data-name="Group 978" transform="translate(-377.139459 -446.76146)">
      <rect data-name="Rectangle 639" width="332" height="35" rx="5" transform="translate(435 528)" fill="#3c76eb"/>
      <text data-name="Custom Schedule" transform="translate(549.875 553.64)" fill="#fff" font-size="28" font-family="TTCommons-Bold, TT Commons" font-weight="700" style="white-space:pre"><tspan x="0" y="0">Custom Schedule</tspan></text>
      <text transform="translate(471.438 553)" fill="#fff" font-size="28" font-family="TTCommons-Light, TT Commons" font-weight="300" style="white-space:pre"><tspan x="0" y="0">Create</tspan></text>
      <g fill="#fff" data-name="vuesax/bold/calendar-2">
        <path data-name="Vector" d="M459.447 536.708v-1.625a.781.781 0 1 0-1.562 0v1.563h-6.771v-1.563a.781.781 0 0 0-1.562 0v1.625a4.425 4.425 0 0 0-4.387 4.427.523.523 0 0 0 .521.552h17.626a.517.517 0 0 0 .521-.552 4.425 4.425 0 0 0-4.386-4.427ZM462.833 543.25h-16.666a1.045 1.045 0 0 0-1.042 1.042v6.416c0 3.125 1.563 5.208 5.208 5.208h8.333c3.646 0 5.208-2.083 5.208-5.208v-6.416a1.045 1.045 0 0 0-1.041-1.042Zm-11.239 8.719a1.2 1.2 0 0 1-.344.219.982.982 0 0 1-.792 0 1.2 1.2 0 0 1-.344-.219 1.056 1.056 0 0 1 0-1.479 1.2 1.2 0 0 1 .344-.219 1.042 1.042 0 0 1 .792 0 1.2 1.2 0 0 1 .344.219 1.056 1.056 0 0 1 0 1.479Zm.219-3.99a1.2 1.2 0 0 1-.219.344 1.2 1.2 0 0 1-.344.219.982.982 0 0 1-.792 0 1.2 1.2 0 0 1-.344-.219 1.2 1.2 0 0 1-.219-.344.982.982 0 0 1 0-.792 1.2 1.2 0 0 1 .219-.344 1.2 1.2 0 0 1 .344-.219 1.042 1.042 0 0 1 .792 0 1.2 1.2 0 0 1 .344.219 1.2 1.2 0 0 1 .219.344.982.982 0 0 1 0 .792Zm3.427.344a1.2 1.2 0 0 1-.344.219.982.982 0 0 1-.792 0 1.2 1.2 0 0 1-.344-.219 1.056 1.056 0 0 1 0-1.479 1.2 1.2 0 0 1 .344-.219.955.955 0 0 1 .792 0 1.2 1.2 0 0 1 .344.219 1.056 1.056 0 0 1 0 1.479Z"/>
      </g>
    </g>
    <g data-name="Group 979" transform="translate(-356.807459 -540.76146)">
      <rect data-name="Rectangle 639" width="332" height="35" rx="5" transform="translate(435 528)" fill="#01ae63"/>
      <text transform="translate(471.875 553.64)" fill="#fff" font-size="28" font-family="TTCommons-Bold, TT Commons" font-weight="700" style="white-space:pre"><tspan x="0" y="0">Notification</tspan></text>
      <text transform="translate(616.75 553)" fill="#fff" font-size="28" font-family="TTCommons-Light, TT Commons" font-weight="300" style="white-space:pre"><tspan x="0" y="0">Reminder</tspan></text>
      <g data-name="vuesax/bold/calendar-2">
        <g data-name="calendar-2" fill="#fff">
          <path data-name="Vector" d="M459.447 536.708v-1.625a.781.781 0 1 0-1.562 0v1.563h-6.771v-1.563a.781.781 0 0 0-1.562 0v1.625a4.425 4.425 0 0 0-4.387 4.427.523.523 0 0 0 .521.552h17.626a.517.517 0 0 0 .521-.552 4.425 4.425 0 0 0-4.386-4.427ZM462.833 543.25h-16.666a1.045 1.045 0 0 0-1.042 1.042v6.416c0 3.125 1.563 5.208 5.208 5.208h8.333c3.646 0 5.208-2.083 5.208-5.208v-6.416a1.045 1.045 0 0 0-1.041-1.042Zm-11.239 8.719a1.2 1.2 0 0 1-.344.219.982.982 0 0 1-.792 0 1.2 1.2 0 0 1-.344-.219 1.056 1.056 0 0 1 0-1.479 1.2 1.2 0 0 1 .344-.219 1.042 1.042 0 0 1 .792 0 1.2 1.2 0 0 1 .344.219 1.056 1.056 0 0 1 0 1.479Zm.219-3.99a1.2 1.2 0 0 1-.219.344 1.2 1.2 0 0 1-.344.219.982.982 0 0 1-.792 0 1.2 1.2 0 0 1-.344-.219 1.2 1.2 0 0 1-.219-.344.982.982 0 0 1 0-.792 1.2 1.2 0 0 1 .219-.344 1.2 1.2 0 0 1 .344-.219 1.042 1.042 0 0 1 .792 0 1.2 1.2 0 0 1 .344.219 1.2 1.2 0 0 1 .219.344.982.982 0 0 1 0 .792Zm3.427.344a1.2 1.2 0 0 1-.344.219.982.982 0 0 1-.792 0 1.2 1.2 0 0 1-.344-.219 1.056 1.056 0 0 1 0-1.479 1.2 1.2 0 0 1 .344-.219.955.955 0 0 1 .792 0 1.2 1.2 0 0 1 .344.219 1.056 1.056 0 0 1 0 1.479Z"/>
        </g>
      </g>
    </g>
    <g data-name="Group 980" transform="translate(-325.307459 -493.76146)">
      <rect data-name="Rectangle 639" width="269" height="35" rx="5" transform="translate(435 528)" fill="#8c75ff"/>
      <text transform="translate(471.875 553.64)" fill="#fff" font-size="28" font-family="TTCommons-Bold, TT Commons" font-weight="700" style="white-space:pre"><tspan x="0" y="0">Weekly</tspan></text>
      <text transform="translate(562.75 553)" fill="#fff" font-size="28" font-family="TTCommons-Light, TT Commons" font-weight="300" style="white-space:pre"><tspan x="0" y="0">Attendance</tspan></text>
      <g data-name="vuesax/bold/calendar-2">
        <g data-name="calendar-2" fill="#fff">
          <path data-name="Vector" d="M459.447 536.708v-1.625a.781.781 0 1 0-1.562 0v1.563h-6.771v-1.563a.781.781 0 0 0-1.562 0v1.625a4.425 4.425 0 0 0-4.387 4.427.523.523 0 0 0 .521.552h17.626a.517.517 0 0 0 .521-.552 4.425 4.425 0 0 0-4.386-4.427ZM462.833 543.25h-16.666a1.045 1.045 0 0 0-1.042 1.042v6.416c0 3.125 1.563 5.208 5.208 5.208h8.333c3.646 0 5.208-2.083 5.208-5.208v-6.416a1.045 1.045 0 0 0-1.041-1.042Zm-11.239 8.719a1.2 1.2 0 0 1-.344.219.982.982 0 0 1-.792 0 1.2 1.2 0 0 1-.344-.219 1.056 1.056 0 0 1 0-1.479 1.2 1.2 0 0 1 .344-.219 1.042 1.042 0 0 1 .792 0 1.2 1.2 0 0 1 .344.219 1.056 1.056 0 0 1 0 1.479Zm.219-3.99a1.2 1.2 0 0 1-.219.344 1.2 1.2 0 0 1-.344.219.982.982 0 0 1-.792 0 1.2 1.2 0 0 1-.344-.219 1.2 1.2 0 0 1-.219-.344.982.982 0 0 1 0-.792 1.2 1.2 0 0 1 .219-.344 1.2 1.2 0 0 1 .344-.219 1.042 1.042 0 0 1 .792 0 1.2 1.2 0 0 1 .344.219 1.2 1.2 0 0 1 .219.344.982.982 0 0 1 0 .792Zm3.427.344a1.2 1.2 0 0 1-.344.219.982.982 0 0 1-.792 0 1.2 1.2 0 0 1-.344-.219 1.056 1.056 0 0 1 0-1.479 1.2 1.2 0 0 1 .344-.219.955.955 0 0 1 .792 0 1.2 1.2 0 0 1 .344.219 1.056 1.056 0 0 1 0 1.479Z"/>
        </g>
      </g>
    </g>
    <g data-name="Layer 2">
      <g data-name="Layer 1" transform="rotate(90 150.7520005 526.9185405)" fill="#f63b45">
        <circle data-name="Ellipse 169" cx="1.797" cy="1.797" r="1.797"/>
        <circle data-name="Ellipse 170" cx="1.797" cy="1.797" transform="translate(17.514)" r="1.797"/>
        <circle data-name="Ellipse 171" cx="1.797" cy="1.797" transform="translate(35.009)" r="1.797"/>
        <circle data-name="Ellipse 172" cx="1.797" cy="1.797" transform="translate(52.523)" r="1.797"/>
        <circle data-name="Ellipse 173" cx="1.797" cy="1.797" transform="translate(70.038)" r="1.797"/>
        <circle data-name="Ellipse 174" cx="1.797" cy="1.797" transform="translate(0 17.514)" r="1.797"/>
        <circle data-name="Ellipse 175" cx="1.797" cy="1.797" transform="translate(17.514 17.514)" r="1.797"/>
        <circle data-name="Ellipse 176" cx="1.797" cy="1.797" transform="translate(35.009 17.514)" r="1.797"/>
        <circle data-name="Ellipse 177" cx="1.797" cy="1.797" transform="translate(52.523 17.514)" r="1.797"/>
        <circle data-name="Ellipse 178" cx="1.797" cy="1.797" transform="translate(70.038 17.514)" r="1.797"/>
        <circle data-name="Ellipse 179" cx="1.797" cy="1.797" transform="translate(0 35.009)" r="1.797"/>
        <circle data-name="Ellipse 180" cx="1.797" cy="1.797" transform="translate(17.514 35.009)" r="1.797"/>
        <circle data-name="Ellipse 181" cx="1.797" cy="1.797" transform="translate(35.009 35.009)" r="1.797"/>
        <circle data-name="Ellipse 182" cx="1.797" cy="1.797" transform="translate(52.523 35.009)" r="1.797"/>
        <circle data-name="Ellipse 183" cx="1.797" cy="1.797" transform="translate(70.038 35.009)" r="1.797"/>
        <path data-name="Path 2567" d="M1.8 56.118A1.8 1.8 0 1 0 0 54.323a1.8 1.8 0 0 0 1.8 1.8Z"/>
        <path data-name="Path 2568" d="M19.311 56.118a1.8 1.8 0 1 0-1.8-1.8 1.8 1.8 0 0 0 1.8 1.8Z"/>
        <path data-name="Path 2569" d="M36.806 56.118a1.8 1.8 0 1 0-1.8-1.8 1.8 1.8 0 0 0 1.8 1.8Z"/>
        <path data-name="Path 2570" d="M54.323 56.118a1.8 1.8 0 1 0-1.8-1.8 1.8 1.8 0 0 0 1.8 1.8Z"/>
        <path data-name="Path 2571" d="M71.897 56.118a1.8 1.8 0 1 0-1.8-1.8 1.8 1.8 0 0 0 1.8 1.8Z"/>
        <circle data-name="Ellipse 184" cx="1.797" cy="1.797" transform="translate(0 70.038)" r="1.797"/>
        <circle data-name="Ellipse 185" cx="1.797" cy="1.797" transform="translate(17.514 70.038)" r="1.797"/>
        <circle data-name="Ellipse 186" cx="1.797" cy="1.797" transform="translate(35.009 70.038)" r="1.797"/>
        <circle data-name="Ellipse 187" cx="1.797" cy="1.797" transform="translate(52.523 70.038)" r="1.797"/>
        <circle data-name="Ellipse 188" cx="1.797" cy="1.797" transform="translate(70.038 70.038)" r="1.797"/>
        <circle data-name="Ellipse 189" cx="1.797" cy="1.797" transform="translate(0 87.532)" r="1.797"/>
        <circle data-name="Ellipse 190" cx="1.797" cy="1.797" transform="translate(17.514 87.532)" r="1.797"/>
        <circle data-name="Ellipse 191" cx="1.797" cy="1.797" transform="translate(35.009 87.532)" r="1.797"/>
        <circle data-name="Ellipse 192" cx="1.797" cy="1.797" transform="translate(52.523 87.532)" r="1.797"/>
        <circle data-name="Ellipse 193" cx="1.797" cy="1.797" transform="translate(70.038 87.532)" r="1.797"/>
      </g>
    </g>
    <g data-name="Layer 2">
      <g data-name="Layer 1" transform="rotate(90 24.1115005 165.2780405)" fill="#f63b45">
        <circle data-name="Ellipse 169" cx="1.797" cy="1.797" r="1.797"/>
        <circle data-name="Ellipse 170" cx="1.797" cy="1.797" transform="translate(17.514)" r="1.797"/>
        <circle data-name="Ellipse 171" cx="1.797" cy="1.797" transform="translate(35.009)" r="1.797"/>
        <circle data-name="Ellipse 172" cx="1.797" cy="1.797" transform="translate(52.523)" r="1.797"/>
        <circle data-name="Ellipse 173" cx="1.797" cy="1.797" transform="translate(70.038)" r="1.797"/>
        <circle data-name="Ellipse 174" cx="1.797" cy="1.797" transform="translate(0 17.514)" r="1.797"/>
        <circle data-name="Ellipse 175" cx="1.797" cy="1.797" transform="translate(17.514 17.514)" r="1.797"/>
        <circle data-name="Ellipse 176" cx="1.797" cy="1.797" transform="translate(35.009 17.514)" r="1.797"/>
        <circle data-name="Ellipse 177" cx="1.797" cy="1.797" transform="translate(52.523 17.514)" r="1.797"/>
        <circle data-name="Ellipse 178" cx="1.797" cy="1.797" transform="translate(70.038 17.514)" r="1.797"/>
        <circle data-name="Ellipse 179" cx="1.797" cy="1.797" transform="translate(0 35.009)" r="1.797"/>
        <circle data-name="Ellipse 180" cx="1.797" cy="1.797" transform="translate(17.514 35.009)" r="1.797"/>
        <circle data-name="Ellipse 181" cx="1.797" cy="1.797" transform="translate(35.009 35.009)" r="1.797"/>
        <circle data-name="Ellipse 182" cx="1.797" cy="1.797" transform="translate(52.523 35.009)" r="1.797"/>
        <circle data-name="Ellipse 183" cx="1.797" cy="1.797" transform="translate(70.038 35.009)" r="1.797"/>
        <path data-name="Path 2567" d="M1.8 56.118A1.8 1.8 0 1 0 0 54.323a1.8 1.8 0 0 0 1.8 1.8Z"/>
        <path data-name="Path 2568" d="M19.311 56.118a1.8 1.8 0 1 0-1.8-1.8 1.8 1.8 0 0 0 1.8 1.8Z"/>
        <path data-name="Path 2569" d="M36.806 56.118a1.8 1.8 0 1 0-1.8-1.8 1.8 1.8 0 0 0 1.8 1.8Z"/>
        <path data-name="Path 2570" d="M54.323 56.118a1.8 1.8 0 1 0-1.8-1.8 1.8 1.8 0 0 0 1.8 1.8Z"/>
        <path data-name="Path 2571" d="M71.897 56.118a1.8 1.8 0 1 0-1.8-1.8 1.8 1.8 0 0 0 1.8 1.8Z"/>
        <circle data-name="Ellipse 184" cx="1.797" cy="1.797" transform="translate(0 70.038)" r="1.797"/>
        <circle data-name="Ellipse 185" cx="1.797" cy="1.797" transform="translate(17.514 70.038)" r="1.797"/>
        <circle data-name="Ellipse 186" cx="1.797" cy="1.797" transform="translate(35.009 70.038)" r="1.797"/>
        <circle data-name="Ellipse 187" cx="1.797" cy="1.797" transform="translate(52.523 70.038)" r="1.797"/>
        <circle data-name="Ellipse 188" cx="1.797" cy="1.797" transform="translate(70.038 70.038)" r="1.797"/>
        <circle data-name="Ellipse 189" cx="1.797" cy="1.797" transform="translate(0 87.532)" r="1.797"/>
        <circle data-name="Ellipse 190" cx="1.797" cy="1.797" transform="translate(17.514 87.532)" r="1.797"/>
        <circle data-name="Ellipse 191" cx="1.797" cy="1.797" transform="translate(35.009 87.532)" r="1.797"/>
        <circle data-name="Ellipse 192" cx="1.797" cy="1.797" transform="translate(52.523 87.532)" r="1.797"/>
        <circle data-name="Ellipse 193" cx="1.797" cy="1.797" transform="translate(70.038 87.532)" r="1.797"/>
      </g>
    </g>
  </g>
</svg>
