<svg xmlns="http://www.w3.org/2000/svg" xmlns:xlink="http://www.w3.org/1999/xlink" width="536" height="235.961" viewBox="0 0 536 235.962">
  <defs>
    <linearGradient id="linear-gradient" x1="0.172" y1="1.009" x2="0.87" y2="-0.068" gradientUnits="objectBoundingBox">
      <stop offset="0" stop-color="#ffc800"/>
      <stop offset="0" stop-color="#ffc801"/>
      <stop offset="1" stop-color="#f7c420"/>
    </linearGradient>
    <clipPath id="clip-path">
      <circle id="Ellipse_280" data-name="Ellipse 280" cx="75.69" cy="75.69" r="75.69" transform="translate(0)" fill="#fff"/>
    </clipPath>
    <filter id="S" x="250.372" y="187.027" width="15.045" height="21.045" filterUnits="userSpaceOnUse">
      <feOffset dx="2.682" dy="2.682" input="SourceAlpha"/>
      <feGaussianBlur stdDeviation="1.341" result="blur"/>
      <feFlood flood-opacity="0.271"/>
      <feComposite operator="in" in2="blur"/>
      <feComposite in="SourceGraphic"/>
    </filter>
    <filter id="Rectangle_1713" x="273" y="0" width="263" height="78" filterUnits="userSpaceOnUse">
      <feOffset dy="3" input="SourceAlpha"/>
      <feGaussianBlur stdDeviation="3" result="blur-2"/>
      <feFlood flood-opacity="0.161"/>
      <feComposite operator="in" in2="blur-2"/>
      <feComposite in="SourceGraphic"/>
    </filter>
    <linearGradient id="linear-gradient-2" x1="1.57" y1="-0.864" x2="0.131" y2="1.121" gradientUnits="objectBoundingBox">
      <stop offset="0" stop-color="#734e06"/>
      <stop offset="1" stop-color="#f5b914"/>
    </linearGradient>
    <linearGradient id="linear-gradient-3" x1="0.093" x2="1.047" y2="1" gradientUnits="objectBoundingBox">
      <stop offset="0" stop-color="#fff253"/>
      <stop offset="1" stop-color="#f5b914"/>
    </linearGradient>
    <filter id="Path_2929">
      <feOffset dy="5" input="SourceAlpha"/>
      <feGaussianBlur stdDeviation="1.5" result="blur-3"/>
      <feFlood flood-opacity="0.161" result="color"/>
      <feComposite operator="out" in="SourceGraphic" in2="blur-3"/>
      <feComposite operator="in" in="color"/>
      <feComposite operator="in" in2="SourceGraphic"/>
    </filter>
    <filter id="Path_2930">
      <feOffset dy="5" input="SourceAlpha"/>
      <feGaussianBlur stdDeviation="1.5" result="blur-4"/>
      <feFlood flood-opacity="0.161" result="color-2"/>
      <feComposite operator="out" in="SourceGraphic" in2="blur-4"/>
      <feComposite operator="in" in="color-2"/>
      <feComposite operator="in" in2="SourceGraphic"/>
    </filter>
    <filter id="Path_2931">
      <feOffset dy="5" input="SourceAlpha"/>
      <feGaussianBlur stdDeviation="1.5" result="blur-5"/>
      <feFlood flood-opacity="0.161" result="color-3"/>
      <feComposite operator="out" in="SourceGraphic" in2="blur-5"/>
      <feComposite operator="in" in="color-3"/>
      <feComposite operator="in" in2="SourceGraphic"/>
    </filter>
    <filter id="Path_2932">
      <feOffset dy="5" input="SourceAlpha"/>
      <feGaussianBlur stdDeviation="1.5" result="blur-6"/>
      <feFlood flood-opacity="0.161" result="color-4"/>
      <feComposite operator="out" in="SourceGraphic" in2="blur-6"/>
      <feComposite operator="in" in="color-4"/>
      <feComposite operator="in" in2="SourceGraphic"/>
    </filter>
    <filter id="Rectangle_1714" x="303" y="134" width="191" height="78" filterUnits="userSpaceOnUse">
      <feOffset dy="3" input="SourceAlpha"/>
      <feGaussianBlur stdDeviation="3" result="blur-7"/>
      <feFlood flood-opacity="0.161"/>
      <feComposite operator="in" in2="blur-7"/>
      <feComposite in="SourceGraphic"/>
    </filter>
    <filter id="Path_2934">
      <feOffset dy="5" input="SourceAlpha"/>
      <feGaussianBlur stdDeviation="1.5" result="blur-8"/>
      <feFlood flood-opacity="0.161" result="color-5"/>
      <feComposite operator="out" in="SourceGraphic" in2="blur-8"/>
      <feComposite operator="in" in="color-5"/>
      <feComposite operator="in" in2="SourceGraphic"/>
    </filter>
    <filter id="Path_2935">
      <feOffset dy="5" input="SourceAlpha"/>
      <feGaussianBlur stdDeviation="1.5" result="blur-9"/>
      <feFlood flood-opacity="0.161" result="color-6"/>
      <feComposite operator="out" in="SourceGraphic" in2="blur-9"/>
      <feComposite operator="in" in="color-6"/>
      <feComposite operator="in" in2="SourceGraphic"/>
    </filter>
    <filter id="Path_2936">
      <feOffset dy="5" input="SourceAlpha"/>
      <feGaussianBlur stdDeviation="1.5" result="blur-10"/>
      <feFlood flood-opacity="0.161" result="color-7"/>
      <feComposite operator="out" in="SourceGraphic" in2="blur-10"/>
      <feComposite operator="in" in="color-7"/>
      <feComposite operator="in" in2="SourceGraphic"/>
    </filter>
    <filter id="Path_2937">
      <feOffset dy="5" input="SourceAlpha"/>
      <feGaussianBlur stdDeviation="1.5" result="blur-11"/>
      <feFlood flood-opacity="0.161" result="color-8"/>
      <feComposite operator="out" in="SourceGraphic" in2="blur-11"/>
      <feComposite operator="in" in="color-8"/>
      <feComposite operator="in" in2="SourceGraphic"/>
    </filter>
    <filter id="Path_2938">
      <feOffset dy="5" input="SourceAlpha"/>
      <feGaussianBlur stdDeviation="1.5" result="blur-12"/>
      <feFlood flood-opacity="0.161" result="color-9"/>
      <feComposite operator="out" in="SourceGraphic" in2="blur-12"/>
      <feComposite operator="in" in="color-9"/>
      <feComposite operator="in" in2="SourceGraphic"/>
    </filter>
    <filter id="Path_2939">
      <feOffset dy="5" input="SourceAlpha"/>
      <feGaussianBlur stdDeviation="1.5" result="blur-13"/>
      <feFlood flood-opacity="0.161" result="color-10"/>
      <feComposite operator="out" in="SourceGraphic" in2="blur-13"/>
      <feComposite operator="in" in="color-10"/>
      <feComposite operator="in" in2="SourceGraphic"/>
    </filter>
    <filter id="Path_2940">
      <feOffset dy="5" input="SourceAlpha"/>
      <feGaussianBlur stdDeviation="1.5" result="blur-14"/>
      <feFlood flood-opacity="0.161" result="color-11"/>
      <feComposite operator="out" in="SourceGraphic" in2="blur-14"/>
      <feComposite operator="in" in="color-11"/>
      <feComposite operator="in" in2="SourceGraphic"/>
    </filter>
    <filter id="Rectangle_1716" x="0" y="30" width="209" height="78" filterUnits="userSpaceOnUse">
      <feOffset dy="3" input="SourceAlpha"/>
      <feGaussianBlur stdDeviation="3" result="blur-15"/>
      <feFlood flood-opacity="0.161"/>
      <feComposite operator="in" in2="blur-15"/>
      <feComposite in="SourceGraphic"/>
    </filter>
    <filter id="Path_3017">
      <feOffset dy="5" input="SourceAlpha"/>
      <feGaussianBlur stdDeviation="1.5" result="blur-16"/>
      <feFlood flood-opacity="0.161" result="color-12"/>
      <feComposite operator="out" in="SourceGraphic" in2="blur-16"/>
      <feComposite operator="in" in="color-12"/>
      <feComposite operator="in" in2="SourceGraphic"/>
    </filter>
    <filter id="Rectangle_1715" x="29" y="151" width="197" height="78" filterUnits="userSpaceOnUse">
      <feOffset dy="3" input="SourceAlpha"/>
      <feGaussianBlur stdDeviation="3" result="blur-17"/>
      <feFlood flood-opacity="0.161"/>
      <feComposite operator="in" in2="blur-17"/>
      <feComposite in="SourceGraphic"/>
    </filter>
    <filter id="Path_3016">
      <feOffset dy="5" input="SourceAlpha"/>
      <feGaussianBlur stdDeviation="1.5" result="blur-18"/>
      <feFlood flood-opacity="0.161" result="color-13"/>
      <feComposite operator="out" in="SourceGraphic" in2="blur-18"/>
      <feComposite operator="in" in="color-13"/>
      <feComposite operator="in" in2="SourceGraphic"/>
    </filter>
  </defs>
  <g id="Group_1184" data-name="Group 1184" transform="translate(-51.828 -291)">
    <g id="Group_1285" data-name="Group 1285" transform="translate(194.344 306.463)">
      <g id="Group_1276" data-name="Group 1276" transform="translate(0)">
        <circle id="Ellipse_237" data-name="Ellipse 237" cx="90.018" cy="90.018" r="90.018" transform="matrix(-0.259, 0.966, -0.966, -0.259, 220.498, 46.597)" fill="url(#linear-gradient)"/>
      </g>
      <g id="Ellipse_276" data-name="Ellipse 276" transform="translate(23.313 21.493)" fill="#0a454b" stroke="#f9c515" stroke-width="1">
        <circle cx="87.84" cy="87.84" r="87.84" stroke="none"/>
        <circle cx="87.84" cy="87.84" r="87.34" fill="none"/>
      </g>
      <g id="Mask_Group_13" data-name="Mask Group 13" transform="translate(35.463 45.792)" clip-path="url(#clip-path)">
        <g id="Group_1283" data-name="Group 1283" transform="translate(19.428 19.096)">
          <path id="Path_3192" data-name="Path 3192" d="M2510.943,634.4s24.795,40.519,10.027,41.541-11.253-40.756-11.253-40.756Z" transform="translate(-2428.95 -541.023)" fill="#525752"/>
          <path id="Path_3193" data-name="Path 3193" d="M2290.1,867.538l2.776,6.988a10.232,10.232,0,0,1,.592,5.424l-1.651,10.147c-2.644,22.253-6.128,22.253-14.287,22.253h-.02a4.2,4.2,0,0,1-4.214-4.062l-.438-15.813h-9.614l.281,15.363a4.452,4.452,0,0,1-4.473,4.513h0c-8.158,0-11.949,0-14.772-22.253L2243,878.7a10.012,10.012,0,0,1,.525-4.5l3.063-8.545Z" transform="translate(-2210.575 -730.97)" fill="#525752"/>
          <path id="Path_3194" data-name="Path 3194" d="M2245.377,910.55s7.224,18.793,20.287,18.793h9.614s13.716.032,19.426-18.484Z" transform="translate(-2212.572 -767.84)" fill="#484d48"/>
          <path id="Path_3195" data-name="Path 3195" d="M2247.341,686.888h0c-29.66,0-29.816-8.386-29.654-20.177a79.735,79.735,0,0,1,3.019-20.513l3.946-13.9,45.776,1.338,3.619,11.071a89.414,89.414,0,0,1,4.241,22.008C2279.045,678.5,2277.349,686.888,2247.341,686.888Z" transform="translate(-2189.859 -539.294)" fill="#e33c3f"/>
          <path id="Path_3196" data-name="Path 3196" d="M2299.04,635.379s-2.245-.946-4.987,7.314c-2.96,8.913-4.854,24.84-18,24.84s-15.155-15.889-18-24.84-6.184-7.646-6.184-7.646l.817-2.752,23.363,4.022,22.594-2.274Z" transform="translate(-2217.9 -539.294)" fill="#e37b7c"/>
          <g id="Group_1278" data-name="Group 1278" transform="translate(51.526 108.017)">
            <g id="Group_1277" data-name="Group 1277" transform="translate(0 1.863)">
              <ellipse id="Ellipse_277" data-name="Ellipse 277" cx="6.601" cy="6.54" rx="6.601" ry="6.54" fill="#fff"/>
            </g>
            <g transform="matrix(1, 0, 0, 1, -248.93, -188.37)" filter="url(#S)">
              <text id="S-2" data-name="S" transform="translate(251.71 199.37)" fill="#ff4347" font-size="11" font-family="Gelion-Bold, Gelion" font-weight="700"><tspan x="0" y="0">S</tspan></text>
            </g>
          </g>
          <path id="Path_3197" data-name="Path 3197" d="M2265.168,1079.1s14.038-1.811,16.578,3.817c0,0,.193,5.295-6.222,4.5,0,0-4.734.205-6.967-2.06A14.064,14.064,0,0,1,2265.168,1079.1Z" transform="translate(-2228.795 -906.052)" fill="#788078"/>
          <path id="Path_3198" data-name="Path 3198" d="M2427.26,1078.448s-13.556-1.652-16.1,3.976c0,0-.193,5.295,6.222,4.5,0,0,4.55.362,6.839-2.336A18.17,18.17,0,0,0,2427.26,1078.448Z" transform="translate(-2348.464 -905.557)" fill="#788078"/>
          <g id="Group_1279" data-name="Group 1279" transform="translate(49.811 106.346)">
            <path id="Path_3199" data-name="Path 3199" d="M2343.921,724.231a6.828,6.828,0,0,1,5.352-4.077" transform="translate(-2343.16 -717.804)" fill="none" stroke="#fff" stroke-linecap="round" stroke-miterlimit="10" stroke-width="0.7"/>
            <path id="Path_3200" data-name="Path 3200" d="M0,2.609A6.148,6.148,0,0,1,3.675,0" transform="matrix(0.999, 0.035, -0.035, 0.999, 0.096, 0.982)" fill="none" stroke="#fff" stroke-linecap="round" stroke-miterlimit="10" stroke-width="0.5"/>
            <path id="Path_3201" data-name="Path 3201" d="M0,1.325A2.653,2.653,0,0,1,1.469,0" transform="translate(0.23 0) rotate(10)" fill="none" stroke="#fff" stroke-linecap="round" stroke-miterlimit="10" stroke-width="0.4"/>
          </g>
          <g id="Group_1282" data-name="Group 1282" transform="translate(0 0)">
            <path id="Path_3202" data-name="Path 3202" d="M2188.247,169.27c1.875,27.05-21.664,43.138-51.933,45.2s-55.806-10.69-57.681-37.74,20.624-58.157,50.893-60.216S2186.373,142.221,2188.247,169.27Z" transform="translate(-2075.804 -115.566)" fill="#ff4347"/>
            <path id="Path_3203" data-name="Path 3203" d="M2293.138,115.114a26.26,26.26,0,0,0,1.086,2.52,13.028,13.028,0,0,0,13.84,7.187,12.062,12.062,0,0,0,5.493-2.459s3.994-2.474,4.419-8.875C2317.976,113.488,2307.056,108.579,2293.138,115.114Z" transform="translate(-2251.721 -111.719)" fill="#525752"/>
            <path id="Path_3204" data-name="Path 3204" d="M2122.7,242.952a57.175,57.175,0,0,0-1.987,25.55c.761,5.192,3.962,9.274,7.857,10.114,13.776,2.971,49.108,8.344,79.168-6.124,3.5-1.686,5.733-6.2,5.564-11.271-.217-6.516-1.248-15.782-4.843-23.97a10.289,10.289,0,0,0-6.2-6c-11.727-3.427-49.135-12.182-75.706,6.19A10.538,10.538,0,0,0,2122.7,242.952Z" transform="translate(-2109.882 -205.699)" fill="#e9f4e9"/>
            <path id="Path_3205" data-name="Path 3205" d="M2126.41,452.469s1.751,9.856,7.127,11.225c11.411,2.905,11.478,2.058,11.478,2.058S2129.8,464.624,2126.41,452.469Z" transform="translate(-2115.055 -391.594)" fill="#525752" opacity="0.18"/>
            <path id="Path_3206" data-name="Path 3206" d="M2549.625,251.188s6.835,1.024,8.3,3.9a68.669,68.669,0,0,1,3.082,7.943S2557.748,253.1,2549.625,251.188Z" transform="translate(-2461.962 -226.272)" fill="#525752" opacity="0.18"/>
            <g id="Group_1280" data-name="Group 1280" transform="translate(0 27.883)">
              <path id="Path_3207" data-name="Path 3207" d="M2082.167,301.07s.826.818.757,1.528-4.932,11.036-4.121,16.742-5.98,1.053-5.555-1.386S2077.6,296.862,2082.167,301.07Z" transform="translate(-2071.464 -294.62)" fill="#a12b2d"/>
              <path id="Path_3208" data-name="Path 3208" d="M2075.39,271.744s-3.591-7.281-5.959-2.064-7.183,19.655-5.724,20.144,5.587,1.86,5.587,1.86S2068.554,284.888,2075.39,271.744Z" transform="translate(-2063.437 -267.797)" fill="#525752"/>
            </g>
            <g id="Group_1281" data-name="Group 1281" transform="translate(99.13 21.446)">
              <path id="Path_3209" data-name="Path 3209" d="M2619.437,265.914s-.706.922-.539,1.616,6.408,10.264,6.392,16.027,6.068.234,5.312-2.125S2623.376,261.127,2619.437,265.914Z" transform="translate(-2617.854 -259.15)" fill="#a12b2d"/>
              <path id="Path_3210" data-name="Path 3210" d="M2613.226,236.219s2.552-7.7,5.618-2.851,9.826,18.5,8.449,19.179-5.279,2.6-5.279,2.6S2621.81,248.314,2613.226,236.219Z" transform="translate(-2613.226 -231.765)" fill="#525752"/>
            </g>
            <path id="Path_3211" data-name="Path 3211" d="M2151.313,572.815s39.673,26.767,87.3-5.939c0,0-9.773,10.246-20.831,13.229s-23.878,7.975-47.125,2.263C2170.66,582.367,2156.657,578.3,2151.313,572.815Z" transform="translate(-2135.469 -485.563)" fill="#de3a3e"/>
            <ellipse id="Ellipse_278" data-name="Ellipse 278" cx="4.973" cy="4.927" rx="4.973" ry="4.927" transform="translate(76.118 37.529)" fill="#525752"/>
            <ellipse id="Ellipse_279" data-name="Ellipse 279" cx="4.973" cy="4.927" rx="4.973" ry="4.927" transform="translate(25.744 40.017)" fill="#525752"/>
            <path id="Path_3212" data-name="Path 3212" d="M2309.631,440.732s16.885,4.776,25.854-4.543C2335.485,436.19,2329.326,447.4,2309.631,440.732Z" transform="translate(-2265.24 -378.223)" fill="#525752"/>
          </g>
          <path id="Path_3213" data-name="Path 3213" d="M2188.785,564.735s-6.166,16.146-13.125,9.427c-6.712-6.481,9.482-32.66,20.124-36.34a2.477,2.477,0,0,1,2.54.428c1.113,1.009,1.721,3.254-3.6,7.913C2194.719,546.163,2203.292,557.939,2188.785,564.735Z" transform="translate(-2154.131 -461.561)" fill="#525752"/>
          <path id="Path_3214" data-name="Path 3214" d="M2214.96,695.233l7.334-5.992-.85,1.954Z" transform="translate(-2187.64 -586.067)" fill="#464746"/>
        </g>
      </g>
    </g>
    <g id="Group_1272" data-name="Group 1272" transform="translate(333.353 296.776)">
      <g transform="matrix(1, 0, 0, 1, -281.52, -5.78)" filter="url(#Rectangle_1713)">
        <rect id="Rectangle_1713-2" data-name="Rectangle 1713" width="245" height="60" rx="30" transform="translate(282 6)" fill="#fff"/>
      </g>
      <g id="Group_1267" data-name="Group 1267" transform="translate(7.553 3.777)">
        <text id="Upper_Intermediate" data-name="Upper Intermediate" transform="translate(60.923 34.447)" fill="#222" font-size="19" font-family="Gelion-Medium, Gelion" font-weight="500"><tspan x="0" y="0">Upper Intermediate</tspan></text>
        <g id="Group_1209" data-name="Group 1209" transform="translate(0 0)">
          <ellipse id="Ellipse_236" data-name="Ellipse 236" cx="21.585" cy="21.585" rx="21.585" ry="21.585" transform="matrix(-0.259, 0.966, -0.966, -0.259, 52.872, 11.173)" fill="url(#linear-gradient-2)"/>
          <ellipse id="Ellipse_235" data-name="Ellipse 235" cx="20.86" cy="20.86" rx="20.86" ry="20.86" transform="translate(5.576 5.576)" fill="url(#linear-gradient-3)"/>
          <g id="Group_1012" data-name="Group 1012" transform="translate(13.667 13.484)">
            <g data-type="innerShadowGroup">
              <path id="Path_2929-2" data-name="Path 2929" d="M3.183,16.92c-2.272-6.457,2.049-8.345,5.8-9.283C14.711,6.195,23.658,4.494,24.853,1.49c0,0,.231,3.771-5.912,6.2s-8.424,2.9-10.713,5.943C6.54,15.9,5,22.44,7.935,24.272A16.132,16.132,0,0,1,0,27.393S5.28,22.881,3.183,16.92Z" transform="translate(0 -1.49)" fill="#8a5d08"/>
              <g transform="matrix(1, 0, 0, 1, -302.74, -23.04)" filter="url(#Path_2929)">
                <path id="Path_2929-3" data-name="Path 2929" d="M3.183,16.92c-2.272-6.457,2.049-8.345,5.8-9.283C14.711,6.195,23.658,4.494,24.853,1.49c0,0,.231,3.771-5.912,6.2s-8.424,2.9-10.713,5.943C6.54,15.9,5,22.44,7.935,24.272A16.132,16.132,0,0,1,0,27.393S5.28,22.881,3.183,16.92Z" transform="translate(302.74 21.55)" fill="#fff"/>
              </g>
            </g>
            <g data-type="innerShadowGroup">
              <path id="Path_2930-2" data-name="Path 2930" d="M29.151,11.057c-.99.392-1.892.737-2.686,1.042-4.133,1.574-5.847,2.224-7.587,4.539A10.464,10.464,0,0,0,17.4,20.331c1.09-1.936,4.543-2.664,9.71-3.894,7.412-1.77,8.241-10.748,8.241-10.748h0C34.745,7.247,33.184,9.44,29.151,11.057Z" transform="translate(-9.813 -3.859)" fill="#8a5d08"/>
              <g transform="matrix(1, 0, 0, 1, -302.74, -23.04)" filter="url(#Path_2930)">
                <path id="Path_2930-3" data-name="Path 2930" d="M29.151,11.057c-.99.392-1.892.737-2.686,1.042-4.133,1.574-5.847,2.224-7.587,4.539A10.464,10.464,0,0,0,17.4,20.331c1.09-1.936,4.543-2.664,9.71-3.894,7.412-1.77,8.241-10.748,8.241-10.748h0C34.745,7.247,33.184,9.44,29.151,11.057Z" transform="translate(292.93 19.18)" fill="#fff"/>
              </g>
            </g>
            <g data-type="innerShadowGroup">
              <path id="Path_2931-2" data-name="Path 2931" d="M27.038,30.08l-.789.187c-3.022.715-9.257,1.905-9.409,5.485h0c1.382-.327,3.623-.467,6.335-1.116a12.448,12.448,0,0,0,7.988-6.566A10.416,10.416,0,0,1,27.038,30.08Z" transform="translate(-9.498 -16.481)" fill="#8a5d08"/>
              <g transform="matrix(1, 0, 0, 1, -302.74, -23.04)" filter="url(#Path_2931)">
                <path id="Path_2931-3" data-name="Path 2931" d="M27.038,30.08l-.789.187c-3.022.715-9.257,1.905-9.409,5.485h0c1.382-.327,3.623-.467,6.335-1.116a12.448,12.448,0,0,0,7.988-6.566A10.416,10.416,0,0,1,27.038,30.08Z" transform="translate(293.25 6.56)" fill="#fff"/>
              </g>
            </g>
            <g data-type="innerShadowGroup">
              <path id="Path_2932-2" data-name="Path 2932" d="M19.326,43.98c-.85.122-1.6.231-2.136.366.972,3.388,8.149.872,10.412-2.886A12.117,12.117,0,0,1,23.617,43.2C21.986,43.6,20.508,43.81,19.326,43.98Z" transform="translate(-9.695 -24.033)" fill="#8a5d08"/>
              <g transform="matrix(1, 0, 0, 1, -302.74, -23.04)" filter="url(#Path_2932)">
                <path id="Path_2932-3" data-name="Path 2932" d="M19.326,43.98c-.85.122-1.6.231-2.136.366.972,3.388,8.149.872,10.412-2.886A12.117,12.117,0,0,1,23.617,43.2C21.986,43.6,20.508,43.81,19.326,43.98Z" transform="translate(293.05 -1)" fill="#fff"/>
              </g>
            </g>
          </g>
        </g>
      </g>
    </g>
    <g id="Group_1273" data-name="Group 1273" transform="translate(363.565 430.844)">
      <g transform="matrix(1, 0, 0, 1, -311.74, -139.84)" filter="url(#Rectangle_1714)">
        <rect id="Rectangle_1714-2" data-name="Rectangle 1714" width="173" height="60" rx="30" transform="translate(312 140)" fill="#fff"/>
      </g>
      <text id="Advanced_" data-name="Advanced " transform="translate(68.263 37.156)" fill="#222" font-size="18" font-family="Gelion-Medium, Gelion" font-weight="500"><tspan x="0" y="0">Advanced </tspan></text>
      <g id="Group_1247" data-name="Group 1247" transform="translate(7.553 3.718)">
        <circle id="Ellipse_236-2" data-name="Ellipse 236" cx="21.582" cy="21.582" r="21.582" transform="matrix(-0.259, 0.966, -0.966, -0.259, 52.865, 11.172)" fill="url(#linear-gradient-2)"/>
        <circle id="Ellipse_235-2" data-name="Ellipse 235" cx="20.811" cy="20.811" r="20.811" transform="translate(5.621 5.621)" fill="url(#linear-gradient-3)"/>
        <g id="Group_1051" data-name="Group 1051" transform="translate(12.202 12.835)">
          <g data-type="innerShadowGroup">
            <path id="Path_2934-2" data-name="Path 2934" d="M147.49,105.114S156,100.15,152.255,90.84L173.678,79s.866,4.839-2.2,6.6-12.763,6.186-12.763,6.186S155.851,103.187,147.49,105.114Z" transform="translate(-147.49 -79)" fill="#8a5d08"/>
            <g transform="matrix(1, 0, 0, 1, -331.49, -156.4)" filter="url(#Path_2934)">
              <path id="Path_2934-3" data-name="Path 2934" d="M147.49,105.114S156,100.15,152.255,90.84L173.678,79s.866,4.839-2.2,6.6-12.763,6.186-12.763,6.186S155.851,103.187,147.49,105.114Z" transform="translate(184 77.4)" fill="#fff"/>
            </g>
          </g>
          <g data-type="innerShadowGroup">
            <path id="Path_2935-2" data-name="Path 2935" d="M169.323,120.988c-.139.247-.282.49-.433.723l1.5.511a3.782,3.782,0,0,0,4.7-2.11l.282-.667-5.077-.355C170.021,119.7,169.7,120.351,169.323,120.988Z" transform="translate(-159.619 -101.722)" fill="#8a5d08"/>
            <g transform="matrix(1, 0, 0, 1, -331.49, -156.4)" filter="url(#Path_2935)">
              <path id="Path_2935-3" data-name="Path 2935" d="M169.323,120.988c-.139.247-.282.49-.433.723l1.5.511a3.782,3.782,0,0,0,4.7-2.11l.282-.667-5.077-.355C170.021,119.7,169.7,120.351,169.323,120.988Z" transform="translate(171.87 54.67)" fill="#fff"/>
            </g>
          </g>
          <g data-type="innerShadowGroup">
            <path id="Path_2936-2" data-name="Path 2936" d="M173.25,109.875h2.872a2.742,2.742,0,0,0,2.7-2.218l.568-2.937c-2.222,1.053-4.259,1.993-5.155,2.4a27.379,27.379,0,0,1-.988,2.751Z" transform="translate(-162.09 -93.578)" fill="#8a5d08"/>
            <g transform="matrix(1, 0, 0, 1, -331.49, -156.4)" filter="url(#Path_2936)">
              <path id="Path_2936-3" data-name="Path 2936" d="M173.25,109.875h2.872a2.742,2.742,0,0,0,2.7-2.218l.568-2.937c-2.222,1.053-4.259,1.993-5.155,2.4a27.379,27.379,0,0,1-.988,2.751Z" transform="translate(169.4 62.82)" fill="#fff"/>
            </g>
          </g>
          <g data-type="innerShadowGroup">
            <path id="Path_2937-2" data-name="Path 2937" d="M187.148,120.437l-4.765-.277-.433,1.018a4.865,4.865,0,0,1-2.729,2.651l1.655.542h0a5.012,5.012,0,0,0,5.745-2.79Z" transform="translate(-165.474 -102.329)" fill="#8a5d08"/>
            <g transform="matrix(1, 0, 0, 1, -331.49, -156.4)" filter="url(#Path_2937)">
              <path id="Path_2937-3" data-name="Path 2937" d="M187.148,120.437l-4.765-.277-.433,1.018a4.865,4.865,0,0,1-2.729,2.651l1.655.542h0a5.012,5.012,0,0,0,5.745-2.79Z" transform="translate(166.02 54.07)" fill="#fff"/>
            </g>
          </g>
          <g data-type="innerShadowGroup">
            <path id="Path_2938-2" data-name="Path 2938" d="M186.25,104.834a7.75,7.75,0,0,0,7.408-6.035l.654-2.859c-.1.069-.212.139-.321.2-1.3.736-3.652,1.906-6.013,3.033l-.711,3.726a3.375,3.375,0,0,1-1.018,1.949Z" transform="translate(-169.458 -88.601)" fill="#8a5d08"/>
            <g transform="matrix(1, 0, 0, 1, -331.49, -156.4)" filter="url(#Path_2938)">
              <path id="Path_2938-3" data-name="Path 2938" d="M186.25,104.834a7.75,7.75,0,0,0,7.408-6.035l.654-2.859c-.1.069-.212.139-.321.2-1.3.736-3.652,1.906-6.013,3.033l-.711,3.726a3.375,3.375,0,0,1-1.018,1.949Z" transform="translate(162.03 67.8)" fill="#fff"/>
            </g>
          </g>
          <g data-type="innerShadowGroup">
            <path id="Path_2939-2" data-name="Path 2939" d="M161,130.835c1.923.312,4.116.706,5.887-.55l1.3-.931c-2.049-.723-3.9-1.365-4.553-1.534A18.265,18.265,0,0,1,161,130.835Z" transform="translate(-155.147 -106.67)" fill="#8a5d08"/>
            <g transform="matrix(1, 0, 0, 1, -331.49, -156.4)" filter="url(#Path_2939)">
              <path id="Path_2939-3" data-name="Path 2939" d="M161,130.835c1.923.312,4.116.706,5.887-.55l1.3-.931c-2.049-.723-3.9-1.365-4.553-1.534A18.265,18.265,0,0,1,161,130.835Z" transform="translate(176.34 49.73)" fill="#fff"/>
            </g>
          </g>
          <g data-type="innerShadowGroup">
            <path id="Path_2940-2" data-name="Path 2940" d="M179.55,134.126l-2.331-.836-1.642,1.174a10.532,10.532,0,0,1-.957.611l.485.074A6.183,6.183,0,0,0,179.55,134.126Z" transform="translate(-162.867 -109.771)" fill="#8a5d08"/>
            <g transform="matrix(1, 0, 0, 1, -331.49, -156.4)" filter="url(#Path_2940)">
              <path id="Path_2940-3" data-name="Path 2940" d="M179.55,134.126l-2.331-.836-1.642,1.174a10.532,10.532,0,0,1-.957.611l.485.074A6.183,6.183,0,0,0,179.55,134.126Z" transform="translate(168.62 46.63)" fill="#fff"/>
            </g>
          </g>
        </g>
      </g>
    </g>
    <g id="Group_1274" data-name="Group 1274" transform="translate(61 326.877)">
      <g transform="matrix(1, 0, 0, 1, -9.17, -35.88)" filter="url(#Rectangle_1716)">
        <rect id="Rectangle_1716-2" data-name="Rectangle 1716" width="191" height="60" rx="30" transform="translate(9 36)" fill="#fff"/>
      </g>
      <text id="Intermediate" transform="translate(67.829 38.123)" fill="#222" font-size="19" font-family="Gelion-Medium, Gelion" font-weight="500"><tspan x="0" y="0">Intermediate</tspan></text>
      <g id="Group_1208" data-name="Group 1208" transform="translate(7.553 3.777)">
        <ellipse id="Ellipse_236-3" data-name="Ellipse 236" cx="21.585" cy="21.585" rx="21.585" ry="21.585" transform="matrix(-0.259, 0.966, -0.966, -0.259, 52.872, 11.173)" fill="url(#linear-gradient-2)"/>
        <ellipse id="Ellipse_235-3" data-name="Ellipse 235" cx="20.86" cy="20.86" rx="20.86" ry="20.86" transform="translate(5.576 5.576)" fill="url(#linear-gradient-3)"/>
        <g data-type="innerShadowGroup">
          <path id="Path_3017-2" data-name="Path 3017" d="M76.3,27.008a69.319,69.319,0,0,0,5.783-6.775s-.194,1.352.64,1.36c1.194,0,2.379-3.539,0-6.548-3.383-4.282,1.479-6.3,1.479-6.3L99.309,0l-.731,3.543A8.97,8.97,0,0,1,94.447,9.42l-4.226,2.552a2.566,2.566,0,0,0-1.19,1.776l9-4.735-1.7,4.617a4.429,4.429,0,0,1-2.652,2.636l-3.924,1.4c-.781.277-1.4,1.452-1.706,2.233l7.3-2.7L92.34,21.727a4.081,4.081,0,0,1-3.953,1.805l-1.153-.16a2.172,2.172,0,0,0-1.842.634l3.718,1.146S84.851,28.124,76.3,27.008Z" transform="translate(-61.369 12.807)" fill="#8a5d08"/>
          <g transform="matrix(1, 0, 0, 1, -16.72, -39.65)" filter="url(#Path_3017)">
            <path id="Path_3017-3" data-name="Path 3017" d="M76.3,27.008a69.319,69.319,0,0,0,5.783-6.775s-.194,1.352.64,1.36c1.194,0,2.379-3.539,0-6.548-3.383-4.282,1.479-6.3,1.479-6.3L99.309,0l-.731,3.543A8.97,8.97,0,0,1,94.447,9.42l-4.226,2.552a2.566,2.566,0,0,0-1.19,1.776l9-4.735-1.7,4.617a4.429,4.429,0,0,1-2.652,2.636l-3.924,1.4c-.781.277-1.4,1.452-1.706,2.233l7.3-2.7L92.34,21.727a4.081,4.081,0,0,1-3.953,1.805l-1.153-.16a2.172,2.172,0,0,0-1.842.634l3.718,1.146S84.851,28.124,76.3,27.008Z" transform="translate(-44.64 52.46)" fill="#fff"/>
          </g>
        </g>
      </g>
    </g>
    <g id="Group_1275" data-name="Group 1275" transform="translate(89.765 447.838)">
      <g transform="matrix(1, 0, 0, 1, -37.94, -156.84)" filter="url(#Rectangle_1715)">
        <rect id="Rectangle_1715-2" data-name="Rectangle 1715" width="179" height="60" rx="30" transform="translate(38 157)" fill="#fff"/>
      </g>
      <g id="Group_1200" data-name="Group 1200" transform="translate(7.553 3.711)">
        <circle id="Ellipse_236-4" data-name="Ellipse 236" cx="21.585" cy="21.585" r="21.585" transform="matrix(-0.259, 0.966, -0.966, -0.259, 52.872, 11.173)" fill="url(#linear-gradient-2)"/>
        <circle id="Ellipse_235-4" data-name="Ellipse 235" cx="20.86" cy="20.86" r="20.86" transform="translate(5.576 5.576)" fill="url(#linear-gradient-3)"/>
        <g data-type="innerShadowGroup">
          <path id="Path_3016-2" data-name="Path 3016" d="M75.283,114.743s-4.5-12.44,4.708-19.112c6.482-4.695,16.843-6.792,16.843-6.792s3.81,8.408-11.894,10.185c0,0-2.778.227-2.519,2.6,0,0,1.306-1.282,4.713-1.722l9.259-1.389s1.028,4.533-3.412,4.921-9.435-.926-10.778,2.227a11.9,11.9,0,0,1,5.847-.787c3.477.347,7.69.713,7.69.713s-.4,4.565-7.13,3.523C81.968,108.049,78.264,110.447,75.283,114.743Z" transform="translate(-59.275 -75.356)" fill="#8a5d08"/>
          <g transform="matrix(1, 0, 0, 1, -45.49, -160.55)" filter="url(#Path_3016)">
            <path id="Path_3016-3" data-name="Path 3016" d="M75.283,114.743s-4.5-12.44,4.708-19.112c6.482-4.695,16.843-6.792,16.843-6.792s3.81,8.408-11.894,10.185c0,0-2.778.227-2.519,2.6,0,0,1.306-1.282,4.713-1.722l9.259-1.389s1.028,4.533-3.412,4.921-9.435-.926-10.778,2.227a11.9,11.9,0,0,1,5.847-.787c3.477.347,7.69.713,7.69.713s-.4,4.565-7.13,3.523C81.968,108.049,78.264,110.447,75.283,114.743Z" transform="translate(-13.79 85.19)" fill="#fff"/>
          </g>
        </g>
      </g>
      <text id="Elementary" transform="translate(67.978 36.817)" fill="#222" font-size="18" font-family="Gelion-Medium, Gelion" font-weight="500"><tspan x="0" y="0">Elementary</tspan></text>
    </g>
  </g>
</svg>
