<svg id="Layer_1" data-name="Layer 1" xmlns="http://www.w3.org/2000/svg" width="57.244" height="91.127" viewBox="0 0 57.244 91.127">
  <ellipse id="Ellipse_169" data-name="Ellipse 169" cx="1.797" cy="1.797" rx="1.797" ry="1.797" transform="translate(0)" fill="#f63b45"/>
  <ellipse id="Ellipse_170" data-name="Ellipse 170" cx="1.797" cy="1.797" rx="1.797" ry="1.797" transform="translate(13.405)" fill="#f63b45"/>
  <ellipse id="Ellipse_171" data-name="Ellipse 171" cx="1.797" cy="1.797" rx="1.797" ry="1.797" transform="translate(26.794)" fill="#f63b45"/>
  <ellipse id="Ellipse_172" data-name="Ellipse 172" cx="1.797" cy="1.797" rx="1.797" ry="1.797" transform="translate(40.199)" fill="#f63b45"/>
  <ellipse id="Ellipse_173" data-name="Ellipse 173" cx="1.797" cy="1.797" rx="1.797" ry="1.797" transform="translate(53.59)" fill="#f63b45"/>
  <ellipse id="Ellipse_174" data-name="Ellipse 174" cx="1.797" cy="1.797" rx="1.797" ry="1.797" transform="translate(0 17.514)" fill="#f63b45"/>
  <ellipse id="Ellipse_175" data-name="Ellipse 175" cx="1.797" cy="1.797" rx="1.797" ry="1.797" transform="translate(13.405 17.514)" fill="#f63b45"/>
  <ellipse id="Ellipse_176" data-name="Ellipse 176" cx="1.797" cy="1.797" rx="1.797" ry="1.797" transform="translate(26.794 17.514)" fill="#f63b45"/>
  <ellipse id="Ellipse_177" data-name="Ellipse 177" cx="1.797" cy="1.797" rx="1.797" ry="1.797" transform="translate(40.199 17.514)" fill="#f63b45"/>
  <ellipse id="Ellipse_178" data-name="Ellipse 178" cx="1.797" cy="1.797" rx="1.797" ry="1.797" transform="translate(53.59 17.514)" fill="#f63b45"/>
  <ellipse id="Ellipse_179" data-name="Ellipse 179" cx="1.797" cy="1.797" rx="1.797" ry="1.797" transform="translate(0 35.009)" fill="#f63b45"/>
  <ellipse id="Ellipse_180" data-name="Ellipse 180" cx="1.797" cy="1.797" rx="1.797" ry="1.797" transform="translate(13.405 35.009)" fill="#f63b45"/>
  <ellipse id="Ellipse_181" data-name="Ellipse 181" cx="1.797" cy="1.797" rx="1.797" ry="1.797" transform="translate(26.794 35.009)" fill="#f63b45"/>
  <ellipse id="Ellipse_182" data-name="Ellipse 182" cx="1.797" cy="1.797" rx="1.797" ry="1.797" transform="translate(40.199 35.009)" fill="#f63b45"/>
  <ellipse id="Ellipse_183" data-name="Ellipse 183" cx="1.797" cy="1.797" rx="1.797" ry="1.797" transform="translate(53.59 35.009)" fill="#f63b45"/>
  <path id="Path_2567" data-name="Path 2567" d="M1.8,29.895A1.8,1.8,0,1,0,0,28.1a1.8,1.8,0,0,0,1.8,1.8Z" transform="translate(0 26.223)" fill="#f63b45"/>
  <path id="Path_2568" data-name="Path 2568" d="M10.567,29.895a1.8,1.8,0,1,0-1.8-1.8,1.8,1.8,0,0,0,1.8,1.8Z" transform="translate(4.635 26.223)" fill="#f63b45"/>
  <path id="Path_2569" data-name="Path 2569" d="M19.327,29.895a1.8,1.8,0,1,0-1.8-1.8,1.8,1.8,0,0,0,1.8,1.8Z" transform="translate(9.264 26.223)" fill="#f63b45"/>
  <path id="Path_2570" data-name="Path 2570" d="M28.1,29.895a1.8,1.8,0,1,0-1.8-1.8,1.8,1.8,0,0,0,1.8,1.8Z" transform="translate(13.899 26.223)" fill="#f63b45"/>
  <path id="Path_2571" data-name="Path 2571" d="M36.9,29.895a1.8,1.8,0,1,0-1.8-1.8,1.8,1.8,0,0,0,1.8,1.8Z" transform="translate(18.55 26.223)" fill="#f63b45"/>
  <ellipse id="Ellipse_184" data-name="Ellipse 184" cx="1.797" cy="1.797" rx="1.797" ry="1.797" transform="translate(0 70.038)" fill="#f63b45"/>
  <ellipse id="Ellipse_185" data-name="Ellipse 185" cx="1.797" cy="1.797" rx="1.797" ry="1.797" transform="translate(13.405 70.038)" fill="#f63b45"/>
  <ellipse id="Ellipse_186" data-name="Ellipse 186" cx="1.797" cy="1.797" rx="1.797" ry="1.797" transform="translate(26.794 70.038)" fill="#f63b45"/>
  <ellipse id="Ellipse_187" data-name="Ellipse 187" cx="1.797" cy="1.797" rx="1.797" ry="1.797" transform="translate(40.199 70.038)" fill="#f63b45"/>
  <ellipse id="Ellipse_188" data-name="Ellipse 188" cx="1.797" cy="1.797" rx="1.797" ry="1.797" transform="translate(53.59 70.038)" fill="#f63b45"/>
  <ellipse id="Ellipse_189" data-name="Ellipse 189" cx="1.797" cy="1.797" rx="1.797" ry="1.797" transform="translate(0 87.532)" fill="#f63b45"/>
  <ellipse id="Ellipse_190" data-name="Ellipse 190" cx="1.797" cy="1.797" rx="1.797" ry="1.797" transform="translate(13.405 87.532)" fill="#f63b45"/>
  <ellipse id="Ellipse_191" data-name="Ellipse 191" cx="1.797" cy="1.797" rx="1.797" ry="1.797" transform="translate(26.794 87.532)" fill="#f63b45"/>
  <ellipse id="Ellipse_192" data-name="Ellipse 192" cx="1.797" cy="1.797" rx="1.797" ry="1.797" transform="translate(40.199 87.532)" fill="#f63b45"/>
  <ellipse id="Ellipse_193" data-name="Ellipse 193" cx="1.797" cy="1.797" rx="1.797" ry="1.797" transform="translate(53.59 87.532)" fill="#f63b45"/>
</svg>
