<svg width="936" height="225" viewBox="0 0 936 225" fill="none" xmlns="http://www.w3.org/2000/svg">
<path d="M10.9562 225C4.90679 225 0 220.096 0 214.049V49.5664L54.0373 43.2852L171.652 106.316L233.632 117.618C232.02 114.067 230.924 111.29 232.842 107.184C233.421 106.316 233.71 105.291 233.671 104.25C233.374 103.421 232.889 102.671 232.255 102.06C231.621 101.427 231.425 100.472 231.754 99.6434C232.224 98.8846 233.17 98.8925 234.141 98.9003C234.579 98.9159 235.025 98.8924 235.463 98.8377C236.856 98.4387 237.897 97.2889 238.171 95.8652C238.609 93.9488 237.459 90.515 239.055 88.9037C240.151 87.7695 241.857 88.7316 242.898 86.9873C244.416 84.4529 238.656 81.8638 240.245 79.5015C240.801 78.7115 241.951 78.5786 242.546 77.8277C243.548 76.584 242.335 74.7378 241.067 73.7757C239.799 72.8136 238.304 71.4761 238.782 69.9351C239.627 67.2287 245.081 68.6523 245.653 65.8677C245.958 64.4519 244.479 63.1611 245.058 61.6436C245.637 60.1262 247.938 60.533 249.472 59.9541C252.892 58.6479 252.125 52.7422 255.404 51.1308C257.744 49.9966 260.396 51.8192 262.142 53.7435C264.654 56.4264 266.759 59.4692 268.379 62.7623C268.872 64.2876 269.584 65.7269 270.492 67.041C271.627 68.1361 273.333 68.0031 274.334 69.5753C275.352 71.2571 275.438 73.3378 274.561 75.0978C274.413 75.395 274.381 75.7392 274.491 76.052C274.593 76.3649 274.827 76.623 275.125 76.7716L276.909 77.6711C277.246 77.851 277.472 78.1796 277.535 78.5551C277.598 78.9305 277.48 79.3139 277.214 79.5876C276.479 80.2603 276.087 81.2223 276.142 82.2157C276.659 84.3121 277.973 86.1267 279.812 87.2609C281.628 88.403 282.982 90.1395 283.655 92.1732C284.195 95.3803 278.623 99.6981 280.352 102.553C280.908 103.367 281.659 104.031 282.544 104.47C283.404 104.915 284.077 105.635 284.461 106.519C284.602 107.559 284.484 108.623 284.117 109.609C283.311 112.925 284.633 115.71 286.034 118.471C287.623 120.959 288.483 123.829 288.53 126.778C288.906 126.418 289.172 125.957 289.297 125.456C289.563 124.244 288.859 122.14 289.837 121.138C290.526 120.427 291.582 121.021 292.216 119.949C293.116 118.432 289.548 116.782 290.589 115.342C290.933 114.865 291.645 114.787 292.005 114.325C292.615 113.535 291.849 112.425 291.082 111.815C290.315 111.204 289.391 110.375 289.681 109.413C290.103 107.747 293.578 108.623 293.938 106.902C294.11 106.042 293.148 105.236 293.555 104.29C293.961 103.343 295.339 103.601 296.278 103.257C298.407 102.452 297.929 98.7829 299.964 97.8051C301.404 97.0933 303.039 98.2432 304.127 99.4165C305.677 101.098 306.968 102.991 307.97 105.041C308.275 105.971 308.713 106.863 309.277 107.669C309.965 108.357 311.022 108.263 311.64 109.241C312.274 110.274 312.336 111.564 311.797 112.652C311.695 112.831 311.679 113.05 311.742 113.246C311.804 113.441 311.953 113.606 312.141 113.692L313.158 114.192C313.385 114.302 313.542 114.513 313.581 114.763C313.62 115.014 313.534 115.264 313.354 115.436C312.908 115.851 312.665 116.437 312.704 117.047C313.017 118.346 313.823 119.465 314.95 120.176C316.093 120.865 316.938 121.944 317.353 123.211C317.721 125.19 314.262 127.873 315.318 129.641C315.678 130.118 316.148 130.501 316.68 130.752C317.212 131.018 317.635 131.471 317.869 132.019C317.963 132.668 317.893 133.325 317.658 133.935C317.384 135.844 317.822 137.792 318.887 139.403C319.724 140.78 320.248 142.313 320.444 143.916L385.516 169.182L404.368 186.124L497.472 156.056L533.94 109.851L738.805 65.5079C737.96 63.8653 737.96 61.9096 738.805 60.2669C739.157 59.735 739.337 59.1016 739.321 58.4602C739.141 57.9439 738.836 57.4746 738.437 57.0992C738.046 56.708 737.92 56.1213 738.132 55.605C738.374 55.1357 738.961 55.1436 739.572 55.1515C739.854 55.1593 740.135 55.1514 740.417 55.1045C741.278 54.8698 741.927 54.158 742.084 53.2819C742.373 52.0929 741.661 49.9653 742.639 48.9641C743.328 48.2757 744.385 48.8702 745.019 47.7751C745.919 46.2576 742.35 44.6072 743.383 43.168C743.727 42.6908 744.439 42.6126 744.807 42.1511C745.418 41.361 744.651 40.2895 743.884 39.6559C743.117 39.0223 742.178 38.2009 742.483 37.2623C742.999 35.5962 746.38 36.4566 746.725 34.7514C746.912 33.8675 745.958 33.0853 746.357 32.1466C746.756 31.208 748.141 31.4584 749.08 31.0907C751.193 30.2851 750.708 26.6163 752.75 25.6386C754.19 24.9502 755.842 26.0767 756.914 27.25C758.463 28.9239 759.762 30.8168 760.756 32.874C761.054 33.8205 761.492 34.7123 762.063 35.5258C762.752 36.1985 763.808 36.1203 764.427 37.0824C765.053 38.1227 765.1 39.4133 764.56 40.5005C764.466 40.6804 764.45 40.8995 764.513 41.0872C764.575 41.2827 764.716 41.4392 764.904 41.5331L765.937 42.0338C766.164 42.1433 766.32 42.3545 766.36 42.6048C766.399 42.8551 766.313 43.1053 766.125 43.2774C765.671 43.6842 765.42 44.2787 765.452 44.8888C765.585 45.6788 765.968 46.4062 766.547 46.9616C767.025 46.414 767.353 45.757 767.51 45.0452C767.972 43.1288 766.821 39.695 768.394 38.0758C769.506 36.9416 771.196 37.9038 772.237 36.1594C773.692 33.6877 767.917 31.0359 769.584 28.6971C770.14 27.9306 771.313 27.7975 771.908 27.0466C772.91 25.7794 771.658 23.9569 770.413 22.9948C769.169 22.0327 767.651 20.6952 768.128 19.1542C768.973 16.4478 774.444 17.8713 775.023 15.0866C775.312 13.6708 773.849 12.3802 774.428 10.8628C775.007 9.34528 777.284 9.75208 778.842 9.1576C782.262 7.87478 781.471 1.94564 784.774 0.349931C787.098 -0.784271 789.743 1.03815 791.512 2.96238C793.969 5.67664 796.027 8.72732 797.616 12.0204C798.085 13.5535 798.805 14.9928 799.729 16.2991C800.864 17.3942 802.546 17.2612 803.571 18.8334C804.581 20.5152 804.659 22.6037 803.783 24.3558C803.634 24.6531 803.61 24.9972 803.712 25.3101C803.822 25.623 804.057 25.8813 804.354 26.022L806.005 26.8276C806.373 26.9996 806.631 27.3518 806.694 27.7507C806.757 28.1574 806.616 28.5641 806.31 28.8379C805.583 29.5106 805.199 30.4806 805.254 31.4662C805.763 33.5625 807.07 35.3772 808.901 36.5114C810.724 37.6378 812.086 39.3821 812.743 41.4237C813.283 44.6073 807.735 48.9485 809.441 51.8036C810.02 52.578 810.779 53.2036 811.648 53.626C812.485 54.0328 813.158 54.7056 813.565 55.5426C813.886 55.3157 814.113 54.9714 814.199 54.5803C814.371 53.8528 814.081 52.3745 814.528 51.9287C814.966 51.4906 815.451 52.1008 816.007 51.1778C816.562 50.2548 814.355 49.2222 814.989 48.3383C815.201 48.0489 815.49 48.182 815.874 47.7048C816.257 47.2277 815.795 46.5548 815.318 46.1715C814.841 45.7883 814.261 45.2721 814.434 44.6776C814.762 43.6451 816.852 44.2005 817.063 43.121C817.181 42.5813 816.586 42.1588 816.836 41.5096C817.087 40.8604 817.947 41.0874 818.527 40.8605C819.833 40.3834 819.544 38.1149 820.796 37.5048C821.696 37.0668 822.698 37.7708 823.371 38.5061C824.333 39.5464 825.139 40.7118 825.773 41.979C825.945 42.5657 826.219 43.1133 826.579 43.6139C827.002 44.0363 827.636 43.9815 828.019 44.5917C828.418 45.2252 828.45 46.0152 828.113 46.6801C827.996 46.9226 828.09 47.2042 828.324 47.3294L828.958 47.6344C829.099 47.6969 829.201 47.8299 829.224 47.9863C829.248 48.1428 829.185 48.2992 829.068 48.4009C828.794 48.659 828.645 49.0189 828.669 49.4022C828.872 50.2 829.373 50.8883 830.07 51.3264C830.774 51.7722 831.298 52.4527 831.549 53.2427C831.776 54.4708 829.631 56.1213 830.281 57.2164C830.5 57.5136 830.79 57.7482 831.126 57.9047C831.455 58.0767 831.721 58.3505 831.877 58.6947C831.924 59.0936 831.877 59.5004 831.744 59.8837C831.58 61.0648 831.846 62.2616 832.496 63.2629C833.223 64.3345 833.544 65.6251 833.396 66.9079C833.349 67.08 833.294 67.2443 833.223 67.4086L907.553 69.8257L936 48.8781V189.511L840.901 225H10.9562Z" fill="#6950E6"/>
<path d="M500.079 224.992L575.053 211.835C578.113 207.567 580.539 202.876 582.261 197.92C580.304 199.655 578.191 201.211 575.945 202.564C579.091 199.304 583.623 180.127 583.623 180.127C581.259 182.316 579.154 184.231 579.154 184.231C581.917 179.282 584.202 166.969 584.202 166.969C584.202 166.969 587.583 178.954 590.744 183.629L585.923 179.931C585.923 179.931 592.122 198.608 595.526 201.602C593.17 200.461 590.924 199.1 588.827 197.537C592.059 203.619 593.554 206.113 595.44 208.255L636.66 201.023L649.996 197.552C656.288 189.75 661.21 180.924 664.536 171.473C661.367 174.287 657.939 176.804 654.308 178.993C659.371 173.677 666.689 142.688 666.689 142.688L659.473 149.325C663.91 141.351 667.636 121.424 667.636 121.424C667.636 121.424 673.09 140.945 678.216 148.504C678.216 148.504 674.546 145.721 670.422 142.524C670.422 142.524 680.447 172.763 685.949 177.594C682.114 175.741 678.459 173.537 675.047 170.996C678.373 177.015 682.231 182.715 686.575 188.046L697.195 185.286H814.375C819.916 176.288 824.486 166.719 828 156.752C822.89 161.333 817.357 165.414 811.471 168.948C819.65 160.356 831.514 110.213 831.514 110.213C825.316 115.944 819.806 120.955 819.806 120.955C827.006 108.048 833.087 75.7218 833.087 75.7218C833.087 75.7218 841.899 107.305 850.195 119.516C850.195 119.516 844.278 115.107 837.603 109.932C837.603 109.932 853.748 158.847 862.654 166.696C856.487 163.694 850.61 160.114 845.108 156.017C849.412 163.78 854.241 171.238 859.57 178.336C867.858 163.538 874.542 147.902 879.488 131.681C873.047 138.341 865.972 144.361 858.373 149.669C868.797 136.958 883.902 62.8929 883.902 62.8929C876.013 71.3516 869.001 78.7706 869.001 78.7706C878.157 59.5939 885.819 12 885.819 12C885.819 12 897.104 58.6557 907.63 76.7771C907.63 76.7771 900.086 70.1401 891.563 62.4709C891.563 62.4709 912.24 134.8 923.58 146.308C915.629 141.805 908.139 136.528 901.236 130.547C906.636 141.82 912.741 152.741 919.518 163.248L936 159.003V214.048C936 220.091 931.093 224.992 925.043 224.992H500.079ZM10.9565 224.992C4.90696 224.992 0 220.091 0 214.048V115.232L94.0383 154.157C97.427 147.793 100.323 141.179 102.71 134.378C97.5835 138.928 92.0426 142.993 86.1574 146.519C94.3356 137.927 106.2 87.761 106.2 87.761C100.002 93.4913 94.5078 98.5181 94.5078 98.5181C101.684 85.6111 107.695 53.3006 107.695 53.3006C107.695 53.3006 116.523 84.884 124.818 97.0952C124.818 97.0952 118.91 92.6626 112.203 87.5107C112.203 87.5107 128.442 136.411 137.332 144.252C131.165 141.25 125.303 137.669 119.81 133.573C125.554 143.915 132.214 153.727 139.719 162.873L149.666 164.648C153.196 159.05 156.076 153.077 158.259 146.839C155.097 149.661 151.677 152.186 148.046 154.375C153.094 149.067 160.427 118.156 160.427 118.156L153.188 124.793C157.641 116.741 161.249 96.8139 161.249 96.8139C161.249 96.8139 166.703 116.335 171.83 123.894C171.83 123.894 168.277 121.111 164.152 117.914C164.152 117.914 174.177 148.153 179.679 152.984C175.86 151.131 172.229 148.919 168.832 146.386C173.888 155.525 180.164 163.944 187.49 171.394L245.317 181.706L331.818 208.02C333.141 205.558 334.268 203.001 335.191 200.367C333.235 202.11 331.122 203.658 328.876 205.01C332.022 201.75 336.553 182.574 336.553 182.574L332.061 186.678C334.808 181.73 337.093 169.417 337.093 169.417C337.093 169.417 340.474 181.479 343.636 186.154L338.799 182.472C338.799 182.472 344.997 201.149 348.402 204.143C346.046 203.001 343.8 201.641 341.703 200.077C344.52 205.159 347.94 209.873 351.9 214.126L387.65 225L10.9565 224.992Z" fill="#4A34B6"/>
</svg>
