<svg xmlns="http://www.w3.org/2000/svg" width="1196.001" height="287.625" viewBox="0 0 1196.001 287.625">
  <g id="Group_1083" data-name="Group 1083" transform="translate(-11058 -8350.375)">
    <path id="Intersection_8" data-name="Intersection 8" d="M-1979.619-3260a14,14,0,0,1-14-14v-210.278l69.054-8.029,150.292,80.578,79.2,14.448c-2.06-4.538-3.458-8.094-1.005-13.344a6.255,6.255,0,0,0,1.055-3.752,7.369,7.369,0,0,0-1.815-2.8,2.869,2.869,0,0,1-.638-3.091c.6-.971,1.811-.959,3.048-.948a9.564,9.564,0,0,0,1.686-.082,4.907,4.907,0,0,0,3.459-3.8c.563-2.453-.908-6.843,1.128-8.9,1.4-1.446,3.582-.221,4.906-2.453,1.938-3.237-5.421-6.55-3.385-9.566.71-1.007,2.182-1.177,2.943-2.135,1.276-1.595-.269-3.949-1.888-5.176s-3.532-2.944-2.919-4.906c1.079-3.459,8.045-1.644,8.781-5.2.392-1.815-1.5-3.458-.761-5.4s3.68-1.422,5.642-2.157c4.367-1.669,3.386-9.223,7.58-11.285,2.992-1.447,6.377.884,8.609,3.336a47.713,47.713,0,0,1,7.972,11.53,20.716,20.716,0,0,0,2.7,5.47c1.447,1.4,3.631,1.226,4.906,3.237a7.357,7.357,0,0,1,.294,7.065,1.571,1.571,0,0,0-.094,1.217,1.575,1.575,0,0,0,.806.917l2.281,1.153a1.566,1.566,0,0,1,.8,1.129,1.565,1.565,0,0,1-.406,1.323,4.223,4.223,0,0,0-1.373,3.361,10.544,10.544,0,0,0,4.686,6.451,11.707,11.707,0,0,1,4.905,6.28c.687,4.1-6.426,9.616-4.219,13.271a7.374,7.374,0,0,0,2.8,2.453,5.346,5.346,0,0,1,2.452,2.625,8.192,8.192,0,0,1-.441,3.949c-1.031,4.243.663,7.8,2.453,11.333a20.326,20.326,0,0,1,3.189,10.621,3.582,3.582,0,0,0,.981-1.692c.344-1.546-.565-4.244.687-5.519.883-.908,2.232-.148,3.041-1.521,1.153-1.937-3.41-4.048-2.084-5.887.441-.613,1.349-.711,1.815-1.3.784-1.007-.2-2.429-1.178-3.214s-2.159-1.839-1.79-3.066c.538-2.134,4.979-1.006,5.445-3.213.221-1.1-1.005-2.133-.491-3.336s2.282-.883,3.483-1.324c2.724-1.031,2.11-5.716,4.71-6.968,1.84-.907,3.925.564,5.323,2.061a30.052,30.052,0,0,1,4.906,7.187,13.044,13.044,0,0,0,1.668,3.361c.883.883,2.232.76,3.017,2.012a4.534,4.534,0,0,1,.2,4.365.96.96,0,0,0-.066.759.959.959,0,0,0,.508.567l1.3.638a.979.979,0,0,1,.54.732.983.983,0,0,1-.294.862,2.624,2.624,0,0,0-.835,2.061,6.5,6.5,0,0,0,2.87,4,7.063,7.063,0,0,1,3.067,3.875c.467,2.528-3.949,5.961-2.6,8.218a4.723,4.723,0,0,0,1.742,1.423,3.235,3.235,0,0,1,1.521,1.618,4.909,4.909,0,0,1-.27,2.454,10.1,10.1,0,0,0,1.57,6.99,14.436,14.436,0,0,1,1.987,5.765l83.153,32.3,24.089,21.66,118.967-38.438,46.605-59.066,261.776-56.687a7.352,7.352,0,0,1,0-6.7,4.057,4.057,0,0,0,.662-2.306,4.434,4.434,0,0,0-1.129-1.742,1.768,1.768,0,0,1-.392-1.913c.314-.6,1.065-.59,1.837-.581a5.875,5.875,0,0,0,1.082-.056,2.945,2.945,0,0,0,2.134-2.33c.368-1.522-.54-4.244.711-5.519.883-.883,2.232-.123,3.042-1.521,1.153-1.937-3.41-4.048-2.086-5.887.441-.614,1.35-.711,1.816-1.3.784-1.006-.2-2.379-1.178-3.19s-2.183-1.864-1.79-3.065c.662-2.134,4.979-1.031,5.421-3.214.245-1.128-.981-2.133-.467-3.334s2.282-.884,3.483-1.35c2.7-1.031,2.085-5.716,4.686-6.967,1.84-.883,3.949.564,5.322,2.061a29.407,29.407,0,0,1,4.907,7.187,12.4,12.4,0,0,0,1.668,3.385c.883.859,2.232.76,3.017,1.987a4.541,4.541,0,0,1,.172,4.366.98.98,0,0,0-.057.755.989.989,0,0,0,.5.57l1.325.639a.982.982,0,0,1,.54.732.983.983,0,0,1-.3.862,2.6,2.6,0,0,0-.858,2.06,4.751,4.751,0,0,0,1.4,2.649,5.506,5.506,0,0,0,1.226-2.452c.589-2.454-.883-6.844,1.129-8.905,1.422-1.448,3.582-.22,4.906-2.453,1.863-3.164-5.52-6.549-3.386-9.542.711-.98,2.208-1.152,2.968-2.109,1.276-1.619-.318-3.949-1.913-5.176s-3.531-2.944-2.919-4.906c1.079-3.458,8.07-1.643,8.807-5.2.367-1.815-1.5-3.458-.76-5.4s3.654-1.422,5.641-2.184c4.367-1.643,3.361-9.221,7.58-11.258,2.968-1.447,6.353.884,8.609,3.337a49.019,49.019,0,0,1,7.8,11.577,19.3,19.3,0,0,0,2.7,5.471c1.447,1.4,3.6,1.226,4.905,3.238a7.357,7.357,0,0,1,.269,7.064,1.573,1.573,0,0,0-.085,1.223,1.57,1.57,0,0,0,.821.91l2.109,1.031a1.568,1.568,0,0,1,.882,1.183,1.572,1.572,0,0,1-.489,1.393,4.245,4.245,0,0,0-1.349,3.361,10.5,10.5,0,0,0,4.66,6.451,11.5,11.5,0,0,1,4.906,6.278c.687,4.072-6.4,9.616-4.22,13.271a7.724,7.724,0,0,0,2.821,2.33,5.335,5.335,0,0,1,2.453,2.452,2.032,2.032,0,0,0,.811-1.225c.22-.932-.148-2.822.416-3.386s1.178.221,1.888-.956-2.109-2.5-1.3-3.63c.269-.369.638-.2,1.128-.811s-.1-1.471-.712-1.961-1.349-1.153-1.127-1.913c.417-1.325,3.091-.613,3.36-1.987.148-.687-.614-1.226-.294-2.061s1.422-.538,2.158-.834c1.668-.613,1.3-3.507,2.895-4.293,1.153-.564,2.429.344,3.286,1.276a19.129,19.129,0,0,1,3.066,4.439,6.892,6.892,0,0,0,1.029,2.086c.54.538,1.349.466,1.84,1.25a2.723,2.723,0,0,1,.124,2.674.637.637,0,0,0,.269.834l.81.393a.589.589,0,0,1,.342.45.59.59,0,0,1-.2.531,1.6,1.6,0,0,0-.515,1.276A4.074,4.074,0,0,0-932.97-3482a4.464,4.464,0,0,1,1.888,2.453c.294,1.57-2.453,3.679-1.619,5.077a2.91,2.91,0,0,0,1.08.884,2.107,2.107,0,0,1,.956,1.006,3.28,3.28,0,0,1-.172,1.521,6.324,6.324,0,0,0,.957,4.317,6.921,6.921,0,0,1,1.153,4.66,4.952,4.952,0,0,1-.221.639l94.977,3.091,36.351-26.781v179.793L-919.1-3260Z" transform="translate(13051.619 11898)" fill="#126068"/>
    <path id="Intersection_9" data-name="Intersection 9" d="M-1354.625-3260l95.8-16.826a69.884,69.884,0,0,0,9.208-17.8,55,55,0,0,1-8.07,5.937c4.024-4.17,9.812-28.7,9.812-28.7-3.016,2.8-5.715,5.249-5.715,5.249,3.531-6.329,6.451-22.076,6.451-22.076s4.317,15.33,8.364,21.315l-6.157-4.734s7.924,23.891,12.266,27.719a52.935,52.935,0,0,1-8.561-5.2c4.133,7.782,6.039,10.968,8.455,13.715l52.672-9.252,17.038-4.436a112.833,112.833,0,0,0,18.577-33.362,88.525,88.525,0,0,1-13.073,9.616c6.475-6.8,15.821-46.435,15.821-46.435l-9.223,8.487c5.667-10.2,10.425-35.69,10.425-35.69s6.968,24.97,13.516,34.636c0,0-4.686-3.557-9.96-7.654,0,0,12.805,38.682,19.845,44.864a85.925,85.925,0,0,1-13.932-8.438,147.121,147.121,0,0,0,14.735,21.808l13.571-3.533H-953.03a190.251,190.251,0,0,0,17.411-36.5,138.423,138.423,0,0,1-21.12,15.6c10.45-10.989,25.608-75.133,25.608-75.133-7.923,7.334-14.963,13.737-14.963,13.737,9.2-16.508,16.974-57.865,16.974-57.865s11.259,40.4,21.856,56.024c0,0-7.556-5.642-16.092-12.265,0,0,20.629,62.574,32.01,72.606a139.946,139.946,0,0,1-22.419-13.663,248.726,248.726,0,0,0,18.478,28.551,303.324,303.324,0,0,0,25.453-59.678,184.4,184.4,0,0,1-26.982,23.009c13.32-16.263,32.624-111,32.624-111-10.082,10.819-19.035,20.311-19.035,20.311,11.7-24.53,21.488-85.411,21.488-85.411s14.423,59.679,27.866,82.86c0,0-9.64-8.488-20.531-18.3,0,0,26.418,92.525,40.913,107.242a175.805,175.805,0,0,1-28.551-20.163A379.161,379.161,0,0,0-818.683-3339l21.064-5.431V-3274a14,14,0,0,1-14,14Zm-624.994,0a14,14,0,0,1-14-14v-126.4l120.155,49.789a181.762,181.762,0,0,0,11.081-25.3,141.35,141.35,0,0,1-21.145,15.527c10.45-10.989,25.608-75.158,25.608-75.158-7.923,7.335-14.938,13.761-14.938,13.761,9.174-16.508,16.852-57.84,16.852-57.84s11.283,40.4,21.88,56.025c0,0-7.554-5.666-16.116-12.265,0,0,20.752,62.55,32.109,72.582a140.265,140.265,0,0,1-22.394-13.663,251.853,251.853,0,0,0,25.44,37.485l12.71,2.268a112.386,112.386,0,0,0,10.982-22.779,86.593,86.593,0,0,1-13.05,9.639c6.451-6.794,15.822-46.335,15.822-46.335l-9.248,8.487c5.691-10.3,10.3-35.788,10.3-35.788s6.966,24.97,13.515,34.635c0,0-4.538-3.558-9.812-7.654,0,0,12.805,38.684,19.845,44.865a86.159,86.159,0,0,1-13.86-8.438,147.53,147.53,0,0,0,23.837,31.994l73.888,13.188,110.534,33.657a69.967,69.967,0,0,0,4.313-9.79,53.719,53.719,0,0,1-8.07,5.936c4.023-4.169,9.811-28.7,9.811-28.7l-5.74,5.248c3.508-6.328,6.427-22.076,6.427-22.076s4.318,15.429,8.365,21.414l-6.181-4.708s7.923,23.891,12.265,27.717a52.847,52.847,0,0,1-8.562-5.2,91.341,91.341,0,0,0,13.026,17.969l45.681,13.91Z" transform="translate(13051.619 11898)" fill="#0a373c"/>
  </g>
</svg>
