<svg id="Layer_1" data-name="Layer 1" xmlns="http://www.w3.org/2000/svg" viewBox="0 0 1196 287.63"><defs><style>.cls-1{opacity:0.54;}.cls-2{fill:#0011c0;}.cls-3{fill:#214fc0;}</style></defs><g id="Group_1053" data-name="Group 1053"><g id="Group_1052" data-name="Group 1052" class="cls-1"><path id="Intersection_2" data-name="Intersection 2" class="cls-2" d="M14,287.62a14,14,0,0,1-14-14V63.35l69.06-8L219.35,135.9l79.2,14.44c-2.06-4.53-3.46-8.09-1-13.34a6.26,6.26,0,0,0,1.06-3.75,7.46,7.46,0,0,0-1.82-2.8,2.86,2.86,0,0,1-.63-3.09c.59-1,1.81-1,3-1a10.58,10.58,0,0,0,1.69-.08,4.93,4.93,0,0,0,3.46-3.8c.56-2.46-.91-6.85,1.13-8.9,1.4-1.45,3.58-.22,4.9-2.46,1.94-3.23-5.42-6.55-3.38-9.56.71-1,2.18-1.18,2.94-2.14,1.28-1.59-.27-4-1.89-5.17s-3.53-3-2.92-4.91c1.08-3.46,8.05-1.64,8.78-5.2.4-1.81-1.5-3.46-.76-5.4s3.68-1.42,5.65-2.16c4.36-1.66,3.38-9.22,7.58-11.28,3-1.45,6.37.88,8.6,3.34a47.79,47.79,0,0,1,8,11.53,20.51,20.51,0,0,0,2.7,5.47c1.44,1.4,3.63,1.22,4.9,3.23a7.37,7.37,0,0,1,.3,7.07,1.55,1.55,0,0,0-.1,1.21,1.57,1.57,0,0,0,.81.92l2.28,1.15a1.59,1.59,0,0,1,.8,1.13,1.56,1.56,0,0,1-.41,1.33,4.22,4.22,0,0,0-1.37,3.36,10.56,10.56,0,0,0,4.69,6.45,11.68,11.68,0,0,1,4.9,6.28c.69,4.1-6.42,9.61-4.22,13.27a7.35,7.35,0,0,0,2.8,2.45,5.36,5.36,0,0,1,2.45,2.63,8.18,8.18,0,0,1-.44,4c-1,4.24.67,7.8,2.46,11.33a20.41,20.41,0,0,1,3.19,10.62,3.7,3.7,0,0,0,1-1.69c.34-1.55-.57-4.25.68-5.52.89-.91,2.24-.15,3-1.52,1.16-1.94-3.41-4.05-2.08-5.89.44-.61,1.35-.71,1.82-1.3.78-1-.2-2.43-1.18-3.21s-2.16-1.84-1.79-3.07c.54-2.13,5-1,5.44-3.21.22-1.1-1-2.13-.49-3.34s2.28-.88,3.48-1.32c2.73-1,2.11-5.72,4.71-7,1.84-.91,3.93.56,5.33,2.06a30.09,30.09,0,0,1,4.9,7.19,13.18,13.18,0,0,0,1.67,3.36c.88.88,2.23.76,3,2a4.56,4.56,0,0,1,.2,4.37,1,1,0,0,0-.07.76,1,1,0,0,0,.51.56l1.3.64a1,1,0,0,1,.25,1.59,2.65,2.65,0,0,0-.84,2.07,6.57,6.57,0,0,0,2.87,4,7,7,0,0,1,3.07,3.87c.47,2.53-3.95,6-2.6,8.22a4.71,4.71,0,0,0,1.74,1.42,3.24,3.24,0,0,1,1.52,1.62,4.87,4.87,0,0,1-.27,2.45,10.08,10.08,0,0,0,1.57,7,14.49,14.49,0,0,1,2,5.77l83.15,32.3,24.09,21.66,119-38.44,46.6-59.07L944.05,83.75a7.33,7.33,0,0,1,0-6.7,4,4,0,0,0,.66-2.31A4.37,4.37,0,0,0,943.58,73a1.76,1.76,0,0,1-.39-1.91c.31-.6,1.06-.59,1.84-.58a6.52,6.52,0,0,0,1.08-.06,3,3,0,0,0,2.13-2.33c.37-1.52-.54-4.24.71-5.52.89-.88,2.24-.12,3-1.52,1.15-1.94-3.41-4-2.09-5.89.44-.61,1.35-.71,1.82-1.3.78-1-.2-2.38-1.18-3.19s-2.19-1.86-1.79-3.06c.66-2.14,5-1,5.42-3.22.24-1.12-1-2.13-.47-3.33s2.28-.88,3.48-1.35c2.7-1,2.09-5.72,4.69-7,1.84-.88,4,.57,5.32,2.06A29.18,29.18,0,0,1,972.11,42a12.31,12.31,0,0,0,1.67,3.39c.88.85,2.23.76,3,2a4.56,4.56,0,0,1,.18,4.37,1,1,0,0,0-.06.75.94.94,0,0,0,.5.57l1.32.64a1,1,0,0,1,.54.73,1,1,0,0,1-.3.87,2.59,2.59,0,0,0-.85,2.06,4.77,4.77,0,0,0,1.4,2.65,5.49,5.49,0,0,0,1.22-2.46c.59-2.45-.88-6.84,1.13-8.9,1.42-1.45,3.58-.22,4.91-2.45,1.86-3.17-5.52-6.55-3.39-9.55.71-1,2.21-1.15,3-2.11,1.28-1.61-.32-3.94-1.91-5.17s-3.53-2.95-2.92-4.91c1.08-3.46,8.07-1.64,8.8-5.2.37-1.81-1.5-3.46-.76-5.4s3.66-1.42,5.65-2.18c4.36-1.64,3.36-9.22,7.58-11.26,3-1.45,6.35.88,8.6,3.34a48.7,48.7,0,0,1,7.8,11.57,19.57,19.57,0,0,0,2.7,5.48c1.45,1.4,3.6,1.22,4.91,3.23a7.37,7.37,0,0,1,.27,7.07,1.62,1.62,0,0,0-.09,1.22,1.6,1.6,0,0,0,.82.91l2.11,1a1.57,1.57,0,0,1,.89,1.18,1.63,1.63,0,0,1-.49,1.4,4.21,4.21,0,0,0-1.35,3.36,10.48,10.48,0,0,0,4.66,6.45,11.47,11.47,0,0,1,4.9,6.28c.69,4.07-6.4,9.61-4.22,13.27a7.77,7.77,0,0,0,2.82,2.33,5.31,5.31,0,0,1,2.46,2.45,2.05,2.05,0,0,0,.81-1.22c.22-.94-.15-2.83.41-3.39s1.18.22,1.89-1-2.11-2.5-1.3-3.63c.27-.37.64-.2,1.13-.81s-.1-1.47-.71-2-1.35-1.15-1.13-1.91c.42-1.33,3.09-.61,3.36-2,.15-.69-.61-1.22-.29-2.06s1.42-.54,2.16-.83c1.66-.62,1.3-3.51,2.89-4.3,1.15-.56,2.43.35,3.29,1.28a19.09,19.09,0,0,1,3.06,4.44,6.74,6.74,0,0,0,1,2.08c.54.54,1.35.47,1.84,1.25a2.73,2.73,0,0,1,.13,2.68.63.63,0,0,0,.26.83l.81.4a.58.58,0,0,1,.35.45.63.63,0,0,1-.2.53,1.57,1.57,0,0,0-.52,1.27,4.07,4.07,0,0,0,1.79,2.46,4.51,4.51,0,0,1,1.89,2.46c.29,1.57-2.45,3.68-1.62,5.07A2.83,2.83,0,0,0,1062,74a2.16,2.16,0,0,1,1,1,3.32,3.32,0,0,1-.18,1.53,6.3,6.3,0,0,0,1,4.31,6.88,6.88,0,0,1,1.15,4.66,4.83,4.83,0,0,1-.22.64l95,3.09L1196,62.49V242.28l-121.48,45.34Z" transform="translate(0 0.01)"/></g><path id="Intersection_1" data-name="Intersection 1" class="cls-3" d="M639,287.62l95.8-16.82A70,70,0,0,0,744,253a54.63,54.63,0,0,1-8.07,5.94c4-4.17,9.82-28.7,9.82-28.7-3,2.8-5.72,5.25-5.72,5.25,3.53-6.33,6.45-22.08,6.45-22.08s4.32,15.33,8.37,21.31L748.69,230s7.92,23.89,12.27,27.72a53,53,0,0,1-8.57-5.2c4.14,7.78,6,11,8.46,13.71L813.52,257l17-4.43a113.14,113.14,0,0,0,18.58-33.37,88.59,88.59,0,0,1-13.08,9.62c6.48-6.8,15.82-46.43,15.82-46.43l-9.22,8.48c5.67-10.2,10.43-35.69,10.43-35.69s7,25,13.51,34.64c0,0-4.68-3.56-10-7.66,0,0,12.81,38.69,19.85,44.87a85.84,85.84,0,0,1-13.93-8.44,147.37,147.37,0,0,0,14.73,21.81l13.57-3.53h149.73a190.66,190.66,0,0,0,17.41-36.5,138.91,138.91,0,0,1-21.12,15.6c10.45-11,25.61-75.14,25.61-75.14-7.92,7.34-15,13.74-15,13.74,9.2-16.51,17-57.87,17-57.87s11.26,40.4,21.86,56c0,0-7.56-5.64-16.1-12.27,0,0,20.63,62.58,32,72.61a140.05,140.05,0,0,1-22.41-13.66,250.18,250.18,0,0,0,18.47,28.55,303.45,303.45,0,0,0,25.46-59.68,184.6,184.6,0,0,1-27,23c13.32-16.26,32.63-111,32.63-111-10.08,10.82-19,20.31-19,20.31,11.7-24.53,21.49-85.41,21.49-85.41S1146.3,74.84,1159.75,98c0,0-9.64-8.49-20.53-18.3,0,0,26.42,92.52,40.91,107.24a176.18,176.18,0,0,1-28.55-20.16,379.15,379.15,0,0,0,23.36,41.82l21.06-5.43v70.43a14,14,0,0,1-14,14Zm-625,0a14,14,0,0,1-14-14V147.23L120.16,197a181.75,181.75,0,0,0,11.08-25.3,141.1,141.1,0,0,1-21.15,15.53c10.45-11,25.61-75.16,25.61-75.16-7.92,7.34-14.94,13.76-14.94,13.76C129.94,109.34,137.62,68,137.62,68s11.28,40.4,21.88,56c0,0-7.56-5.67-16.12-12.27,0,0,20.75,62.55,32.11,72.59a140.46,140.46,0,0,1-22.4-13.67,252.75,252.75,0,0,0,25.44,37.49l12.71,2.27a112.8,112.8,0,0,0,11-22.78,87.24,87.24,0,0,1-13,9.64C195.63,190.5,205,151,205,151l-9.25,8.49c5.69-10.3,10.3-35.79,10.3-35.79s7,25,13.52,34.64c0,0-4.54-3.56-9.82-7.66,0,0,12.81,38.69,19.85,44.87a85.92,85.92,0,0,1-13.86-8.44,147.41,147.41,0,0,0,23.84,32l73.88,13.19L424,265.91a71.11,71.11,0,0,0,4.31-9.79,53.86,53.86,0,0,1-8.07,5.93c4-4.17,9.81-28.7,9.81-28.7l-5.74,5.25c3.51-6.33,6.43-22.07,6.43-22.07s4.32,15.42,8.36,21.41l-6.18-4.71s7.92,23.89,12.27,27.72a53,53,0,0,1-8.57-5.2,91.37,91.37,0,0,0,13,18l45.68,13.91Z" transform="translate(0 0.01)"/></g></svg>