<svg xmlns="http://www.w3.org/2000/svg" width="215.634" height="219.958" viewBox="0 0 215.634 219.958">
  <g id="illu" transform="translate(-113.157 258.305) rotate(-49)">
    <g id="Layer_1" data-name="Layer 1" transform="translate(0 -0.002)">
      <path id="Path_2964" data-name="Path 2964" d="M303.5,228.314l-4.225,1.3-2.836-6.567-6.41,1.133L287.1,219.61l-2.312,1.483L288.7,227.2l6.076-1.073,2.951,6.832,6.359-1.953Z" transform="translate(-65.602 -140.824)" fill="#57edff"/>
      <g id="Group_1039" data-name="Group 1039" transform="translate(16.432 -43.216) rotate(17)">
        <path id="Path_2965" data-name="Path 2965" d="M13.015.22C-.7,2.477-4.776,20.479,6.628,28.531A10.456,10.456,0,0,1,10.7,34.588l2.074,8.371a4.561,4.561,0,0,0,5.167,3.4l5.2-.854a4.554,4.554,0,0,0,3.8-4.88c-.718-8.644-1.611-11.78,1.2-15.634C36.357,13.712,26.733-2.048,13.015.22Z" transform="translate(150.552 31.954)" fill="#ffcc70"/>
        <path id="Path_2966" data-name="Path 2966" d="M7.528,26.4C6.635,18.989,5.375,11.17,4.955,8.953-2.906,9.387.083,1.1,3.71,4.471A6.86,6.86,0,0,1,5.555,8.16a20.327,20.327,0,0,0,7.489-2.182c-.126-1.826-.3-3.212.2-4.381.771-1.765,3.007-2.246,3.918-.524a2.752,2.752,0,0,1,.154,2.153c-.527,1.46-2.114,2.426-3.495,3.179.413,5.888.983,11.823,1.7,17.665l-.739.093c-.718-5.741-1.277-11.587-1.69-17.382a21.042,21.042,0,0,1-7.4,2.11c.538,2.838,1.726,10.46,2.566,17.414ZM1.22,7.205c.718.754,1.87,1.076,3.588,1.008a5.987,5.987,0,0,0-1.6-3.2c-1.966-1.812-3.165.926-2,2.189ZM13.93,1.884a8.317,8.317,0,0,0-.165,3.685c1.123-.639,2.426-1.435,2.849-2.609a1.694,1.694,0,0,0-.872-2.2C15.652.753,14.231,1.206,13.93,1.884Z" transform="translate(157.442 42.376)" fill="#2faebd"/>
        <path id="Path_2967" data-name="Path 2967" d="M0,2.566a.973.973,0,0,0,.061.208l2.074,8.371a4.561,4.561,0,0,0,5.167,3.4l5.2-.854a4.554,4.554,0,0,0,3.8-4.88c-.319-3.843-.671-6.6-.718-8.813Z" transform="translate(161.188 63.768)" fill="#2faebd"/>
        <path id="Path_2968" data-name="Path 2968" d="M4.312,9.768l-4.1-7.5A1.5,1.5,0,1,1,2.838.833l4.1,7.485A1.5,1.5,0,0,1,4.312,9.754Z" transform="translate(149.086 16.155)" fill="#ffcc70"/>
        <path id="Path_2969" data-name="Path 2969" d="M10.306,3.77,1.367,2.988A1.5,1.5,0,0,1,1.626.006l8.942.782a1.5,1.5,0,0,1-.262,2.982Z" transform="translate(134.129 40.263)" fill="#ffcc70"/>
        <path id="Path_2970" data-name="Path 2970" d="M.438,8.2a1.493,1.493,0,0,1,0-2.113A48.7,48.7,0,0,1,7.615.223,1.5,1.5,0,0,1,9.276,2.709a45.933,45.933,0,0,0-6.71,5.5A1.493,1.493,0,0,1,.438,8.2Z" transform="translate(135.133 63.244)" fill="#ffcc70"/>
        <path id="Path_2971" data-name="Path 2971" d="M1.109,14.865a1.5,1.5,0,0,1-1.059-1.83A56.852,56.852,0,0,0,1.9,1.416a1.5,1.5,0,0,1,2.989.161A60.031,60.031,0,0,1,2.943,13.806a1.5,1.5,0,0,1-1.834,1.059Z" transform="translate(174.378 10.652)" fill="#ffcc70"/>
        <path id="Path_2972" data-name="Path 2972" d="M.064,4.729a1.5,1.5,0,0,1,1-1.866l9.294-2.8a1.5,1.5,0,0,1,.865,2.871l-9.294,2.8A1.5,1.5,0,0,1,.064,4.729Z" transform="translate(184.643 32.282)" fill="#ffcc70"/>
        <path id="Path_2973" data-name="Path 2973" d="M10.508,6.606a1.457,1.457,0,0,1-.405-.057A47.1,47.1,0,0,1,.795,2.82,1.5,1.5,0,1,1,2.2.176a43.86,43.86,0,0,0,8.712,3.495,1.5,1.5,0,0,1-.406,2.935Z" transform="translate(189.455 55.135)" fill="#ffcc70"/>
      </g>
      <path id="Path_2974" data-name="Path 2974" d="M973.264,287.85l-3.939-9.313-9.9-2.031a1.389,1.389,0,0,1-.63-2.411l7.64-6.63L965.3,257.411a1.392,1.392,0,0,1,2.11-1.344l8.659,5.22,9.2-4.177a1.389,1.389,0,0,1,1.926,1.582l-2.287,9.87,6.817,7.468a1.389,1.389,0,0,1-.9,2.321l-10.075.868-4.994,8.791a1.392,1.392,0,0,1-2.492-.16Z" transform="translate(-669.501 -178.75)" fill="#ffcc70"/>
      <path id="Path_2975" data-name="Path 2975" d="M1168.523,255.99l-2.2,8.848-14.632-1.963-4.806,12.542-11.188.323.164,5.661,14.959-.429,4.561-11.887,15.217,2.045,3.305-13.319Z" transform="matrix(0.485, 0.875, -0.875, 0.485, 59.429, -1066.937)" fill="#57edff"/>
      <path id="Path_2976" data-name="Path 2976" d="M1022.091,77.009l-9.849,2.688-2.122-11.935,3.222-.573,1.495,8.405,6.392-1.745Z" transform="translate(-705.691 -46.94)" fill="#50bfa5"/>
      <g id="Group_1038" data-name="Group 1038" transform="matrix(0.766, 0.643, -0.643, 0.766, 224.685, 54.843)">
        <path id="Path_2977" data-name="Path 2977" d="M230.918,39.422,169.1,61.48a3.831,3.831,0,0,1-4.894-2.321L152.8,27.168a3.831,3.831,0,0,1,2.315-4.894L216.934.222a3.831,3.831,0,0,1,4.894,2.321l11.41,31.985a3.834,3.834,0,0,1-2.321,4.894Z" transform="translate(-106.593 0.002)" fill="#2faebd"/>
        <path id="Path_2978" data-name="Path 2978" d="M221.415,84.663a12.251,12.251,0,1,1-15.654-7.423A12.251,12.251,0,0,1,221.415,84.663Z" transform="translate(-138.063 -53.461)" fill="#fff"/>
        <path id="Path_2979" data-name="Path 2979" d="M227.835,92.283a3.617,3.617,0,1,1-4.614-2.188,3.617,3.617,0,0,1,4.614,2.188Z" transform="translate(-154.265 -62.795)" fill="#2faebd"/>
        <path id="Path_2980" data-name="Path 2980" d="M4.28,0H7.263a4.28,4.28,0,0,1,4.28,4.28v1.3H0V4.28A4.28,4.28,0,0,1,4.28,0Z" transform="translate(66.712 38.191) rotate(-19.63)" fill="#2faebd"/>
        <path id="Path_2981" data-name="Path 2981" d="M278,51.705a1.561,1.561,0,0,1-.527-3.032L304.5,39.029a1.564,1.564,0,1,1,1.043,2.947L278.526,51.6A1.573,1.573,0,0,1,278,51.705Z" transform="translate(-193.124 -27.19)" fill="#fff"/>
        <path id="Path_2982" data-name="Path 2982" d="M302.209,78.985a1.561,1.561,0,0,1-.524-3.032l21.1-7.534a1.561,1.561,0,1,1,1.049,2.941l-21.1,7.534A1.561,1.561,0,0,1,302.209,78.985Z" transform="translate(-210.038 -47.735)" fill="#fff"/>
      </g>
      <path id="Path_2983" data-name="Path 2983" d="M19.02,0c3.993,3.186,10.939,13.447,19.794,20.631,5.172,4.21,9.175,3.139,15.79,3.936,31.384,3.8,22.881,10.21,26.646,10.861C80.18,37.891,70.389,58.7,68.574,62.877c-1.686,3.874-4.6,5.607-8.818,5.022C53.265,67,46.717,66.347,40.324,64.951,23.944,61.4,14.831,53.205,3.085,43.259A7.7,7.7,0,0,1,.82,33.593C8.34,16.2,18.208,1.6,19.02,0Z" transform="matrix(0.985, 0.174, -0.174, 0.985, 212.748, -10.843)" fill="#2faebd"/>
      <path id="Path_2984" data-name="Path 2984" d="M90.634,67.166c-.14,6.837.383,8.208-2.555,7.174a41.3,41.3,0,0,1-5.172-2.3c-1.174-.61-1.22-1.412-.264-2.374,1.391-1.4,2.824-2.757,4.215-4.138a6.056,6.056,0,0,1,2.658-7.251c.517-.3.14.336,4.51-9.723-14.482-1.784-24.65-2.979-42.287-5.146a23.756,23.756,0,0,1-12.532-5.451Q20.314,22.148,1.452,6.327A3.484,3.484,0,0,1,.883,1.186C1.917-.045,3.293-.107,4.772.079,8.8.6,48.254,5.484,52.262,5.954a25.943,25.943,0,0,1,13.965,6q18.557,15.516,37.167,31.033c1.7,1.422,2.162,2.726,1.552,4.3-.652,1.733-2.069,2.586-4.251,2.069-1.552-.341-2.255.134-2.793,1.577-2.431,6.543-4.138,7.991-3.543,10.38C94.808,63.173,92.62,66.364,90.634,67.166Z" transform="matrix(0.985, 0.174, -0.174, 0.985, 208.027, -18.53)" fill="#57edff"/>
      <path id="Path_2985" data-name="Path 2985" d="M6.284,173.91l2.8,5.545,6.335-.2,2.7,6.44,6.679-2.3,3.378,7.149,6.41-1.359,4.373,6.347-2.4,1.655-3.273-4.744-6.763,1.435L23.282,187l-6.79,2.336-2.984-7.107-6.184.2-2.6-5.142-4.032.982L0,175.438Z" transform="translate(171.384 -58.476)" fill="#ffcc70"/>
    </g>
  </g>
</svg>
