<svg id="advanced" xmlns="http://www.w3.org/2000/svg" width="16.711" height="22.281" viewBox="0 0 16.711 22.281">
  <path id="Icon_awesome-star" data-name="Icon awesome-star" d="M3.673.173l-.61,1.293L1.7,1.674a.316.316,0,0,0-.165.533L2.52,3.213,2.286,4.633a.3.3,0,0,0,.434.329l1.221-.671,1.221.671A.3.3,0,0,0,5.6,4.633L5.363,3.213l.988-1.006a.316.316,0,0,0-.165-.533L4.82,1.466,4.21.173A.294.294,0,0,0,3.673.173Z" transform="translate(4.414 5.141)" fill="currentColor"/>
  <path id="Icon_awesome-award" data-name="Icon awesome-award" d="M4.226,15.78c-.378-.378-.181-.272-1.093-.516a3.14,3.14,0,0,1-1.107-.58L.052,19.526a.7.7,0,0,0,.671.959L3.017,20.4l1.577,1.666a.7.7,0,0,0,1.15-.216l2.265-5.554a3.123,3.123,0,0,1-3.782-.513Zm12.432,3.745-1.974-4.841a3.133,3.133,0,0,1-1.107.58c-.917.245-.716.138-1.093.516a3.124,3.124,0,0,1-3.783.513l2.265,5.554a.7.7,0,0,0,1.15.216L13.694,20.4l2.293.087A.7.7,0,0,0,16.658,19.526ZM11.445,14.8c.665-.677.741-.618,1.688-.876a1.768,1.768,0,0,0,1.239-1.261A2.8,2.8,0,0,1,15.5,10.667a1.805,1.805,0,0,0,.453-1.722,2.83,2.83,0,0,1,0-2.3A1.805,1.805,0,0,0,15.5,4.923a2.8,2.8,0,0,1-1.129-1.991,1.768,1.768,0,0,0-1.239-1.261A2.728,2.728,0,0,1,11.177.522,1.732,1.732,0,0,0,9.484.06a2.693,2.693,0,0,1-2.259,0A1.731,1.731,0,0,0,5.534.522,2.726,2.726,0,0,1,3.578,1.671,1.768,1.768,0,0,0,2.339,2.932,2.8,2.8,0,0,1,1.21,4.923,1.8,1.8,0,0,0,.756,6.646a2.829,2.829,0,0,1,0,2.3,1.806,1.806,0,0,0,.453,1.723,2.8,2.8,0,0,1,1.129,1.991,1.768,1.768,0,0,0,1.239,1.261c.974.265,1.047.224,1.688.876a1.729,1.729,0,0,0,2.165.253,1.727,1.727,0,0,1,1.851,0A1.729,1.729,0,0,0,11.445,14.8ZM4.25,7.657a4.106,4.106,0,1,1,4.105,4.178A4.143,4.143,0,0,1,4.25,7.657Z" transform="translate(0 0.001)" fill="currentColor"/>
</svg>
