<svg id="Layer_1" data-name="Layer 1" xmlns="http://www.w3.org/2000/svg" viewBox="0 0 525 525"><defs><style>.cls-1{fill:red;}</style></defs><path class="cls-1" d="M486.5,124a256.63,256.63,0,1,1-100.23,20.23A256,256,0,0,1,486.5,124m0-5C341.53,119,224,236.53,224,381.5S341.53,644,486.5,644,749,526.47,749,381.5,631.47,119,486.5,119Z" transform="translate(-224 -119)"/><path class="cls-1" d="M488,242.53c-.43,0-.85,0-1.27,0s-.84,0-1.27,0c0,0-37.5-1.47-31.36,50.26l19.42,154.09s2.34,15.83,13.15,16.31h.12c10.81-.48,13.15-16.31,13.15-16.31l19.42-154.09C525.46,241.06,488,242.53,488,242.53Z" transform="translate(-224 -119)"/><path class="cls-1" d="M506.09,500.26a19.4,19.4,0,1,1-19.4-19.6A19.51,19.51,0,0,1,506.09,500.26Z" transform="translate(-224 -119)"/></svg>