<svg xmlns="http://www.w3.org/2000/svg" viewBox="156.888 163.067 64.656 36.339" width="64.65" height="36.339">
  <g id="Android__operating_system_-Robot-Logo.wine" data-name="Android_(operating_system)-Robot-Logo.wine" transform="matrix(1, 0, 0, 1, 132.167025, 138.286059)">
    <path id="Path_766" data-name="Path 766" d="M149.134,129.309a2.67,2.67,0,1,1,2.67-2.671,2.673,2.673,0,0,1-2.67,2.671m-29.511,0a2.67,2.67,0,1,1,2.67-2.671,2.674,2.674,0,0,1-2.67,2.671m30.469-16.083,5.336-9.242a1.11,1.11,0,0,0-1.923-1.11l-5.4,9.359a33.543,33.543,0,0,0-27.447,0l-5.4-9.359a1.11,1.11,0,0,0-1.923,1.11l5.336,9.242a31.506,31.506,0,0,0-16.347,25.219h64.119a31.511,31.511,0,0,0-16.347-25.219" transform="translate(-77.317 -77.318)" fill="#fff"/>
    <path id="Path_767" data-name="Path 767" d="M0,0H114.123V61.128H0Z" transform="translate(0 0)" fill="none"/>
  </g>
</svg>