<svg xmlns="http://www.w3.org/2000/svg" width="51.7" height="61.526" viewBox="0 0 51.702 61.526">
  <path id="Icon_awesome-apple" data-name="Icon awesome-apple" d="M43.509,34.763c-.027-5.041,2.253-8.846,6.868-11.648-2.582-3.695-6.483-5.728-11.634-6.126-4.876-.385-10.206,2.843-12.156,2.843-2.06,0-6.786-2.706-10.494-2.706C8.427,17.25.281,23.239.281,35.423A34.236,34.236,0,0,0,2.259,46.576c1.758,5.041,8.1,17.4,14.725,17.2,3.461-.082,5.906-2.459,10.412-2.459,4.368,0,6.635,2.459,10.494,2.459,6.676-.1,12.417-11.332,14.093-16.387-8.956-4.217-8.475-12.362-8.475-12.623ZM35.734,12.209a12.937,12.937,0,0,0,3.3-9.959A14.565,14.565,0,0,0,29.7,7.044a13.14,13.14,0,0,0-3.516,9.876c3.585.275,6.854-1.566,9.547-4.711Z" transform="translate(-0.281 -2.25)" fill="#fff"/>
</svg>
