<svg xmlns="http://www.w3.org/2000/svg" width="21" height="21" viewBox="0 0 21 21" fill="none">
  <path fill-rule="evenodd" clip-rule="evenodd" d="M18.5018 10.0009C18.5018 5.58213 14.9197 2 10.5009 2C7.88429 2 5.5611 3.25501 4.09967 5.20016C3.87636 5.49739 3.50658 5.6462 3.13963 5.58651C2.77268 5.52682 2.46913 5.26849 2.35153 4.9158L1.45144 2.21641C1.27674 1.69248 1.55984 1.12614 2.08377 0.951438C2.6077 0.776739 3.17404 1.05984 3.34874 1.58377L3.70796 2.66106C5.49087 1.01041 7.87798 0 10.5009 0C16.0242 0 20.5018 4.47756 20.5018 10.0009C20.5018 15.5242 16.0242 20.0018 10.5009 20.0018C4.97756 20.0018 0.5 15.5242 0.5 10.0009C0.5 9.44862 0.947716 9.0009 1.5 9.0009C2.05228 9.0009 2.5 9.44862 2.5 10.0009C2.5 14.4197 6.08212 18.0018 10.5009 18.0018C14.9197 18.0018 18.5018 14.4197 18.5018 10.0009ZM12.4231 8.45002L10.244 7.36044C9.2466 6.86177 8.07313 7.58701 8.07313 8.70208V10.8812C8.07313 11.9963 9.2466 12.7216 10.244 12.2229L12.4231 11.1333C13.5287 10.5805 13.5287 9.00281 12.4231 8.45002Z" fill="#515151"/>
</svg>