<svg xmlns="http://www.w3.org/2000/svg" viewBox="152.222 163.119 23.24 28.779" width="23.24" height="28.780">
  <defs>
    <filter id="Vector" x="0" y="0" width="46.759" height="48.377" filterUnits="userSpaceOnUse">
      <feComposite operator="in" in2="blur"/>
      <feComposite in="SourceGraphic"/>
    </filter>
  </defs>
  <g id="vuesax_bold_lamp-charge" data-name="vuesax/bold/lamp-charge" transform="matrix(1, 0, 0, 1, -409.134123, -27.545254)">
    <g id="lamp-charge" transform="translate(556 188)">
      <path id="Vector-2" data-name="Vector" d="M10.212,2.621a.89.89,0,0,1-.269-.043,15.868,15.868,0,0,0-8.684,0A.989.989,0,0,1,.04,1.9.978.978,0,0,1,.72.68,17.9,17.9,0,0,1,10.5.68a.984.984,0,0,1,.68,1.218A1.024,1.024,0,0,1,10.212,2.621Z" transform="translate(11.406 28.546)" fill="currentColor"/>
      <g transform="matrix(1, 0, 0, 1, -6.38, -5.16)" filter="url(#Vector)">
        <path id="Vector-3" data-name="Vector" d="M21.59,6.173A11.213,11.213,0,0,0,13.968.28a11.445,11.445,0,0,0-9.7,2.238A11.3,11.3,0,0,0,0,11.4a12.261,12.261,0,0,0,5.511,9.733v1.176a1.9,1.9,0,0,0,.453,1.5,2.443,2.443,0,0,0,1.813.567h7.267a2.367,2.367,0,0,0,1.742-.609,2.119,2.119,0,0,0,.51-1.643v-.992C21.689,18.172,24.452,11.925,21.59,6.173Zm-7.777,7.452L12.3,16.26a1.071,1.071,0,0,1-.921.538.972.972,0,0,1-.524-.142,1.069,1.069,0,0,1-.4-1.445l1.2-2.1h-1.19a1.692,1.692,0,0,1-1.53-2.649l1.516-2.635A1.06,1.06,0,1,1,12.3,8.879l-1.2,2.1h1.19a1.692,1.692,0,0,1,1.53,2.649Z" transform="translate(12 8)" fill="currentColor"/>
      </g>
      <path id="Vector-4" data-name="Vector" d="M0,0H34V34H0Z" transform="translate(34 34) rotate(180)" fill="none" opacity="0"/>
    </g>
  </g>
</svg>
