<svg xmlns="http://www.w3.org/2000/svg" width="28.86" height="28.86" viewBox="0 0 28.85 28.86">
  <g id="book" transform="translate(0)">
    <path id="Vector" d="M24.05,16.928V2.414A2.369,2.369,0,0,0,21.441.021h-.072a22.669,22.669,0,0,0-8.5,2.85l-.2.132a1.332,1.332,0,0,1-1.275,0l-.3-.18A22.555,22.555,0,0,0,2.6.009,2.366,2.366,0,0,0,0,2.4V16.928a2.471,2.471,0,0,0,2.092,2.381l.349.048a30.9,30.9,0,0,1,8.947,2.934l.048.024a1.3,1.3,0,0,0,1.154,0,30.617,30.617,0,0,1,8.971-2.958l.4-.048A2.471,2.471,0,0,0,24.05,16.928Z" transform="translate(2.405 3.202)" fill="none" stroke="currentColor" stroke-linecap="round" stroke-linejoin="round" stroke-width="2"/>
    <path id="Vector-2" d="M0,0V18.038" transform="translate(14.43 6.602)" fill="none" stroke="currentColor" stroke-linecap="round" stroke-linejoin="round" stroke-width="2"/>
    <path id="Vector-3" d="M2.706,0H0" transform="translate(6.614 10.209)" fill="none" stroke="currentColor" stroke-linecap="round" stroke-linejoin="round" stroke-width="2"/>
    <path id="Vector-4" d="M3.608,0H0" transform="translate(6.614 13.817)" fill="none" stroke="currentColor" stroke-linecap="round" stroke-linejoin="round" stroke-width="2"/>
    <path id="Vector-5" d="M0,0H28.86V28.86H0Z" transform="translate(28.86 28.86) rotate(180)" fill="none" opacity="0"/>
  </g>
</svg>
