<svg xmlns="http://www.w3.org/2000/svg" xmlns:xlink="http://www.w3.org/1999/xlink" width="70" height="70" viewBox="0 0 70 70">
  <defs>
    <filter id="Vector" x="10.891" y="9.705" width="48.221" height="28.141" filterUnits="userSpaceOnUse">
      <feOffset dy="2"/>
      <feFlood flood-opacity="0.078"/>
      <feComposite operator="in" in2="blur"/>
      <feComposite in="SourceGraphic"/>
    </filter>
    <filter id="Vector-2" x="6.319" y="23.126" width="57.363" height="46.538" filterUnits="userSpaceOnUse">
      <feOffset dy="4"/>
      <feFlood flood-opacity="0.149"/>
      <feComposite operator="in" in2="blur-2"/>
      <feComposite in="SourceGraphic"/>
    </filter>
  </defs>
  <g id="Group_1085" data-name="Group 1085" transform="translate(-1408 2000)">
    <circle id="Ellipse_247" data-name="Ellipse 247" cx="35" cy="35" r="35" transform="translate(1408 -2000)" fill="#8c75ff"/>
    <g id="vuesax_bold_calendar-2" data-name="vuesax/bold/calendar-2" transform="translate(1248.758 -2239.112)">
      <g id="calendar-2" transform="translate(172 252)">
        <path id="Vector-3" data-name="Vector" d="M0,0H44.484V44.484H0Z" fill="none" opacity="0"/>
        <g transform="matrix(1, 0, 0, 1, -12.76, -12.89)" filter="url(#Vector)">
          <path id="Vector-4" data-name="Vector" d="M25.414,4.282V1.39a1.39,1.39,0,1,0-2.78,0V4.17H10.586V1.39a1.39,1.39,0,0,0-2.78,0V4.282C2.8,4.745.373,7.729,0,12.159a.931.931,0,0,0,.927.982H32.29a.919.919,0,0,0,.927-.982C32.846,7.729,30.418,4.745,25.414,4.282Z" transform="translate(18.39 15.2)" fill="rgba(255,255,255,0.28)"/>
        </g>
        <g transform="matrix(1, 0, 0, 1, -12.76, -12.89)" filter="url(#Vector-2)">
          <path id="Vector-5" data-name="Vector" d="M31.509,0H1.853A1.859,1.859,0,0,0,0,1.853V13.271c0,5.56,2.78,9.267,9.267,9.267H24.1c6.487,0,9.267-3.707,9.267-9.267V1.853A1.859,1.859,0,0,0,31.509,0Zm-20,15.514a2.14,2.14,0,0,1-.612.389,1.747,1.747,0,0,1-1.409,0,2.14,2.14,0,0,1-.612-.389,1.88,1.88,0,0,1,0-2.632,2.14,2.14,0,0,1,.612-.389,1.854,1.854,0,0,1,1.409,0,2.14,2.14,0,0,1,.612.389,1.88,1.88,0,0,1,0,2.632Zm.389-7.1a2.14,2.14,0,0,1-.389.612,2.14,2.14,0,0,1-.612.389,1.747,1.747,0,0,1-1.409,0,2.14,2.14,0,0,1-.612-.389,2.14,2.14,0,0,1-.389-.612,1.747,1.747,0,0,1,0-1.409,2.14,2.14,0,0,1,.389-.612,2.14,2.14,0,0,1,.612-.389,1.854,1.854,0,0,1,1.409,0,2.14,2.14,0,0,1,.612.389,2.14,2.14,0,0,1,.389.612,1.747,1.747,0,0,1,0,1.409Zm6.1.612a2.14,2.14,0,0,1-.612.389,1.747,1.747,0,0,1-1.409,0,2.14,2.14,0,0,1-.612-.389,1.88,1.88,0,0,1,0-2.632,2.14,2.14,0,0,1,.612-.389,1.7,1.7,0,0,1,1.409,0A2.14,2.14,0,0,1,18,6.395a1.88,1.88,0,0,1,0,2.632Z" transform="translate(18.32 31.13)" fill="#fff"/>
        </g>
      </g>
    </g>
  </g>
</svg>
