<svg xmlns="http://www.w3.org/2000/svg" viewBox="330.888 131.252 19.736 20.6" width="19.735" height="20.6">
  <defs>
    <filter id="Vector" x="7.47" y="15.46" width="28.5" height="21.04" filterUnits="userSpaceOnUse">
      <feOffset dy="1"/>
      <feFlood flood-opacity="0.078"/>
      <feComposite operator="in" in2="blur"/>
      <feComposite in="SourceGraphic"/>
    </filter>
    <filter id="Vector-2" x="0" y="0" width="43.44" height="38" filterUnits="userSpaceOnUse">
      <feOffset dy="4"/>
      <feFlood flood-opacity="0.149"/>
      <feComposite operator="in" in2="blur-2"/>
      <feComposite in="SourceGraphic"/>
    </filter>
  </defs>
  <g id="vuesax_bold_cup" transform="matrix(1, 0, 0, 1, 328.545195, 129.561767)">
    <g id="cup">
      <g transform="matrix(1, 0, 0, 1, -9.72, -6)" filter="url(#Vector)">
        <path id="Vector-3" d="M6,2.29H3.75a2.006,2.006,0,0,0-2,2v.25h-1a.75.75,0,0,0,0,1.5h12a.75.75,0,0,0,0-1.5h-1V4.29a2.006,2.006,0,0,0-2-2H7.5V0a6.282,6.282,0,0,1-.75.04A6.282,6.282,0,0,1,6,0Z" transform="translate(14.97 21.96)" fill="currentColor"/>
      </g>
      <g transform="matrix(1, 0, 0, 1, -9.72, -6)" filter="url(#Vector-2)">
        <path id="Vector-4" d="M16.2,9.64a4.892,4.892,0,0,0,1.7-1.12,5.459,5.459,0,0,0,1.54-3.7,2.544,2.544,0,0,0-2.57-2.57h-.56A4,4,0,0,0,12.72,0h-6A4,4,0,0,0,3.13,2.25H2.57A2.544,2.544,0,0,0,0,4.82a5.459,5.459,0,0,0,1.54,3.7,4.892,4.892,0,0,0,1.7,1.12,7,7,0,0,0,12.96,0ZM12.56,6.45l-.62.76a.751.751,0,0,0-.16.48l.06.98a.643.643,0,0,1-.95.69L9.98,9a.92.92,0,0,0-.52,0l-.91.36a.643.643,0,0,1-.95-.69l.06-.98a.751.751,0,0,0-.16-.48l-.62-.76a.644.644,0,0,1,.36-1.12l.95-.24a.794.794,0,0,0,.41-.31l.53-.82a.646.646,0,0,1,1.18,0l.53.82a.794.794,0,0,0,.41.31l.95.24A.644.644,0,0,1,12.56,6.45Z" transform="translate(12 8)" fill="currentColor"/>
      </g>
      <path id="Vector-5" d="M0,0H24V24H0Z" transform="translate(24 24) rotate(180)" fill="none" opacity="0"/>
    </g>
  </g>
</svg>
