<svg xmlns="http://www.w3.org/2000/svg" viewBox="176.498 147.399 28.411 28.293" width="28" height="28">
  <g id="Group_1120" data-name="Group 1120" transform="matrix(1, 0, 0, 1, -408.315863, -402.427954)">
    <g id="Group_1131" data-name="Group 1131">
      <rect id="Rectangle_496" data-name="Rectangle 496" width="28" height="28" rx="14" transform="translate(585 550)" fill="#ef515a"/>
      <g id="vuesax_linear_trush-square" data-name="vuesax/linear/trush-square" transform="translate(589.941 554.118)">
        <g id="trush-square" transform="translate(0)">
          <g id="Group" transform="translate(1.478 2.727)">
            <g transform="matrix(1, 0, 0, 1, -6.81, -6.84)">
              <path id="Vector-2" data-name="Vector" d="M11.643,0l-.557,8.265c-.091,1.29-.168,2.292-2.538,2.292H3.1c-2.37,0-2.448-1-2.538-2.292L0,0" transform="translate(8.56 9.77)" fill="#fff" stroke="#fff" stroke-linecap="round" stroke-linejoin="round" stroke-width="2"/>
            </g>
            <path id="Vector-3" data-name="Vector" d="M15.162.413C12.361.138,9.534,0,6.72,0c-1.67,0-3.341.088-5,.25L0,.413" transform="translate(0 2.516)" fill="none" stroke="#fff" stroke-linecap="round" stroke-linejoin="round" stroke-width="2"/>
            <path id="Vector-4" data-name="Vector" d="M0,2.442.175,1.365C.3.589.4,0,1.791,0H3.945c1.39,0,1.49.614,1.616,1.365L5.736,2.43" transform="translate(4.713)" fill="none" stroke="#fff" stroke-linecap="round" stroke-linejoin="round" stroke-width="2"/>
          </g>
          <path id="Vector-5" data-name="Vector" d="M0,0H18.118V18.118H0Z" fill="none" opacity="0"/>
        </g>
      </g>
    </g>
  </g>
</svg>