<svg xmlns="http://www.w3.org/2000/svg" width="28" height="23" viewBox="0 0 28 23" fill="none">
    <path d="M26.25 4.135H19.25V2.505C19.25 1.6085 18.4625 0.875 17.5 0.875H10.5C9.5375 0.875 8.75 1.6085 8.75 2.505V4.135H1.75C0.7875 4.135 0 4.8685 0 5.765V20.435C0 21.3315 0.7875 22.065 1.75 22.065H26.25C27.2125 22.065 28 21.3315 28 20.435V5.765C28 4.8685 27.2125 4.135 26.25 4.135ZM10.5 2.50826C10.5009 2.50745 10.5017 2.50581 10.5035 2.505H17.4974C17.4982 2.50581 17.5 2.50663 17.5009 2.50826V4.135H10.5009V2.50826H10.5ZM26.25 10.655H22.75V13.1C22.75 13.5482 22.3563 13.915 21.875 13.915H20.125C19.6437 13.915 19.25 13.5482 19.25 13.1V10.655H8.75V13.1C8.75 13.5482 8.35625 13.915 7.875 13.915H6.125C5.64375 13.915 5.25 13.5482 5.25 13.1V10.655H1.75V9.025H26.25V10.655Z" fill="currentColor"/>
</svg>
