<svg xmlns="http://www.w3.org/2000/svg" width="30" height="30" viewBox="0 0 30 30">
  <g id="Explination_Mark" data-name="Explination Mark" transform="translate(-300 -700)">
    <g id="signpost" transform="translate(300 700)">
      <path id="Vector" d="M0,0H30V30H0Z" fill="none" opacity="0"/>
      <path id="Vector-2" data-name="Vector" d="M16.641,15.163l-2.725-2.187a2.262,2.262,0,0,0-1.375-.475H9.653V8.75h5.587a2.182,2.182,0,0,0,2.188-2.187V2.188A2.182,2.182,0,0,0,15.241,0H4.916A2.254,2.254,0,0,0,3.553.475L.816,2.663a2.206,2.206,0,0,0,0,3.425L3.553,8.275a2.254,2.254,0,0,0,1.363.475H7.778V12.5H2.216A2.182,2.182,0,0,0,.028,14.688v4.375A2.182,2.182,0,0,0,2.216,21.25H7.778v2.813H4.966a.938.938,0,0,0,0,1.875h7.5a.938.938,0,0,0,0-1.875H9.653V21.25h2.887a2.262,2.262,0,0,0,1.375-.475l2.725-2.187A2.19,2.19,0,0,0,16.641,15.163Z" transform="translate(6.284 2.5)" fill="#fff"/>
    </g>
  </g>
</svg>
