<svg id="Layer_1" data-name="Layer 1" xmlns="http://www.w3.org/2000/svg" viewBox="0 0 579.3 601.73"><defs><style>.cls-1{fill:#231f20;}</style></defs><path class="cls-1" d="M760.15,230.83H598.74a134.05,134.05,0,0,0,14.43-6.53c56.1-29.9,45.9-64.66,33.35-88.21s-35.72-51.4-91.82-21.5c-31.86,17-68.49,57.41-84.2,87.61-15.71-30.2-52.34-70.64-84.2-87.61-56.1-29.9-79.28-2-91.82,21.5s-22.75,58.31,33.35,88.21a134.05,134.05,0,0,0,14.43,6.53H180.85V356.72h34.09V703.31H726.06V356.72h34.09ZM562.07,128.41c40.47-21.57,57.5-9.59,70.63,15s13.57,45.46-26.9,67c-43.17,23-116.68,23.58-127.48,15.58a21.29,21.29,0,0,0-.18-2.19C480.46,207.72,520.48,150.57,562.07,128.41Zm-253.77,15c13.12-24.63,30.16-36.61,70.63-15,41.59,22.16,81.61,79.31,83.92,95.46-.08.75-.16,1.49-.17,2.19-10.8,8-84.31,7.42-127.48-15.58C294.72,188.91,295.17,168.08,308.3,143.45ZM196.51,341.06V246.49H462.67v94.57H196.51Zm34.09,15.66H462.67V687.65H230.6ZM710.4,687.65H478.33V356.72H710.4Zm34.09-346.59H478.33V246.49H744.49Z" transform="translate(-180.85 -101.58)"/></svg>