<svg xmlns="http://www.w3.org/2000/svg" width="16.129" height="24" viewBox="0 0 16.129 24">
  <g id="pre_inter" data-name="pre inter" transform="translate(1 1)">
    <path id="Icon_awesome-star" data-name="Icon awesome-star" d="M4.12.208,3.387,1.759l-1.639.25a.38.38,0,0,0-.2.64L2.736,3.855l-.28,1.7a.362.362,0,0,0,.52.395l1.466-.8,1.466.8a.362.362,0,0,0,.52-.395l-.28-1.7L7.333,2.649a.38.38,0,0,0-.2-.64L5.5,1.759,4.763.208A.353.353,0,0,0,4.12.208Z" transform="translate(2.559 4.066)" fill="currentColor"/>
    <path id="Path_3074" data-name="Path 3074" d="M21.629,8.565A7.065,7.065,0,1,1,14.565,1.5a7.065,7.065,0,0,1,7.065,7.065Z" transform="translate(-7.5 -1.5)" fill="none" stroke="currentColor" stroke-linecap="round" stroke-linejoin="round" stroke-width="2"/>
    <path id="Path_3075" data-name="Path 3075" d="M11.711,20.829,10.5,29.167l5-2.746,5,2.746L19.295,20.82" transform="translate(-8.439 -7.167)" fill="none" stroke="currentColor" stroke-linecap="round" stroke-linejoin="round" stroke-width="2"/>
  </g>
</svg>
