<svg xmlns="http://www.w3.org/2000/svg" width="28" height="20" viewBox="0 0 28 20" fill="none">
    <path d="M21.5592 9.21833L21.7778 13.3325C21.875 15.1683 18.2902 16.6658 14 16.6658C9.70978 16.6658 6.125 15.1683 6.22222 13.3325L6.44078 9.21833L13.4167 11.575C13.6111 11.64 13.8056 11.6658 14 11.6658C14.1944 11.6658 14.3889 11.64 14.5833 11.575L21.5592 9.21833ZM28 5C28 5.1825 27.8903 5.33833 27.7324 5.40333L14.1213 9.98667C14.0723 10 14.0366 10 14 10C13.9634 10 13.9269 10 13.8787 9.98667L5.95544 7.30417C5.26244 7.89 4.77633 9.3225 4.67911 11.08C5.14111 11.3667 5.44444 11.8875 5.44444 12.4992C5.44444 13.085 5.16522 13.5933 4.73978 13.8925L5.44444 19.5308C5.45689 19.6483 5.42033 19.765 5.34722 19.8567C5.27411 19.9483 5.16522 20 5.05556 20H2.72222C2.61256 20 2.50367 19.9475 2.43056 19.8567C2.35744 19.7658 2.32089 19.6483 2.33333 19.5308L3.038 13.8925C2.61256 13.5933 2.33333 13.085 2.33333 12.4992C2.33333 11.8742 2.66156 11.34 3.12356 11.0542C3.19667 9.53083 3.56067 7.89 4.31433 6.7575L0.267556 5.40333C0.109667 5.33833 0 5.18167 0 5C0 4.81833 0.109667 4.66167 0.267556 4.59667L13.8787 0.0133334C13.9277 2.63875e-08 13.9634 0 14 0C14.0366 0 14.0731 2.63875e-08 14.1213 0.0133334L27.7324 4.59667C27.8903 4.66167 28 4.81833 28 5Z" fill="currentColor"/>
</svg>
