<svg id="job_opportunities" data-name="job opportunities" xmlns="http://www.w3.org/2000/svg" width="23" height="23" viewBox="0 0 23 23">
  <path id="Icon_awesome-search-dollar" data-name="Icon awesome-search-dollar" d="M22.687,19.885l-4.479-4.478a1.077,1.077,0,0,0-.764-.314h-.732A9.342,9.342,0,1,0,15.1,16.709v.732a1.077,1.077,0,0,0,.314.764l4.479,4.478a1.074,1.074,0,0,0,1.523,0l1.271-1.271a1.083,1.083,0,0,0,0-1.527ZM9.345,15.811a6.468,6.468,0,1,1,6.469-6.468A6.464,6.464,0,0,1,9.345,15.811Zm1.218-6.852L8.541,8.352a.587.587,0,0,1-.394-.572.565.565,0,0,1,.53-.593H9.939a1.076,1.076,0,0,1,.576.167.369.369,0,0,0,.455-.033l.528-.5a.36.36,0,0,0-.026-.545,2.572,2.572,0,0,0-1.409-.51V5.031A.359.359,0,0,0,9.7,4.672H8.985a.359.359,0,0,0-.359.359v.724A2,2,0,0,0,6.709,7.78,2.033,2.033,0,0,0,8.127,9.729l2.022.606a.587.587,0,0,1,.394.572.565.565,0,0,1-.53.593H8.751a1.076,1.076,0,0,1-.576-.167.369.369,0,0,0-.455.033l-.528.5a.36.36,0,0,0,.026.545,2.572,2.572,0,0,0,1.409.51v.732a.359.359,0,0,0,.359.359H9.7a.359.359,0,0,0,.359-.359v-.724a2,2,0,0,0,1.917-2.025,2.033,2.033,0,0,0-1.419-1.949Z" fill="currentColor"/>
</svg>
