<svg id="lamp-charge" xmlns="http://www.w3.org/2000/svg" width="28.86" height="28.86" viewBox="0 0 28.86 28.86">
  <path id="Vector" d="M1.409,0,.123,2.237c-.289.493-.048.9.517.9H2.167c.577,0,.806.409.517.9L1.409,6.277" transform="translate(13.021 9.488)" fill="none" stroke="currentColor" stroke-linecap="round" stroke-linejoin="round" stroke-width="2"/>
  <path id="Vector-2" d="M5.039,19.293V17.9A10.317,10.317,0,0,1,0,9.5,9.523,9.523,0,0,1,11.652.233,9.361,9.361,0,0,1,17.99,5.128c2.513,5.051-.132,10.414-4.016,12.759v1.395c0,.349.132,1.154-1.154,1.154H6.193C4.87,20.448,5.039,19.931,5.039,19.293Z" transform="translate(4.942 2.4)" fill="none" stroke="currentColor" stroke-linecap="round" stroke-linejoin="round" stroke-width="2"/>
  <path id="Vector-3" d="M0,.586a15.4,15.4,0,0,1,8.418,0" transform="translate(10.221 25.869)" fill="none" stroke="currentColor" stroke-linecap="round" stroke-linejoin="round" stroke-width="2"/>
  <path id="Vector-4" d="M0,0H28.86V28.86H0Z" fill="none" opacity="0"/>
</svg>
