<svg id="live_and_work_abroad" data-name="live and work abroad" xmlns="http://www.w3.org/2000/svg" width="23" height="18.4" viewBox="0 0 23 18.4">
  <path id="Icon_awesome-luggage-cart" data-name="Icon awesome-luggage-cart" d="M8.05,11.5H9.2V3.45H8.05A1.15,1.15,0,0,0,6.9,4.6v5.75A1.15,1.15,0,0,0,8.05,11.5ZM20.7,10.35V4.6a1.15,1.15,0,0,0-1.15-1.15H18.4V11.5h1.15A1.15,1.15,0,0,0,20.7,10.35Zm1.725,3.45H4.6V.575A.575.575,0,0,0,4.025,0H.575A.575.575,0,0,0,0,.575v1.15A.575.575,0,0,0,.575,2.3H2.3V15.525a.575.575,0,0,0,.575.575H5.856a1.707,1.707,0,0,0-.106.575,1.725,1.725,0,0,0,3.45,0,1.707,1.707,0,0,0-.106-.575h7.111a1.707,1.707,0,0,0-.106.575,1.725,1.725,0,0,0,3.45,0,1.707,1.707,0,0,0-.106-.575h2.981A.575.575,0,0,0,23,15.525v-1.15A.575.575,0,0,0,22.425,13.8ZM17.25,3.45V1.725A1.725,1.725,0,0,0,15.525,0h-3.45A1.725,1.725,0,0,0,10.35,1.725V11.5h6.9Zm-1.725,0h-3.45V1.725h3.45Z" fill="currentColor"/>
</svg>
