<svg xmlns="http://www.w3.org/2000/svg" viewBox="308.344 200.377 19.593 19.734" width="19.592" height="19.734">
  <path id="Vector" d="M0,0H23V23H0Z" fill="none" opacity="0" transform="matrix(1, 0, 0, 1, 306.639586, 198.72792)"/>
  <path id="Vector-2" data-name="Vector" d="M2.156,0C.345,0,0,.757,0,2.156V2.75H4.313V2.156C4.313.757,3.968,0,2.156,0Z" transform="matrix(1, 0, 0, 1, 315.98358, 206.154922)" fill="#3c76eb"/>
  <path id="Vector-3" data-name="Vector" d="M2.108,1.054A1.054,1.054,0,1,1,1.054,0,1.054,1.054,0,0,1,2.108,1.054Z" transform="matrix(1, 0, 0, 1, 317.085601, 211.090926)" fill="#3c76eb"/>
  <path id="Vector-4" data-name="Vector" d="M9.583,0a9.583,9.583,0,1,0,9.583,9.583A9.587,9.587,0,0,0,9.583,0Zm5.156,11.979c0,2.108-.652,2.76-2.76,2.76H7.188c-2.108,0-2.76-.652-2.76-2.76v-.958c0-1.639.393-2.4,1.562-2.655v-.7c0-.891,0-3.594,3.594-3.594s3.594,2.7,3.594,3.594v.7c1.169.259,1.562,1.016,1.562,2.655Z" transform="matrix(1, 0, 0, 1, 308.556578, 200.644912)" fill="#3c76eb"/>
</svg>
