<svg xmlns="http://www.w3.org/2000/svg" width="51.877" height="66.637" viewBox="0 0 51 66">
  <g id="Logo" transform="translate(-537.31 -270.209)">
    <path id="Path_738" data-name="Path 738" d="M731.17,709.992l-31.006,9.054A1.69,1.69,0,0,1,698,717.408l.319-33.706a1.69,1.69,0,0,1,1.25-1.616l30.689-8.261a1.69,1.69,0,0,1,2.129,1.632v32.916A1.69,1.69,0,0,1,731.17,709.992Z" transform="translate(-152.027 -383.432)" fill="none" stroke="currentColor" stroke-miterlimit="10" stroke-width="2.3"/>
    <path id="Path_739" data-name="Path 739" d="M643.93,542.4,616.52,555.1a1.323,1.323,0,0,1-1.883-1.355l.4-33.266a1.985,1.985,0,0,1,1.1-1.759l27.183-12.273a1.328,1.328,0,0,1,1.893,1.345l-.2,32.838A1.982,1.982,0,0,1,643.93,542.4Z" transform="translate(-72.59 -223.866)" fill="none" stroke="currentColor" stroke-miterlimit="10" stroke-width="2.3"/>
    <path id="Path_740" data-name="Path 740" d="M563.343,425.951l-23.22,14.463c-.8.5-1.606-.112-1.608-1.213l-.055-32.9a2.206,2.206,0,0,1,.911-1.824l23.058-14.344c.822-.511,1.638.079,1.645,1.191l.192,32.791A2.2,2.2,0,0,1,563.343,425.951Z" transform="translate(0 -112.977)" fill="none" stroke="currentColor" stroke-miterlimit="10" stroke-width="2.3"/>
    <path id="Path_741" data-name="Path 741" d="M1308.61,428.229a5.123,5.123,0,0,1,4.88,4.247" transform="translate(-733.892 -149.455)" fill="none" stroke="currentColor" stroke-linecap="round" stroke-miterlimit="10" stroke-width="2.3"/>
    <path id="Path_742" data-name="Path 742" d="M1314,352.84s7.764.729,8.427,7.479" transform="translate(-739.028 -77.615)" fill="none" stroke="currentColor" stroke-linecap="round" stroke-miterlimit="10" stroke-width="2.3"/>
    <path id="Path_743" data-name="Path 743" d="M1305.25,271.39s11.472.317,13.31,11.852" transform="translate(-730.69 0)" fill="none" stroke="currentColor" stroke-linecap="round" stroke-miterlimit="10" stroke-width="2.3"/>
  </g>
</svg>
