<svg width="48" height="48" viewBox="0 0 48 48" fill="none" xmlns="http://www.w3.org/2000/svg">
<circle cx="24" cy="24" r="24" fill="#3B64D8"/>
<rect width="24" height="24" transform="translate(12 12)" fill="#3B64D8"/>
<path fill-rule="evenodd" clip-rule="evenodd" d="M34 22.75C34 19.2388 34 17.4833 33.1573 16.2221C32.7926 15.6762 32.3238 15.2074 31.7779 14.8427C30.5167 14 28.7612 14 25.25 14H22.75C19.2388 14 17.4833 14 16.2221 14.8427C15.6762 15.2074 15.2074 15.6762 14.8427 16.2221C14 17.4833 14 19.2388 14 22.75C14 26.2612 14 28.0167 14.8427 29.2779C15.2074 29.8238 15.6762 30.2926 16.2221 30.6573C17.3238 31.3935 18.8029 31.4865 21.5 31.4983V31.5L22.882 34.2639C23.3426 35.1852 24.6574 35.1852 25.118 34.2639L26.5 31.5V31.4983C29.1971 31.4865 30.6762 31.3935 31.7779 30.6573C32.3238 30.2926 32.7926 29.8238 33.1573 29.2779C34 28.0167 34 26.2612 34 22.75ZM20.25 19.25C19.6977 19.25 19.25 19.6977 19.25 20.25C19.25 20.8023 19.6977 21.25 20.25 21.25H27.75C28.3023 21.25 28.75 20.8023 28.75 20.25C28.75 19.6977 28.3023 19.25 27.75 19.25H20.25ZM20.25 24.25C19.6977 24.25 19.25 24.6977 19.25 25.25C19.25 25.8023 19.6977 26.25 20.25 26.25H24C24.5523 26.25 25 25.8023 25 25.25C25 24.6977 24.5523 24.25 24 24.25H20.25Z" fill="white"/>
</svg>
