<svg xmlns="http://www.w3.org/2000/svg" width="30.25" height="35.5" viewBox="0 0 30.24 35.5">
  <path id="notifications" d="M15.125,35.75a3.41,3.41,0,0,1-2.5-1.042,3.362,3.362,0,0,1-1.042-2.458h7.083a3.36,3.36,0,0,1-1.042,2.458,3.415,3.415,0,0,1-2.5,1.042ZM26.667,25.083l3.583,3.583v1.75H0v-1.75l3.583-3.583v-9.75a11.21,11.21,0,0,1,2.5-7.208,11.268,11.268,0,0,1,6.334-4.042V2.917A2.524,2.524,0,0,1,13.209,1,2.687,2.687,0,0,1,15.126.25,2.544,2.544,0,0,1,17,1a2.6,2.6,0,0,1,.75,1.917V4.084a11.29,11.29,0,0,1,6.417,4.042,11.21,11.21,0,0,1,2.5,7.208v9.75Z" transform="translate(0 -0.25)" fill="currentColor"/>
</svg>
