<svg xmlns="http://www.w3.org/2000/svg" width="34.154" height="41.625" viewBox="0 0 34.155 41.625">
  <path id="noti_bell_icon" data-name="noti bell icon" d="M23.077,45.375a4.282,4.282,0,0,0,4.269-4.269H18.808A4.282,4.282,0,0,0,23.077,45.375ZM35.885,32.567V21.894c0-6.553-3.479-12.039-9.606-13.491V6.952a3.2,3.2,0,0,0-6.4,0V8.4c-6.1,1.452-9.606,6.916-9.606,13.491V32.567L6,36.837v2.135H40.154V36.837ZM31.615,34.7H14.538V21.894c0-5.294,3.223-9.606,8.538-9.606s8.538,4.312,8.538,9.606Z" transform="translate(-6 -3.75)" fill="#f63b45"/>
</svg>
