<svg xmlns="http://www.w3.org/2000/svg" width="24" height="24" viewBox="0 0 24 24" fill="none">
    <path d="M12 2.25C9.396 2.25 6.94725 3.264 5.106 5.106C3.26475 6.948 2.25 9.396 2.25 12C2.25 14.604 3.264 17.0527 5.106 18.894C6.948 20.7352 9.396 21.75 12 21.75C14.604 21.75 17.0527 20.736 18.894 18.894C20.7352 17.052 21.75 14.604 21.75 12C21.75 9.396 20.736 6.94725 18.894 5.106C17.052 3.26475 14.604 2.25 12 2.25ZM12 0C18.6277 0 24 5.37225 24 12C24 18.6277 18.6277 24 12 24C5.37225 24 0 18.6277 0 12C0 5.37225 5.37225 0 12 0ZM10.5 16.5H13.5V19.5H10.5V16.5ZM10.5 4.5H13.5V13.5H10.5V4.5Z" fill="currentColor"/>
</svg>
