<svg xmlns="http://www.w3.org/2000/svg" xmlns:xlink="http://www.w3.org/1999/xlink" width="90.155" height="90.155" viewBox="0 0 90.155 90.155">
  <defs>
    <filter id="Vector" x="11.465" y="15.714" width="67.225" height="72.39" filterUnits="userSpaceOnUse">
      <feOffset dy="1" input="SourceAlpha"/>
      <feGaussianBlur stdDeviation="1.5" result="blur"/>
      <feFlood flood-opacity="0.122"/>
      <feComposite operator="in" in2="blur"/>
      <feComposite in="SourceGraphic"/>
    </filter>
  </defs>
  <g id="Practice_Done" data-name="Practice Done" transform="translate(-428 -188)">
    <path id="Vector-2" data-name="Vector" d="M43.65,13.11v2.78l-13.3-7.7a17.844,17.844,0,0,0-17.054,0L0,15.927V13.11C0,4.658,4.62,0,13.072,0H30.578C39.03,0,43.65,4.658,43.65,13.11Z" transform="translate(451.253 195.513)" fill="#fff" opacity="0.5"/>
    <g transform="matrix(1, 0, 0, 1, 428, 188)" filter="url(#Vector)">
      <path id="Vector-3" data-name="Vector" d="M51.05,10.725l-.526-.263-5.109-2.93L34.822,1.409a12.276,12.276,0,0,0-11.42,0L12.81,7.494,7.7,10.5l-.676.338C.451,15.27,0,16.1,0,23.2V40.175c0,7.1.451,7.926,7.175,12.471L23.4,62a11.1,11.1,0,0,0,5.71,1.39A11.579,11.579,0,0,0,34.822,62L51.2,52.534c6.611-4.433,7.025-5.221,7.025-12.359V23.2C58.225,16.1,57.774,15.27,51.05,10.725ZM39.593,31.5,37.3,34.315a2.72,2.72,0,0,0-.6,1.766l.225,3.606c.15,2.216-1.427,3.343-3.494,2.554l-3.343-1.352a3.327,3.327,0,0,0-1.916,0L24.83,42.2c-2.066.826-3.644-.338-3.494-2.554l.225-3.606a2.72,2.72,0,0,0-.6-1.766L18.632,31.5c-1.427-1.69-.789-3.569,1.352-4.132l3.494-.9a3.027,3.027,0,0,0,1.5-1.127l1.953-3.005c1.2-1.878,3.118-1.878,4.357,0l1.953,3.005a2.974,2.974,0,0,0,1.5,1.127l3.494.9C40.382,27.929,41.021,29.808,39.593,31.5Z" transform="translate(15.96 19.21)" fill="#fff"/>
    </g>
    <path id="Vector-4" data-name="Vector" d="M0,0H90.155V90.155H0Z" transform="translate(518.155 278.155) rotate(180)" fill="none" opacity="0"/>
  </g>
</svg>
