<svg xmlns="http://www.w3.org/2000/svg" width="83.735" height="66.52" viewBox="0 0 83.736 66.52">
  <g id="speaker-filled-audio-tool" transform="translate(0 -9.565)">
    <path id="Path_497" d="M41.893,68.926a3.8,3.8,0,0,1-6.23,2.927L14.875,54.627H3.8a3.8,3.8,0,0,1-3.8-3.8V35.675a3.8,3.8,0,0,1,3.8-3.8H14.875L35.664,14.646a3.8,3.8,0,0,1,6.23,2.929V68.926Zm14.614-5.942c-.093.006-.182.01-.274.01a3.8,3.8,0,0,1-2.688-1.113l-.509-.51a3.8,3.8,0,0,1-.367-4.954,22.111,22.111,0,0,0-.585-27.1,3.8,3.8,0,0,1,.262-5.085l.508-.509a3.719,3.719,0,0,1,2.879-1.108,3.808,3.808,0,0,1,2.755,1.391,30.454,30.454,0,0,1,.793,37.459A3.805,3.805,0,0,1,56.507,62.985ZM72.228,74.736a3.806,3.806,0,0,1-2.747,1.346c-.052,0-.105,0-.159,0a3.8,3.8,0,0,1-2.689-1.113l-.5-.5a3.8,3.8,0,0,1-.221-5.136,40.523,40.523,0,0,0-.671-52.947,3.8,3.8,0,0,1,.153-5.2l.5-.5a3.7,3.7,0,0,1,2.8-1.118,3.8,3.8,0,0,1,2.732,1.275,48.825,48.825,0,0,1,.8,63.894Z" transform="translate(0 0)" fill="currentColor"/>
  </g>
</svg>
