<svg xmlns="http://www.w3.org/2000/svg" width="23" height="19" viewBox="0 0 23 19">
  <g id="travel" transform="translate(0)">
    <path id="Icon_ionic-ios-airplane" data-name="Icon ionic-ios-airplane" d="M21.537,12.91c-.175,0-.76.005-.924.015l-3.332.088a.1.1,0,0,1-.087-.046l-5-7.523a.824.824,0,0,0-.693-.382H10.289c-.287,0-.385.289-.282.558l2.572,7.373a.1.1,0,0,1-.092.139L6.2,13.225a.413.413,0,0,1-.339-.16l-1.9-2.323a.813.813,0,0,0-.647-.315H2.455a.205.205,0,0,0-.2.274l1.022,3.547a.846.846,0,0,1,0,.614L2.26,18.409a.205.205,0,0,0,.2.274h.857a.829.829,0,0,0,.647-.315l1.935-2.36a.419.419,0,0,1,.339-.16l6.248.139a.1.1,0,0,1,.092.139L10,23.5c-.1.268-.005.558.282.558H11.5a.817.817,0,0,0,.693-.382l5-7.517a.1.1,0,0,1,.087-.046l3.332.088c.169.01.75.015.924.015,2.274,0,3.712-.738,3.712-1.652S23.816,12.91,21.537,12.91Z" transform="translate(-2.248 -5.063)" fill="currentColor"/>
  </g>
</svg>
