<svg xmlns="http://www.w3.org/2000/svg" width="20" height="24" viewBox="0 0 20 24">
  <g id="advanced_level" data-name="advanced level" transform="translate(0 0)">
    <path id="Icon_awesome-award" data-name="Icon awesome-award" d="M5.058,17c-.453-.407-.217-.292-1.308-.555a3.917,3.917,0,0,1-1.324-.624L.062,21.032a.765.765,0,0,0,.8,1.033l2.744-.094L5.5,23.765a.879.879,0,0,0,1.377-.232L9.585,17.55A4.107,4.107,0,0,1,7.746,18a4,4,0,0,1-2.688-1Zm14.879,4.034-2.363-5.214a3.908,3.908,0,0,1-1.324.624c-1.1.264-.857.149-1.308.555a4,4,0,0,1-2.689,1,4.113,4.113,0,0,1-1.839-.449l2.711,5.982a.879.879,0,0,0,1.377.232l1.888-1.794,2.744.094a.765.765,0,0,0,.8-1.033Zm-6.24-5.1a3.105,3.105,0,0,1,2.02-.944A2.017,2.017,0,0,0,17.2,13.635a2.959,2.959,0,0,1,1.352-2.144A1.813,1.813,0,0,0,19.1,9.635a2.771,2.771,0,0,1,0-2.476A1.813,1.813,0,0,0,18.552,5.3,2.96,2.96,0,0,1,17.2,3.159,2.017,2.017,0,0,0,15.718,1.8,3.349,3.349,0,0,1,13.377.562a2.231,2.231,0,0,0-2.025-.5,3.55,3.55,0,0,1-2.7,0,2.23,2.23,0,0,0-2.025.5A3.347,3.347,0,0,1,4.282,1.8,2.017,2.017,0,0,0,2.8,3.159,2.959,2.959,0,0,1,1.448,5.3,1.812,1.812,0,0,0,.905,7.158a2.77,2.77,0,0,1,0,2.476,1.814,1.814,0,0,0,.543,1.856A2.959,2.959,0,0,1,2.8,13.635a2.017,2.017,0,0,0,1.483,1.358c1.166.286,1.253.241,2.02.944a2.243,2.243,0,0,0,2.591.273,2.262,2.262,0,0,1,2.215,0A2.243,2.243,0,0,0,13.7,15.937ZM5.086,8.248A4.721,4.721,0,0,1,10,3.747a4.721,4.721,0,0,1,4.913,4.5A4.721,4.721,0,0,1,10,12.749,4.721,4.721,0,0,1,5.086,8.248Z" transform="translate(0 0.001)" fill="currentColor"/>
  </g>
</svg>
