<svg xmlns="http://www.w3.org/2000/svg" width="24" height="24" viewBox="0 0 24 24">
  <g id="View_Summary" data-name="View Summary" transform="translate(-620 -188)">
    <g id="trend-up">
      <path id="Vector" d="M14.19,0H5.81C2.17,0,0,2.17,0,5.81v8.37C0,17.83,2.17,20,5.81,20h8.37c3.64,0,5.81-2.17,5.81-5.81V5.81C20,2.17,17.83,0,14.19,0Zm.69,9.53a.7.7,0,1,1-1.4,0V9.35l-2.72,2.72a.688.688,0,0,1-.56.2.665.665,0,0,1-.51-.31L8.67,10.44,6.29,12.82a.672.672,0,0,1-.49.2.7.7,0,0,1-.49-.2.706.706,0,0,1,0-.99L8.29,8.85a.688.688,0,0,1,.56-.2.665.665,0,0,1,.51.31l1.02,1.52,2.11-2.11h-.18a.7.7,0,1,1,0-1.4h1.86a.857.857,0,0,1,.27.05.707.707,0,0,1,.38.38.646.646,0,0,1,.05.27V9.53Z" transform="translate(622 190)" fill="#fff"/>
      <path id="Vector-2" data-name="Vector" d="M0,0H24V24H0Z" transform="translate(644 212) rotate(180)" fill="none" opacity="0"/>
    </g>
  </g>
</svg>
