<?xml version="1.0" standalone="no"?>
<!DOCTYPE svg PUBLIC "-//W3C//DTD SVG 20010904//EN"
 "http://www.w3.org/TR/2001/REC-SVG-20010904/DTD/svg10.dtd">
<svg version="1.0" xmlns="http://www.w3.org/2000/svg"
 width="1072.000000pt" height="1072.000000pt" viewBox="0 0 1072.000000 1072.000000"
 preserveAspectRatio="xMidYMid meet">
<metadata>
Created by potrace 1.14, written by Peter Selinger 2001-2017
</metadata>
<g transform="translate(0.000000,1072.000000) scale(0.100000,-0.100000)"
fill="#000000" stroke="none">
<path d="M7122 10702 c-28 -9 -53 -28 -75 -55 -34 -43 -63 -117 -45 -117 5 0
7 -4 4 -8 -9 -15 14 -80 39 -110 33 -40 86 -63 150 -67 69 -5 195 -21 225 -30
8 -2 32 -6 52 -9 21 -2 41 -7 46 -10 5 -3 24 -8 43 -11 36 -6 103 -23 129 -33
8 -3 17 -6 20 -7 19 -4 91 -29 120 -40 41 -15 73 -28 80 -30 71 -23 279 -131
386 -202 49 -32 91 -60 94 -63 3 -3 28 -23 55 -45 78 -60 254 -242 316 -325
30 -41 76 -109 102 -150 51 -83 157 -300 157 -323 0 -7 3 -17 8 -21 4 -4 7
-11 7 -14 1 -4 9 -32 20 -62 10 -30 20 -59 21 -65 1 -5 10 -39 19 -75 9 -36
19 -74 21 -85 14 -62 26 -124 30 -154 4 -35 34 -84 69 -113 18 -16 86 -41 110
-41 101 3 186 86 186 181 0 26 -3 58 -5 72 -3 14 -8 36 -11 50 -3 14 -7 35
-10 48 -2 13 -6 31 -9 40 -3 9 -8 32 -11 49 -8 46 -72 256 -102 333 -72 186
-263 523 -332 584 -11 11 -21 22 -21 26 0 17 -175 199 -275 285 -245 212 -571
389 -905 490 -3 1 -12 4 -20 7 -21 8 -138 39 -168 44 -14 3 -29 7 -34 10 -5 3
-23 7 -41 9 -18 2 -43 6 -57 10 -14 3 -41 8 -60 11 -19 3 -46 7 -60 10 -29 5
-116 14 -180 18 -25 1 -65 -4 -88 -12z"/>
<path d="M7198 10090 c-77 -23 -128 -95 -128 -178 0 -58 20 -101 62 -138 40
-33 64 -42 130 -49 29 -4 82 -13 118 -22 36 -8 70 -16 75 -17 6 -1 16 -5 23
-9 6 -5 12 -6 12 -3 0 5 127 -36 165 -53 11 -5 36 -16 55 -24 119 -52 239
-120 314 -178 63 -49 184 -176 223 -234 92 -137 149 -280 168 -425 15 -117 24
-142 69 -185 75 -73 215 -59 273 28 35 53 41 93 26 192 -7 49 -22 123 -33 165
-11 41 -22 82 -24 90 -16 61 -115 270 -128 270 -4 0 -8 5 -8 11 0 28 -117 176
-220 277 -53 52 -222 182 -236 182 -6 0 -19 8 -30 19 -19 17 -226 123 -289
148 -47 18 -211 73 -232 78 -10 2 -46 11 -80 19 -34 9 -75 18 -90 21 -15 2
-38 7 -50 9 -52 11 -140 14 -165 6z"/>
<path d="M5270 9813 c-43 -6 -180 -71 -180 -85 0 -4 -3 -7 -7 -6 -5 1 -39 -18
-78 -43 -66 -42 -216 -136 -260 -162 -11 -7 -34 -22 -52 -34 -17 -13 -35 -23
-39 -23 -4 0 -22 -11 -39 -25 -18 -13 -35 -21 -39 -18 -3 4 -6 1 -6 -5 0 -7
-6 -12 -14 -12 -8 0 -16 -3 -18 -7 -4 -10 -107 -73 -118 -73 -5 0 -10 -4 -12
-8 -1 -4 -86 -59 -188 -122 -102 -62 -188 -118 -191 -123 -3 -5 -9 -8 -13 -8
-3 1 -30 -14 -59 -32 -28 -18 -99 -62 -157 -97 -58 -35 -107 -67 -110 -70 -3
-3 -17 -12 -31 -20 -14 -8 -140 -86 -280 -173 -140 -87 -263 -164 -274 -170
-11 -7 -33 -21 -50 -33 -16 -12 -40 -24 -52 -28 -13 -4 -23 -11 -23 -16 0 -5
-6 -10 -13 -12 -18 -5 -411 -250 -419 -262 -4 -6 -8 -8 -8 -4 0 4 -34 -15 -75
-42 -41 -28 -78 -50 -81 -50 -4 0 -22 -11 -40 -25 -18 -14 -35 -25 -38 -25 -2
0 -32 -18 -65 -40 -33 -22 -62 -40 -65 -40 -2 0 -39 -22 -80 -50 -42 -27 -80
-50 -86 -50 -5 0 -10 -4 -10 -10 0 -5 -4 -10 -9 -10 -5 0 -71 -39 -148 -87
-172 -107 -195 -122 -263 -165 -30 -19 -83 -52 -118 -73 -63 -38 -162 -126
-162 -143 0 -5 -6 -15 -14 -21 -20 -17 -62 -110 -80 -178 -14 -52 -15 -340
-11 -2753 2 -1482 7 -2711 9 -2730 20 -149 90 -256 206 -316 48 -24 66 -28
140 -28 85 0 94 3 213 62 4 2 7 -70 6 -160 -1 -89 1 -179 5 -198 23 -104 117
-224 212 -270 103 -50 233 -54 333 -9 24 10 54 21 65 23 20 4 22 0 20 -34 -1
-21 -4 -43 -8 -49 -4 -6 -2 -11 4 -11 6 0 8 -4 5 -10 -8 -13 -10 -118 -3 -125
3 -3 2 -21 -2 -40 -4 -19 -6 -36 -4 -38 3 -2 7 -25 9 -51 6 -56 46 -157 79
-200 57 -75 103 -113 178 -149 111 -52 224 -56 373 -12 50 15 95 28 100 29 6
1 16 5 23 9 6 5 12 6 12 3 0 -3 19 2 43 10 23 9 53 18 66 20 14 3 28 7 33 10
4 3 16 7 25 9 10 1 97 27 193 55 96 29 183 53 193 53 9 1 17 6 17 11 0 5 3 7
6 3 3 -3 30 3 60 13 30 11 54 17 54 14 0 -3 8 0 18 5 11 6 30 12 43 15 13 3
62 17 109 31 104 31 95 29 150 44 25 7 72 21 105 31 33 10 157 46 275 80 118
34 222 64 230 67 8 3 20 7 25 7 6 1 44 12 85 25 41 13 80 24 85 26 15 3 119
33 230 67 55 16 107 32 115 33 8 2 116 34 240 70 124 37 232 68 240 70 8 2 62
17 120 35 58 17 112 33 120 35 8 2 62 18 120 35 58 17 114 33 125 36 29 7 38
10 55 17 12 5 57 18 115 33 6 1 66 19 135 39 69 21 132 39 140 40 8 2 15 4 15
5 0 1 7 3 15 5 8 2 110 31 225 65 116 34 217 64 225 66 77 21 148 42 160 47
16 6 224 67 250 72 8 2 15 4 15 5 0 1 7 3 15 5 8 1 40 10 70 19 30 10 109 33
175 52 66 20 143 49 172 65 100 57 197 191 220 304 7 37 9 5399 1 5445 -12 75
-15 86 -45 147 -58 119 -199 223 -331 243 -65 10 -142 6 -190 -9 -18 -5 -35
-10 -37 -10 -3 -1 -6 -1 -7 -2 -2 0 -10 -2 -18 -4 -8 -2 -67 -17 -130 -34 -63
-18 -123 -34 -132 -36 -10 -2 -59 -15 -110 -29 -51 -14 -120 -32 -153 -41 -33
-8 -67 -17 -76 -20 -14 -5 -16 45 -15 577 l1 583 -32 66 c-51 104 -123 171
-226 209 -79 30 -219 30 -275 1 -9 -5 -75 -35 -147 -66 -71 -32 -134 -62 -139
-66 -6 -5 -15 -9 -22 -9 -7 0 -54 -20 -105 -44 -201 -95 -412 -187 -416 -182
-3 3 -7 211 -8 463 -2 252 -6 476 -10 498 -11 66 -59 157 -107 208 -75 77
-187 115 -298 100z m45 -919 l2 -527 -66 -29 c-136 -60 -251 -113 -305 -139
-22 -10 -46 -19 -53 -19 -7 0 -13 -4 -13 -10 0 -5 -5 -10 -12 -10 -11 0 -120
-47 -323 -140 -33 -16 -82 -38 -110 -50 -27 -13 -173 -78 -323 -146 -151 -68
-278 -124 -283 -124 -5 0 -9 -5 -9 -10 0 -6 -3 -9 -7 -9 -5 1 -11 0 -15 -1 -5
-1 -11 -3 -15 -4 -5 -1 -28 -12 -53 -25 -25 -13 -45 -23 -45 -21 0 2 -64 -26
-180 -80 -62 -28 -155 -71 -325 -146 -85 -38 -158 -73 -162 -79 -4 -5 -8 -7
-8 -3 0 3 -32 -9 -70 -28 -39 -19 -77 -34 -85 -34 -8 0 -15 -4 -15 -10 0 -5
-7 -10 -15 -10 -8 0 -23 -4 -33 -10 -22 -12 -213 -100 -218 -100 -2 0 -43 -19
-91 -42 -49 -23 -90 -42 -93 -43 -3 -1 -17 -5 -32 -9 -16 -5 -28 -12 -28 -16
0 -8 -49 -25 -63 -22 -4 1 -7 -3 -7 -8 0 -6 -5 -10 -11 -10 -6 0 -54 -21 -107
-46 -192 -92 -293 -237 -308 -439 -3 -47 -6 -267 -19 -1410 -2 -247 -7 -628
-10 -845 -3 -217 -8 -559 -10 -760 -2 -201 -7 -601 -10 -890 -4 -289 -7 -582
-8 -651 l-1 -125 -100 -62 c-55 -34 -101 -60 -104 -58 -2 3 -5 1003 -6 2224
-2 1220 -6 2224 -10 2230 -4 7 -4 12 1 12 9 0 9 417 0 426 -3 3 -2 17 3 29 5
14 5 37 0 54 -4 16 -6 32 -3 35 8 8 7 102 -1 115 -4 5 -3 12 2 15 5 3 7 17 6
33 -2 15 -5 45 -7 66 -2 20 -1 37 2 37 3 0 6 22 7 49 1 80 23 100 321 286 147
92 277 172 288 178 11 7 53 33 94 60 40 26 76 47 78 47 2 0 35 20 73 45 38 25
74 45 79 45 6 0 11 4 11 9 0 5 8 11 18 15 17 5 53 26 62 36 3 3 93 59 200 125
107 66 197 122 200 125 3 4 12 10 20 14 20 9 46 25 110 66 31 19 64 40 75 47
11 6 63 38 115 71 52 33 194 121 315 195 121 75 225 140 230 145 6 4 26 17 45
28 19 10 39 23 45 27 5 5 93 60 195 122 102 63 199 123 215 133 95 61 806 502
835 518 19 10 38 23 41 27 8 11 73 44 78 40 3 -2 5 -240 6 -529z m1371 -931
c-2 -456 -6 -587 -15 -593 -11 -6 -372 -105 -424 -115 -9 -2 -21 -6 -25 -9 -5
-3 -22 -8 -38 -11 -39 -8 -59 -13 -59 -15 0 -2 -13 -5 -51 -14 -12 -2 -73 -19
-135 -36 -63 -18 -125 -34 -137 -36 -13 -3 -41 -11 -63 -18 -28 -10 -39 -10
-40 -2 0 6 -3 237 -5 512 l-4 502 44 20 c24 12 88 41 142 65 55 25 126 57 159
73 33 15 62 29 65 29 11 3 64 26 128 56 73 34 118 54 202 92 30 14 84 38 120
54 110 50 114 51 127 41 9 -7 11 -155 9 -595z m-1361 -483 c0 -253 -1 -464 -4
-469 -5 -8 -128 -45 -181 -55 -8 -2 -22 -6 -30 -9 -8 -4 -51 -15 -95 -26 -44
-11 -163 -43 -265 -71 -102 -28 -192 -53 -200 -55 -8 -2 -51 -13 -95 -25 -203
-54 -342 -91 -359 -95 -10 -2 -33 -9 -51 -15 -18 -6 -42 -13 -55 -15 -26 -5
-369 -98 -445 -120 -27 -9 -59 -17 -70 -19 -11 -2 -40 -9 -65 -16 -25 -7 -52
-14 -60 -16 -8 -1 -89 -24 -180 -49 -91 -26 -174 -48 -185 -49 -11 -2 -20 -4
-20 -5 0 -2 -7 -4 -15 -6 -217 -53 -283 -82 -364 -162 -53 -52 -110 -151 -120
-208 -3 -17 -8 -41 -11 -54 -4 -23 -8 -327 -20 -1646 -2 -225 -6 -723 -10
-1105 -4 -382 -8 -759 -8 -838 -2 -126 -4 -143 -19 -148 -10 -3 -18 -10 -18
-15 0 -5 -4 -9 -10 -9 -5 0 -40 -19 -77 -43 -38 -24 -85 -53 -106 -66 l-38
-23 5 423 c3 233 8 640 11 904 3 264 7 635 10 825 5 389 15 1304 19 1693 2
141 6 260 9 264 4 3 4 11 0 16 -6 10 -6 95 1 273 1 42 8 79 17 92 17 23 70 68
79 65 3 -1 30 10 60 24 30 14 96 43 145 65 50 22 117 52 150 68 33 15 76 35
95 43 19 8 79 36 133 61 54 25 101 46 105 46 3 0 33 13 66 29 34 16 108 50
166 76 58 26 137 62 177 81 39 19 74 34 77 34 3 0 41 16 83 36 156 72 181 83
326 148 81 36 152 66 157 66 6 0 10 5 10 10 0 6 6 10 13 10 7 0 31 8 53 19 21
10 59 28 84 39 113 50 150 67 228 103 46 22 86 39 88 39 2 0 47 20 100 45 52
25 97 45 99 45 3 0 96 42 200 90 158 73 220 100 231 100 8 0 14 5 14 10 0 6 6
10 13 10 6 0 39 13 72 29 34 17 64 26 69 21 5 -5 10 -212 11 -470z m2561 -193
c51 -17 48 135 49 -2724 0 -2466 -1 -2668 -17 -2693 -12 -21 -34 -33 -90 -50
-40 -13 -78 -24 -85 -26 -12 -2 -134 -38 -185 -54 -16 -5 -28 -6 -28 -3 0 3
-6 1 -12 -5 -7 -5 -29 -13 -48 -18 -19 -4 -39 -9 -45 -10 -5 -1 -29 -9 -52
-18 -24 -8 -43 -13 -43 -9 0 3 -7 0 -15 -7 -8 -6 -19 -9 -25 -5 -5 3 -10 1
-10 -5 0 -6 -4 -9 -10 -5 -5 3 -17 1 -27 -4 -15 -8 -232 -73 -290 -86 -10 -2
-101 -29 -203 -60 -102 -31 -194 -57 -205 -58 -12 -2 -25 -6 -30 -9 -6 -3 -37
-13 -70 -22 -33 -9 -64 -18 -70 -20 -5 -2 -13 -4 -17 -5 -4 -1 -38 -11 -75
-22 -143 -43 -178 -53 -223 -64 -8 -2 -16 -4 -17 -5 -2 -2 -6 -3 -10 -5 -5 -1
-15 -4 -23 -7 -20 -8 -103 -29 -115 -30 -5 0 -31 -9 -57 -19 -27 -10 -48 -16
-48 -14 0 3 -16 -1 -35 -9 -19 -8 -35 -13 -35 -10 0 3 -8 0 -18 -5 -11 -6 -30
-12 -43 -15 -21 -5 -213 -61 -402 -117 -37 -12 -75 -22 -85 -24 -9 -2 -18 -4
-19 -5 -2 -2 -6 -3 -10 -4 -33 -9 -106 -30 -144 -43 -25 -8 -52 -16 -60 -17
-8 -2 -21 -6 -29 -9 -8 -3 -42 -13 -75 -22 -65 -18 -90 -25 -175 -50 -30 -9
-59 -17 -65 -19 -34 -9 -132 -38 -145 -43 -8 -3 -20 -7 -26 -8 -7 -2 -54 -15
-105 -30 -52 -15 -98 -28 -104 -30 -5 -1 -17 -5 -25 -8 -21 -8 -190 -57 -219
-63 -14 -3 -28 -7 -33 -10 -4 -3 -16 -7 -25 -9 -10 -1 -45 -11 -78 -21 -33
-10 -62 -19 -65 -19 -3 -1 -25 -8 -50 -15 -25 -8 -49 -15 -55 -15 -5 -1 -44
-12 -85 -25 -78 -24 -82 -26 -115 -34 -34 -8 -269 -77 -285 -83 -8 -3 -20 -7
-27 -9 -7 -1 -68 -18 -135 -38 -180 -52 -183 -52 -219 -17 l-30 30 2 255 3
254 100 48 c56 26 103 48 106 48 3 1 34 15 70 33 36 17 112 52 170 78 58 26
123 56 145 68 22 11 41 19 42 19 2 -1 34 14 72 33 38 19 71 35 74 35 2 0 56
24 118 53 163 77 208 98 359 167 74 34 167 77 205 95 39 18 111 52 160 76 50
23 95 43 100 45 6 1 64 28 130 59 121 57 210 99 275 128 19 8 85 39 145 67 61
29 133 62 160 75 28 12 70 31 95 42 25 12 52 24 60 27 8 3 22 10 30 15 8 5 35
18 60 29 44 20 147 68 265 122 33 15 101 47 150 70 50 23 119 56 155 72 36 16
88 40 115 53 262 122 343 159 400 185 232 105 293 141 356 207 40 42 105 153
113 193 2 14 9 44 14 67 5 24 11 247 12 500 1 252 3 681 4 954 2 272 6 501 10
507 4 7 4 12 -1 12 -9 0 -8 124 2 139 3 6 2 11 -2 11 -10 0 -10 47 0 56 3 3 2
17 -3 30 -5 13 -6 26 0 29 5 3 5 18 1 33 -5 15 -5 36 -1 47 4 11 3 28 -2 38
-5 9 -5 17 -1 17 9 0 9 57 0 66 -4 4 -4 11 0 17 3 5 7 338 9 740 2 420 7 734
12 739 5 5 49 20 98 33 184 48 659 177 662 179 4 5 46 0 68 -7z m-1211 -996
c-6 -1074 -16 -2594 -19 -2861 -2 -219 -4 -248 -21 -273 -17 -26 -80 -60 -277
-151 -32 -14 -82 -37 -112 -51 -30 -14 -65 -30 -78 -35 -13 -5 -30 -14 -38
-19 -8 -5 -64 -31 -125 -59 -118 -54 -188 -86 -330 -152 -49 -23 -126 -58
-170 -78 -44 -20 -83 -40 -86 -45 -3 -5 -10 -9 -15 -9 -17 -1 -51 -13 -74 -27
-15 -9 -63 -31 -185 -86 -33 -15 -107 -49 -163 -76 -57 -27 -110 -49 -118 -49
-8 0 -14 -3 -14 -8 0 -4 -15 -13 -32 -21 -50 -22 -143 -64 -251 -115 -55 -25
-101 -46 -103 -46 -2 0 -35 -15 -73 -34 -38 -19 -72 -31 -75 -28 -3 3 -6 0 -6
-6 0 -7 -4 -12 -9 -12 -6 0 -62 -25 -126 -55 -65 -30 -119 -55 -121 -55 -2 0
-65 -29 -139 -65 -75 -36 -137 -65 -139 -65 -2 0 -53 -23 -112 -51 -60 -28
-123 -57 -141 -65 -35 -16 -156 -72 -278 -129 -44 -21 -108 -50 -142 -66 -35
-16 -93 -43 -130 -61 -38 -17 -70 -32 -73 -33 -6 -1 -102 -46 -113 -52 -5 -3
-7 142 -6 322 l3 327 74 49 c40 27 75 49 78 49 2 0 35 20 72 44 37 24 171 108
297 186 127 78 246 152 265 165 19 12 53 33 75 46 22 13 46 29 53 36 7 7 19
13 26 13 7 0 21 9 31 20 10 11 22 20 26 20 5 0 53 28 106 62 54 33 114 71 133
83 19 12 67 42 105 67 39 24 93 58 120 73 28 16 52 32 55 35 10 11 112 70 121
70 5 0 9 4 9 9 0 5 8 11 18 15 9 3 29 14 44 23 14 10 48 31 75 47 26 16 50 32
53 35 3 3 14 11 25 17 38 21 69 39 79 47 11 8 383 240 537 336 46 28 93 57
104 64 149 93 205 138 252 208 27 40 65 115 63 121 -1 2 4 17 10 33 21 55 23
98 21 610 -1 281 -3 876 -4 1324 l-2 814 80 22 c117 33 347 95 368 100 62 14
485 129 497 136 8 4 18 3 22 -4 3 -6 5 -315 3 -686z m-1345 92 c1 -131 3 -506
5 -833 10 -1527 10 -1451 -10 -1493 -9 -21 -29 -46 -44 -57 -14 -11 -31 -24
-38 -30 -7 -5 -16 -10 -21 -10 -4 0 -17 -7 -27 -15 -11 -9 -87 -57 -170 -108
-82 -51 -175 -108 -205 -128 -30 -19 -71 -44 -90 -55 -19 -10 -37 -21 -40 -25
-5 -4 -136 -86 -310 -192 -36 -22 -68 -45 -72 -51 -4 -6 -8 -7 -8 -3 0 4 -15
-3 -33 -17 -19 -15 -39 -26 -45 -26 -7 0 -12 -4 -12 -9 0 -5 -10 -13 -22 -17
-12 -3 -28 -12 -34 -18 -7 -6 -35 -24 -63 -41 -28 -16 -81 -49 -117 -72 -36
-24 -70 -43 -75 -43 -5 0 -9 -4 -9 -10 0 -5 -4 -10 -10 -10 -5 0 -102 -59
-216 -130 -113 -72 -210 -130 -215 -130 -5 0 -9 -4 -9 -10 0 -5 -4 -10 -10
-10 -5 0 -52 -26 -102 -59 -51 -32 -149 -93 -218 -136 -139 -86 -169 -105
-252 -158 -32 -20 -60 -37 -63 -37 -3 0 -4 252 -3 560 2 308 5 560 8 560 7 0
4 69 -3 76 -3 3 -1 19 3 35 5 16 5 31 1 33 -5 4 -7 61 -1 61 1 0 3 218 6 485
2 267 6 681 8 920 3 239 5 501 5 582 1 188 0 186 161 229 63 16 122 33 130 36
8 3 18 6 21 5 4 -1 22 3 40 9 28 8 236 64 274 74 6 1 17 5 25 8 12 5 343 94
420 113 23 5 116 30 205 54 44 12 87 23 95 25 8 2 49 14 90 25 41 12 82 23 90
25 8 2 59 15 113 30 53 14 105 28 115 30 9 2 42 11 72 20 30 9 63 18 73 20 34
8 322 85 352 94 28 9 101 29 135 37 8 2 29 7 45 13 58 18 55 30 55 -226z
m-2922 -4903 c-1 -160 -5 -294 -8 -299 -8 -13 -220 -111 -240 -111 -24 0 -27
12 -24 110 2 47 4 160 5 252 2 92 5 172 8 176 3 5 35 26 71 47 36 22 90 56
120 77 30 20 59 37 63 37 4 1 7 -130 5 -289z"/>
<path d="M7139 9512 c-120 -56 -149 -211 -56 -300 40 -39 75 -52 151 -57 55
-4 205 -42 216 -54 3 -3 26 -17 51 -30 55 -29 151 -106 142 -115 -4 -3 -1 -6
5 -6 12 0 75 -82 103 -135 21 -39 56 -141 62 -181 13 -91 100 -165 185 -158
12 1 30 2 40 3 35 2 102 55 122 97 25 52 25 100 -1 200 -22 86 -35 117 -81
209 -128 249 -369 441 -643 510 -124 32 -249 39 -296 17z"/>
</g>
</svg>
